<?xml version="1.0" encoding="utf-8"?>
<!-- Generator: Adobe Illustrator 22.0.0, SVG Export Plug-In . SVG Version: 6.00 Build 0)  -->
<svg version="1.1" id="Layer_1" xmlns="http://www.w3.org/2000/svg" xmlns:xlink="http://www.w3.org/1999/xlink" x="0px" y="0px"
	 viewBox="0 0 225.3 148.5" style="enable-background:new 0 0 225.3 148.5;" xml:space="preserve">
<style type="text/css">
	.st0{fill:#FFFFFF;fill-opacity:0;}
	.st1{opacity:3.000000e-02;fill:#FCFCFC;enable-background:new    ;}
	.st2{opacity:6.000000e-02;fill:#F9F9F9;enable-background:new    ;}
	.st3{opacity:9.000000e-02;fill:#F5F5F5;enable-background:new    ;}
	.st4{opacity:0.12;fill:#F2F2F2;enable-background:new    ;}
	.st5{opacity:0.15;fill:#EFEFEF;enable-background:new    ;}
	.st6{opacity:0.18;fill:#ECECEC;enable-background:new    ;}
	.st7{opacity:0.21;fill:#E8E8E8;enable-background:new    ;}
	.st8{opacity:0.24;fill:#E5E5E5;enable-background:new    ;}
	.st9{opacity:0.27;fill:#E2E2E2;enable-background:new    ;}
	.st10{opacity:0.3;fill:#DFDFDF;enable-background:new    ;}
	.st11{opacity:0.33;fill:#DBDBDB;enable-background:new    ;}
	.st12{opacity:0.36;fill:#D8D8D8;enable-background:new    ;}
	.st13{opacity:0.39;fill:#D5D5D5;enable-background:new    ;}
	.st14{opacity:0.42;fill:#D2D2D2;enable-background:new    ;}
	.st15{opacity:0.45;fill:#CECECE;enable-background:new    ;}
	.st16{opacity:0.48;fill:#CBCBCB;enable-background:new    ;}
	.st17{opacity:0.52;fill:#C8C8C8;enable-background:new    ;}
	.st18{opacity:0.55;fill:#C5C5C5;enable-background:new    ;}
	.st19{opacity:0.58;fill:#C1C1C1;enable-background:new    ;}
	.st20{opacity:0.61;fill:#BEBEBE;enable-background:new    ;}
	.st21{opacity:0.64;fill:#BBBBBB;enable-background:new    ;}
	.st22{opacity:0.67;fill:#B8B8B8;enable-background:new    ;}
	.st23{opacity:0.7;fill:#B4B4B4;enable-background:new    ;}
	.st24{opacity:0.73;fill:#B1B1B1;enable-background:new    ;}
	.st25{opacity:0.76;fill:#AEAEAE;enable-background:new    ;}
	.st26{opacity:0.79;fill:#ABABAB;enable-background:new    ;}
	.st27{opacity:0.82;fill:#A7A7A7;enable-background:new    ;}
	.st28{opacity:0.85;fill:#A4A4A4;enable-background:new    ;}
	.st29{opacity:0.88;fill:#A1A1A1;enable-background:new    ;}
	.st30{opacity:0.91;fill:#9E9E9E;enable-background:new    ;}
	.st31{opacity:0.94;fill:#9A9A9A;enable-background:new    ;}
	.st32{opacity:0.97;fill:#979797;enable-background:new    ;}
	.st33{fill:#949494;}
	.st34{fill:url(#SVGID_1_);}
	.st35{fill:#EF5619;}
	.st36{clip-path:url(#SVGID_3_);}
	.st37{fill:#D45B5B;}
	.st38{fill:#E8E8E8;}
	.st39{fill:url(#SVGID_4_);}
	.st40{fill:#FFFFFF;}
	.st41{fill:#D6D6D6;}
	.st42{fill:#363636;}
	.st43{fill:#17C700;}
	.st44{fill:#FFCC00;}
	.st45{fill:#FF3D3D;}
</style>
<title>Asset 10</title>
<g>
	<g id="Layer_2_1_">
		<g id="Layer_1-2">
			<g>
				<path class="st0" d="M196.1,63.5C157.2,41,117,41,78.1,63.5l0,0C58.6,74.7,48.9,86.2,48.9,97.6s9.7,22.8,29.2,34.1
					c38.9,22.5,79.1,22.5,118,0c19.5-11.2,29.2-22.7,29.2-34.1S215.6,74.7,196.1,63.5z"/>
				<path class="st1" d="M194.6,63.5c-38.9-22.5-79.1-22.5-118,0l0,0C57.2,74.7,47.4,86.2,47.4,97.6s9.7,22.8,29.2,34.1
					c38.9,22.5,79.1,22.5,118,0c19.5-11.2,29.2-22.6,29.2-34.1S214.1,74.7,194.6,63.5z"/>
				<path class="st2" d="M193.2,63.5c-38.9-22.5-79.1-22.5-118,0l0,0C55.7,74.7,46,86.2,46,97.6s9.7,22.8,29.2,34.1
					c38.9,22.5,79.1,22.5,118,0c19.5-11.2,29.2-22.7,29.2-34.1S212.6,74.7,193.2,63.5z"/>
				<path class="st3" d="M191.7,63.5c-38.9-22.5-79.1-22.5-118,0l0,0C54.2,74.7,44.5,86.2,44.5,97.6s9.7,22.8,29.2,34.1
					c38.9,22.5,79.1,22.5,118,0c19.5-11.2,29.2-22.7,29.2-34.1S211.1,74.7,191.7,63.5z"/>
				<path class="st4" d="M190.2,63.5c-38.9-22.5-79.1-22.5-118,0l0,0C52.7,74.7,43,86.2,43,97.6s9.7,22.8,29.2,34.1
					c38.9,22.5,79.1,22.5,118,0c19.5-11.2,29.2-22.7,29.2-34.1S209.6,74.7,190.2,63.5z"/>
				<path class="st5" d="M188.7,63.5c-38.9-22.5-79.1-22.5-118,0l0,0C51.2,74.7,41.5,86.2,41.5,97.6s9.7,22.8,29.2,34.1
					c38.9,22.5,79.1,22.5,118,0c19.5-11.2,29.2-22.6,29.2-34.1S208.2,74.7,188.7,63.5z"/>
				<path class="st6" d="M187.2,63.5c-38.9-22.5-79.1-22.5-118,0l0,0C49.8,74.7,40,86.2,40,97.6s9.7,22.8,29.2,34.1
					c38.9,22.5,79.1,22.5,118,0c19.5-11.2,29.2-22.7,29.2-34.1S206.7,74.7,187.2,63.5z"/>
				<path class="st7" d="M185.8,63.5c-38.9-22.5-79.1-22.5-118,0l0,0C48.3,74.7,38.5,86.2,38.5,97.6s9.7,22.8,29.2,34.1
					c38.9,22.5,79.1,22.5,118,0c19.5-11.2,29.2-22.7,29.2-34.1S205.2,74.7,185.8,63.5z"/>
				<path class="st8" d="M184.3,63.5c-38.9-22.5-79.1-22.5-118,0l0,0C46.8,74.7,37,86.2,37,97.6s9.7,22.8,29.2,34.1
					c38.9,22.5,79.1,22.5,118,0c19.5-11.2,29.2-22.7,29.2-34.1S203.7,74.7,184.3,63.5z"/>
				<path class="st9" d="M182.8,63.5c-38.9-22.5-79.1-22.5-118,0l0,0C45.3,74.7,35.6,86.2,35.6,97.6s9.7,22.8,29.2,34.1
					c38.9,22.5,79.1,22.5,118,0C202.2,120.4,212,109,212,97.6S202.2,74.7,182.8,63.5z"/>
				<path class="st10" d="M181.3,63.5c-38.9-22.5-79.1-22.5-118,0l0,0C43.8,74.7,34.1,86.2,34.1,97.6s9.7,22.8,29.2,34.1
					c38.9,22.5,79.1,22.5,118,0c19.5-11.2,29.2-22.7,29.2-34.1S200.8,74.7,181.3,63.5z"/>
				<path class="st11" d="M179.8,63.5c-38.9-22.5-79.1-22.5-118,0l0,0C42.3,74.7,32.6,86.2,32.6,97.6s9.7,22.8,29.2,34.1
					c38.9,22.5,79.1,22.5,118,0C199.3,120.4,209,109,209,97.6S199.3,74.7,179.8,63.5z"/>
				<path class="st12" d="M178.3,63.5c-38.9-22.5-79.1-22.5-118,0l0,0C40.8,74.7,31.1,86.2,31.1,97.6s9.7,22.8,29.2,34.1
					c38.9,22.5,79.1,22.5,118,0c19.5-11.2,29.2-22.6,29.2-34.1S197.8,74.7,178.3,63.5z"/>
				<path class="st13" d="M176.9,63.5c-38.9-22.5-79.1-22.5-118,0l0,0C39.4,74.7,29.6,86.2,29.6,97.6s9.7,22.8,29.2,34.1
					c38.9,22.5,79.1,22.5,118,0C196.3,120.4,206,109,206,97.6S196.3,74.7,176.9,63.5z"/>
				<path class="st14" d="M175.4,63.5c-38.9-22.5-79.1-22.5-118,0l0,0C37.9,74.7,28.2,86.2,28.2,97.6s9.7,22.8,29.2,34.1
					c38.9,22.5,79.1,22.5,118,0c19.5-11.2,29.2-22.7,29.2-34.1S194.8,74.7,175.4,63.5z"/>
				<path class="st15" d="M173.9,63.5C135,41,94.8,41,55.9,63.5l0,0C36.4,74.7,26.7,86.2,26.7,97.6s9.7,22.8,29.2,34.1
					c38.9,22.5,79.1,22.5,118,0c19.5-11.2,29.2-22.7,29.2-34.1S193.4,74.7,173.9,63.5z"/>
				<path class="st16" d="M172.4,63.5c-38.9-22.5-79.1-22.5-118,0l0,0C34.9,74.7,25.2,86.2,25.2,97.6s9.7,22.8,29.2,34.1
					c38.9,22.5,79.1,22.5,118,0c19.5-11.2,29.2-22.6,29.2-34.1S191.9,74.7,172.4,63.5z"/>
				<path class="st17" d="M170.9,63.5C132,41,91.8,41,52.9,63.5l0,0C33.4,74.7,23.7,86.2,23.7,97.6s9.7,22.8,29.2,34.1
					c38.9,22.5,79.1,22.5,118,0c19.5-11.2,29.2-22.7,29.2-34.1S190.4,74.7,170.9,63.5z"/>
				<path class="st18" d="M169.4,63.5c-38.9-22.5-79.1-22.5-118,0l0,0C32,74.7,22.2,86.2,22.2,97.6s9.8,22.8,29.2,34.1
					c38.9,22.5,79.1,22.5,118,0c19.5-11.2,29.2-22.7,29.2-34.1S188.9,74.7,169.4,63.5z"/>
				<path class="st19" d="M168,63.5C129,41,88.9,41,49.9,63.5l0,0C30.5,74.7,20.8,86.2,20.8,97.6s9.7,22.8,29.2,34.1
					c38.9,22.5,79.1,22.5,118,0c19.5-11.2,29.2-22.7,29.2-34.1S187.4,74.7,168,63.5z"/>
				<path class="st20" d="M166.5,63.5c-38.9-22.5-79.1-22.5-118,0l0,0C29,74.7,19.3,86.2,19.3,97.6s9.7,22.8,29.2,34.1
					c38.9,22.5,79.1,22.5,118,0c19.5-11.2,29.2-22.7,29.2-34.1S185.9,74.7,166.5,63.5z"/>
				<path class="st21" d="M165,63.5C126.1,41,85.9,41,47,63.5l0,0C27.5,74.7,17.8,86.2,17.8,97.6s9.7,22.8,29.2,34.1
					c38.9,22.5,79.1,22.5,118,0c19.5-11.2,29.2-22.7,29.2-34.1S184.5,74.7,165,63.5z"/>
				<path class="st22" d="M163.5,63.5c-38.9-22.5-79.1-22.5-118,0l0,0C26,74.7,16.3,86.2,16.3,97.6s9.7,22.8,29.2,34.1
					c38.9,22.5,79.1,22.5,118,0c19.5-11.2,29.2-22.6,29.2-34.1S183,74.7,163.5,63.5z"/>
				<path class="st23" d="M162,63.5C123.1,41,82.9,41,44,63.5l0,0C24.5,74.7,14.8,86.2,14.8,97.6s9.7,22.8,29.2,34.1
					c38.9,22.5,79.1,22.5,118,0c19.5-11.2,29.2-22.7,29.2-34.1S181.5,74.7,162,63.5z"/>
				<path class="st24" d="M160.6,63.5c-38.9-22.5-79.1-22.5-118,0l0,0C23.1,74.7,13.3,86.2,13.3,97.6s9.7,22.8,29.2,34.1
					c38.9,22.5,79.1,22.5,118,0c19.5-11.2,29.2-22.6,29.2-34.1S180,74.7,160.6,63.5z"/>
				<path class="st25" d="M159.1,63.5C120.1,41,80,41,41,63.5l0,0C21.6,74.7,11.9,86.2,11.9,97.6s9.7,22.8,29.2,34.1
					c38.9,22.5,79.1,22.5,118,0c19.5-11.2,29.2-22.7,29.2-34.1S178.5,74.7,159.1,63.5z"/>
				<path class="st26" d="M157.6,63.5c-38.9-22.5-79.1-22.5-118,0l0,0C20.1,74.7,10.4,86.2,10.4,97.6s9.7,22.8,29.2,34.1
					c38.9,22.5,79.1,22.5,118,0c19.5-11.2,29.2-22.7,29.2-34.1S177.1,74.7,157.6,63.5z"/>
				<path class="st27" d="M156.1,63.5C117.2,41,77,41,38.1,63.5l0,0C18.6,74.7,8.9,86.2,8.9,97.6s9.7,22.8,29.2,34.1
					c38.9,22.5,79.1,22.5,118,0c19.5-11.2,29.2-22.7,29.2-34.1S175.6,74.7,156.1,63.5z"/>
				<path class="st28" d="M154.6,63.5c-38.9-22.5-79.1-22.5-118,0l0,0C17.1,74.7,7.4,86.2,7.4,97.6s9.7,22.8,29.2,34.1
					c38.9,22.5,79.1,22.5,118,0c19.5-11.2,29.2-22.7,29.2-34.1S174.1,74.7,154.6,63.5z"/>
				<path class="st29" d="M153.1,63.5c-38.9-22.5-79.1-22.5-118,0l0,0C15.7,74.7,5.9,86.2,5.9,97.6s9.7,22.8,29.2,34.1
					c38.9,22.5,79.1,22.5,118,0c19.5-11.2,29.2-22.6,29.2-34.1S172.6,74.7,153.1,63.5z"/>
				<path class="st30" d="M151.7,63.5c-38.9-22.5-79.1-22.5-118,0l0,0C14.2,74.7,4.4,86.2,4.4,97.6s9.7,22.8,29.2,34.1
					c38.9,22.5,79.1,22.5,118,0c19.5-11.2,29.2-22.7,29.2-34.1S171.1,74.7,151.7,63.5z"/>
				<path class="st31" d="M150.2,63.5c-38.9-22.5-79.1-22.5-118,0l0,0C12.7,74.7,3,86.2,3,97.6s9.7,22.8,29.2,34.1
					c38.9,22.5,79.1,22.5,118,0c19.5-11.2,29.2-22.7,29.2-34.1S169.6,74.7,150.2,63.5z"/>
				<path class="st32" d="M148.7,63.5c-38.9-22.5-79.1-22.5-118,0l0,0C11.2,74.7,1.5,86.2,1.5,97.6s9.7,22.8,29.2,34.1
					c38.9,22.5,79.1,22.5,118,0c19.5-11.2,29.2-22.7,29.2-34.1S168.2,74.7,148.7,63.5z"/>
				<path class="st33" d="M147.2,63.5c-38.9-22.5-79.1-22.5-118,0l0,0C9.7,74.7,0,86.2,0,97.6s9.7,22.8,29.2,34.1
					c38.9,22.5,79.1,22.5,118,0c19.5-11.2,29.2-22.6,29.2-34.1S166.7,74.7,147.2,63.5z"/>
			</g>
			
				<linearGradient id="SVGID_1_" gradientUnits="userSpaceOnUse" x1="0" y1="35.475" x2="176.4" y2="35.475" gradientTransform="matrix(1 0 0 -1 0 150)">
				<stop  offset="0" style="stop-color:#FF682B"/>
				<stop  offset="7.000000e-02" style="stop-color:#FF6B2E"/>
				<stop  offset="0.3" style="stop-color:#FF6D31"/>
				<stop  offset="0.55" style="stop-color:#F65D21"/>
				<stop  offset="0.74" style="stop-color:#F3571B"/>
				<stop  offset="1" style="stop-color:#C93000"/>
			</linearGradient>
			<path class="st34" d="M147.2,114.6c-38.9,22.5-79.1,22.5-118,0C9.7,103.4,0,92,0,80.6v17c0,11.4,9.7,22.8,29.2,34.1
				c38.9,22.5,79.1,22.5,118,0c19.5-11.2,29.2-22.6,29.2-34.1v-17C176.4,92,166.7,103.4,147.2,114.6z"/>
			<path class="st35" d="M147.2,46.5c-38.9-22.5-79.1-22.5-118,0l0,0C9.7,57.7,0,69.2,0,80.6s9.7,22.8,29.2,34.1
				c38.9,22.5,79.1,22.5,118,0c19.5-11.2,29.2-22.6,29.2-34.1S166.7,57.7,147.2,46.5z"/>
			<g>
				<defs>
					<path id="SVGID_2_" d="M147.2,46.5c-38.9-22.5-79.1-22.5-118,0l0,0C9.7,57.7,0,69.2,0,80.6s9.7,22.8,29.2,34.1
						c38.9,22.5,79.1,22.5,118,0c19.5-11.2,29.2-22.6,29.2-34.1S166.7,57.7,147.2,46.5z"/>
				</defs>
				<clipPath id="SVGID_3_">
					<use xlink:href="#SVGID_2_"  style="overflow:visible;"/>
				</clipPath>
				<g class="st36">
					<g>
						<path class="st0" d="M130.4,77l47.6,27.5c2.6,1.5,5.1,1.7,6.8,0.7c0.4-0.3,0.8-0.6,1.2-1c-0.3,0.4-0.7,0.7-1.2,1l14-8.1
							c1.8-1,2.8-3.2,2.8-6.2V50.4l0,0v-4.9c0-6.1-4.3-13.6-9.6-16.7L144.4,1.3c-2.6-1.5-5.1-1.7-6.8-0.7l-14,8.1l0,0
							c-0.4,0.3-0.8,0.6-1.2,1c-0.1,0.1-0.2,0.3-0.3,0.5c-0.9,1.4-1.4,3.1-1.3,4.8l0,0v45.4C120.8,66.5,125.1,74,130.4,77z"/>
						<path class="st37" d="M57,77l47.6,27.5c2.7,1.5,5.1,1.7,6.8,0.7c0.4-0.3,0.8-0.6,1.2-1c-0.3,0.4-0.7,0.7-1.2,1l14-8.1
							c1.7-1,2.8-3.2,2.8-6.2V50.4l0,0v-4.9c0-6.1-4.3-13.6-9.6-16.7L71,1.3c-2.7-1.5-5.1-1.7-6.8-0.7l-14,8.1l0,0
							c-0.4,0.3-0.8,0.6-1.2,1c-0.1,0.1-0.2,0.3-0.3,0.5c-0.9,1.4-1.4,3.1-1.3,4.8l0,0v45.4C47.4,66.5,51.7,74,57,77z"/>
					</g>
				</g>
			</g>
			<path class="st38" d="M114.3,61.9V99c0,3.1-1.1,5.2-2.8,6.2l14-8.1c1.7-1,2.8-3.2,2.8-6.2V53.8L114.3,61.9z"/>
			
				<linearGradient id="SVGID_4_" gradientUnits="userSpaceOnUse" x1="72.478" y1="154.1717" x2="111.5211" y2="86.5362" gradientTransform="matrix(1 0 0 -1 0 150)">
				<stop  offset="0" style="stop-color:#676767"/>
				<stop  offset="7.000000e-02" style="stop-color:#595959"/>
				<stop  offset="0.17" style="stop-color:#505050"/>
				<stop  offset="0.3" style="stop-color:#4D4D4D"/>
				<stop  offset="0.74" style="stop-color:#494949"/>
				<stop  offset="1" style="stop-color:#040404"/>
			</linearGradient>
			<path class="st39" d="M128.2,45.5c0-6.1-4.3-13.6-9.6-16.7L71,1.3c-2.7-1.5-5.1-1.7-6.8-0.7l-14,8.1c1.7-1,4.2-0.9,6.8,0.7
				l47.6,27.5c5.3,3.1,9.6,10.6,9.6,16.7v5l0,0v3.4l14-8.1v-3.4l0,0V45.5z"/>
			<path class="st40" d="M104.6,36.8L57,9.4c-2.6-1.5-5-1.7-6.8-0.7s-2.8,3.2-2.8,6.2v45.4c0,6.1,4.3,13.7,9.6,16.7l47.6,27.5
				c2.7,1.5,5.1,1.7,6.8,0.7s2.8-3.2,2.8-6.2V53.5C114.3,47.4,109.9,39.9,104.6,36.8z"/>
			<polygon class="st41" points="76.2,49.9 103.4,65.6 103.4,62.5 76.2,46.8 			"/>
			<polygon class="st41" points="76.2,55.2 103.4,71 103.4,67.9 76.2,52.2 			"/>
			<polygon class="st41" points="76.2,60.6 103.4,76.3 103.4,73.3 76.2,57.5 			"/>
			<polygon class="st41" points="76.2,66 103.4,81.7 103.4,78.7 76.2,62.9 			"/>
			<polygon class="st41" points="58.2,61 103.4,87.1 103.4,84 58.2,57.9 			"/>
			<polygon class="st41" points="58.2,66.3 103.4,92.5 103.4,89.4 58.2,63.3 			"/>
			<polygon class="st41" points="58.2,55.6 73.8,64.6 73.8,45.4 58.2,36.4 			"/>
			<path class="st42" d="M114.3,58.5v-5c0-6.1-4.3-13.6-9.6-16.7L57,9.4c-2.6-1.5-5-1.7-6.8-0.7s-2.8,3.2-2.8,6.2v8.4l66.9,38.6
				V58.5z"/>
			<path class="st43" d="M76.8,35.7c2,1.2,3.7,0.4,4-1.7c0-0.2,0-0.4,0-0.6c0-0.1,0-0.2,0-0.3c-0.3-2.7-1.7-5.2-4-6.7
				c-2.1-1.2-3.8-0.3-4,1.9c0,0.1,0,0.3,0,0.4c0,0.2,0,0.3,0,0.5C73.1,31.9,74.6,34.2,76.8,35.7z"/>
			<path class="st44" d="M66.4,29.7c2.1,1.2,3.8,0.4,4-1.9c0-0.1,0-0.3,0-0.5s0-0.3,0-0.4c-0.3-2.7-1.8-5.1-4-6.6
				c-2.1-1.2-3.8-0.3-4,1.9c0,0.1,0,0.3,0,0.4s0,0.3,0,0.5C62.7,25.8,64.1,28.2,66.4,29.7z"/>
			<path class="st45" d="M55.9,23.7c2.1,1.2,3.8,0.4,4-1.9c0-0.2,0-0.3,0-0.5s0-0.3,0-0.4c-0.3-2.7-1.8-5.1-4-6.6
				c-2.1-1.2-3.8-0.4-4,1.9c0,0.1,0,0.3,0,0.4s0,0.3,0,0.5C52.2,19.8,53.7,22.2,55.9,23.7z"/>
		</g>
	</g>
</g>
</svg>
