<svg xmlns="http://www.w3.org/2000/svg" xmlns:xlink="http://www.w3.org/1999/xlink" viewBox="0 0 225.31 135.15"><defs><style>.cls-1{fill:none;}.cls-2{isolation:isolate;}.cls-3{mix-blend-mode:multiply;}.cls-4{fill:#fff;opacity:0;}.cls-5{fill:#fcfcfc;}.cls-41,.cls-5{opacity:0.03;}.cls-6{fill:#f9f9f9;}.cls-42,.cls-6{opacity:0.06;}.cls-7{fill:#f5f5f5;}.cls-43,.cls-7{opacity:0.09;}.cls-8{fill:#f2f2f2;}.cls-44,.cls-8{opacity:0.12;}.cls-9{fill:#efefef;}.cls-45,.cls-9{opacity:0.15;}.cls-10{fill:#ececec;}.cls-10,.cls-46{opacity:0.18;}.cls-11{fill:#e8e8e8;}.cls-11,.cls-47{opacity:0.21;}.cls-12{fill:#e5e5e5;}.cls-12,.cls-48{opacity:0.24;}.cls-13{fill:#e2e2e2;}.cls-13,.cls-49{opacity:0.27;}.cls-14{fill:#dfdfdf;}.cls-14,.cls-50{opacity:0.3;}.cls-15{fill:#dbdbdb;}.cls-15,.cls-51{opacity:0.33;}.cls-16{fill:#d8d8d8;}.cls-16,.cls-52{opacity:0.36;}.cls-17{fill:#d5d5d5;}.cls-17,.cls-53{opacity:0.39;}.cls-18{fill:#d2d2d2;}.cls-18,.cls-54{opacity:0.42;}.cls-19{fill:#cecece;}.cls-19,.cls-55{opacity:0.45;}.cls-20{fill:#cbcbcb;}.cls-20,.cls-56{opacity:0.48;}.cls-21{fill:#c8c8c8;}.cls-21,.cls-57{opacity:0.52;}.cls-22{fill:#c5c5c5;}.cls-22,.cls-58{opacity:0.55;}.cls-23{fill:#c1c1c1;}.cls-23,.cls-59{opacity:0.58;}.cls-24{fill:#bebebe;}.cls-24,.cls-60{opacity:0.61;}.cls-25{fill:#bbb;}.cls-25,.cls-61{opacity:0.64;}.cls-26{fill:#b8b8b8;}.cls-26,.cls-62{opacity:0.67;}.cls-27{fill:#b4b4b4;}.cls-27,.cls-63{opacity:0.7;}.cls-28{fill:#b1b1b1;}.cls-28,.cls-64{opacity:0.73;}.cls-29{fill:#aeaeae;}.cls-29,.cls-65{opacity:0.76;}.cls-30{fill:#ababab;}.cls-30,.cls-66{opacity:0.79;}.cls-31{fill:#a7a7a7;}.cls-31,.cls-67{opacity:0.82;}.cls-32{fill:#a4a4a4;}.cls-32,.cls-68{opacity:0.85;}.cls-33{fill:#a1a1a1;}.cls-33,.cls-69{opacity:0.88;}.cls-34{fill:#9e9e9e;}.cls-34,.cls-70{opacity:0.91;}.cls-35{fill:#9a9a9a;}.cls-35,.cls-71{opacity:0.94;}.cls-36{fill:#979797;}.cls-36,.cls-72{opacity:0.97;}.cls-37{fill:#949494;}.cls-38{fill:url(#linear-gradient);}.cls-39{fill:#ffdb32;}.cls-40{clip-path:url(#clip-path);}.cls-41{fill:#fffdfa;}.cls-42{fill:#fffbf5;}.cls-43{fill:#fff9f1;}.cls-44{fill:#fff8ec;}.cls-45{fill:#fff6e7;}.cls-46{fill:#fff4e2;}.cls-47{fill:#fff2dd;}.cls-48{fill:#fff0d9;}.cls-49{fill:#ffeed4;}.cls-50{fill:#ffedcf;}.cls-51{fill:#ffebca;}.cls-52{fill:#ffe9c6;}.cls-53{fill:#ffe7c1;}.cls-54{fill:#ffe5bc;}.cls-55{fill:#ffe3b7;}.cls-56{fill:#ffe1b2;}.cls-57{fill:#ffe0ae;}.cls-58{fill:#ffdea9;}.cls-59{fill:#ffdca4;}.cls-60{fill:#ffda9f;}.cls-61{fill:#ffd89a;}.cls-62{fill:#ffd696;}.cls-63{fill:#ffd491;}.cls-64{fill:#ffd38c;}.cls-65{fill:#ffd187;}.cls-66{fill:#ffcf83;}.cls-67{fill:#ffcd7e;}.cls-68{fill:#ffcb79;}.cls-69{fill:#ffc974;}.cls-70{fill:#ffc86f;}.cls-71{fill:#ffc66b;}.cls-72{fill:#ffc466;}.cls-73{fill:#ffc261;}.cls-74{fill:#d34512;}.cls-75{fill:#ff670e;}.cls-76{fill:#f24d1a;}.cls-77{fill:#fb8e00;}.cls-78{fill:#ffbf00;}.cls-79{fill:#fba300;}.cls-80{fill:#7cbf00;}.cls-81{fill:#b5d100;}.cls-82{fill:#94c200;}</style><linearGradient id="linear-gradient" y1="101.19" x2="176.4" y2="101.19" gradientUnits="userSpaceOnUse"><stop offset="0" stop-color="#ffed44"/><stop offset="0.07" stop-color="#fff047"/><stop offset="0.3" stop-color="#fff24a"/><stop offset="0.55" stop-color="#ffe23a"/><stop offset="0.74" stop-color="#ffdc34"/><stop offset="1" stop-color="#f9b519"/></linearGradient><clipPath id="clip-path"><path class="cls-1" d="M147.21,33.16c-38.92-22.48-79.09-22.48-118,0h0C9.73,44.39,0,55.81,0,67.23S9.73,90.06,29.19,101.3c38.93,22.47,79.1,22.47,118,0,19.46-11.24,29.19-22.66,29.19-34.07S166.67,44.39,147.21,33.16Z"/></clipPath></defs><title>Asset 5</title><g class="cls-2"><g id="Layer_2" data-name="Layer 2"><g id="Layer_1-2" data-name="Layer 1"><g class="cls-3"><path class="cls-4" d="M196.12,50.16c-38.92-22.47-79.09-22.48-118,0h0C58.64,61.39,48.91,72.81,48.91,84.23s9.73,22.83,29.19,34.07c38.93,22.47,79.1,22.47,118,0,19.46-11.24,29.19-22.66,29.19-34.07S215.58,61.39,196.12,50.16Z"/><path class="cls-5" d="M194.64,50.16c-38.93-22.47-79.1-22.48-118,0h0C57.16,61.39,47.43,72.81,47.43,84.23s9.73,22.83,29.19,34.07c38.92,22.47,79.09,22.47,118,0,19.46-11.24,29.19-22.66,29.19-34.07S214.1,61.39,194.64,50.16Z"/><path class="cls-6" d="M193.16,50.16c-38.93-22.47-79.1-22.48-118,0h0c-19.46,11.23-29.2,22.65-29.2,34.07s9.74,22.83,29.2,34.07c38.92,22.47,79.09,22.47,118,0,19.46-11.24,29.19-22.66,29.19-34.07S212.62,61.39,193.16,50.16Z"/><path class="cls-7" d="M191.67,50.16c-38.92-22.48-79.09-22.48-118,0h0c-19.47,11.23-29.2,22.65-29.2,34.07s9.73,22.83,29.2,34.07c38.92,22.47,79.09,22.47,118,0,19.47-11.24,29.2-22.66,29.2-34.07S211.14,61.39,191.67,50.16Z"/><path class="cls-8" d="M190.19,50.16c-38.92-22.47-79.09-22.48-118,0h0C52.71,61.39,43,72.81,43,84.23s9.73,22.83,29.19,34.07c38.93,22.47,79.1,22.47,118,0,19.46-11.24,29.2-22.66,29.2-34.07S209.65,61.39,190.19,50.16Z"/><path class="cls-9" d="M188.71,50.16c-38.92-22.47-79.09-22.48-118,0h0C51.23,61.39,41.5,72.81,41.5,84.23s9.73,22.83,29.19,34.07c38.93,22.47,79.1,22.47,118,0,19.46-11.24,29.19-22.66,29.19-34.07S208.17,61.39,188.71,50.16Z"/><path class="cls-10" d="M187.23,50.16c-38.93-22.47-79.1-22.48-118,0h0C49.75,61.39,40,72.81,40,84.23s9.73,22.83,29.19,34.07c38.92,22.47,79.09,22.47,118,0,19.46-11.24,29.19-22.66,29.19-34.07S206.69,61.39,187.23,50.16Z"/><path class="cls-11" d="M185.75,50.16c-38.93-22.47-79.1-22.48-118,0h0c-19.46,11.23-29.2,22.65-29.2,34.07s9.74,22.83,29.2,34.07c38.92,22.47,79.09,22.47,118,0,19.46-11.24,29.19-22.66,29.19-34.07S205.21,61.39,185.75,50.16Z"/><path class="cls-12" d="M184.26,50.16c-38.92-22.47-79.09-22.48-118,0h0c-19.47,11.23-29.2,22.65-29.2,34.07s9.73,22.83,29.2,34.07c38.92,22.47,79.09,22.47,118,0,19.47-11.24,29.2-22.66,29.2-34.07S203.73,61.39,184.26,50.16Z"/><path class="cls-13" d="M182.78,50.16c-38.92-22.47-79.09-22.48-118,0h0C45.3,61.39,35.57,72.81,35.57,84.23s9.73,22.83,29.19,34.07c38.93,22.47,79.1,22.47,118,0C202.24,107.06,212,95.64,212,84.23S202.24,61.39,182.78,50.16Z"/><path class="cls-14" d="M181.3,50.16c-38.92-22.47-79.09-22.48-118,0h0C43.82,61.39,34.09,72.81,34.09,84.23s9.73,22.83,29.19,34.07c38.93,22.47,79.1,22.47,118,0,19.46-11.24,29.19-22.66,29.19-34.07S200.76,61.39,181.3,50.16Z"/><path class="cls-15" d="M179.82,50.16c-38.93-22.47-79.1-22.48-118,0h0C42.34,61.39,32.61,72.81,32.61,84.23s9.73,22.83,29.19,34.07c38.92,22.47,79.09,22.47,118,0C199.28,107.06,209,95.64,209,84.23S199.28,61.39,179.82,50.16Z"/><path class="cls-16" d="M178.34,50.16c-38.93-22.47-79.1-22.48-118,0h0c-19.47,11.23-29.2,22.65-29.2,34.07s9.73,22.83,29.2,34.07c38.92,22.47,79.09,22.47,118,0,19.46-11.24,29.19-22.66,29.19-34.07S197.8,61.39,178.34,50.16Z"/><path class="cls-17" d="M176.85,50.16c-38.92-22.48-79.09-22.48-118,0h0C39.37,61.39,29.64,72.81,29.64,84.23s9.73,22.83,29.2,34.07c38.92,22.47,79.09,22.47,118,0,19.47-11.24,29.2-22.66,29.2-34.07S196.32,61.39,176.85,50.16Z"/><path class="cls-18" d="M175.37,50.16c-38.92-22.47-79.09-22.48-118,0h0C37.89,61.39,28.16,72.81,28.16,84.23s9.73,22.83,29.19,34.07c38.93,22.47,79.1,22.47,118,0,19.46-11.24,29.19-22.66,29.19-34.07S194.83,61.39,175.37,50.16Z"/><path class="cls-19" d="M173.89,50.16c-38.93-22.48-79.1-22.48-118,0h0C36.41,61.39,26.68,72.81,26.68,84.23s9.73,22.83,29.19,34.07c38.93,22.47,79.1,22.47,118,0,19.46-11.24,29.19-22.66,29.19-34.07S193.35,61.39,173.89,50.16Z"/><path class="cls-20" d="M172.41,50.16c-38.93-22.47-79.1-22.48-118,0h0C34.93,61.39,25.2,72.81,25.2,84.23s9.73,22.83,29.19,34.07c38.92,22.47,79.09,22.47,118,0,19.46-11.24,29.19-22.66,29.19-34.07S191.87,61.39,172.41,50.16Z"/><path class="cls-21" d="M170.92,50.16c-38.92-22.47-79.09-22.48-118,0h0c-19.47,11.23-29.2,22.65-29.2,34.07s9.73,22.83,29.2,34.07c38.92,22.47,79.09,22.47,118,0,19.46-11.24,29.19-22.66,29.19-34.07S190.39,61.39,170.92,50.16Z"/><path class="cls-22" d="M169.44,50.16c-38.92-22.48-79.09-22.48-118,0h0C32,61.39,22.23,72.81,22.23,84.23S32,107.06,51.42,118.3c38.93,22.47,79.1,22.47,118,0,19.47-11.24,29.2-22.66,29.2-34.07S188.91,61.39,169.44,50.16Z"/><path class="cls-23" d="M168,50.16c-38.92-22.47-79.09-22.48-118,0h0C30.48,61.39,20.75,72.81,20.75,84.23s9.73,22.83,29.19,34.07c38.93,22.47,79.1,22.47,118,0,19.46-11.24,29.19-22.66,29.19-34.07S187.42,61.39,168,50.16Z"/><path class="cls-24" d="M166.48,50.16c-38.93-22.47-79.1-22.48-118,0h0C29,61.39,19.27,72.81,19.27,84.23S29,107.06,48.46,118.3c38.92,22.47,79.1,22.47,118,0,19.46-11.24,29.19-22.66,29.19-34.07S185.94,61.39,166.48,50.16Z"/><path class="cls-25" d="M165,50.16c-38.93-22.47-79.1-22.48-118,0h0C27.52,61.39,17.79,72.81,17.79,84.23S27.52,107.06,47,118.3c38.92,22.47,79.09,22.47,118,0,19.46-11.24,29.19-22.66,29.19-34.07S184.46,61.39,165,50.16Z"/><path class="cls-26" d="M163.51,50.16c-38.92-22.47-79.09-22.48-118,0h0C26,61.39,16.3,72.81,16.3,84.23S26,107.06,45.5,118.3c38.92,22.47,79.09,22.47,118,0,19.47-11.24,29.2-22.66,29.2-34.07S183,61.39,163.51,50.16Z"/><path class="cls-27" d="M162,50.16c-38.92-22.48-79.09-22.48-118,0h0C24.55,61.39,14.82,72.81,14.82,84.23S24.55,107.06,44,118.3c38.93,22.47,79.1,22.47,118,0,19.46-11.24,29.2-22.66,29.2-34.07S181.49,61.39,162,50.16Z"/><path class="cls-28" d="M160.55,50.16c-38.92-22.47-79.09-22.48-118,0h0C23.07,61.39,13.34,72.81,13.34,84.23s9.73,22.83,29.19,34.07c38.93,22.47,79.1,22.47,118,0,19.46-11.24,29.19-22.66,29.19-34.07S180,61.39,160.55,50.16Z"/><path class="cls-29" d="M159.07,50.16c-38.93-22.47-79.1-22.48-118,0h0C21.59,61.39,11.86,72.81,11.86,84.23s9.73,22.83,29.19,34.07c38.92,22.47,79.09,22.47,118,0,19.46-11.24,29.19-22.66,29.19-34.07S178.53,61.39,159.07,50.16Z"/><path class="cls-30" d="M157.59,50.16c-38.93-22.47-79.1-22.48-118,0h0c-19.46,11.23-29.2,22.65-29.2,34.07s9.74,22.83,29.2,34.07c38.92,22.47,79.09,22.47,118,0,19.46-11.24,29.19-22.66,29.19-34.07S177.05,61.39,157.59,50.16Z"/><path class="cls-31" d="M156.1,50.16c-38.92-22.47-79.09-22.48-118,0h0C18.62,61.39,8.89,72.81,8.89,84.23s9.73,22.83,29.2,34.07c38.92,22.47,79.09,22.47,118,0,19.47-11.24,29.2-22.66,29.2-34.07S175.57,61.39,156.1,50.16Z"/><path class="cls-32" d="M154.62,50.16c-38.92-22.47-79.09-22.48-118,0h0C17.14,61.39,7.41,72.81,7.41,84.23s9.73,22.83,29.19,34.07c38.93,22.47,79.1,22.47,118,0,19.46-11.24,29.2-22.66,29.2-34.07S174.08,61.39,154.62,50.16Z"/><path class="cls-33" d="M153.14,50.16c-38.92-22.47-79.09-22.48-118,0h0C15.66,61.39,5.93,72.81,5.93,84.23s9.73,22.83,29.19,34.07c38.93,22.47,79.1,22.47,118,0,19.46-11.24,29.19-22.66,29.19-34.07S172.6,61.39,153.14,50.16Z"/><path class="cls-34" d="M151.66,50.16c-38.93-22.48-79.1-22.48-118,0h0C14.18,61.39,4.45,72.81,4.45,84.23s9.73,22.83,29.19,34.07c38.92,22.47,79.09,22.47,118,0,19.46-11.24,29.19-22.66,29.19-34.07S171.12,61.39,151.66,50.16Z"/><path class="cls-35" d="M150.18,50.16c-38.93-22.47-79.1-22.48-118,0h0C12.7,61.39,3,72.81,3,84.23s9.74,22.83,29.2,34.07c38.92,22.47,79.09,22.47,118,0,19.46-11.24,29.19-22.66,29.19-34.07S169.64,61.39,150.18,50.16Z"/><path class="cls-36" d="M148.69,50.16c-38.92-22.47-79.09-22.48-118,0h0C11.21,61.39,1.48,72.81,1.48,84.23s9.73,22.83,29.2,34.07c38.92,22.47,79.09,22.47,118,0,19.47-11.24,29.2-22.66,29.2-34.07S168.16,61.39,148.69,50.16Z"/><path class="cls-37" d="M147.21,50.16c-38.92-22.47-79.09-22.48-118,0h0C9.73,61.39,0,72.81,0,84.23s9.73,22.83,29.19,34.07c38.93,22.47,79.1,22.47,118,0,19.46-11.24,29.19-22.66,29.19-34.07S166.67,61.39,147.21,50.16Z"/></g><path class="cls-38" d="M147.21,101.3c-38.92,22.47-79.09,22.47-118,0C9.73,90.06,0,78.64,0,67.23v17c0,11.41,9.73,22.83,29.19,34.07,38.93,22.47,79.1,22.47,118,0,19.46-11.24,29.19-22.66,29.19-34.07v-17C176.4,78.64,166.67,90.06,147.21,101.3Z"/><path class="cls-39" d="M147.21,33.16c-38.92-22.48-79.09-22.48-118,0h0C9.73,44.39,0,55.81,0,67.23S9.73,90.06,29.19,101.3c38.93,22.47,79.1,22.47,118,0,19.46-11.24,29.19-22.66,29.19-34.07S166.67,44.39,147.21,33.16Z"/><g class="cls-40"><g class="cls-3"><polygon class="cls-4" points="174.28 12.95 162.41 6.1 152.56 11.79 132.13 0 106.99 14.51 106.99 14.51 106.99 14.51 106.99 14.51 106.99 14.51 106.99 47.05 133.06 62.09 133.06 62.1 133.06 62.1 133.06 62.09 137.28 59.66 137.28 64.54 163.34 79.58 163.34 79.58 167.57 77.14 167.57 81.89 193.63 96.94 193.63 96.94 218.76 82.43 218.76 17.36 192.7 2.31 174.28 12.95"/><polygon class="cls-41" points="172.06 12.95 160.19 6.1 150.33 11.79 129.9 0 104.77 14.51 104.77 14.51 104.77 14.51 104.77 14.51 104.77 14.51 104.77 47.05 130.83 62.09 130.83 62.1 130.83 62.1 130.83 62.09 135.06 59.66 135.06 64.54 161.12 79.58 161.12 79.58 165.35 77.14 165.35 81.89 191.41 96.94 191.41 96.94 216.54 82.43 216.54 17.36 190.48 2.31 172.06 12.95"/><polygon class="cls-42" points="169.83 12.95 157.97 6.1 148.11 11.79 127.68 0 102.55 14.51 102.55 14.51 102.55 14.51 102.55 14.51 102.55 14.51 102.55 47.05 128.61 62.09 128.61 62.1 128.61 62.1 128.61 62.09 132.84 59.66 132.84 64.54 158.9 79.58 158.9 79.58 163.13 77.14 163.13 81.89 189.19 96.94 189.19 96.94 214.32 82.43 214.32 17.36 188.26 2.31 169.83 12.95"/><polygon class="cls-43" points="167.61 12.95 155.75 6.1 145.89 11.79 125.46 0 100.33 14.51 100.33 14.51 100.33 14.51 100.32 14.51 100.33 14.51 100.33 47.05 126.39 62.09 126.39 62.1 126.39 62.1 126.39 62.09 130.61 59.66 130.61 64.54 156.68 79.58 156.68 79.58 160.9 77.14 160.9 81.89 186.96 96.94 186.96 96.94 212.09 82.43 212.09 17.36 186.03 2.31 167.61 12.95"/><polygon class="cls-44" points="165.39 12.95 153.52 6.1 143.66 11.79 123.23 0 98.1 14.51 98.1 14.51 98.1 14.51 98.1 14.51 98.1 14.51 98.1 47.05 124.16 62.09 124.16 62.1 124.16 62.1 124.16 62.09 128.39 59.66 128.39 64.54 154.45 79.58 154.45 79.58 158.68 77.14 158.68 81.89 184.74 96.94 184.74 96.94 209.87 82.43 209.87 17.36 183.81 2.31 165.39 12.95"/><polygon class="cls-45" points="163.16 12.95 151.3 6.1 141.44 11.79 121.01 0 95.88 14.51 95.88 14.51 95.88 14.51 95.88 14.51 95.88 14.51 95.88 47.05 121.94 62.09 121.94 62.1 121.94 62.1 121.94 62.09 126.17 59.66 126.17 64.54 152.23 79.58 152.23 79.58 156.46 77.14 156.46 81.89 182.52 96.94 182.52 96.94 207.65 82.43 207.65 17.36 181.59 2.31 163.16 12.95"/><polygon class="cls-46" points="160.94 12.95 149.08 6.1 139.22 11.79 118.79 0 93.66 14.51 93.66 14.51 93.66 14.51 93.66 14.51 93.66 14.51 93.66 47.05 119.72 62.09 119.72 62.1 119.72 62.1 119.72 62.09 123.94 59.66 123.94 64.54 150.01 79.58 150.01 79.58 154.23 77.14 154.23 81.89 180.29 96.94 180.29 96.94 205.43 82.43 205.43 17.36 179.36 2.31 160.94 12.95"/><polygon class="cls-47" points="158.72 12.95 146.85 6.1 136.99 11.79 116.56 0 91.43 14.51 91.43 14.51 91.43 14.51 91.43 14.51 91.43 14.51 91.43 47.05 117.49 62.09 117.49 62.1 117.49 62.1 117.49 62.09 121.72 59.66 121.72 64.54 147.78 79.58 147.78 79.58 152.01 77.14 152.01 81.89 178.07 96.94 178.07 96.94 203.2 82.43 203.2 17.36 177.14 2.31 158.72 12.95"/><polygon class="cls-48" points="156.49 12.95 144.63 6.1 134.77 11.79 114.34 0 89.21 14.51 89.21 14.51 89.21 14.51 89.21 14.51 89.21 14.51 89.21 47.05 115.27 62.09 115.27 62.1 115.27 62.1 115.27 62.09 119.5 59.66 119.5 64.54 145.56 79.58 145.56 79.58 149.79 77.14 149.79 81.89 175.85 96.94 175.85 96.94 200.98 82.43 200.98 17.36 174.92 2.31 156.49 12.95"/><polygon class="cls-49" points="154.27 12.95 142.41 6.1 132.55 11.79 112.12 0 86.99 14.51 86.99 14.51 86.99 14.51 86.99 14.51 86.99 14.51 86.99 47.05 113.05 62.09 113.05 62.1 113.05 62.1 113.05 62.09 117.28 59.66 117.28 64.54 143.34 79.58 143.34 79.58 147.56 77.14 147.56 81.89 173.62 96.94 173.62 96.94 198.76 82.43 198.76 17.36 172.69 2.31 154.27 12.95"/><polygon class="cls-50" points="152.05 12.95 140.18 6.1 130.32 11.79 109.89 0 84.76 14.51 84.76 14.51 84.76 14.51 84.76 14.51 84.76 14.51 84.76 47.05 110.82 62.09 110.82 62.1 110.82 62.1 110.82 62.09 115.05 59.66 115.05 64.54 141.11 79.58 141.11 79.58 145.34 77.14 145.34 81.89 171.4 96.94 171.4 96.94 196.53 82.43 196.53 17.36 170.47 2.31 152.05 12.95"/><polygon class="cls-51" points="149.82 12.95 137.96 6.1 128.1 11.79 107.67 0 82.54 14.51 82.54 14.51 82.54 14.51 82.54 14.51 82.54 14.51 82.54 47.05 108.6 62.09 108.6 62.1 108.6 62.1 108.6 62.09 112.83 59.66 112.83 64.54 138.89 79.58 138.89 79.58 143.12 77.14 143.12 81.89 169.18 96.94 169.18 96.94 194.31 82.43 194.31 17.36 168.25 2.31 149.82 12.95"/><polygon class="cls-52" points="147.6 12.95 135.74 6.1 125.88 11.79 105.45 0 80.32 14.51 80.32 14.51 80.32 14.51 80.32 14.51 80.32 14.51 80.32 47.05 106.38 62.09 106.38 62.1 106.38 62.1 106.38 62.09 110.61 59.66 110.61 64.54 136.67 79.58 136.67 79.58 140.89 77.14 140.89 81.89 166.96 96.94 166.96 96.94 192.09 82.43 192.09 17.36 166.03 2.31 147.6 12.95"/><polygon class="cls-53" points="145.38 12.95 133.51 6.1 123.66 11.79 103.22 0 78.09 14.51 78.09 14.51 78.09 14.51 78.09 14.51 78.09 14.51 78.09 47.05 104.16 62.09 104.16 62.1 104.16 62.1 104.16 62.09 108.38 59.66 108.38 64.54 134.44 79.58 134.44 79.58 138.67 77.14 138.67 81.89 164.73 96.94 164.73 96.94 189.86 82.43 189.86 17.36 163.8 2.31 145.38 12.95"/><polygon class="cls-54" points="143.16 12.95 131.29 6.1 121.43 11.79 101 0 75.87 14.51 75.87 14.51 75.87 14.51 75.87 14.51 75.87 14.51 75.87 47.05 101.93 62.09 101.93 62.1 101.93 62.1 101.93 62.09 106.16 59.66 106.16 64.54 132.22 79.58 132.22 79.58 136.45 77.14 136.45 81.89 162.51 96.94 162.51 96.94 187.64 82.43 187.64 17.36 161.58 2.31 143.16 12.95"/><polygon class="cls-55" points="140.93 12.95 129.07 6.1 119.21 11.79 98.78 0 73.65 14.51 73.65 14.51 73.65 14.51 73.65 14.51 73.65 14.51 73.65 47.05 99.71 62.09 99.71 62.1 99.71 62.1 99.71 62.09 103.94 59.66 103.94 64.54 130 79.58 130 79.58 134.22 77.14 134.22 81.89 160.29 96.94 160.29 96.94 185.42 82.43 185.42 17.36 159.36 2.31 140.93 12.95"/><polygon class="cls-56" points="138.71 12.95 126.84 6.1 116.99 11.79 96.56 0 71.42 14.51 71.42 14.51 71.42 14.51 71.42 14.51 71.42 14.51 71.42 47.05 97.49 62.09 97.49 62.1 97.49 62.1 97.49 62.09 101.71 59.66 101.71 64.54 127.77 79.58 127.77 79.58 132 77.14 132 81.89 158.06 96.94 158.06 96.94 183.19 82.43 183.19 17.36 157.13 2.31 138.71 12.95"/><polygon class="cls-57" points="136.49 12.95 124.62 6.1 114.76 11.79 94.33 0 69.2 14.51 69.2 14.51 69.2 14.51 69.2 14.51 69.2 14.51 69.2 47.05 95.26 62.09 95.26 62.1 95.26 62.1 95.26 62.09 99.49 59.66 99.49 64.54 125.55 79.58 125.55 79.58 129.78 77.14 129.78 81.89 155.84 96.94 155.84 96.94 180.97 82.43 180.97 17.36 154.91 2.31 136.49 12.95"/><polygon class="cls-58" points="134.26 12.95 122.4 6.1 112.54 11.79 92.11 0 66.98 14.51 66.98 14.51 66.98 14.51 66.98 14.51 66.98 14.51 66.98 47.05 93.04 62.09 93.04 62.1 93.04 62.1 93.04 62.09 97.27 59.66 97.27 64.54 123.33 79.58 123.33 79.58 127.56 77.14 127.56 81.89 153.62 96.94 153.62 96.94 178.75 82.43 178.75 17.36 152.69 2.31 134.26 12.95"/><polygon class="cls-59" points="132.04 12.95 120.17 6.1 110.32 11.79 89.89 0 64.75 14.51 64.75 14.51 64.75 14.51 64.75 14.51 64.75 14.51 64.75 47.05 90.82 62.09 90.82 62.1 90.82 62.1 90.82 62.09 95.04 59.66 95.04 64.54 121.11 79.58 121.11 79.58 125.33 77.14 125.33 81.89 151.39 96.94 151.39 96.94 176.53 82.43 176.53 17.36 150.46 2.31 132.04 12.95"/><polygon class="cls-60" points="129.82 12.95 117.95 6.1 108.09 11.79 87.66 0 62.53 14.51 62.53 14.51 62.53 14.51 62.53 14.51 62.53 14.51 62.53 47.05 88.59 62.09 88.59 62.1 88.59 62.1 88.59 62.09 92.82 59.66 92.82 64.54 118.88 79.58 118.88 79.58 123.11 77.14 123.11 81.89 149.17 96.94 149.17 96.94 174.3 82.43 174.3 17.36 148.24 2.31 129.82 12.95"/><polygon class="cls-61" points="127.59 12.95 115.73 6.1 105.87 11.79 85.44 0 60.31 14.51 60.31 14.51 60.31 14.51 60.31 14.51 60.31 14.51 60.31 47.05 86.37 62.09 86.37 62.1 86.37 62.1 86.37 62.09 90.6 59.66 90.6 64.54 116.66 79.58 116.66 79.58 120.89 77.14 120.89 81.89 146.95 96.94 146.95 96.94 172.08 82.43 172.08 17.36 146.02 2.31 127.59 12.95"/><polygon class="cls-62" points="125.37 12.95 113.51 6.1 103.65 11.79 83.22 0 58.09 14.51 58.09 14.51 58.09 14.51 58.09 14.51 58.09 14.51 58.09 47.05 84.15 62.09 84.15 62.1 84.15 62.1 84.15 62.09 88.37 59.66 88.37 64.54 114.44 79.58 114.44 79.58 118.66 77.14 118.66 81.89 144.72 96.94 144.72 96.94 169.86 82.43 169.86 17.36 143.79 2.31 125.37 12.95"/><polygon class="cls-63" points="123.15 12.95 111.28 6.1 101.42 11.79 80.99 0 55.86 14.51 55.86 14.51 55.86 14.51 55.86 14.51 55.86 14.51 55.86 47.05 81.92 62.09 81.92 62.1 81.92 62.1 81.92 62.09 86.15 59.66 86.15 64.54 112.21 79.58 112.21 79.58 116.44 77.14 116.44 81.89 142.5 96.94 142.5 96.94 167.63 82.43 167.63 17.36 141.57 2.31 123.15 12.95"/><polygon class="cls-64" points="120.92 12.95 109.06 6.1 99.2 11.79 78.77 0 53.64 14.51 53.64 14.51 53.64 14.51 53.64 14.51 53.64 14.51 53.64 47.05 79.7 62.09 79.7 62.1 79.7 62.1 79.7 62.09 83.93 59.66 83.93 64.54 109.99 79.58 109.99 79.58 114.22 77.14 114.22 81.89 140.28 96.94 140.28 96.94 165.41 82.43 165.41 17.36 139.35 2.31 120.92 12.95"/><polygon class="cls-65" points="118.7 12.95 106.84 6.1 96.98 11.79 76.55 0 51.42 14.51 51.42 14.51 51.42 14.51 51.42 14.51 51.42 14.51 51.42 47.05 77.48 62.09 77.48 62.1 77.48 62.1 77.48 62.09 81.7 59.66 81.7 64.54 107.77 79.58 107.77 79.58 111.99 77.14 111.99 81.89 138.05 96.94 138.05 96.94 163.19 82.43 163.19 17.36 137.13 2.31 118.7 12.95"/><polygon class="cls-66" points="116.48 12.95 104.61 6.1 94.75 11.79 74.32 0 49.19 14.51 49.19 14.51 49.19 14.51 49.19 14.51 49.19 14.51 49.19 47.05 75.25 62.09 75.25 62.1 75.25 62.1 75.25 62.09 79.48 59.66 79.48 64.54 105.54 79.58 105.54 79.58 109.77 77.14 109.77 81.89 135.83 96.94 135.83 96.94 160.96 82.43 160.96 17.36 134.9 2.31 116.48 12.95"/><polygon class="cls-67" points="114.25 12.95 102.39 6.1 92.53 11.79 72.1 0 46.97 14.51 46.97 14.51 46.97 14.51 46.97 14.51 46.97 14.51 46.97 47.05 73.03 62.09 73.03 62.1 73.03 62.1 73.03 62.09 77.26 59.66 77.26 64.54 103.32 79.58 103.32 79.58 107.55 77.14 107.55 81.89 133.61 96.94 133.61 96.94 158.74 82.43 158.74 17.36 132.68 2.31 114.25 12.95"/><polygon class="cls-68" points="112.03 12.95 100.17 6.1 90.31 11.79 69.88 0 44.75 14.51 44.75 14.51 44.75 14.51 44.75 14.51 44.75 14.51 44.75 47.05 70.81 62.09 70.81 62.1 70.81 62.1 70.81 62.09 75.03 59.66 75.03 64.54 101.1 79.58 101.1 79.58 105.32 77.14 105.32 81.89 131.38 96.94 131.38 96.94 156.52 82.43 156.52 17.36 130.46 2.31 112.03 12.95"/><polygon class="cls-69" points="109.81 12.95 97.94 6.1 88.08 11.79 67.66 0 42.52 14.51 42.52 14.51 42.52 14.51 42.52 14.51 42.52 14.51 42.52 47.05 68.58 62.09 68.58 62.1 68.58 62.1 68.58 62.09 72.81 59.66 72.81 64.54 98.87 79.58 98.87 79.58 103.1 77.14 103.1 81.89 129.16 96.94 129.16 96.94 154.29 82.43 154.29 17.36 128.23 2.31 109.81 12.95"/><polygon class="cls-70" points="107.58 12.95 95.72 6.1 85.86 11.79 65.43 0 40.3 14.51 40.3 14.51 40.3 14.51 40.3 14.51 40.3 14.51 40.3 47.05 66.36 62.09 66.36 62.1 66.36 62.1 66.36 62.09 70.59 59.66 70.59 64.54 96.65 79.58 96.65 79.58 100.88 77.14 100.88 81.89 126.94 96.94 126.94 96.94 152.07 82.43 152.07 17.36 126.01 2.31 107.58 12.95"/><polygon class="cls-71" points="105.36 12.95 93.5 6.1 83.64 11.79 63.21 0 38.08 14.51 38.08 14.51 38.08 14.51 38.08 14.51 38.08 14.51 38.08 47.05 64.14 62.09 64.14 62.1 64.14 62.1 64.14 62.09 68.37 59.66 68.37 64.54 94.43 79.58 94.43 79.58 98.65 77.14 98.65 81.89 124.72 96.94 124.72 96.94 149.85 82.43 149.85 17.36 123.79 2.31 105.36 12.95"/><polygon class="cls-72" points="103.14 12.95 91.27 6.1 81.42 11.79 60.98 0 35.85 14.51 35.85 14.51 35.85 14.51 35.85 14.51 35.85 14.51 35.85 47.05 61.91 62.09 61.91 62.1 61.92 62.1 61.92 62.09 66.14 59.66 66.14 64.54 92.2 79.58 92.2 79.58 96.43 77.14 96.43 81.89 122.49 96.94 122.49 96.94 147.62 82.43 147.62 17.36 121.56 2.31 103.14 12.95"/><polygon class="cls-73" points="100.92 12.95 89.05 6.1 79.19 11.79 58.76 0 33.63 14.51 33.63 14.51 33.63 14.51 33.63 14.51 33.63 14.51 33.63 47.05 59.69 62.09 59.69 62.1 59.69 62.1 59.69 62.09 63.92 59.66 63.92 64.54 89.98 79.58 89.98 79.58 94.21 77.14 94.21 81.89 120.27 96.94 120.27 96.94 145.4 82.43 145.4 17.36 119.34 2.31 100.92 12.95"/></g></g><polygon class="cls-74" points="84.82 15.05 59.69 29.56 59.69 62.1 84.82 47.59 84.82 15.05"/><polygon class="cls-75" points="58.76 0 33.63 14.51 59.69 29.56 84.82 15.05 58.76 0"/><polygon class="cls-76" points="33.63 47.05 59.69 62.1 59.69 29.56 33.63 14.51 33.63 47.05"/><polygon class="cls-77" points="115.11 21.15 89.98 35.66 89.98 79.58 115.11 65.07 115.11 21.15"/><polygon class="cls-78" points="89.05 6.1 63.92 20.61 89.98 35.66 115.11 21.15 89.05 6.1"/><polygon class="cls-79" points="63.92 20.61 63.92 64.54 89.98 79.58 89.98 35.66 63.92 20.61"/><polygon class="cls-80" points="145.4 17.36 120.27 31.87 120.27 96.94 145.4 82.43 145.4 17.36"/><polygon class="cls-81" points="119.34 2.31 94.21 16.83 120.27 31.87 145.4 17.36 119.34 2.31"/><polygon class="cls-82" points="94.21 81.89 120.27 96.94 120.27 31.87 94.21 16.83 94.21 81.89"/></g></g></g></svg>