<svg xmlns="http://www.w3.org/2000/svg" xmlns:xlink="http://www.w3.org/1999/xlink" viewBox="0 0 225.31 153.22"><defs><style>.cls-1{fill:none;}.cls-2{isolation:isolate;}.cls-3{mix-blend-mode:multiply;}.cls-4{fill:#fff;opacity:0;}.cls-5{fill:#fcfcfc;}.cls-41,.cls-5{opacity:0.03;}.cls-6{fill:#f9f9f9;}.cls-42,.cls-6{opacity:0.06;}.cls-7{fill:#f5f5f5;}.cls-43,.cls-7{opacity:0.09;}.cls-8{fill:#f2f2f2;}.cls-44,.cls-8{opacity:0.12;}.cls-9{fill:#efefef;}.cls-45,.cls-9{opacity:0.15;}.cls-10{fill:#ececec;}.cls-10,.cls-46{opacity:0.18;}.cls-11{fill:#e8e8e8;}.cls-11,.cls-47{opacity:0.21;}.cls-12{fill:#e5e5e5;}.cls-12,.cls-48{opacity:0.24;}.cls-13{fill:#e2e2e2;}.cls-13,.cls-49{opacity:0.27;}.cls-14{fill:#dfdfdf;}.cls-14,.cls-50{opacity:0.3;}.cls-15{fill:#dbdbdb;}.cls-15,.cls-51{opacity:0.33;}.cls-16{fill:#d8d8d8;}.cls-16,.cls-52{opacity:0.36;}.cls-17{fill:#d5d5d5;}.cls-17,.cls-53{opacity:0.39;}.cls-18{fill:#d2d2d2;}.cls-18,.cls-54{opacity:0.42;}.cls-19{fill:#cecece;}.cls-19,.cls-55{opacity:0.45;}.cls-20{fill:#cbcbcb;}.cls-20,.cls-56{opacity:0.48;}.cls-21{fill:#c8c8c8;}.cls-21,.cls-57{opacity:0.52;}.cls-22{fill:#c5c5c5;}.cls-22,.cls-58{opacity:0.55;}.cls-23{fill:#c1c1c1;}.cls-23,.cls-59{opacity:0.58;}.cls-24{fill:#bebebe;}.cls-24,.cls-60{opacity:0.61;}.cls-25{fill:#bbb;}.cls-25,.cls-61{opacity:0.64;}.cls-26{fill:#b8b8b8;}.cls-26,.cls-62{opacity:0.67;}.cls-27{fill:#b4b4b4;}.cls-27,.cls-63{opacity:0.7;}.cls-28{fill:#b1b1b1;}.cls-28,.cls-64{opacity:0.73;}.cls-29{fill:#aeaeae;}.cls-29,.cls-65{opacity:0.76;}.cls-30{fill:#ababab;}.cls-30,.cls-66{opacity:0.79;}.cls-31{fill:#a7a7a7;}.cls-31,.cls-67{opacity:0.82;}.cls-32{fill:#a4a4a4;}.cls-32,.cls-68{opacity:0.85;}.cls-33{fill:#a1a1a1;}.cls-33,.cls-69{opacity:0.88;}.cls-34{fill:#9e9e9e;}.cls-34,.cls-70{opacity:0.91;}.cls-35{fill:#9a9a9a;}.cls-35,.cls-71{opacity:0.94;}.cls-36{fill:#979797;}.cls-36,.cls-72{opacity:0.97;}.cls-37{fill:#949494;}.cls-38{fill:url(#linear-gradient);}.cls-39{fill:#008cff;}.cls-40{clip-path:url(#clip-path);}.cls-41{fill:#fafbfd;}.cls-42{fill:#f5f8fb;}.cls-43{fill:#eff4f9;}.cls-44{fill:#eaf1f7;}.cls-45{fill:#e5edf5;}.cls-46{fill:#e0eaf2;}.cls-47{fill:#dae6f0;}.cls-48{fill:#d5e3ee;}.cls-49{fill:#d0dfec;}.cls-50{fill:#cbdcea;}.cls-51{fill:#c5d8e8;}.cls-52{fill:#c0d4e6;}.cls-53{fill:#bbd1e4;}.cls-54{fill:#b6cde2;}.cls-55{fill:#b0cae0;}.cls-56{fill:#abc6de;}.cls-57{fill:#a6c3db;}.cls-58{fill:#a1bfd9;}.cls-59{fill:#9bbcd7;}.cls-60{fill:#96b8d5;}.cls-61{fill:#91b5d3;}.cls-62{fill:#8cb1d1;}.cls-63{fill:#86adcf;}.cls-64{fill:#81aacd;}.cls-65{fill:#7ca6cb;}.cls-66{fill:#77a3c9;}.cls-67{fill:#719fc7;}.cls-68{fill:#6c9cc4;}.cls-69{fill:#6798c2;}.cls-70{fill:#6295c0;}.cls-71{fill:#5c91be;}.cls-72{fill:#578ebc;}.cls-73{fill:#528aba;}.cls-74{fill:url(#linear-gradient-2);}.cls-75{fill:url(#linear-gradient-3);}.cls-76,.cls-79{mix-blend-mode:color-burn;}.cls-77{fill:#9e9fa3;}.cls-78{fill:url(#radial-gradient);}.cls-79{fill:url(#radial-gradient-2);}</style><linearGradient id="linear-gradient" y1="119.26" x2="176.4" y2="119.26" gradientUnits="userSpaceOnUse"><stop offset="0" stop-color="#0af"/><stop offset="0.04" stop-color="#00a9ff"/><stop offset="0.35" stop-color="#00a6ff"/><stop offset="0.54" stop-color="#0086dd"/><stop offset="0.74" stop-color="#0066ba"/><stop offset="1" stop-color="#0041ad"/></linearGradient><clipPath id="clip-path"><path class="cls-1" d="M147.21,51.23c-38.92-22.48-79.09-22.48-118,0h0C9.73,62.46,0,73.88,0,85.3s9.73,22.83,29.19,34.06c38.93,22.48,79.1,22.48,118,0,19.46-11.23,29.19-22.65,29.19-34.06S166.67,62.46,147.21,51.23Z"/></clipPath><linearGradient id="linear-gradient-2" x1="-2514.42" y1="1212.8" x2="-2481.24" y2="1212.8" gradientTransform="translate(2586.14 -1126.07)" gradientUnits="userSpaceOnUse"><stop offset="0" stop-color="#9499a3"/><stop offset="0.05" stop-color="#9ca0ab"/><stop offset="0.16" stop-color="#a5a9b4"/><stop offset="0.3" stop-color="#a8acb7"/><stop offset="0.46" stop-color="#a5a9b4"/><stop offset="0.57" stop-color="#9da0ab"/><stop offset="0.67" stop-color="#8e919b"/><stop offset="0.76" stop-color="#797c85"/><stop offset="0.84" stop-color="#5e6168"/><stop offset="0.92" stop-color="#3d4046"/><stop offset="1" stop-color="#17191d"/><stop offset="1" stop-color="#15171b"/></linearGradient><linearGradient id="linear-gradient-3" x1="70.29" y1="80.59" x2="106.8" y2="80.59" gradientUnits="userSpaceOnUse"><stop offset="0" stop-color="#d0d2d7"/><stop offset="0.1" stop-color="#d6d8dd"/><stop offset="0.3" stop-color="#d9dbe0"/><stop offset="0.49" stop-color="#d6d8dd"/><stop offset="0.63" stop-color="#cdcfd4"/><stop offset="0.75" stop-color="#bdbfc4"/><stop offset="0.86" stop-color="#a7a9ae"/><stop offset="0.96" stop-color="#8b8d92"/><stop offset="1" stop-color="#7d7f84"/></linearGradient><radialGradient id="radial-gradient" cx="72.42" cy="20.35" r="69.48" gradientUnits="userSpaceOnUse"><stop offset="0" stop-color="#fff2a8"/><stop offset="0.05" stop-color="#fff2a3"/><stop offset="0.11" stop-color="#fff295"/><stop offset="0.18" stop-color="#fff17d"/><stop offset="0.18" stop-color="#fff17d"/><stop offset="0.3" stop-color="#ffef77"/><stop offset="0.46" stop-color="#ffe866"/><stop offset="0.65" stop-color="#ffdc49"/><stop offset="0.85" stop-color="#ffcd22"/><stop offset="1" stop-color="#ffbf00"/></radialGradient><radialGradient id="radial-gradient-2" cx="89.13" cy="16.68" r="75.59" gradientUnits="userSpaceOnUse"><stop offset="0" stop-color="#fff"/><stop offset="0.07" stop-color="#eee"/><stop offset="0.27" stop-color="#c2c2c2"/><stop offset="0.45" stop-color="#a2a2a2"/><stop offset="0.6" stop-color="#8e8e8e"/><stop offset="0.71" stop-color="#878787"/></radialGradient></defs><title>Asset 13</title><g class="cls-2"><g id="Layer_2" data-name="Layer 2"><g id="Layer_1-2" data-name="Layer 1"><g class="cls-3"><path class="cls-4" d="M196.12,68.23c-38.92-22.48-79.09-22.48-118,0h0C58.64,79.46,48.91,90.88,48.91,102.3s9.73,22.83,29.19,34.06c38.93,22.48,79.1,22.48,118,0,19.46-11.23,29.19-22.65,29.19-34.06S215.58,79.46,196.12,68.23Z"/><path class="cls-5" d="M194.64,68.23c-38.93-22.48-79.1-22.48-118,0h0C57.16,79.46,47.43,90.88,47.43,102.3s9.73,22.83,29.19,34.06c38.92,22.48,79.09,22.48,118,0,19.46-11.23,29.19-22.65,29.19-34.06S214.1,79.46,194.64,68.23Z"/><path class="cls-6" d="M193.16,68.23c-38.93-22.48-79.1-22.48-118,0h0c-19.46,11.23-29.2,22.65-29.2,34.07s9.74,22.83,29.2,34.06c38.92,22.48,79.09,22.48,118,0,19.46-11.23,29.19-22.65,29.19-34.06S212.62,79.46,193.16,68.23Z"/><path class="cls-7" d="M191.67,68.23c-38.92-22.48-79.09-22.48-118,0h0c-19.47,11.23-29.2,22.65-29.2,34.07s9.73,22.83,29.2,34.06c38.92,22.48,79.09,22.48,118,0,19.47-11.23,29.2-22.65,29.2-34.06S211.14,79.46,191.67,68.23Z"/><path class="cls-8" d="M190.19,68.23c-38.92-22.48-79.09-22.48-118,0h0C52.71,79.46,43,90.88,43,102.3s9.73,22.83,29.19,34.06c38.93,22.48,79.1,22.48,118,0,19.46-11.23,29.2-22.65,29.2-34.06S209.65,79.46,190.19,68.23Z"/><path class="cls-9" d="M188.71,68.23c-38.92-22.48-79.09-22.48-118,0h0C51.23,79.46,41.5,90.88,41.5,102.3s9.73,22.83,29.19,34.06c38.93,22.48,79.1,22.48,118,0,19.46-11.23,29.19-22.65,29.19-34.06S208.17,79.46,188.71,68.23Z"/><path class="cls-10" d="M187.23,68.23c-38.93-22.48-79.1-22.48-118,0h0C49.75,79.46,40,90.88,40,102.3s9.73,22.83,29.19,34.06c38.92,22.48,79.09,22.48,118,0,19.46-11.23,29.19-22.65,29.19-34.06S206.69,79.46,187.23,68.23Z"/><path class="cls-11" d="M185.75,68.23c-38.93-22.48-79.1-22.48-118,0h0c-19.46,11.23-29.2,22.65-29.2,34.07s9.74,22.83,29.2,34.06c38.92,22.48,79.09,22.48,118,0,19.46-11.23,29.19-22.65,29.19-34.06S205.21,79.46,185.75,68.23Z"/><path class="cls-12" d="M184.26,68.23c-38.92-22.48-79.09-22.48-118,0h0c-19.47,11.23-29.2,22.65-29.2,34.07s9.73,22.83,29.2,34.06c38.92,22.48,79.09,22.48,118,0,19.47-11.23,29.2-22.65,29.2-34.06S203.73,79.46,184.26,68.23Z"/><path class="cls-13" d="M182.78,68.23c-38.92-22.48-79.09-22.48-118,0h0C45.3,79.46,35.57,90.88,35.57,102.3s9.73,22.83,29.19,34.06c38.93,22.48,79.1,22.48,118,0,19.46-11.23,29.2-22.65,29.2-34.06S202.24,79.46,182.78,68.23Z"/><path class="cls-14" d="M181.3,68.23c-38.92-22.48-79.09-22.48-118,0h0C43.82,79.46,34.09,90.88,34.09,102.3s9.73,22.83,29.19,34.06c38.93,22.48,79.1,22.48,118,0,19.46-11.23,29.19-22.65,29.19-34.06S200.76,79.46,181.3,68.23Z"/><path class="cls-15" d="M179.82,68.23c-38.93-22.48-79.1-22.48-118,0h0C42.34,79.46,32.61,90.88,32.61,102.3s9.73,22.83,29.19,34.06c38.92,22.48,79.09,22.48,118,0C199.28,125.13,209,113.71,209,102.3S199.28,79.46,179.82,68.23Z"/><path class="cls-16" d="M178.34,68.23c-38.93-22.48-79.1-22.48-118,0h0c-19.47,11.23-29.2,22.65-29.2,34.07s9.73,22.83,29.2,34.06c38.92,22.48,79.09,22.48,118,0,19.46-11.23,29.19-22.65,29.19-34.06S197.8,79.46,178.34,68.23Z"/><path class="cls-17" d="M176.85,68.23c-38.92-22.48-79.09-22.48-118,0h0C39.37,79.46,29.64,90.88,29.64,102.3s9.73,22.83,29.2,34.06c38.92,22.48,79.09,22.48,118,0,19.47-11.23,29.2-22.65,29.2-34.06S196.32,79.46,176.85,68.23Z"/><path class="cls-18" d="M175.37,68.23c-38.92-22.48-79.09-22.48-118,0h0C37.89,79.46,28.16,90.88,28.16,102.3s9.73,22.83,29.19,34.06c38.93,22.48,79.1,22.48,118,0,19.46-11.23,29.19-22.65,29.19-34.06S194.83,79.46,175.37,68.23Z"/><path class="cls-19" d="M173.89,68.23c-38.93-22.48-79.1-22.48-118,0h0C36.41,79.46,26.68,90.88,26.68,102.3s9.73,22.83,29.19,34.06c38.93,22.48,79.1,22.48,118,0,19.46-11.23,29.19-22.65,29.19-34.06S193.35,79.46,173.89,68.23Z"/><path class="cls-20" d="M172.41,68.23c-38.93-22.48-79.1-22.48-118,0h0C34.93,79.46,25.2,90.88,25.2,102.3s9.73,22.83,29.19,34.06c38.92,22.48,79.09,22.48,118,0,19.46-11.23,29.19-22.65,29.19-34.06S191.87,79.46,172.41,68.23Z"/><path class="cls-21" d="M170.92,68.23c-38.92-22.48-79.09-22.48-118,0h0c-19.47,11.23-29.2,22.65-29.2,34.07s9.73,22.83,29.2,34.06c38.92,22.48,79.09,22.48,118,0,19.46-11.23,29.19-22.65,29.19-34.06S190.39,79.46,170.92,68.23Z"/><path class="cls-22" d="M169.44,68.23c-38.92-22.48-79.09-22.48-118,0h0C32,79.46,22.23,90.88,22.23,102.3S32,125.13,51.42,136.36c38.93,22.48,79.1,22.48,118,0,19.47-11.23,29.2-22.65,29.2-34.06S188.91,79.46,169.44,68.23Z"/><path class="cls-23" d="M168,68.23c-38.92-22.48-79.09-22.48-118,0h0C30.48,79.46,20.75,90.88,20.75,102.3s9.73,22.83,29.19,34.06c38.93,22.48,79.1,22.48,118,0,19.46-11.23,29.19-22.65,29.19-34.06S187.42,79.46,168,68.23Z"/><path class="cls-24" d="M166.48,68.23c-38.93-22.48-79.1-22.48-118,0h0C29,79.46,19.27,90.88,19.27,102.3S29,125.13,48.46,136.36c38.92,22.48,79.1,22.48,118,0,19.46-11.23,29.19-22.65,29.19-34.06S185.94,79.46,166.48,68.23Z"/><path class="cls-25" d="M165,68.23c-38.93-22.48-79.1-22.48-118,0h0C27.52,79.46,17.78,90.88,17.79,102.3S27.52,125.13,47,136.36c38.92,22.48,79.09,22.48,118,0,19.46-11.23,29.19-22.65,29.19-34.06S184.46,79.46,165,68.23Z"/><path class="cls-26" d="M163.51,68.23c-38.92-22.48-79.09-22.48-118,0h0C26,79.46,16.3,90.88,16.3,102.3S26,125.13,45.5,136.36c38.92,22.48,79.09,22.48,118,0,19.47-11.23,29.2-22.65,29.2-34.06S183,79.46,163.51,68.23Z"/><path class="cls-27" d="M162,68.23c-38.92-22.48-79.09-22.48-118,0h0C24.55,79.46,14.82,90.88,14.82,102.3S24.55,125.13,44,136.36c38.93,22.48,79.1,22.48,118,0,19.46-11.23,29.2-22.65,29.2-34.06S181.49,79.46,162,68.23Z"/><path class="cls-28" d="M160.55,68.23c-38.92-22.48-79.09-22.48-118,0h0C23.07,79.46,13.34,90.88,13.34,102.3s9.73,22.83,29.19,34.06c38.93,22.48,79.1,22.48,118,0,19.46-11.23,29.19-22.65,29.19-34.06S180,79.46,160.55,68.23Z"/><path class="cls-29" d="M159.07,68.23c-38.93-22.48-79.1-22.48-118,0h0C21.59,79.46,11.86,90.88,11.86,102.3s9.73,22.83,29.19,34.06c38.92,22.48,79.09,22.48,118,0,19.46-11.23,29.19-22.65,29.19-34.06S178.53,79.46,159.07,68.23Z"/><path class="cls-30" d="M157.59,68.23c-38.93-22.48-79.1-22.48-118,0h0c-19.46,11.23-29.2,22.65-29.2,34.07s9.74,22.83,29.2,34.06c38.92,22.48,79.09,22.48,118,0,19.46-11.23,29.19-22.65,29.19-34.06S177.05,79.46,157.59,68.23Z"/><path class="cls-31" d="M156.1,68.23c-38.92-22.48-79.09-22.48-118,0h0C18.62,79.46,8.89,90.88,8.89,102.3s9.73,22.83,29.2,34.06c38.92,22.48,79.09,22.48,118,0,19.47-11.23,29.2-22.65,29.2-34.06S175.57,79.46,156.1,68.23Z"/><path class="cls-32" d="M154.62,68.23c-38.92-22.48-79.09-22.48-118,0h0C17.14,79.46,7.41,90.88,7.41,102.3s9.73,22.83,29.19,34.06c38.93,22.48,79.1,22.48,118,0,19.46-11.23,29.2-22.65,29.2-34.06S174.08,79.46,154.62,68.23Z"/><path class="cls-33" d="M153.14,68.23c-38.92-22.48-79.09-22.48-118,0h0C15.66,79.46,5.93,90.88,5.93,102.3s9.73,22.83,29.19,34.06c38.93,22.48,79.1,22.48,118,0,19.46-11.23,29.19-22.65,29.19-34.06S172.6,79.46,153.14,68.23Z"/><path class="cls-34" d="M151.66,68.23c-38.93-22.48-79.1-22.48-118,0h0C14.18,79.46,4.45,90.88,4.45,102.3s9.73,22.83,29.19,34.06c38.92,22.48,79.09,22.48,118,0,19.46-11.23,29.19-22.65,29.19-34.06S171.12,79.46,151.66,68.23Z"/><path class="cls-35" d="M150.18,68.23c-38.93-22.48-79.1-22.48-118,0h0C12.7,79.46,3,90.88,3,102.3s9.74,22.83,29.2,34.06c38.92,22.48,79.09,22.48,118,0,19.46-11.23,29.19-22.65,29.19-34.06S169.64,79.46,150.18,68.23Z"/><path class="cls-36" d="M148.69,68.23c-38.92-22.48-79.09-22.48-118,0h0C11.21,79.46,1.48,90.88,1.48,102.3s9.73,22.83,29.2,34.06c38.92,22.48,79.09,22.48,118,0,19.47-11.23,29.2-22.65,29.2-34.06S168.16,79.46,148.69,68.23Z"/><path class="cls-37" d="M147.21,68.23c-38.92-22.48-79.09-22.48-118,0h0C9.73,79.46,0,90.88,0,102.3s9.73,22.83,29.19,34.06c38.93,22.48,79.1,22.48,118,0,19.46-11.23,29.19-22.65,29.19-34.06S166.67,79.46,147.21,68.23Z"/></g><path class="cls-38" d="M147.21,119.36c-38.92,22.48-79.09,22.48-118,0C9.73,108.13,0,96.71,0,85.3v17c0,11.41,9.73,22.83,29.19,34.06,38.93,22.48,79.1,22.48,118,0,19.46-11.23,29.19-22.65,29.19-34.06v-17C176.4,96.71,166.67,108.13,147.21,119.36Z"/><path class="cls-39" d="M147.21,51.23c-38.92-22.48-79.09-22.48-118,0h0C9.73,62.46,0,73.88,0,85.3s9.73,22.83,29.19,34.06c38.93,22.48,79.1,22.48,118,0,19.46-11.23,29.19-22.65,29.19-34.06S166.67,62.46,147.21,51.23Z"/><g class="cls-40"><g class="cls-3"><path class="cls-4" d="M195.82,34.45h0a34.45,34.45,0,1,0-68.9,0c0,19.65,16.78,29.1,16.78,35.51h0V80.7c0,2.37,1.38,4.74,4.14,6.67.08.22.17.43.24.61.81,1.88,1.35,4.09,4,5.64,5.4,3.12,14.16,3.12,19.56,0A8.4,8.4,0,0,0,175.74,88c0-.17.09-.35.15-.55,2.82-1.94,4.24-4.34,4.23-6.73V70a7,7,0,0,1-1.66,4.37A7,7,0,0,0,180.12,70C180.12,63,195.82,54.34,195.82,34.45Z"/><path class="cls-41" d="M193.6,34.45h0a34.45,34.45,0,1,0-68.9,0c0,19.65,16.77,29.1,16.77,35.51h0V80.7c0,2.37,1.39,4.74,4.15,6.67.08.22.16.43.24.61.81,1.88,1.35,4.09,4,5.64,5.4,3.12,14.15,3.12,19.55,0a8.37,8.37,0,0,0,4-5.64c.05-.17.1-.35.15-.55,2.82-1.94,4.24-4.34,4.24-6.73V70a7,7,0,0,1-1.67,4.37A7,7,0,0,0,177.9,70C177.9,63,193.6,54.34,193.6,34.45Z"/><path class="cls-42" d="M191.38,34.45h0a34.46,34.46,0,0,0-68.91,0c0,19.65,16.78,29.1,16.78,35.51h0V80.7c0,2.37,1.38,4.74,4.14,6.67.09.22.17.43.25.61.8,1.88,1.35,4.09,4.05,5.64,5.4,3.12,14.15,3.12,19.55,0a8.4,8.4,0,0,0,4-5.64c.05-.17.1-.35.15-.55,2.82-1.94,4.24-4.34,4.24-6.73V70A7,7,0,0,1,174,74.33,7,7,0,0,0,175.68,70C175.68,63,191.37,54.34,191.38,34.45Z"/><path class="cls-43" d="M189.15,34.45h0a34.45,34.45,0,1,0-68.9,0C120.25,54.1,137,63.55,137,70h0V80.7c0,2.37,1.38,4.74,4.14,6.67.08.22.17.43.25.61.8,1.88,1.34,4.09,4,5.64,5.4,3.12,14.16,3.12,19.56,0a8.4,8.4,0,0,0,4-5.64c0-.17.09-.35.15-.55,2.82-1.94,4.24-4.34,4.24-6.73V70a7,7,0,0,1-1.67,4.37A7,7,0,0,0,173.46,70C173.46,63,189.15,54.34,189.15,34.45Z"/><path class="cls-44" d="M186.93,34.45h0a34.45,34.45,0,1,0-68.9,0C118,54.1,134.8,63.55,134.8,70h0V80.7c0,2.37,1.39,4.74,4.15,6.67.08.22.16.43.24.61.81,1.88,1.35,4.09,4.05,5.64,5.4,3.12,14.15,3.12,19.55,0A8.37,8.37,0,0,0,166.84,88c0-.17.1-.35.15-.55,2.82-1.94,4.24-4.34,4.24-6.73V70a7,7,0,0,1-1.67,4.37A7,7,0,0,0,171.23,70C171.23,63,186.93,54.34,186.93,34.45Z"/><path class="cls-45" d="M184.71,34.45h0a34.46,34.46,0,0,0-68.91,0c0,19.65,16.78,29.1,16.78,35.51h0V80.7c0,2.37,1.38,4.74,4.14,6.67.09.22.17.43.25.61.8,1.88,1.35,4.09,4.05,5.64,5.4,3.12,14.15,3.12,19.55,0A8.4,8.4,0,0,0,164.62,88c0-.17.1-.35.15-.55,2.82-1.94,4.24-4.34,4.24-6.73V70a7,7,0,0,1-1.67,4.37A7,7,0,0,0,169,70C169,63,184.71,54.34,184.71,34.45Z"/><path class="cls-46" d="M182.48,34.45h0a34.45,34.45,0,1,0-68.9,0c0,19.65,16.78,29.1,16.78,35.51h0V80.7c0,2.37,1.38,4.74,4.14,6.67.08.22.17.43.25.61.8,1.88,1.35,4.09,4,5.64,5.4,3.12,14.16,3.12,19.56,0A8.4,8.4,0,0,0,162.4,88c0-.17.09-.35.15-.55,2.82-1.94,4.24-4.34,4.24-6.73V70a7,7,0,0,1-1.67,4.37A7,7,0,0,0,166.79,70C166.79,63,182.48,54.34,182.48,34.45Z"/><path class="cls-47" d="M180.26,34.45h0a34.45,34.45,0,1,0-68.9,0c0,19.65,16.77,29.1,16.77,35.51h0V80.7c0,2.37,1.39,4.74,4.15,6.67.08.22.16.43.24.61.81,1.88,1.35,4.09,4,5.64,5.4,3.12,14.16,3.12,19.55,0a8.37,8.37,0,0,0,4-5.64c.05-.17.1-.35.15-.55,2.82-1.94,4.24-4.34,4.24-6.73V70a7,7,0,0,1-1.67,4.37A7,7,0,0,0,164.56,70C164.56,63,180.26,54.34,180.26,34.45Z"/><path class="cls-48" d="M178,34.45h0a34.45,34.45,0,1,0-68.9,0c0,19.65,16.77,29.1,16.77,35.51h0V80.7c0,2.37,1.38,4.74,4.14,6.67.09.22.17.43.25.61.8,1.88,1.35,4.09,4,5.64,5.4,3.12,14.15,3.12,19.55,0A8.37,8.37,0,0,0,158,88c.05-.17.1-.35.15-.55,2.82-1.94,4.24-4.34,4.24-6.73V70a7,7,0,0,1-1.67,4.37A7,7,0,0,0,162.34,70C162.34,63,178,54.34,178,34.45Z"/><path class="cls-49" d="M175.81,34.45h0a34.45,34.45,0,1,0-68.9,0c0,19.65,16.78,29.1,16.78,35.51h0V80.7c0,2.37,1.38,4.74,4.14,6.67.09.22.17.43.25.61.8,1.88,1.35,4.09,4,5.64,5.39,3.12,14.15,3.12,19.55,0a8.4,8.4,0,0,0,4-5.64c0-.17.1-.35.15-.55,2.82-1.94,4.24-4.34,4.24-6.73V70a7,7,0,0,1-1.67,4.37A7,7,0,0,0,160.12,70C160.12,63,175.81,54.34,175.81,34.45Z"/><path class="cls-50" d="M173.59,34.45h0a34.45,34.45,0,1,0-68.9,0c0,19.65,16.77,29.1,16.77,35.51h0V80.7c0,2.37,1.39,4.74,4.15,6.67.08.22.17.43.24.61.81,1.88,1.35,4.09,4.05,5.64,5.4,3.12,14.16,3.12,19.56,0a8.39,8.39,0,0,0,4-5.64c.05-.17.1-.35.15-.55,2.82-1.94,4.24-4.34,4.24-6.73V70a7.07,7.07,0,0,1-1.66,4.37A7.07,7.07,0,0,0,157.89,70C157.89,63,173.59,54.34,173.59,34.45Z"/><path class="cls-51" d="M171.37,34.45h0a34.45,34.45,0,1,0-68.9,0c0,19.65,16.77,29.1,16.77,35.51h0V80.7c0,2.37,1.38,4.74,4.14,6.67.09.22.17.43.25.61.8,1.88,1.35,4.09,4.05,5.64,5.4,3.12,14.15,3.12,19.55,0A8.37,8.37,0,0,0,151.28,88c.05-.17.1-.35.15-.55,2.82-1.94,4.24-4.34,4.24-6.73V70A7,7,0,0,1,154,74.33,7,7,0,0,0,155.67,70C155.67,63,171.37,54.34,171.37,34.45Z"/><path class="cls-52" d="M169.14,34.45h0a34.45,34.45,0,1,0-68.9,0C100.24,54.1,117,63.55,117,70h0V80.7c0,2.37,1.38,4.74,4.14,6.67.09.22.17.43.25.61.8,1.88,1.35,4.09,4,5.64,5.4,3.12,14.15,3.12,19.55,0A8.4,8.4,0,0,0,149.06,88c.05-.17.1-.35.15-.55,2.82-1.94,4.24-4.34,4.24-6.73V70a7,7,0,0,1-1.67,4.37A7,7,0,0,0,153.45,70C153.45,63,169.14,54.34,169.14,34.45Z"/><path class="cls-53" d="M166.92,34.45h0a34.45,34.45,0,1,0-68.9,0C98,54.1,114.79,63.55,114.79,70h0V80.7c0,2.37,1.39,4.74,4.15,6.67.08.22.17.43.24.61.81,1.88,1.35,4.09,4,5.64,5.4,3.12,14.16,3.12,19.56,0A8.4,8.4,0,0,0,146.84,88c0-.17.09-.35.15-.55,2.82-1.94,4.23-4.34,4.23-6.73V70a7.07,7.07,0,0,1-1.66,4.37A7.07,7.07,0,0,0,151.22,70C151.22,63,166.92,54.34,166.92,34.45Z"/><path class="cls-54" d="M164.7,34.45h0a34.45,34.45,0,1,0-68.9,0c0,19.65,16.77,29.1,16.77,35.51h0V80.7c0,2.37,1.39,4.74,4.14,6.67.09.22.17.43.25.61.81,1.88,1.35,4.09,4.05,5.64,5.4,3.12,14.15,3.12,19.55,0A8.37,8.37,0,0,0,144.61,88c0-.17.1-.35.15-.55,2.82-1.94,4.24-4.34,4.24-6.73V70a7,7,0,0,1-1.67,4.37A7,7,0,0,0,149,70C149,63,164.7,54.34,164.7,34.45Z"/><path class="cls-55" d="M162.47,34.45h0a34.45,34.45,0,1,0-68.9,0c0,19.65,16.78,29.1,16.78,35.51h0V80.7c0,2.37,1.38,4.74,4.14,6.67.09.22.17.43.25.61.8,1.88,1.35,4.09,4.05,5.64,5.4,3.12,14.15,3.12,19.55,0a8.4,8.4,0,0,0,4-5.64c.05-.17.1-.35.15-.55,2.82-1.94,4.24-4.34,4.24-6.73V70a7,7,0,0,1-1.67,4.37A7,7,0,0,0,146.78,70C146.78,63,162.47,54.34,162.47,34.45Z"/><path class="cls-56" d="M160.25,34.45h0a34.45,34.45,0,1,0-68.9,0c0,19.65,16.78,29.1,16.78,35.51h0V80.7c0,2.37,1.38,4.74,4.14,6.67.08.22.17.43.24.61.81,1.88,1.35,4.09,4,5.64,5.4,3.12,14.16,3.12,19.56,0a8.4,8.4,0,0,0,4-5.64c0-.17.09-.35.15-.55,2.82-1.94,4.24-4.34,4.23-6.73V70a7,7,0,0,1-1.66,4.37A7.07,7.07,0,0,0,144.55,70C144.55,63,160.25,54.34,160.25,34.45Z"/><path class="cls-57" d="M158,34.45h0a34.45,34.45,0,1,0-68.9,0c0,19.65,16.77,29.1,16.77,35.51h0V80.7c0,2.37,1.39,4.74,4.15,6.67.08.22.16.43.24.61.81,1.88,1.35,4.09,4,5.64,5.4,3.12,14.15,3.12,19.55,0A8.37,8.37,0,0,0,137.94,88c.05-.17.1-.35.15-.55,2.82-1.94,4.24-4.34,4.24-6.73V70a7,7,0,0,1-1.67,4.37A7,7,0,0,0,142.33,70C142.33,63,158,54.34,158,34.45Z"/><path class="cls-58" d="M155.81,34.45h0a34.46,34.46,0,0,0-68.91,0c0,19.65,16.78,29.1,16.78,35.51h0V80.7c0,2.37,1.38,4.74,4.14,6.67.09.22.17.43.25.61.8,1.88,1.35,4.09,4.05,5.64,5.4,3.12,14.15,3.12,19.55,0A8.4,8.4,0,0,0,135.72,88c.05-.17.1-.35.15-.55,2.82-1.94,4.24-4.34,4.24-6.73V70a7,7,0,0,1-1.67,4.37A7,7,0,0,0,140.11,70C140.11,63,155.8,54.34,155.81,34.45Z"/><path class="cls-59" d="M153.58,34.45h0a34.45,34.45,0,1,0-68.9,0c0,19.65,16.78,29.1,16.78,35.51h0V80.7c0,2.37,1.38,4.74,4.14,6.67.08.22.17.43.25.61.8,1.88,1.34,4.09,4,5.64,5.4,3.12,14.16,3.12,19.56,0A8.4,8.4,0,0,0,133.5,88c0-.17.09-.35.15-.55,2.82-1.94,4.24-4.34,4.24-6.73V70a7,7,0,0,1-1.67,4.37A7,7,0,0,0,137.89,70C137.89,63,153.58,54.34,153.58,34.45Z"/><path class="cls-60" d="M151.36,34.45h0a34.45,34.45,0,1,0-68.9,0c0,19.65,16.77,29.1,16.77,35.51h0V80.7c0,2.37,1.39,4.74,4.15,6.67.08.22.16.43.24.61.81,1.88,1.35,4.09,4,5.64,5.4,3.12,14.15,3.12,19.55,0A8.37,8.37,0,0,0,131.27,88c0-.17.1-.35.15-.55,2.82-1.94,4.24-4.34,4.24-6.73V70A7,7,0,0,1,134,74.33,7,7,0,0,0,135.66,70C135.66,63,151.36,54.34,151.36,34.45Z"/><path class="cls-61" d="M149.14,34.45h0a34.46,34.46,0,0,0-68.91,0C80.23,54.1,97,63.55,97,70h0V80.7c0,2.37,1.38,4.74,4.14,6.67.09.22.17.43.25.61.8,1.88,1.35,4.09,4,5.64,5.4,3.12,14.15,3.12,19.55,0A8.4,8.4,0,0,0,129.05,88c0-.17.1-.35.15-.55,2.82-1.94,4.24-4.34,4.24-6.73V70a7,7,0,0,1-1.67,4.37A7,7,0,0,0,133.44,70C133.44,63,149.14,54.34,149.14,34.45Z"/><path class="cls-62" d="M146.91,34.45h0a34.45,34.45,0,1,0-68.9,0C78,54.1,94.79,63.55,94.79,70h0V80.7c0,2.37,1.38,4.74,4.14,6.67.08.22.17.43.25.61.8,1.88,1.35,4.09,4,5.64,5.4,3.12,14.16,3.12,19.56,0a8.4,8.4,0,0,0,4-5.64c0-.17.09-.35.15-.55,2.82-1.94,4.24-4.34,4.24-6.73V70a7,7,0,0,1-1.67,4.37A7,7,0,0,0,131.22,70C131.22,63,146.91,54.34,146.91,34.45Z"/><path class="cls-63" d="M144.69,34.45h0a34.45,34.45,0,1,0-68.9,0c0,19.65,16.77,29.1,16.77,35.51h0V80.7c0,2.37,1.39,4.74,4.15,6.67.08.22.16.43.24.61.81,1.88,1.35,4.09,4,5.64,5.4,3.12,14.16,3.12,19.55,0a8.37,8.37,0,0,0,4-5.64c.05-.17.1-.35.15-.55,2.82-1.94,4.24-4.34,4.24-6.73V70a7,7,0,0,1-1.67,4.37A7,7,0,0,0,129,70C129,63,144.69,54.34,144.69,34.45Z"/><path class="cls-64" d="M142.47,34.45h0a34.46,34.46,0,0,0-68.91,0c0,19.65,16.78,29.1,16.78,35.51h0V80.7c0,2.37,1.38,4.74,4.14,6.67.09.22.17.43.25.61.8,1.88,1.35,4.09,4,5.64,5.4,3.12,14.15,3.12,19.55,0a8.37,8.37,0,0,0,4-5.64c.05-.17.1-.35.15-.55,2.82-1.94,4.24-4.34,4.24-6.73V70a7,7,0,0,1-1.67,4.37A7,7,0,0,0,126.77,70C126.77,63,142.47,54.34,142.47,34.45Z"/><path class="cls-65" d="M140.24,34.45h0a34.45,34.45,0,1,0-68.9,0c0,19.65,16.78,29.1,16.78,35.51h0V80.7c0,2.37,1.38,4.74,4.14,6.67.09.22.17.43.25.61.8,1.88,1.35,4.09,4,5.64,5.39,3.12,14.15,3.12,19.55,0a8.4,8.4,0,0,0,4-5.64c0-.17.1-.35.15-.55,2.82-1.94,4.24-4.34,4.24-6.73V70a7,7,0,0,1-1.67,4.37A7,7,0,0,0,124.55,70C124.55,63,140.24,54.34,140.24,34.45Z"/><path class="cls-66" d="M138,34.45h0a34.45,34.45,0,1,0-68.9,0c0,19.65,16.77,29.1,16.77,35.51h0V80.7c0,2.37,1.39,4.74,4.15,6.67.08.22.17.43.24.61.81,1.88,1.35,4.09,4,5.64,5.4,3.12,14.16,3.12,19.56,0a8.39,8.39,0,0,0,4-5.64c0-.17.1-.35.15-.55,2.82-1.94,4.24-4.34,4.24-6.73V70a7.07,7.07,0,0,1-1.66,4.37A7.07,7.07,0,0,0,122.32,70C122.32,63,138,54.34,138,34.45Z"/><path class="cls-67" d="M135.8,34.45h0a34.45,34.45,0,1,0-68.9,0C66.9,54.1,83.67,63.55,83.67,70h0V80.7c0,2.37,1.38,4.74,4.14,6.67.09.22.17.43.25.61.8,1.88,1.35,4.09,4,5.64,5.4,3.12,14.15,3.12,19.55,0a8.37,8.37,0,0,0,4-5.64c.05-.17.1-.35.15-.55,2.82-1.94,4.24-4.34,4.24-6.73V70a7,7,0,0,1-1.67,4.37A7,7,0,0,0,120.1,70C120.1,63,135.8,54.34,135.8,34.45Z"/><path class="cls-68" d="M133.57,34.45h0a34.45,34.45,0,1,0-68.9,0c0,19.65,16.78,29.1,16.78,35.51h0V80.7c0,2.37,1.38,4.74,4.14,6.67.09.22.17.43.25.61.8,1.88,1.35,4.09,4,5.64,5.4,3.12,14.15,3.12,19.55,0a8.4,8.4,0,0,0,4-5.64c.05-.17.1-.35.15-.55,2.82-1.94,4.24-4.34,4.24-6.73V70a7,7,0,0,1-1.67,4.37A7,7,0,0,0,117.88,70C117.88,63,133.57,54.34,133.57,34.45Z"/><path class="cls-69" d="M131.35,34.45h0a34.45,34.45,0,1,0-68.9,0c0,19.65,16.77,29.1,16.77,35.51h0V80.7c0,2.37,1.39,4.74,4.15,6.67.08.22.17.43.24.61.81,1.88,1.35,4.09,4,5.64,5.4,3.12,14.16,3.12,19.56,0a8.4,8.4,0,0,0,4-5.64c0-.17.09-.35.15-.55,2.82-1.94,4.23-4.34,4.23-6.73V70A7.07,7.07,0,0,1,114,74.33,7.07,7.07,0,0,0,115.65,70C115.65,63,131.35,54.34,131.35,34.45Z"/><path class="cls-70" d="M129.13,34.45h0a34.45,34.45,0,1,0-68.9,0C60.23,54.1,77,63.55,77,70h0V80.7c0,2.37,1.39,4.74,4.14,6.67.09.22.17.43.25.61.81,1.88,1.35,4.09,4,5.64,5.4,3.12,14.15,3.12,19.55,0A8.37,8.37,0,0,0,109,88c0-.17.1-.35.15-.55,2.82-1.94,4.24-4.34,4.24-6.73V70a7,7,0,0,1-1.67,4.37A7,7,0,0,0,113.43,70C113.43,63,129.13,54.34,129.13,34.45Z"/><path class="cls-71" d="M126.9,34.45h0a34.45,34.45,0,1,0-68.9,0C58,54.1,74.78,63.55,74.78,70h0V80.7c0,2.37,1.38,4.74,4.14,6.67.09.22.17.43.25.61.8,1.88,1.35,4.09,4,5.64,5.4,3.12,14.15,3.12,19.55,0a8.4,8.4,0,0,0,4-5.64c.05-.17.1-.35.15-.55,2.82-1.94,4.24-4.34,4.24-6.73V70a7,7,0,0,1-1.67,4.37A7,7,0,0,0,111.21,70C111.21,63,126.9,54.34,126.9,34.45Z"/><path class="cls-72" d="M124.68,34.45h0a34.45,34.45,0,1,0-68.9,0c0,19.65,16.78,29.1,16.78,35.51h0V80.7c0,2.37,1.38,4.74,4.14,6.67.08.22.17.43.24.61.81,1.88,1.35,4.09,4,5.64,5.4,3.12,14.16,3.12,19.56,0a8.4,8.4,0,0,0,4-5.64c0-.17.09-.35.15-.55,2.82-1.94,4.24-4.34,4.23-6.73V70a7.07,7.07,0,0,1-1.66,4.37A7.07,7.07,0,0,0,109,70C109,63,124.68,54.34,124.68,34.45Z"/><path class="cls-73" d="M122.46,34.45h0a34.45,34.45,0,1,0-68.9,0c0,19.65,16.77,29.1,16.77,35.51h0V80.7c0,2.37,1.39,4.74,4.15,6.67.08.22.16.43.24.61.81,1.88,1.35,4.09,4,5.64,5.4,3.12,14.15,3.12,19.55,0A8.37,8.37,0,0,0,102.37,88c0-.17.1-.35.15-.55,2.82-1.94,4.24-4.34,4.24-6.73V70a7,7,0,0,1-1.67,4.37A7,7,0,0,0,106.76,70C106.76,63,122.46,54.34,122.46,34.45Z"/></g></g><path class="cls-74" d="M104.9,77.5c0,2-3.88,6.59-6.58,8.15-5.4,3.12-14.15,3.12-19.55,0-2.7-1.56-7-4.77-7-6.81,0,0,1.9,6.58,3,9.14.81,1.88,1.35,4.09,4,5.64,5.4,3.12,14.15,3.12,19.55,0A8.37,8.37,0,0,0,102.37,88C103.2,85.07,104.9,77.5,104.9,77.5Z"/><path class="cls-75" d="M101.43,77.39c-7.12,4.11-18.65,4.11-25.76,0-3.56-2.06-5.34-4.75-5.34-7.44V80.7c0,2.69,1.78,5.38,5.34,7.43,7.11,4.11,18.64,4.11,25.76,0,3.55-2,5.33-4.74,5.33-7.43V70C106.76,72.65,105,75.34,101.43,77.39Z"/><g class="cls-76"><path class="cls-77" d="M101.43,79.58c-7.12,4.11-18.65,4.11-25.76,0-3.56-2-5.34-4.74-5.34-7.43v2.14c0,2.69,1.78,5.38,5.34,7.44,7.11,4.1,18.64,4.1,25.76,0,3.55-2.06,5.33-4.75,5.33-7.44V72.15C106.76,74.84,105,77.53,101.43,79.58Z"/></g><g class="cls-76"><path class="cls-77" d="M101.43,83.8c-7.12,4.11-18.65,4.11-25.76,0-3.56-2-5.34-4.74-5.34-7.43v2.14c0,2.69,1.78,5.38,5.34,7.44,7.11,4.1,18.64,4.1,25.76,0,3.55-2.06,5.33-4.75,5.33-7.44V76.37C106.76,79.06,105,81.75,101.43,83.8Z"/></g><path class="cls-78" d="M112.37,10.09A34.45,34.45,0,0,0,53.56,34.45c0,19.65,16.77,29.1,16.77,35.51,0,2.69,1.78,5.38,5.34,7.44,7.11,4.1,18.64,4.1,25.76,0,3.55-2,5.33-4.74,5.33-7.43,0-7,15.7-15.62,15.7-35.51h0A34.37,34.37,0,0,0,112.37,10.09Z"/><path class="cls-79" d="M112.37,10.09A34.45,34.45,0,0,0,53.56,34.45c0,19.65,16.77,29.1,16.77,35.51,0,2.69,1.78,5.38,5.34,7.44,7.11,4.1,18.64,4.1,25.76,0,3.55-2,5.33-4.74,5.33-7.43,0-7,15.7-15.62,15.7-35.51h0A34.37,34.37,0,0,0,112.37,10.09Z"/></g></g></g></svg>