<svg id="Layer_1" data-name="Layer 1" xmlns="http://www.w3.org/2000/svg" xmlns:xlink="http://www.w3.org/1999/xlink" viewBox="0 0 48 48"><defs><style>.cls-1{fill:url(#linear-gradient)}.cls-2{fill:url(#linear-gradient-2)}.cls-3{fill:url(#linear-gradient-3)}.cls-4{fill:url(#linear-gradient-4)}.cls-5{fill:url(#linear-gradient-5)}.cls-6{fill:url(#linear-gradient-6)}</style><linearGradient id="linear-gradient" x1="24" y1="46.85" x2="24" y2="38.43" gradientUnits="userSpaceOnUse"><stop offset="0" stop-color="#fff"/><stop offset=".52" stop-color="#cce2e6"/><stop offset="1" stop-color="#8fa1bb"/></linearGradient><linearGradient id="linear-gradient-2" x1="24" y1="29.81" x2="24" y2="-25.04" gradientUnits="userSpaceOnUse"><stop offset="0" stop-color="#273a9b"/><stop offset=".56" stop-color="#202f65"/><stop offset="1" stop-color="#021e2f"/></linearGradient><linearGradient id="linear-gradient-3" x1="28.25" y1="49.98" x2="28.25" y2="-7.92" xlink:href="#linear-gradient-2"/><linearGradient id="linear-gradient-4" x1="24.16" y1="35.33" x2="24.16" y2="-22.88" gradientUnits="userSpaceOnUse"><stop offset="0" stop-color="#27e9de"/><stop offset=".52" stop-color="#03a4ec"/><stop offset="1" stop-color="#2547a8"/></linearGradient><linearGradient id="linear-gradient-5" x1="27.21" y1="44" x2="27.21" y2="-6.43" xlink:href="#linear-gradient-4"/><linearGradient id="linear-gradient-6" x1="26.41" y1="44" x2="26.41" y2="-6.43" xlink:href="#linear-gradient-4"/></defs><title>bank, finance, dollar, location, pointer</title><ellipse class="cls-1" cx="24" cy="43.48" rx="10.5" ry="1.5"/><path class="cls-2" d="M36.14 32.32L25.19 43.27a1.69 1.69 0 0 1-2.39 0L11.86 32.32a17.16 17.16 0 0 1 0-24.27 17.16 17.16 0 0 1 24.27 0 17.16 17.16 0 0 1 .01 24.27z"/><path class="cls-3" d="M15.45 5.32a14.27 14.27 0 0 1 8.61 13.1v25.34a1.68 1.68 0 0 0 1.13-.49l10.62-10.62c6.65-6.65 7.1-17.51.6-24.31a17.16 17.16 0 0 0-20.96-3.02z"/><path class="cls-4" d="M25.33 19.26H23a1.55 1.55 0 0 1-1.55-1.55v-.84A1.55 1.55 0 0 1 23 15.32h2.33a1.55 1.55 0 0 1 1.55 1.55 1.74 1.74 0 1 0 3.49 0 5 5 0 0 0-4.51-5 1.74 1.74 0 0 0-3.38 0 5 5 0 0 0-4.51 5v.84a5 5 0 0 0 5 5h2.33a1.55 1.55 0 0 1 1.55 1.55v.84a1.55 1.55 0 0 1-1.55 1.55H23a1.55 1.55 0 0 1-1.55-1.55 1.74 1.74 0 0 0-3.49 0 5 5 0 0 0 4.51 5 1.74 1.74 0 0 0 3.38 0 5 5 0 0 0 4.51-5v-.84a5 5 0 0 0-5.03-5z"/><path class="cls-5" d="M25.33 26.68h-1.27v4.77h.1a1.74 1.74 0 0 0 1.69-1.33 5 5 0 0 0 4.51-5v-.84a5 5 0 0 0-5-5h-1.3v3.49h1.26a1.55 1.55 0 0 1 1.55 1.55v.84a1.55 1.55 0 0 1-1.54 1.52z"/><path class="cls-6" d="M25.85 11.86a1.74 1.74 0 0 0-3.38 0 14.23 14.23 0 0 1 1.26 3.46h1.6a1.55 1.55 0 0 1 1.55 1.55 1.74 1.74 0 1 0 3.49 0 5 5 0 0 0-4.52-5.01z"/></svg>