<svg xmlns="http://www.w3.org/2000/svg" viewBox="0 0 225.31 148.49"><defs><style>.cls-1{fill:none}.cls-2{isolation:isolate}.cls-3{mix-blend-mode:multiply}.cls-4,.cls-76{fill:#fff}.cls-4{opacity:0}.cls-5{fill:#fcfcfc}.cls-41,.cls-5{opacity:.03}.cls-6{fill:#f9f9f9}.cls-42,.cls-6{opacity:.06}.cls-7{fill:#f5f5f5}.cls-43,.cls-7{opacity:.09}.cls-8{fill:#f2f2f2}.cls-44,.cls-8{opacity:.12}.cls-9{fill:#efefef}.cls-45,.cls-9{opacity:.15}.cls-10{fill:#ececec}.cls-10,.cls-46{opacity:.18}.cls-11,.cls-74{fill:#e8e8e8}.cls-11,.cls-47{opacity:.21}.cls-12{fill:#e5e5e5}.cls-12,.cls-48{opacity:.24}.cls-13{fill:#e2e2e2}.cls-13,.cls-49{opacity:.27}.cls-14{fill:#dfdfdf}.cls-14,.cls-50{opacity:.3}.cls-15{fill:#dbdbdb}.cls-15,.cls-51{opacity:.33}.cls-16{fill:#d8d8d8}.cls-16,.cls-52{opacity:.36}.cls-17{fill:#d5d5d5}.cls-17,.cls-53{opacity:.39}.cls-18{fill:#d2d2d2}.cls-18,.cls-54{opacity:.42}.cls-19{fill:#cecece}.cls-19,.cls-55{opacity:.45}.cls-20{fill:#cbcbcb}.cls-20,.cls-56{opacity:.48}.cls-21{fill:#c8c8c8}.cls-21,.cls-57{opacity:.52}.cls-22{fill:#c5c5c5}.cls-22,.cls-58{opacity:.55}.cls-23{fill:#c1c1c1}.cls-23,.cls-59{opacity:.58}.cls-24{fill:#bebebe}.cls-24,.cls-60{opacity:.61}.cls-25{fill:#bbb}.cls-25,.cls-61{opacity:.64}.cls-26{fill:#b8b8b8}.cls-26,.cls-62{opacity:.67}.cls-27{fill:#b4b4b4}.cls-27,.cls-63{opacity:.7}.cls-28{fill:#b1b1b1}.cls-28,.cls-64{opacity:.73}.cls-29{fill:#aeaeae}.cls-29,.cls-65{opacity:.76}.cls-30{fill:#ababab}.cls-30,.cls-66{opacity:.79}.cls-31{fill:#a7a7a7}.cls-31,.cls-67{opacity:.82}.cls-32{fill:#a4a4a4}.cls-32,.cls-68{opacity:.85}.cls-33{fill:#a1a1a1}.cls-33,.cls-69{opacity:.88}.cls-34{fill:#9e9e9e}.cls-34,.cls-70{opacity:.91}.cls-35{fill:#9a9a9a}.cls-35,.cls-71{opacity:.94}.cls-36{fill:#979797}.cls-36,.cls-72{opacity:.97}.cls-37{fill:#949494}.cls-38{fill:url(#linear-gradient)}.cls-39{fill:#ef5619}.cls-40{clip-path:url(#clip-path)}.cls-41{fill:#fefafa}.cls-42{fill:#fcf5f5}.cls-43{fill:#fbf0f0}.cls-44{fill:#faebeb}.cls-45{fill:#f8e6e6}.cls-46{fill:#f7e1e1}.cls-47{fill:#f6dcdc}.cls-48{fill:#f5d7d7}.cls-49{fill:#f3d2d2}.cls-50{fill:#f2cdcd}.cls-51{fill:#f1c8c8}.cls-52{fill:#efc3c3}.cls-53{fill:#eebebe}.cls-54{fill:#edb9b9}.cls-55{fill:#ebb4b4}.cls-56{fill:#eaafaf}.cls-57{fill:#e9abab}.cls-58{fill:#e8a6a6}.cls-59{fill:#e6a1a1}.cls-60{fill:#e59c9c}.cls-61{fill:#e49797}.cls-62{fill:#e29292}.cls-63{fill:#e18d8d}.cls-64{fill:#e08888}.cls-65{fill:#de8383}.cls-66{fill:#dd7e7e}.cls-67{fill:#dc7979}.cls-68{fill:#db7474}.cls-69{fill:#d96f6f}.cls-70{fill:#d86a6a}.cls-71{fill:#d76565}.cls-72{fill:#d56060}.cls-73{fill:#d45b5b}.cls-75{fill:url(#linear-gradient-2)}.cls-77{fill:#d6d6d6}.cls-78{fill:#363636}.cls-79{fill:#17c700}.cls-80{fill:#fc0}.cls-81{fill:#ff3d3d}</style><linearGradient id="linear-gradient" y1="114.53" x2="176.4" y2="114.53" gradientUnits="userSpaceOnUse"><stop offset="0" stop-color="#ff682b"/><stop offset=".07" stop-color="#ff6b2e"/><stop offset=".3" stop-color="#ff6d31"/><stop offset=".55" stop-color="#f65d21"/><stop offset=".74" stop-color="#f3571b"/><stop offset="1" stop-color="#c93000"/></linearGradient><clipPath id="clip-path"><path class="cls-1" d="M147.21 46.5C108.29 24 68.12 24 29.19 46.5 9.73 57.73 0 69.15 0 80.56s9.73 22.84 29.19 34.07c38.93 22.48 79.1 22.48 118 0C166.67 103.4 176.4 92 176.4 80.56s-9.73-22.83-29.19-34.06z"/></clipPath><linearGradient id="linear-gradient-2" x1="72.5" y1="-4.17" x2="111.54" y2="63.46" gradientUnits="userSpaceOnUse"><stop offset="0" stop-color="#676767"/><stop offset=".07" stop-color="#595959"/><stop offset=".17" stop-color="#505050"/><stop offset=".3" stop-color="#4d4d4d"/><stop offset=".74" stop-color="#494949"/><stop offset="1" stop-color="#040404"/></linearGradient></defs><title>Asset 10</title><g class="cls-2"><g id="Layer_2" data-name="Layer 2"><g id="Layer_1-2" data-name="Layer 1"><g class="cls-3"><path class="cls-4" d="M196.12 63.5C157.2 41 117 41 78.1 63.5 58.64 74.73 48.91 86.15 48.91 97.56s9.73 22.84 29.19 34.07c38.93 22.48 79.1 22.48 118 0 19.46-11.23 29.19-22.65 29.19-34.07s-9.71-22.83-29.17-34.06z"/><path class="cls-5" d="M194.64 63.5c-38.93-22.48-79.1-22.48-118 0-19.48 11.23-29.21 22.65-29.21 34.06s9.73 22.84 29.19 34.07c38.92 22.48 79.09 22.48 118 0 19.48-11.23 29.21-22.63 29.21-34.07s-9.73-22.83-29.19-34.06z"/><path class="cls-6" d="M193.16 63.5c-38.93-22.48-79.1-22.48-118 0-19.46 11.23-29.2 22.65-29.2 34.06s9.74 22.84 29.2 34.07c38.92 22.48 79.09 22.48 118 0 19.46-11.23 29.19-22.65 29.19-34.07s-9.73-22.83-29.19-34.06z"/><path class="cls-7" d="M191.67 63.5C152.75 41 112.58 41 73.66 63.5c-19.47 11.23-29.2 22.65-29.2 34.06s9.73 22.84 29.2 34.07c38.92 22.48 79.09 22.48 118 0 19.47-11.23 29.2-22.65 29.2-34.07s-9.72-22.83-29.19-34.06z"/><path class="cls-8" d="M190.19 63.5C151.27 41 111.1 41 72.17 63.5 52.71 74.73 43 86.15 43 97.56s9.73 22.84 29.19 34.07c38.93 22.48 79.1 22.48 118 0 19.46-11.23 29.2-22.65 29.2-34.07s-9.74-22.83-29.2-34.06z"/><path class="cls-9" d="M188.71 63.5C149.79 41 109.62 41 70.69 63.5 51.23 74.73 41.5 86.15 41.5 97.56s9.73 22.84 29.19 34.07c38.93 22.48 79.1 22.48 118 0C208.17 120.4 217.9 109 217.9 97.56s-9.73-22.83-29.19-34.06z"/><path class="cls-10" d="M187.23 63.5C148.3 41 108.13 41 69.21 63.5 49.75 74.73 40 86.15 40 97.56s9.73 22.84 29.19 34.07c38.92 22.48 79.09 22.48 118 0 19.46-11.23 29.19-22.65 29.19-34.07s-9.69-22.83-29.15-34.06z"/><path class="cls-11" d="M185.75 63.5c-38.93-22.48-79.1-22.48-118 0-19.46 11.23-29.2 22.65-29.2 34.06s9.74 22.84 29.2 34.07c38.92 22.48 79.09 22.48 118 0 19.46-11.23 29.19-22.65 29.19-34.07s-9.73-22.83-29.19-34.06z"/><path class="cls-12" d="M184.26 63.5C145.34 41 105.17 41 66.25 63.5c-19.47 11.23-29.2 22.65-29.2 34.06s9.73 22.84 29.2 34.07c38.92 22.48 79.09 22.48 118 0 19.47-11.23 29.2-22.65 29.2-34.07s-9.72-22.83-29.19-34.06z"/><path class="cls-13" d="M182.78 63.5C143.86 41 103.69 41 64.76 63.5 45.3 74.73 35.57 86.15 35.57 97.56s9.73 22.84 29.19 34.07c38.93 22.48 79.1 22.48 118 0C202.24 120.4 212 109 212 97.56s-9.76-22.83-29.22-34.06z"/><path class="cls-14" d="M181.3 63.5C142.38 41 102.2 41 63.28 63.5 43.82 74.73 34.09 86.15 34.09 97.56s9.73 22.84 29.19 34.07c38.93 22.48 79.1 22.48 118 0 19.46-11.23 29.19-22.65 29.19-34.07s-9.71-22.83-29.17-34.06z"/><path class="cls-15" d="M179.82 63.5C140.89 41 100.72 41 61.8 63.5 42.34 74.73 32.61 86.15 32.61 97.56s9.73 22.84 29.19 34.07c38.92 22.48 79.09 22.48 118 0C199.28 120.4 209 109 209 97.56s-9.72-22.83-29.18-34.06z"/><path class="cls-16" d="M178.34 63.5C139.41 41 99.24 41 60.32 63.5c-19.47 11.23-29.2 22.65-29.2 34.06s9.73 22.84 29.2 34.07c38.92 22.48 79.09 22.48 118 0 19.48-11.23 29.21-22.63 29.21-34.07s-9.73-22.83-29.19-34.06z"/><path class="cls-17" d="M176.85 63.5C137.93 41 97.76 41 58.83 63.5 39.37 74.73 29.64 86.15 29.64 97.56s9.73 22.84 29.2 34.07c38.92 22.48 79.09 22.48 118 0 19.47-11.23 29.2-22.65 29.2-34.07s-9.72-22.83-29.19-34.06z"/><path class="cls-18" d="M175.37 63.5C136.45 41 96.28 41 57.35 63.5 37.89 74.73 28.16 86.15 28.16 97.56s9.73 22.84 29.19 34.07c38.93 22.48 79.1 22.48 118 0 19.46-11.23 29.19-22.65 29.19-34.07s-9.71-22.83-29.17-34.06z"/><path class="cls-19" d="M173.89 63.5C135 41 94.79 41 55.87 63.5 36.41 74.73 26.68 86.15 26.68 97.56s9.73 22.84 29.19 34.07c38.93 22.48 79.1 22.48 118 0 19.46-11.23 29.19-22.65 29.19-34.07s-9.71-22.83-29.17-34.06z"/><path class="cls-20" d="M172.41 63.5C133.48 41 93.31 41 54.39 63.5 34.93 74.73 25.2 86.15 25.2 97.56s9.73 22.84 29.19 34.07c38.92 22.48 79.09 22.48 118 0C191.87 120.4 201.6 109 201.6 97.56s-9.73-22.83-29.19-34.06z"/><path class="cls-21" d="M170.92 63.5C132 41 91.83 41 52.91 63.5c-19.47 11.23-29.2 22.65-29.2 34.06s9.73 22.84 29.2 34.07c38.92 22.48 79.09 22.48 118 0 19.46-11.23 29.19-22.65 29.19-34.07s-9.71-22.83-29.18-34.06z"/><path class="cls-22" d="M169.44 63.5C130.52 41 90.35 41 51.42 63.5 32 74.73 22.23 86.15 22.23 97.56S32 120.4 51.42 131.63c38.93 22.48 79.1 22.48 118 0 19.47-11.23 29.2-22.65 29.2-34.07s-9.72-22.83-29.18-34.06z"/><path class="cls-23" d="M168 63.5C129 41 88.87 41 49.94 63.5 30.48 74.73 20.75 86.15 20.75 97.56s9.73 22.84 29.19 34.07c38.93 22.48 79.1 22.48 118 0 19.46-11.23 29.19-22.65 29.19-34.07S187.42 74.73 168 63.5z"/><path class="cls-24" d="M166.48 63.5C127.55 41 87.38 41 48.46 63.5 29 74.73 19.27 86.15 19.27 97.56S29 120.4 48.46 131.63c38.92 22.48 79.09 22.48 118 0 19.46-11.23 29.19-22.65 29.19-34.07s-9.71-22.83-29.17-34.06z"/><path class="cls-25" d="M165 63.5C126.07 41 85.9 41 47 63.5 27.54 74.73 17.8 86.15 17.8 97.56s9.72 22.84 29.2 34.07c38.92 22.48 79.09 22.48 118 0 19.46-11.23 29.19-22.65 29.19-34.07S184.46 74.73 165 63.5z"/><path class="cls-26" d="M163.51 63.5C124.59 41 84.42 41 45.5 63.5 26 74.73 16.3 86.15 16.3 97.56s9.7 22.84 29.2 34.07c38.92 22.48 79.09 22.48 118 0C183 120.4 192.71 109 192.71 97.56S183 74.73 163.51 63.5z"/><path class="cls-27" d="M162 63.5C123.11 41 82.94 41 44 63.5 24.55 74.73 14.82 86.15 14.82 97.56S24.55 120.4 44 131.63c38.93 22.48 79.1 22.48 118 0 19.46-11.23 29.2-22.65 29.2-34.07S181.49 74.73 162 63.5z"/><path class="cls-28" d="M160.55 63.5C121.63 41 81.46 41 42.53 63.5 23.07 74.73 13.34 86.15 13.34 97.56s9.73 22.84 29.19 34.07c38.93 22.48 79.1 22.48 118 0C180 120.4 189.74 109 189.74 97.56S180 74.73 160.55 63.5z"/><path class="cls-29" d="M159.07 63.5C120.14 41 80 41 41.05 63.5 21.59 74.73 11.86 86.15 11.86 97.56s9.73 22.84 29.19 34.07c38.92 22.48 79.09 22.48 118 0 19.46-11.23 29.19-22.65 29.19-34.07s-9.71-22.83-29.17-34.06z"/><path class="cls-30" d="M157.59 63.5C118.66 41 78.49 41 39.57 63.5c-19.46 11.23-29.2 22.65-29.2 34.06s9.74 22.84 29.2 34.07c38.92 22.48 79.09 22.48 118 0 19.46-11.23 29.19-22.65 29.19-34.07s-9.71-22.83-29.17-34.06z"/><path class="cls-31" d="M156.1 63.5C117.18 41 77 41 38.09 63.5 18.62 74.73 8.89 86.15 8.89 97.56s9.73 22.84 29.2 34.07c38.92 22.48 79.09 22.48 118 0 19.47-11.23 29.2-22.65 29.2-34.07s-9.72-22.83-29.19-34.06z"/><path class="cls-32" d="M154.62 63.5C115.7 41 75.53 41 36.6 63.5 17.14 74.73 7.41 86.15 7.41 97.56s9.73 22.84 29.19 34.07c38.93 22.48 79.1 22.48 118 0 19.46-11.23 29.2-22.65 29.2-34.07s-9.72-22.83-29.18-34.06z"/><path class="cls-33" d="M153.14 63.5C114.22 41 74.05 41 35.12 63.5 15.66 74.73 5.93 86.15 5.93 97.56s9.73 22.84 29.19 34.07c38.93 22.48 79.1 22.48 118 0 19.48-11.23 29.21-22.63 29.21-34.07s-9.73-22.83-29.19-34.06z"/><path class="cls-34" d="M151.66 63.5C112.73 41 72.56 41 33.64 63.5 14.18 74.73 4.45 86.15 4.45 97.56s9.73 22.84 29.19 34.07c38.92 22.48 79.09 22.48 118 0 19.46-11.23 29.19-22.65 29.19-34.07s-9.71-22.83-29.17-34.06z"/><path class="cls-35" d="M150.18 63.5C111.25 41 71.08 41 32.16 63.5 12.7 74.73 3 86.15 3 97.56s9.74 22.84 29.2 34.07c38.92 22.48 79.09 22.48 118 0 19.46-11.23 29.19-22.65 29.19-34.07s-9.75-22.83-29.21-34.06z"/><path class="cls-36" d="M148.69 63.5C109.77 41 69.6 41 30.67 63.5 11.21 74.73 1.48 86.15 1.48 97.56s9.73 22.84 29.2 34.07c38.92 22.48 79.09 22.48 118 0 19.47-11.23 29.2-22.65 29.2-34.07s-9.72-22.83-29.19-34.06z"/><path class="cls-37" d="M147.21 63.5C108.29 41 68.12 41 29.19 63.5 9.73 74.73 0 86.15 0 97.56s9.73 22.84 29.19 34.07c38.93 22.48 79.1 22.48 118 0C166.67 120.4 176.4 109 176.4 97.56s-9.73-22.83-29.19-34.06z"/></g><path class="cls-38" d="M147.21 114.63c-38.92 22.48-79.09 22.48-118 0C9.73 103.4 0 92 0 80.56v17C0 109 9.73 120.4 29.19 131.63c38.93 22.48 79.1 22.48 118 0C166.67 120.4 176.4 109 176.4 97.56v-17c0 11.44-9.73 22.84-29.19 34.07z"/><path class="cls-39" d="M147.21 46.5C108.29 24 68.12 24 29.19 46.5 9.73 57.73 0 69.15 0 80.56s9.73 22.84 29.19 34.07c38.93 22.48 79.1 22.48 118 0C166.67 103.4 176.4 92 176.4 80.56s-9.73-22.83-29.19-34.06z"/><g class="cls-40"><g class="cls-3"><path class="cls-4" d="M130.39 77L178 104.51c2.65 1.54 5.06 1.68 6.81.67a4.69 4.69 0 0 0 1.18-1 4.69 4.69 0 0 1-1.18 1l14-8.05c1.75-1 2.83-3.17 2.83-6.24V45.48c0-6.14-4.33-13.62-9.64-16.69L144.35 1.31c-2.65-1.53-5.06-1.67-6.81-.67l-14 8.06a4.69 4.69 0 0 0-1.18 1c-.12.14-.2.34-.31.49a8.07 8.07 0 0 0-1.34 4.78v45.38c.04 6.13 4.37 13.65 9.68 16.65z"/><path class="cls-41" d="M128.17 77l47.58 27.47c2.66 1.54 5.07 1.68 6.82.67a4.65 4.65 0 0 0 1.17-1 4.65 4.65 0 0 1-1.17 1l14-8.05c1.74-1 2.82-3.17 2.82-6.24V45.48c0-6.14-4.32-13.62-9.63-16.69L142.13 1.31c-2.66-1.53-5.07-1.67-6.81-.67l-14 8.06a4.69 4.69 0 0 0-1.18 1c-.12.14-.21.34-.32.49a8.14 8.14 0 0 0-1.33 4.78v45.38c.04 6.13 4.36 13.65 9.68 16.65z"/><path class="cls-42" d="M126 77l47.58 27.47c2.66 1.54 5.07 1.68 6.81.67a4.69 4.69 0 0 0 1.18-1 4.69 4.69 0 0 1-1.18 1l14-8.05c1.75-1 2.83-3.17 2.83-6.24V45.48c0-6.14-4.32-13.62-9.64-16.69L139.91 1.31c-2.66-1.53-5.07-1.67-6.81-.67l-14 8.06a4.65 4.65 0 0 0-1.17 1 5.14 5.14 0 0 0-.32.49 8.14 8.14 0 0 0-1.33 4.78v45.38C116.31 66.48 120.63 74 126 77z"/><path class="cls-43" d="M123.72 77l47.59 27.47c2.65 1.54 5.06 1.68 6.81.67a4.69 4.69 0 0 0 1.18-1 4.69 4.69 0 0 1-1.18 1l14-8.05c1.75-1 2.83-3.17 2.83-6.24V45.48c0-6.14-4.33-13.62-9.64-16.69L137.68 1.31C135-.22 132.62-.36 130.87.64l-14 8.06a4.69 4.69 0 0 0-1.18 1c-.12.14-.2.34-.31.49a8.07 8.07 0 0 0-1.34 4.78v45.38c.04 6.13 4.37 13.65 9.68 16.65z"/><path class="cls-44" d="M121.5 77l47.59 27.47c2.65 1.54 5.06 1.68 6.81.67a4.65 4.65 0 0 0 1.17-1 4.65 4.65 0 0 1-1.17 1l14-8.05c1.74-1 2.83-3.17 2.83-6.24V45.48c0-6.14-4.33-13.62-9.64-16.69L135.46 1.31c-2.66-1.53-5.07-1.67-6.81-.67l-14 8.06a4.69 4.69 0 0 0-1.18 1c-.12.14-.2.34-.32.49a8.14 8.14 0 0 0-1.33 4.78v45.38c.04 6.13 4.36 13.65 9.68 16.65z"/><path class="cls-45" d="M119.28 77l47.58 27.47c2.66 1.54 5.07 1.68 6.81.67a4.69 4.69 0 0 0 1.18-1 4.69 4.69 0 0 1-1.18 1l14-8.05c1.75-1 2.83-3.17 2.83-6.24V45.48c0-6.14-4.32-13.62-9.64-16.69L133.24 1.31c-2.66-1.53-5.07-1.67-6.81-.67l-14 8.06a4.65 4.65 0 0 0-1.17 1 5.14 5.14 0 0 0-.32.49 8.14 8.14 0 0 0-1.33 4.78v45.38C109.64 66.48 114 74 119.28 77z"/><path class="cls-46" d="M117.05 77l47.59 27.47c2.66 1.54 5.06 1.68 6.81.67a4.69 4.69 0 0 0 1.18-1 4.69 4.69 0 0 1-1.18 1l14-8.05c1.75-1 2.83-3.17 2.83-6.24V45.48c0-6.14-4.32-13.62-9.64-16.69L131 1.31c-2.64-1.53-5-1.67-6.8-.67l-14 8.06a4.69 4.69 0 0 0-1.18 1c-.12.14-.2.34-.31.49a8.07 8.07 0 0 0-1.34 4.78v45.38c.04 6.13 4.37 13.65 9.68 16.65z"/><path class="cls-47" d="M114.83 77l47.59 27.47c2.65 1.54 5.06 1.68 6.81.67a4.65 4.65 0 0 0 1.17-1 4.65 4.65 0 0 1-1.17 1l14-8.05c1.74-1 2.83-3.17 2.83-6.24V45.48c0-6.14-4.33-13.62-9.64-16.69L128.79 1.31c-2.66-1.53-5.06-1.67-6.79-.67L108 8.7a4.69 4.69 0 0 0-1.18 1c-.12.14-.2.34-.31.49a8.07 8.07 0 0 0-1.34 4.78v45.38c.02 6.13 4.35 13.65 9.66 16.65z"/><path class="cls-48" d="M112.61 77l47.58 27.47c2.66 1.54 5.07 1.68 6.81.67a4.69 4.69 0 0 0 1.18-1 4.69 4.69 0 0 1-1.18 1l14-8.05c1.74-1 2.82-3.17 2.82-6.24V45.48c0-6.14-4.32-13.62-9.64-16.69L126.57 1.31c-2.66-1.53-5.07-1.67-6.81-.67l-14 8.06a4.65 4.65 0 0 0-1.17 1 5.14 5.14 0 0 0-.32.49 8.14 8.14 0 0 0-1.27 4.74v45.42c0 6.13 4.29 13.65 9.61 16.65z"/><path class="cls-49" d="M110.38 77L158 104.51c2.66 1.54 5.07 1.68 6.81.67a4.69 4.69 0 0 0 1.18-1 4.69 4.69 0 0 1-1.18 1l14-8.05c1.75-1 2.83-3.17 2.83-6.24V45.48c0-6.14-4.32-13.62-9.64-16.69L124.35 1.31c-2.66-1.53-5.07-1.67-6.82-.67l-14 8.06a4.88 4.88 0 0 0-1.18 1c-.12.14-.2.34-.31.49a8.07 8.07 0 0 0-1.33 4.78v45.38c.04 6.13 4.36 13.65 9.67 16.65z"/><path class="cls-50" d="M108.16 77l47.59 27.47c2.65 1.54 5.06 1.68 6.81.67a4.88 4.88 0 0 0 1.18-1 4.88 4.88 0 0 1-1.18 1l14-8.05c1.75-1 2.83-3.17 2.83-6.24V45.48c0-6.14-4.33-13.62-9.64-16.69L122.12 1.31c-2.65-1.53-5.06-1.67-6.81-.67l-14 8.06a4.69 4.69 0 0 0-1.18 1c-.12.14-.2.34-.31.49a8.07 8.07 0 0 0-1.34 4.78v45.38c.04 6.13 4.37 13.65 9.68 16.65z"/><path class="cls-51" d="M105.94 77l47.58 27.47c2.66 1.54 5.07 1.68 6.81.67a4.52 4.52 0 0 0 1.18-1 4.52 4.52 0 0 1-1.18 1l14-8.05c1.74-1 2.82-3.17 2.82-6.24V45.48c0-6.14-4.32-13.62-9.63-16.69L119.9 1.31c-2.66-1.53-5.07-1.67-6.81-.67l-14 8.06a4.52 4.52 0 0 0-1.18 1 5.14 5.14 0 0 0-.32.49 8.14 8.14 0 0 0-1.33 4.78v45.38c.04 6.13 4.36 13.65 9.68 16.65z"/><path class="cls-52" d="M103.71 77l47.59 27.47c2.66 1.54 5.07 1.68 6.81.67a4.69 4.69 0 0 0 1.18-1 4.69 4.69 0 0 1-1.18 1l14-8.05c1.75-1 2.83-3.17 2.83-6.24V45.48c0-6.14-4.32-13.62-9.64-16.69L117.68 1.31C115-.22 112.61-.36 110.86.64L96.9 8.7a4.88 4.88 0 0 0-1.18 1c-.12.14-.2.34-.31.49a8.07 8.07 0 0 0-1.33 4.78v45.38c0 6.13 4.32 13.65 9.63 16.65z"/><path class="cls-53" d="M101.49 77l47.59 27.47c2.65 1.54 5.06 1.68 6.81.67a4.88 4.88 0 0 0 1.18-1 4.88 4.88 0 0 1-1.18 1l14-8.05c1.75-1 2.83-3.17 2.83-6.24V45.48c0-6.14-4.33-13.62-9.64-16.69L115.45 1.31c-2.65-1.53-5.06-1.67-6.81-.67l-14 8.06a4.69 4.69 0 0 0-1.18 1c-.12.14-.2.34-.31.49a8.07 8.07 0 0 0-1.34 4.78v45.38c.04 6.13 4.37 13.65 9.68 16.65z"/><path class="cls-54" d="M99.27 77l47.58 27.47c2.66 1.54 5.07 1.68 6.81.67a4.52 4.52 0 0 0 1.18-1 4.52 4.52 0 0 1-1.18 1l14-8.05c1.74-1 2.82-3.17 2.82-6.24V45.48c0-6.14-4.32-13.62-9.63-16.69L113.23 1.31c-2.66-1.53-5.07-1.67-6.81-.67l-14 8.06a4.52 4.52 0 0 0-1.18 1c-.12.14-.21.34-.32.49a8.14 8.14 0 0 0-1.33 4.78v45.38C89.63 66.48 94 74 99.27 77z"/><path class="cls-55" d="M97.05 77l47.58 27.47c2.66 1.54 5.07 1.68 6.81.67a4.69 4.69 0 0 0 1.18-1 4.69 4.69 0 0 1-1.18 1l14-8.05c1.75-1 2.83-3.17 2.83-6.24V45.48c0-6.14-4.32-13.62-9.64-16.69L111 1.31c-2.66-1.53-5.07-1.67-6.82-.67l-14 8.06a4.88 4.88 0 0 0-1.18 1c-.12.14-.2.34-.31.49a8.07 8.07 0 0 0-1.33 4.78v45.38C87.41 66.48 91.73 74 97.05 77z"/><path class="cls-56" d="M94.82 77l47.59 27.47c2.65 1.54 5.06 1.68 6.81.67a4.88 4.88 0 0 0 1.18-1 4.88 4.88 0 0 1-1.18 1l14-8.05c1.75-1 2.83-3.17 2.83-6.24V45.48c0-6.14-4.33-13.62-9.64-16.69L108.78 1.31c-2.65-1.53-5.06-1.67-6.78-.67L88 8.7a4.69 4.69 0 0 0-1.18 1c-.12.14-.2.34-.31.49a8.07 8.07 0 0 0-1.34 4.78v45.38C85.18 66.48 89.51 74 94.82 77z"/><path class="cls-57" d="M92.6 77l47.58 27.47c2.66 1.54 5.07 1.68 6.82.67a4.65 4.65 0 0 0 1.17-1 4.65 4.65 0 0 1-1.17 1l14-8.05c1.74-1 2.82-3.17 2.82-6.24V45.48c0-6.14-4.32-13.62-9.63-16.69L106.56 1.31c-2.66-1.53-5.07-1.67-6.81-.67l-14 8.06a4.69 4.69 0 0 0-1.18 1c-.12.14-.21.34-.32.49A8.14 8.14 0 0 0 83 14.93v45.42C83 66.48 87.28 74 92.6 77z"/><path class="cls-58" d="M90.38 77L138 104.51c2.66 1.54 5.07 1.68 6.81.67a4.69 4.69 0 0 0 1.18-1 4.69 4.69 0 0 1-1.18 1l14-8.05c1.75-1 2.83-3.17 2.83-6.24V45.48c0-6.14-4.32-13.62-9.64-16.69L104.34 1.31c-2.66-1.53-5.07-1.67-6.81-.67l-14 8.06a4.65 4.65 0 0 0-1.17 1 5.14 5.14 0 0 0-.32.49 8.14 8.14 0 0 0-1.33 4.78v45.38C80.74 66.48 85.06 74 90.38 77z"/><path class="cls-59" d="M88.15 77l47.59 27.47c2.65 1.54 5.06 1.68 6.81.67a4.69 4.69 0 0 0 1.18-1 4.69 4.69 0 0 1-1.18 1l14-8.05c1.75-1 2.83-3.17 2.83-6.24V45.48c0-6.14-4.33-13.62-9.64-16.69L102.11 1.31C99.46-.22 97.05-.36 95.3.64l-14 8.06a4.69 4.69 0 0 0-1.18 1c-.12.14-.2.34-.31.49a8.07 8.07 0 0 0-1.34 4.78v45.38C78.51 66.48 82.84 74 88.15 77z"/><path class="cls-60" d="M85.93 77l47.59 27.47c2.65 1.54 5.06 1.68 6.81.67a4.65 4.65 0 0 0 1.17-1 4.65 4.65 0 0 1-1.17 1l14-8.05c1.74-1 2.83-3.17 2.83-6.24V45.48c0-6.14-4.33-13.62-9.64-16.69L99.89 1.31C97.23-.22 94.82-.36 93.08.64l-14 8.06a4.69 4.69 0 0 0-1.18 1c-.12.14-.2.34-.32.49a8.14 8.14 0 0 0-1.33 4.78v45.38C76.29 66.48 80.61 74 85.93 77z"/><path class="cls-61" d="M83.71 77l47.58 27.47c2.66 1.54 5.07 1.68 6.81.67a4.69 4.69 0 0 0 1.18-1 4.69 4.69 0 0 1-1.18 1l14-8.05c1.75-1 2.83-3.17 2.83-6.24V45.48c0-6.14-4.32-13.62-9.64-16.69L97.67 1.31C95-.22 92.6-.36 90.86.64L76.9 8.7a4.65 4.65 0 0 0-1.17 1 5.14 5.14 0 0 0-.32.49 8.14 8.14 0 0 0-1.33 4.78v45.38C74.07 66.48 78.39 74 83.71 77z"/><path class="cls-62" d="M81.48 77l47.59 27.47c2.66 1.54 5.06 1.68 6.81.67a4.69 4.69 0 0 0 1.18-1 4.69 4.69 0 0 1-1.18 1l14-8.05c1.75-1 2.83-3.17 2.83-6.24V45.48c0-6.14-4.32-13.62-9.64-16.69L95.44 1.31C92.79-.22 90.38-.36 88.63.64l-14 8.06a4.69 4.69 0 0 0-1.18 1c-.12.14-.2.34-.31.49a8.07 8.07 0 0 0-1.34 4.78v45.38C71.84 66.48 76.17 74 81.48 77z"/><path class="cls-63" d="M79.26 77l47.59 27.47c2.65 1.54 5.06 1.68 6.81.67a4.65 4.65 0 0 0 1.17-1 4.65 4.65 0 0 1-1.17 1l14-8.05c1.74-1 2.83-3.17 2.83-6.24V45.48c0-6.14-4.33-13.62-9.64-16.69L93.22 1.31C90.56-.22 88.16-.36 86.41.64l-14 8.06a4.69 4.69 0 0 0-1.18 1c-.12.14-.2.34-.31.49a8.07 8.07 0 0 0-1.34 4.78v45.38C69.62 66.48 74 74 79.26 77z"/><path class="cls-64" d="M77 77l47.58 27.47c2.66 1.54 5.07 1.68 6.81.67a4.69 4.69 0 0 0 1.18-1 4.69 4.69 0 0 1-1.18 1l14-8.05c1.74-1 2.82-3.17 2.82-6.24V45.48c0-6.14-4.32-13.62-9.64-16.69L91 1.31C88.34-.22 85.93-.36 84.19.64l-14 8.06a4.65 4.65 0 0 0-1.17 1 5.14 5.14 0 0 0-.32.49 8.14 8.14 0 0 0-1.33 4.78v45.38C67.4 66.48 71.72 74 77 77z"/><path class="cls-65" d="M74.81 77l47.59 27.47c2.66 1.54 5.07 1.68 6.81.67a4.69 4.69 0 0 0 1.18-1 4.69 4.69 0 0 1-1.18 1l14-8.05c1.75-1 2.83-3.17 2.83-6.24V45.48c0-6.14-4.32-13.62-9.64-16.69L88.78 1.31C86.12-.22 83.71-.36 82 .64L68 8.7a4.88 4.88 0 0 0-1.18 1c-.12.14-.2.34-.31.49a8.07 8.07 0 0 0-1.33 4.78v45.38c0 6.13 4.32 13.65 9.63 16.65z"/><path class="cls-66" d="M72.59 77l47.59 27.47c2.65 1.54 5.06 1.68 6.81.67a4.88 4.88 0 0 0 1.18-1 4.88 4.88 0 0 1-1.18 1l14-8.05c1.75-1 2.83-3.17 2.83-6.24V45.48c0-6.14-4.33-13.62-9.64-16.69L86.55 1.31C83.9-.22 81.49-.36 79.74.64l-14 8.06a4.69 4.69 0 0 0-1.18 1c-.12.14-.2.34-.31.49A8.07 8.07 0 0 0 63 14.93v45.42C63 66.48 67.28 74 72.59 77z"/><path class="cls-67" d="M70.37 77L118 104.51c2.66 1.54 5.07 1.68 6.81.67a4.52 4.52 0 0 0 1.18-1 4.52 4.52 0 0 1-1.18 1l14-8.05c1.74-1 2.82-3.17 2.82-6.24V45.48c0-6.14-4.32-13.62-9.63-16.69L84.33 1.31C81.67-.22 79.26-.36 77.52.64l-14 8.06a4.52 4.52 0 0 0-1.18 1 5.14 5.14 0 0 0-.32.49 8.14 8.14 0 0 0-1.33 4.78v45.38C60.73 66.48 65.05 74 70.37 77z"/><path class="cls-68" d="M68.14 77l47.59 27.47c2.66 1.54 5.07 1.68 6.81.67a4.69 4.69 0 0 0 1.18-1 4.69 4.69 0 0 1-1.18 1l14-8.05c1.75-1 2.83-3.17 2.83-6.24V45.48c0-6.14-4.32-13.62-9.64-16.69L82.11 1.31C79.45-.22 77-.36 75.29.64l-14 8.06a4.88 4.88 0 0 0-1.18 1c-.12.14-.2.34-.31.49a8.07 8.07 0 0 0-1.33 4.78v45.38C58.51 66.48 62.83 74 68.14 77z"/><path class="cls-69" d="M65.92 77l47.59 27.47c2.65 1.54 5.06 1.68 6.81.67a4.88 4.88 0 0 0 1.18-1 4.88 4.88 0 0 1-1.18 1l14-8.05c1.75-1 2.83-3.17 2.83-6.24V45.48c0-6.14-4.33-13.62-9.64-16.69L79.88 1.31C77.23-.22 74.82-.36 73.07.64l-14 8.06a4.69 4.69 0 0 0-1.18 1c-.12.14-.2.34-.31.49a8.07 8.07 0 0 0-1.34 4.78v45.38C56.28 66.48 60.61 74 65.92 77z"/><path class="cls-70" d="M63.7 77l47.58 27.47c2.66 1.54 5.07 1.68 6.81.67a4.52 4.52 0 0 0 1.18-1 4.52 4.52 0 0 1-1.18 1l14-8.05c1.74-1 2.82-3.17 2.82-6.24V45.48c0-6.14-4.32-13.62-9.63-16.69L77.66 1.31C75-.22 72.59-.36 70.85.64l-14 8.06a4.52 4.52 0 0 0-1.18 1c-.12.14-.21.34-.32.49a8.14 8.14 0 0 0-1.33 4.78v45.38C54.06 66.48 58.38 74 63.7 77z"/><path class="cls-71" d="M61.47 77l47.59 27.47c2.66 1.54 5.07 1.68 6.81.67a4.69 4.69 0 0 0 1.18-1 4.69 4.69 0 0 1-1.18 1l14-8.05c1.75-1 2.83-3.17 2.83-6.24V45.48c0-6.14-4.32-13.62-9.64-16.69L75.44 1.31C72.78-.22 70.37-.36 68.62.64l-14 8.06a4.88 4.88 0 0 0-1.18 1c-.12.14-.2.34-.31.49a8.07 8.07 0 0 0-1.33 4.78v45.38C51.84 66.48 56.16 74 61.47 77z"/><path class="cls-72" d="M59.25 77l47.59 27.47c2.65 1.54 5.06 1.68 6.81.67a4.88 4.88 0 0 0 1.18-1 4.88 4.88 0 0 1-1.18 1l14-8.05c1.75-1 2.83-3.17 2.83-6.24V45.48c0-6.14-4.33-13.62-9.64-16.69L73.21 1.31C70.56-.22 68.15-.36 66.4.64l-14 8.06a4.69 4.69 0 0 0-1.18 1c-.12.14-.2.34-.31.49a8.07 8.07 0 0 0-1.34 4.78v45.38C49.61 66.48 53.94 74 59.25 77z"/><path class="cls-73" d="M57 77l47.58 27.47c2.66 1.54 5.07 1.68 6.82.67a4.65 4.65 0 0 0 1.17-1 4.65 4.65 0 0 1-1.17 1l14-8.05c1.74-1 2.82-3.17 2.82-6.24V45.48c0-6.14-4.32-13.62-9.63-16.69L71 1.31C68.33-.22 65.92-.36 64.18.64l-14 8.06a4.69 4.69 0 0 0-1.18 1c-.12.14-.21.34-.32.49a8.14 8.14 0 0 0-1.33 4.78v45.38C47.39 66.48 51.71 74 57 77z"/></g></g><path class="cls-74" d="M114.25 61.89V99c0 3.07-1.08 5.23-2.82 6.23l14-8.05c1.74-1 2.82-3.17 2.82-6.24V53.83z"/><path class="cls-75" d="M128.21 45.48c0-6.14-4.32-13.62-9.63-16.69L71 1.31C68.33-.22 65.92-.36 64.18.64l-14 8.06c1.74-1 4.15-.87 6.81.67l47.58 27.47c5.32 3.07 9.64 10.56 9.64 16.69v8.36l14-8.06v-3.41z"/><path class="cls-76" d="M104.61 36.84L57 9.37c-2.63-1.54-5-1.68-6.78-.67s-2.83 3.16-2.83 6.23v45.42C47.39 66.48 51.71 74 57 77l47.58 27.47c2.66 1.54 5.07 1.68 6.82.67s2.82-3.16 2.82-6.23V53.53c.03-6.13-4.29-13.62-9.61-16.69z"/><path class="cls-77" d="M76.18 49.86l27.26 15.74v-3.08L76.18 46.78v3.08zm0 5.37l27.26 15.74v-3.08L76.18 52.15v3.08zm0 5.38l27.26 15.74v-3.08L76.18 57.53v3.08zm0 5.37l27.26 15.74v-3.07L76.18 62.91v3.07zm-17.98-5l45.24 26.12v-3.08L58.2 57.9v3.08zm0 5.37l45.24 26.12v-3.08L58.2 63.27v3.08zm0-10.75l15.6 9.01V45.4l-15.6-9v19.2z"/><path class="cls-78" d="M114.25 58.48v-4.95c0-6.13-4.32-13.62-9.64-16.69L57 9.37c-2.63-1.54-5-1.68-6.78-.67s-2.83 3.16-2.83 6.23v8.36l66.86 38.6z"/><path class="cls-79" d="M76.79 35.7c2 1.18 3.71.41 4-1.69a6.26 6.26 0 0 0 0-.63v-.31a9 9 0 0 0-4-6.67c-2.11-1.22-3.83-.34-4 1.94v.39a4.1 4.1 0 0 0 0 .49 9 9 0 0 0 4 6.48z"/><path class="cls-80" d="M66.36 29.68c2.09 1.2 3.8.36 4-1.86v-.88a9 9 0 0 0-4-6.56c-2.11-1.22-3.83-.34-4 1.93v.88a9 9 0 0 0 4 6.49z"/><path class="cls-81" d="M55.93 23.66c2.08 1.2 3.8.36 4-1.86v-.88a9 9 0 0 0-4-6.56c-2.11-1.22-3.84-.35-4 1.93v.88a9 9 0 0 0 4 6.49z"/></g></g></g></svg>