<svg xmlns="http://www.w3.org/2000/svg" viewBox="0 0 225.31 135.15"><defs><style>.cls-1{fill:none}.cls-2{isolation:isolate}.cls-3{mix-blend-mode:multiply}.cls-4{fill:#fff;opacity:0}.cls-5{fill:#fcfcfc}.cls-41,.cls-5{opacity:.03}.cls-6{fill:#f9f9f9}.cls-42,.cls-6{opacity:.06}.cls-7{fill:#f5f5f5}.cls-43,.cls-7{opacity:.09}.cls-8{fill:#f2f2f2}.cls-44,.cls-8{opacity:.12}.cls-9{fill:#efefef}.cls-45,.cls-9{opacity:.15}.cls-10{fill:#ececec}.cls-10,.cls-46{opacity:.18}.cls-11{fill:#e8e8e8}.cls-11,.cls-47{opacity:.21}.cls-12{fill:#e5e5e5}.cls-12,.cls-48{opacity:.24}.cls-13{fill:#e2e2e2}.cls-13,.cls-49{opacity:.27}.cls-14{fill:#dfdfdf}.cls-14,.cls-50{opacity:.3}.cls-15{fill:#dbdbdb}.cls-15,.cls-51{opacity:.33}.cls-16{fill:#d8d8d8}.cls-16,.cls-52{opacity:.36}.cls-17{fill:#d5d5d5}.cls-17,.cls-53{opacity:.39}.cls-18{fill:#d2d2d2}.cls-18,.cls-54{opacity:.42}.cls-19{fill:#cecece}.cls-19,.cls-55{opacity:.45}.cls-20{fill:#cbcbcb}.cls-20,.cls-56{opacity:.48}.cls-21{fill:#c8c8c8}.cls-21,.cls-57{opacity:.52}.cls-22{fill:#c5c5c5}.cls-22,.cls-58{opacity:.55}.cls-23{fill:#c1c1c1}.cls-23,.cls-59{opacity:.58}.cls-24{fill:#bebebe}.cls-24,.cls-60{opacity:.61}.cls-25{fill:#bbb}.cls-25,.cls-61{opacity:.64}.cls-26{fill:#b8b8b8}.cls-26,.cls-62{opacity:.67}.cls-27{fill:#b4b4b4}.cls-27,.cls-63{opacity:.7}.cls-28{fill:#b1b1b1}.cls-28,.cls-64{opacity:.73}.cls-29{fill:#aeaeae}.cls-29,.cls-65{opacity:.76}.cls-30{fill:#ababab}.cls-30,.cls-66{opacity:.79}.cls-31{fill:#a7a7a7}.cls-31,.cls-67{opacity:.82}.cls-32{fill:#a4a4a4}.cls-32,.cls-68{opacity:.85}.cls-33{fill:#a1a1a1}.cls-33,.cls-69{opacity:.88}.cls-34{fill:#9e9e9e}.cls-34,.cls-70{opacity:.91}.cls-35{fill:#9a9a9a}.cls-35,.cls-71{opacity:.94}.cls-36{fill:#979797}.cls-36,.cls-72{opacity:.97}.cls-37{fill:#949494}.cls-38{fill:url(#linear-gradient)}.cls-39{fill:#ffdb32}.cls-40{clip-path:url(#clip-path)}.cls-41{fill:#fffdfa}.cls-42{fill:#fffbf5}.cls-43{fill:#fff9f1}.cls-44{fill:#fff8ec}.cls-45{fill:#fff6e7}.cls-46{fill:#fff4e2}.cls-47{fill:#fff2dd}.cls-48{fill:#fff0d9}.cls-49{fill:#ffeed4}.cls-50{fill:#ffedcf}.cls-51{fill:#ffebca}.cls-52{fill:#ffe9c6}.cls-53{fill:#ffe7c1}.cls-54{fill:#ffe5bc}.cls-55{fill:#ffe3b7}.cls-56{fill:#ffe1b2}.cls-57{fill:#ffe0ae}.cls-58{fill:#ffdea9}.cls-59{fill:#ffdca4}.cls-60{fill:#ffda9f}.cls-61{fill:#ffd89a}.cls-62{fill:#ffd696}.cls-63{fill:#ffd491}.cls-64{fill:#ffd38c}.cls-65{fill:#ffd187}.cls-66{fill:#ffcf83}.cls-67{fill:#ffcd7e}.cls-68{fill:#ffcb79}.cls-69{fill:#ffc974}.cls-70{fill:#ffc86f}.cls-71{fill:#ffc66b}.cls-72{fill:#ffc466}.cls-73{fill:#ffc261}.cls-74{fill:#d34512}.cls-75{fill:#ff670e}.cls-76{fill:#f24d1a}.cls-77{fill:#fb8e00}.cls-78{fill:#ffbf00}.cls-79{fill:#fba300}.cls-80{fill:#7cbf00}.cls-81{fill:#b5d100}.cls-82{fill:#94c200}</style><linearGradient id="linear-gradient" y1="101.19" x2="176.4" y2="101.19" gradientUnits="userSpaceOnUse"><stop offset="0" stop-color="#ffed44"/><stop offset=".07" stop-color="#fff047"/><stop offset=".3" stop-color="#fff24a"/><stop offset=".55" stop-color="#ffe23a"/><stop offset=".74" stop-color="#ffdc34"/><stop offset="1" stop-color="#f9b519"/></linearGradient><clipPath id="clip-path"><path class="cls-1" d="M147.21 33.16c-38.92-22.48-79.09-22.48-118 0C9.73 44.39 0 55.81 0 67.23s9.73 22.83 29.19 34.07c38.93 22.47 79.1 22.47 118 0 19.46-11.24 29.19-22.66 29.19-34.07s-9.71-22.84-29.17-34.07z"/></clipPath></defs><title>Asset 5</title><g class="cls-2"><g id="Layer_2" data-name="Layer 2"><g id="Layer_1-2" data-name="Layer 1"><g class="cls-3"><path class="cls-4" d="M196.12 50.16c-38.92-22.47-79.09-22.48-118 0-19.48 11.23-29.21 22.65-29.21 34.07s9.73 22.83 29.19 34.07c38.93 22.47 79.1 22.47 118 0 19.46-11.24 29.19-22.66 29.19-34.07s-9.71-22.84-29.17-34.07z"/><path class="cls-5" d="M194.64 50.16c-38.93-22.47-79.1-22.48-118 0-19.48 11.23-29.21 22.65-29.21 34.07s9.73 22.83 29.19 34.07c38.92 22.47 79.09 22.47 118 0 19.46-11.24 29.19-22.66 29.19-34.07s-9.71-22.84-29.17-34.07z"/><path class="cls-6" d="M193.16 50.16c-38.93-22.47-79.1-22.48-118 0-19.46 11.23-29.2 22.65-29.2 34.07s9.74 22.83 29.2 34.07c38.92 22.47 79.09 22.47 118 0 19.46-11.24 29.19-22.66 29.19-34.07s-9.73-22.84-29.19-34.07z"/><path class="cls-7" d="M191.67 50.16c-38.92-22.48-79.09-22.48-118 0-19.47 11.23-29.2 22.65-29.2 34.07s9.73 22.83 29.2 34.07c38.92 22.47 79.09 22.47 118 0 19.47-11.24 29.2-22.66 29.2-34.07s-9.73-22.84-29.2-34.07z"/><path class="cls-8" d="M190.19 50.16c-38.92-22.47-79.09-22.48-118 0C52.71 61.39 43 72.81 43 84.23s9.73 22.83 29.19 34.07c38.93 22.47 79.1 22.47 118 0 19.46-11.24 29.2-22.66 29.2-34.07s-9.74-22.84-29.2-34.07z"/><path class="cls-9" d="M188.71 50.16c-38.92-22.47-79.09-22.48-118 0C51.23 61.39 41.5 72.81 41.5 84.23s9.73 22.83 29.19 34.07c38.93 22.47 79.1 22.47 118 0 19.46-11.24 29.19-22.66 29.19-34.07s-9.71-22.84-29.17-34.07z"/><path class="cls-10" d="M187.23 50.16c-38.93-22.47-79.1-22.48-118 0C49.75 61.39 40 72.81 40 84.23s9.73 22.83 29.19 34.07c38.92 22.47 79.09 22.47 118 0 19.46-11.24 29.19-22.66 29.19-34.07s-9.69-22.84-29.15-34.07z"/><path class="cls-11" d="M185.75 50.16c-38.93-22.47-79.1-22.48-118 0-19.46 11.23-29.2 22.65-29.2 34.07s9.74 22.83 29.2 34.07c38.92 22.47 79.09 22.47 118 0 19.46-11.24 29.19-22.66 29.19-34.07s-9.73-22.84-29.19-34.07z"/><path class="cls-12" d="M184.26 50.16c-38.92-22.47-79.09-22.48-118 0-19.47 11.23-29.2 22.65-29.2 34.07s9.73 22.83 29.2 34.07c38.92 22.47 79.09 22.47 118 0 19.47-11.24 29.2-22.66 29.2-34.07s-9.73-22.84-29.2-34.07z"/><path class="cls-13" d="M182.78 50.16c-38.92-22.47-79.09-22.48-118 0C45.3 61.39 35.57 72.81 35.57 84.23s9.73 22.83 29.19 34.07c38.93 22.47 79.1 22.47 118 0C202.24 107.06 212 95.64 212 84.23s-9.76-22.84-29.22-34.07z"/><path class="cls-14" d="M181.3 50.16c-38.92-22.47-79.09-22.48-118 0-19.48 11.23-29.21 22.65-29.21 34.07s9.73 22.83 29.19 34.07c38.93 22.47 79.1 22.47 118 0 19.46-11.24 29.19-22.66 29.19-34.07s-9.71-22.84-29.17-34.07z"/><path class="cls-15" d="M179.82 50.16c-38.93-22.47-79.1-22.48-118 0-19.48 11.23-29.21 22.65-29.21 34.07s9.73 22.83 29.19 34.07c38.92 22.47 79.09 22.47 118 0 19.48-11.24 29.2-22.66 29.2-34.07s-9.72-22.84-29.18-34.07z"/><path class="cls-16" d="M178.34 50.16c-38.93-22.47-79.1-22.48-118 0-19.47 11.23-29.2 22.65-29.2 34.07s9.73 22.83 29.2 34.07c38.92 22.47 79.09 22.47 118 0 19.46-11.24 29.19-22.66 29.19-34.07s-9.73-22.84-29.19-34.07z"/><path class="cls-17" d="M176.85 50.16c-38.92-22.48-79.09-22.48-118 0-19.48 11.23-29.21 22.65-29.21 34.07s9.73 22.83 29.2 34.07c38.92 22.47 79.09 22.47 118 0 19.47-11.24 29.2-22.66 29.2-34.07s-9.72-22.84-29.19-34.07z"/><path class="cls-18" d="M175.37 50.16c-38.92-22.47-79.09-22.48-118 0-19.48 11.23-29.21 22.65-29.21 34.07s9.73 22.83 29.19 34.07c38.93 22.47 79.1 22.47 118 0 19.46-11.24 29.19-22.66 29.19-34.07s-9.71-22.84-29.17-34.07z"/><path class="cls-19" d="M173.89 50.16c-38.93-22.48-79.1-22.48-118 0-19.48 11.23-29.21 22.65-29.21 34.07s9.73 22.83 29.19 34.07c38.93 22.47 79.1 22.47 118 0 19.46-11.24 29.19-22.66 29.19-34.07s-9.71-22.84-29.17-34.07z"/><path class="cls-20" d="M172.41 50.16c-38.93-22.47-79.1-22.48-118 0C34.93 61.39 25.2 72.81 25.2 84.23s9.73 22.83 29.19 34.07c38.92 22.47 79.09 22.47 118 0 19.46-11.24 29.19-22.66 29.19-34.07s-9.71-22.84-29.17-34.07z"/><path class="cls-21" d="M170.92 50.16c-38.92-22.47-79.09-22.48-118 0-19.47 11.23-29.2 22.65-29.2 34.07s9.73 22.83 29.2 34.07c38.92 22.47 79.09 22.47 118 0 19.46-11.24 29.19-22.66 29.19-34.07s-9.72-22.84-29.19-34.07z"/><path class="cls-22" d="M169.44 50.16c-38.92-22.48-79.09-22.48-118 0C32 61.39 22.23 72.81 22.23 84.23S32 107.06 51.42 118.3c38.93 22.47 79.1 22.47 118 0 19.47-11.24 29.2-22.66 29.2-34.07s-9.71-22.84-29.18-34.07z"/><path class="cls-23" d="M168 50.16c-38.92-22.47-79.09-22.48-118 0-19.52 11.23-29.25 22.65-29.25 34.07s9.73 22.83 29.19 34.07c38.93 22.47 79.1 22.47 118 0 19.46-11.24 29.19-22.66 29.19-34.07S187.42 61.39 168 50.16z"/><path class="cls-24" d="M166.48 50.16c-38.93-22.47-79.1-22.48-118 0C29 61.39 19.27 72.81 19.27 84.23S29 107.06 48.46 118.3c38.92 22.47 79.1 22.47 118 0 19.46-11.24 29.19-22.66 29.19-34.07s-9.71-22.84-29.17-34.07z"/><path class="cls-25" d="M165 50.16c-38.93-22.47-79.1-22.48-118 0-19.48 11.23-29.21 22.65-29.21 34.07S27.52 107.06 47 118.3c38.92 22.47 79.09 22.47 118 0 19.46-11.24 29.19-22.66 29.19-34.07S184.46 61.39 165 50.16z"/><path class="cls-26" d="M163.51 50.16c-38.92-22.47-79.09-22.48-118 0C26 61.39 16.3 72.81 16.3 84.23s9.7 22.83 29.2 34.07c38.92 22.47 79.09 22.47 118 0 19.47-11.24 29.2-22.66 29.2-34.07s-9.7-22.84-29.19-34.07z"/><path class="cls-27" d="M162 50.16c-38.92-22.48-79.09-22.48-118 0-19.45 11.23-29.18 22.65-29.18 34.07S24.55 107.06 44 118.3c38.93 22.47 79.1 22.47 118 0 19.46-11.24 29.2-22.66 29.2-34.07s-9.71-22.84-29.2-34.07z"/><path class="cls-28" d="M160.55 50.16c-38.92-22.47-79.09-22.48-118 0-19.48 11.23-29.21 22.65-29.21 34.07s9.73 22.83 29.19 34.07c38.93 22.47 79.1 22.47 118 0 19.46-11.24 29.19-22.66 29.19-34.07S180 61.39 160.55 50.16z"/><path class="cls-29" d="M159.07 50.16c-38.93-22.47-79.1-22.48-118 0-19.48 11.23-29.21 22.65-29.21 34.07s9.73 22.83 29.19 34.07c38.92 22.47 79.09 22.47 118 0 19.46-11.24 29.19-22.66 29.19-34.07s-9.71-22.84-29.17-34.07z"/><path class="cls-30" d="M157.59 50.16c-38.93-22.47-79.1-22.48-118 0-19.46 11.23-29.2 22.65-29.2 34.07s9.74 22.83 29.2 34.07c38.92 22.47 79.09 22.47 118 0 19.46-11.24 29.19-22.66 29.19-34.07s-9.73-22.84-29.19-34.07z"/><path class="cls-31" d="M156.1 50.16c-38.92-22.47-79.09-22.48-118 0C18.62 61.39 8.89 72.81 8.89 84.23s9.73 22.83 29.2 34.07c38.92 22.47 79.09 22.47 118 0 19.47-11.24 29.2-22.66 29.2-34.07s-9.72-22.84-29.19-34.07z"/><path class="cls-32" d="M154.62 50.16c-38.92-22.47-79.09-22.48-118 0C17.14 61.39 7.41 72.81 7.41 84.23s9.73 22.83 29.19 34.07c38.93 22.47 79.1 22.47 118 0 19.46-11.24 29.2-22.66 29.2-34.07s-9.72-22.84-29.18-34.07z"/><path class="cls-33" d="M153.14 50.16c-38.92-22.47-79.09-22.48-118 0C15.66 61.39 5.93 72.81 5.93 84.23s9.73 22.83 29.19 34.07c38.93 22.47 79.1 22.47 118 0 19.46-11.24 29.19-22.66 29.19-34.07s-9.71-22.84-29.17-34.07z"/><path class="cls-34" d="M151.66 50.16c-38.93-22.48-79.1-22.48-118 0C14.18 61.39 4.45 72.81 4.45 84.23s9.73 22.83 29.19 34.07c38.92 22.47 79.09 22.47 118 0 19.46-11.24 29.19-22.66 29.19-34.07s-9.71-22.84-29.17-34.07z"/><path class="cls-35" d="M150.18 50.16c-38.93-22.47-79.1-22.48-118 0C12.7 61.39 3 72.81 3 84.23s9.74 22.83 29.2 34.07c38.92 22.47 79.09 22.47 118 0 19.46-11.24 29.19-22.66 29.19-34.07s-9.75-22.84-29.21-34.07z"/><path class="cls-36" d="M148.69 50.16c-38.92-22.47-79.09-22.48-118 0C11.21 61.39 1.48 72.81 1.48 84.23s9.73 22.83 29.2 34.07c38.92 22.47 79.09 22.47 118 0 19.47-11.24 29.2-22.66 29.2-34.07s-9.72-22.84-29.19-34.07z"/><path class="cls-37" d="M147.21 50.16c-38.92-22.47-79.09-22.48-118 0C9.73 61.39 0 72.81 0 84.23s9.73 22.83 29.19 34.07c38.93 22.47 79.1 22.47 118 0 19.46-11.24 29.19-22.66 29.19-34.07s-9.71-22.84-29.17-34.07z"/></g><path class="cls-38" d="M147.21 101.3c-38.92 22.47-79.09 22.47-118 0C9.73 90.06 0 78.64 0 67.23v17c0 11.41 9.73 22.83 29.19 34.07 38.93 22.47 79.1 22.47 118 0 19.46-11.24 29.19-22.66 29.19-34.07v-17c.02 11.41-9.71 22.83-29.17 34.07z"/><path class="cls-39" d="M147.21 33.16c-38.92-22.48-79.09-22.48-118 0C9.73 44.39 0 55.81 0 67.23s9.73 22.83 29.19 34.07c38.93 22.47 79.1 22.47 118 0 19.46-11.24 29.19-22.66 29.19-34.07s-9.71-22.84-29.17-34.07z"/><g class="cls-40"><g class="cls-3"><path class="cls-4" d="M174.28 12.95L162.41 6.1l-9.85 5.69L132.13 0l-25.14 14.51v32.54l26.07 15.04v.01-.01l4.22-2.43v4.88l26.06 15.04 4.23-2.44v4.75l26.06 15.05 25.13-14.51V17.36L192.7 2.31l-18.42 10.64z"/><path class="cls-41" d="M172.06 12.95L160.19 6.1l-9.86 5.69L129.9 0l-25.13 14.51v32.54l26.06 15.04v.01-.01l4.23-2.43v4.88l26.06 15.04 4.23-2.44v4.75l26.06 15.05 25.13-14.51V17.36L190.48 2.31l-18.42 10.64z"/><path class="cls-42" d="M169.83 12.95L157.97 6.1l-9.86 5.69L127.68 0l-25.13 14.51v32.54l26.06 15.04v.01-.01l4.23-2.43v4.88l26.06 15.04 4.23-2.44v4.75l26.06 15.05 25.13-14.51V17.36L188.26 2.31l-18.43 10.64z"/><path class="cls-43" d="M167.61 12.95L155.75 6.1l-9.86 5.69L125.46 0l-25.13 14.51h-.01.01v32.54l26.06 15.04v.01-.01l4.22-2.43v4.88l26.07 15.04 4.22-2.44v4.75l26.06 15.05 25.13-14.51V17.36L186.03 2.31l-18.42 10.64z"/><path class="cls-44" d="M165.39 12.95L153.52 6.1l-9.86 5.69L123.23 0 98.1 14.51v32.54l26.06 15.04v.01-.01l4.23-2.43v4.88l26.06 15.04 4.23-2.44v4.75l26.06 15.05 25.13-14.51V17.36L183.81 2.31l-18.42 10.64z"/><path class="cls-45" d="M163.16 12.95L151.3 6.1l-9.86 5.69L121.01 0 95.88 14.51v32.54l26.06 15.04v.01-.01l4.23-2.43v4.88l26.06 15.04 4.23-2.44v4.75l26.06 15.05 25.13-14.51V17.36L181.59 2.31l-18.43 10.64z"/><path class="cls-46" d="M160.94 12.95L149.08 6.1l-9.86 5.69L118.79 0 93.66 14.51v32.54l26.06 15.04v.01-.01l4.22-2.43v4.88l26.07 15.04 4.22-2.44v4.75l26.06 15.05 25.14-14.51V17.36L179.36 2.31l-18.42 10.64z"/><path class="cls-47" d="M158.72 12.95L146.85 6.1l-9.86 5.69L116.56 0 91.43 14.51v32.54l26.06 15.04v.01-.01l4.23-2.43v4.88l26.06 15.04 4.23-2.44v4.75l26.06 15.05 25.13-14.51V17.36L177.14 2.31l-18.42 10.64z"/><path class="cls-48" d="M156.49 12.95L144.63 6.1l-9.86 5.69L114.34 0 89.21 14.51v32.54l26.06 15.04v.01-.01l4.23-2.43v4.88l26.06 15.04 4.23-2.44v4.75l26.06 15.05 25.13-14.51V17.36L174.92 2.31l-18.43 10.64z"/><path class="cls-49" d="M154.27 12.95L142.41 6.1l-9.86 5.69L112.12 0 86.99 14.51v32.54l26.06 15.04v.01-.01l4.23-2.43v4.88l26.06 15.04 4.22-2.44v4.75l26.06 15.05 25.14-14.51V17.36L172.69 2.31l-18.42 10.64z"/><path class="cls-50" d="M152.05 12.95L140.18 6.1l-9.86 5.69L109.89 0 84.76 14.51v32.54l26.06 15.04v.01-.01l4.23-2.43v4.88l26.06 15.04 4.23-2.44v4.75l26.06 15.05 25.13-14.51V17.36L170.47 2.31l-18.42 10.64z"/><path class="cls-51" d="M149.82 12.95L137.96 6.1l-9.86 5.69L107.67 0 82.54 14.51v32.54l26.06 15.04v.01-.01l4.23-2.43v4.88l26.06 15.04 4.23-2.44v4.75l26.06 15.05 25.13-14.51V17.36L168.25 2.31l-18.43 10.64z"/><path class="cls-52" d="M147.6 12.95L135.74 6.1l-9.86 5.69L105.45 0 80.32 14.51v32.54l26.06 15.04v.01-.01l4.23-2.43v4.88l26.06 15.04 4.22-2.44v4.75l26.07 15.05 25.13-14.51V17.36L166.03 2.31 147.6 12.95z"/><path class="cls-53" d="M145.38 12.95L133.51 6.1l-9.85 5.69L103.22 0 78.09 14.51v32.54l26.07 15.04v.01-.01l4.22-2.43v4.88l26.06 15.04 4.23-2.44v4.75l26.06 15.05 25.13-14.51V17.36L163.8 2.31l-18.42 10.64z"/><path class="cls-54" d="M143.16 12.95L131.29 6.1l-9.86 5.69L101 0 75.87 14.51v32.54l26.06 15.04v.01-.01l4.23-2.43v4.88l26.06 15.04 4.23-2.44v4.75l26.06 15.05 25.13-14.51V17.36L161.58 2.31l-18.42 10.64z"/><path class="cls-55" d="M140.93 12.95L129.07 6.1l-9.86 5.69L98.78 0 73.65 14.51v32.54l26.06 15.04v.01-.01l4.23-2.43v4.88L130 79.58l4.22-2.44v4.75l26.07 15.05 25.13-14.51V17.36L159.36 2.31l-18.43 10.64z"/><path class="cls-56" d="M138.71 12.95L126.84 6.1l-9.85 5.69L96.56 0 71.42 14.51v32.54l26.07 15.04v.01-.01l4.22-2.43v4.88l26.06 15.04 4.23-2.44v4.75l26.06 15.05 25.13-14.51V17.36L157.13 2.31l-18.42 10.64z"/><path class="cls-57" d="M136.49 12.95L124.62 6.1l-9.86 5.69L94.33 0 69.2 14.51v32.54l26.06 15.04v.01-.01l4.23-2.43v4.88l26.06 15.04 4.23-2.44v4.75l26.06 15.05 25.13-14.51V17.36L154.91 2.31l-18.42 10.64z"/><path class="cls-58" d="M134.26 12.95L122.4 6.1l-9.86 5.69L92.11 0 66.98 14.51v32.54l26.06 15.04v.01-.01l4.23-2.43v4.88l26.06 15.04 4.23-2.44v4.75l26.06 15.05 25.13-14.51V17.36L152.69 2.31l-18.43 10.64z"/><path class="cls-59" d="M132.04 12.95L120.17 6.1l-9.85 5.69L89.89 0 64.75 14.51v32.54l26.07 15.04v.01-.01l4.22-2.43v4.88l26.07 15.04 4.22-2.44v4.75l26.06 15.05 25.14-14.51V17.36L150.46 2.31l-18.42 10.64z"/><path class="cls-60" d="M129.82 12.95L117.95 6.1l-9.86 5.69L87.66 0 62.53 14.51v32.54l26.06 15.04v.01-.01l4.23-2.43v4.88l26.06 15.04 4.23-2.44v4.75l26.06 15.05 25.13-14.51V17.36L148.24 2.31l-18.42 10.64z"/><path class="cls-61" d="M127.59 12.95L115.73 6.1l-9.86 5.69L85.44 0 60.31 14.51v32.54l26.06 15.04v.01-.01l4.23-2.43v4.88l26.06 15.04 4.23-2.44v4.75l26.06 15.05 25.13-14.51V17.36L146.02 2.31l-18.43 10.64z"/><path class="cls-62" d="M125.37 12.95L113.51 6.1l-9.86 5.69L83.22 0 58.09 14.51v32.54l26.06 15.04v.01-.01l4.22-2.43v4.88l26.07 15.04 4.22-2.44v4.75l26.06 15.05 25.14-14.51V17.36L143.79 2.31l-18.42 10.64z"/><path class="cls-63" d="M123.15 12.95L111.28 6.1l-9.86 5.69L80.99 0 55.86 14.51v32.54l26.06 15.04v.01-.01l4.23-2.43v4.88l26.06 15.04 4.23-2.44v4.75l26.06 15.05 25.13-14.51V17.36L141.57 2.31l-18.42 10.64z"/><path class="cls-64" d="M120.92 12.95L109.06 6.1l-9.86 5.69L78.77 0 53.64 14.51v32.54L79.7 62.09v.01-.01l4.23-2.43v4.88l26.06 15.04 4.23-2.44v4.75l26.06 15.05 25.13-14.51V17.36L139.35 2.31l-18.43 10.64z"/><path class="cls-65" d="M118.7 12.95L106.84 6.1l-9.86 5.69L76.55 0 51.42 14.51v32.54l26.06 15.04v.01-.01l4.22-2.43v4.88l26.07 15.04 4.22-2.44v4.75l26.06 15.05 25.14-14.51V17.36L137.13 2.31 118.7 12.95z"/><path class="cls-66" d="M116.48 12.95L104.61 6.1l-9.86 5.69L74.32 0 49.19 14.51v32.54l26.06 15.04v.01-.01l4.23-2.43v4.88l26.06 15.04 4.23-2.44v4.75l26.06 15.05 25.13-14.51V17.36L134.9 2.31l-18.42 10.64z"/><path class="cls-67" d="M114.25 12.95L102.39 6.1l-9.86 5.69L72.1 0 46.97 14.51v32.54l26.06 15.04v.01-.01l4.23-2.43v4.88l26.06 15.04 4.23-2.44v4.75l26.06 15.05 25.13-14.51V17.36L132.68 2.31l-18.43 10.64z"/><path class="cls-68" d="M112.03 12.95L100.17 6.1l-9.86 5.69L69.88 0 44.75 14.51v32.54l26.06 15.04v.01-.01l4.22-2.43v4.88l26.07 15.04 4.22-2.44v4.75l26.06 15.05 25.14-14.51V17.36L130.46 2.31l-18.43 10.64z"/><path class="cls-69" d="M109.81 12.95L97.94 6.1l-9.86 5.69L67.66 0 42.52 14.51v32.54l26.06 15.04v.01-.01l4.23-2.43v4.88l26.06 15.04 4.23-2.44v4.75l26.06 15.05 25.13-14.51V17.36L128.23 2.31l-18.42 10.64z"/><path class="cls-70" d="M107.58 12.95L95.72 6.1l-9.86 5.69L65.43 0 40.3 14.51v32.54l26.06 15.04v.01-.01l4.23-2.43v4.88l26.06 15.04 4.23-2.44v4.75l26.06 15.05 25.13-14.51V17.36L126.01 2.31l-18.43 10.64z"/><path class="cls-71" d="M105.36 12.95L93.5 6.1l-9.86 5.69L63.21 0 38.08 14.51v32.54l26.06 15.04v.01-.01l4.23-2.43v4.88l26.06 15.04 4.22-2.44v4.75l26.07 15.05 25.13-14.51V17.36L123.79 2.31l-18.43 10.64z"/><path class="cls-72" d="M103.14 12.95L91.27 6.1l-9.85 5.69L60.98 0 35.85 14.51v32.54l26.06 15.04v.01h.01v-.01l4.22-2.43v4.88L92.2 79.58l4.23-2.44v4.75l26.06 15.05 25.13-14.51V17.36L121.56 2.31l-18.42 10.64z"/><path class="cls-73" d="M100.92 12.95L89.05 6.1l-9.86 5.69L58.76 0 33.63 14.51v32.54l26.06 15.04v.01-.01l4.23-2.43v4.88l26.06 15.04 4.23-2.44v4.75l26.06 15.05 25.13-14.51V17.36L119.34 2.31l-18.42 10.64z"/></g></g><path class="cls-74" d="M84.82 15.05L59.69 29.56V62.1l25.13-14.51V15.05z"/><path class="cls-75" d="M58.76 0L33.63 14.51l26.06 15.05 25.13-14.51L58.76 0z"/><path class="cls-76" d="M33.63 47.05L59.69 62.1V29.56L33.63 14.51v32.54z"/><path class="cls-77" d="M115.11 21.15L89.98 35.66v43.92l25.13-14.51V21.15z"/><path class="cls-78" d="M89.05 6.1L63.92 20.61l26.06 15.05 25.13-14.51L89.05 6.1z"/><path class="cls-79" d="M63.92 20.61v43.93l26.06 15.04V35.66L63.92 20.61z"/><path class="cls-80" d="M145.4 17.36l-25.13 14.51v65.07l25.13-14.51V17.36z"/><path class="cls-81" d="M119.34 2.31L94.21 16.83l26.06 15.04 25.13-14.51-26.06-15.05z"/><path class="cls-82" d="M94.21 81.89l26.06 15.05V31.87L94.21 16.83v65.06z"/></g></g></g></svg>