<svg xmlns="http://www.w3.org/2000/svg" viewBox="0 0 225.31 152.1"><defs><style>.cls-1{fill:none}.cls-2{isolation:isolate}.cls-3{mix-blend-mode:multiply}.cls-4{fill:#fff;opacity:0}.cls-5{fill:#fcfcfc}.cls-41,.cls-5{opacity:.03}.cls-6{fill:#f9f9f9}.cls-42,.cls-6{opacity:.06}.cls-7{fill:#f5f5f5}.cls-43,.cls-7{opacity:.09}.cls-8{fill:#f2f2f2}.cls-44,.cls-8{opacity:.12}.cls-9{fill:#efefef}.cls-45,.cls-9{opacity:.15}.cls-10{fill:#ececec}.cls-10,.cls-46{opacity:.18}.cls-11{fill:#e8e8e8}.cls-11,.cls-47{opacity:.21}.cls-12{fill:#e5e5e5}.cls-12,.cls-48{opacity:.24}.cls-13{fill:#e2e2e2}.cls-13,.cls-49{opacity:.27}.cls-14{fill:#dfdfdf}.cls-14,.cls-50{opacity:.3}.cls-15{fill:#dbdbdb}.cls-15,.cls-51{opacity:.33}.cls-16{fill:#d8d8d8}.cls-16,.cls-52{opacity:.36}.cls-17{fill:#d5d5d5}.cls-17,.cls-53{opacity:.39}.cls-18{fill:#d2d2d2}.cls-18,.cls-54{opacity:.42}.cls-19{fill:#cecece}.cls-19,.cls-55{opacity:.45}.cls-20{fill:#cbcbcb}.cls-20,.cls-56{opacity:.48}.cls-21{fill:#c8c8c8}.cls-21,.cls-57{opacity:.52}.cls-22{fill:#c5c5c5}.cls-22,.cls-58{opacity:.55}.cls-23{fill:#c1c1c1}.cls-23,.cls-59{opacity:.58}.cls-24{fill:#bebebe}.cls-24,.cls-60{opacity:.61}.cls-25{fill:#bbb}.cls-25,.cls-61{opacity:.64}.cls-26{fill:#b8b8b8}.cls-26,.cls-62{opacity:.67}.cls-27{fill:#b4b4b4}.cls-27,.cls-63{opacity:.7}.cls-28{fill:#b1b1b1}.cls-28,.cls-64{opacity:.73}.cls-29{fill:#aeaeae}.cls-29,.cls-65{opacity:.76}.cls-30{fill:#ababab}.cls-30,.cls-66{opacity:.79}.cls-31{fill:#a7a7a7}.cls-31,.cls-67{opacity:.82}.cls-32{fill:#a4a4a4}.cls-32,.cls-68{opacity:.85}.cls-33{fill:#a1a1a1}.cls-33,.cls-69{opacity:.88}.cls-34{fill:#9e9e9e}.cls-34,.cls-70{opacity:.91}.cls-35{fill:#9a9a9a}.cls-35,.cls-71{opacity:.94}.cls-36{fill:#979797}.cls-36,.cls-72{opacity:.97}.cls-37{fill:#949494}.cls-38{fill:url(#linear-gradient)}.cls-39{fill:#008cff}.cls-40{clip-path:url(#clip-path)}.cls-41{fill:#fbfcfd}.cls-42{fill:#f6f9fb}.cls-43{fill:#f2f6fa}.cls-44{fill:#edf3f8}.cls-45{fill:#e9f0f6}.cls-46{fill:#e4edf4}.cls-47{fill:#e0eaf2}.cls-48{fill:#dbe7f1}.cls-49{fill:#d7e4ef}.cls-50{fill:#d2e1ed}.cls-51{fill:#cedeeb}.cls-52{fill:#cadbea}.cls-53{fill:#c5d8e8}.cls-54{fill:#c1d5e6}.cls-55{fill:#bcd2e4}.cls-56{fill:#b8cfe2}.cls-57{fill:#b3cde1}.cls-58{fill:#afcadf}.cls-59{fill:#aac7dd}.cls-60{fill:#a6c4db}.cls-61{fill:#a1c1d9}.cls-62{fill:#9dbed8}.cls-63{fill:#99bbd6}.cls-64{fill:#94b8d4}.cls-65{fill:#90b5d2}.cls-66{fill:#8bb2d1}.cls-67{fill:#87afcf}.cls-68{fill:#82accd}.cls-69{fill:#7ea9cb}.cls-70{fill:#79a6c9}.cls-71{fill:#75a3c8}.cls-72{fill:#70a0c6}.cls-73{fill:#6c9dc4}.cls-74{fill:#fafafa}.cls-75{fill:#d6d6d6}.cls-76{fill:#f0f0f0}.cls-77{fill:#f8f8f8}.cls-78{fill:#333}</style><linearGradient id="linear-gradient" y1="118.14" x2="176.4" y2="118.14" gradientUnits="userSpaceOnUse"><stop offset="0" stop-color="#0af"/><stop offset=".04" stop-color="#00a9ff"/><stop offset=".35" stop-color="#00a6ff"/><stop offset=".54" stop-color="#0086dd"/><stop offset=".74" stop-color="#0066ba"/><stop offset="1" stop-color="#0041ad"/></linearGradient><clipPath id="clip-path"><path class="cls-1" d="M147.21 50.11c-38.92-22.47-79.09-22.47-118 0C9.73 61.34 0 72.76 0 84.18S9.73 107 29.19 118.25c38.93 22.47 79.1 22.47 118 0C166.67 107 176.4 95.59 176.4 84.18s-9.73-22.83-29.19-34.07z"/></clipPath></defs><title>Asset 6</title><g class="cls-2"><g id="Layer_2" data-name="Layer 2"><g id="Layer_1-2" data-name="Layer 1"><g class="cls-3"><path class="cls-4" d="M196.12 67.11c-38.92-22.47-79.09-22.47-118 0-19.48 11.24-29.21 22.65-29.21 34.07S58.64 124 78.1 135.25c38.93 22.47 79.1 22.47 118 0 19.46-11.24 29.19-22.66 29.19-34.07s-9.71-22.83-29.17-34.07z"/><path class="cls-5" d="M194.64 67.11c-38.93-22.47-79.1-22.47-118 0-19.48 11.24-29.21 22.65-29.21 34.07s9.73 22.82 29.19 34.07c38.92 22.47 79.09 22.47 118 0 19.46-11.24 29.19-22.66 29.19-34.07s-9.71-22.83-29.17-34.07z"/><path class="cls-6" d="M193.16 67.11c-38.93-22.47-79.1-22.47-118 0-19.46 11.24-29.2 22.65-29.2 34.07s9.74 22.83 29.2 34.07c38.92 22.47 79.09 22.47 118 0 19.46-11.24 29.19-22.66 29.19-34.07s-9.73-22.83-29.19-34.07z"/><path class="cls-7" d="M191.67 67.11c-38.92-22.47-79.09-22.47-118 0-19.47 11.24-29.2 22.65-29.2 34.07s9.73 22.83 29.2 34.07c38.92 22.47 79.09 22.47 118 0 19.47-11.24 29.2-22.66 29.2-34.07s-9.73-22.83-29.2-34.07z"/><path class="cls-8" d="M190.19 67.11c-38.92-22.47-79.09-22.47-118 0C52.71 78.35 43 89.76 43 101.18s9.71 22.82 29.17 34.07c38.93 22.47 79.1 22.47 118 0 19.46-11.24 29.2-22.66 29.2-34.07s-9.72-22.83-29.18-34.07z"/><path class="cls-9" d="M188.71 67.11c-38.92-22.47-79.09-22.47-118 0C51.23 78.35 41.5 89.76 41.5 101.18s9.73 22.82 29.19 34.07c38.93 22.47 79.1 22.47 118 0 19.46-11.24 29.19-22.66 29.19-34.07s-9.71-22.83-29.17-34.07z"/><path class="cls-10" d="M187.23 67.11c-38.93-22.47-79.1-22.47-118 0C49.75 78.35 40 89.76 40 101.18s9.75 22.82 29.21 34.07c38.92 22.47 79.09 22.47 118 0 19.46-11.24 29.19-22.66 29.19-34.07s-9.71-22.83-29.17-34.07z"/><path class="cls-11" d="M185.75 67.11c-38.93-22.47-79.1-22.47-118 0-19.46 11.24-29.2 22.65-29.2 34.07s9.74 22.83 29.2 34.07c38.92 22.47 79.09 22.47 118 0 19.46-11.24 29.19-22.66 29.19-34.07s-9.73-22.83-29.19-34.07z"/><path class="cls-12" d="M184.26 67.11c-38.92-22.47-79.09-22.47-118 0-19.47 11.24-29.2 22.65-29.2 34.07s9.73 22.83 29.2 34.07c38.92 22.47 79.09 22.47 118 0 19.47-11.24 29.2-22.66 29.2-34.07s-9.73-22.83-29.2-34.07z"/><path class="cls-13" d="M182.78 67.11c-38.92-22.47-79.09-22.47-118 0-19.48 11.24-29.21 22.65-29.21 34.07S45.3 124 64.76 135.25c38.93 22.47 79.1 22.47 118 0C202.24 124 212 112.59 212 101.18s-9.76-22.83-29.22-34.07z"/><path class="cls-14" d="M181.3 67.11c-38.92-22.47-79.09-22.47-118 0-19.48 11.24-29.21 22.65-29.21 34.07s9.73 22.82 29.19 34.07c38.93 22.47 79.1 22.47 118 0 19.46-11.24 29.19-22.66 29.19-34.07s-9.71-22.83-29.17-34.07z"/><path class="cls-15" d="M179.82 67.11c-38.93-22.47-79.1-22.47-118 0-19.48 11.24-29.21 22.65-29.21 34.07S42.34 124 61.8 135.25c38.92 22.47 79.09 22.47 118 0C199.28 124 209 112.59 209 101.18s-9.72-22.83-29.18-34.07z"/><path class="cls-16" d="M178.34 67.11c-38.93-22.47-79.1-22.47-118 0-19.47 11.24-29.2 22.65-29.2 34.07s9.73 22.83 29.2 34.07c38.92 22.47 79.09 22.47 118 0 19.46-11.24 29.19-22.66 29.19-34.07s-9.73-22.83-29.19-34.07z"/><path class="cls-17" d="M176.85 67.11c-38.92-22.47-79.09-22.47-118 0-19.48 11.24-29.21 22.65-29.21 34.07s9.73 22.83 29.2 34.07c38.92 22.47 79.09 22.47 118 0 19.47-11.24 29.2-22.66 29.2-34.07s-9.72-22.83-29.19-34.07z"/><path class="cls-18" d="M175.37 67.11c-38.92-22.47-79.09-22.47-118 0-19.48 11.24-29.21 22.65-29.21 34.07s9.73 22.82 29.19 34.07c38.93 22.47 79.1 22.47 118 0 19.46-11.24 29.19-22.66 29.19-34.07s-9.71-22.83-29.17-34.07z"/><path class="cls-19" d="M173.89 67.11c-38.93-22.47-79.1-22.47-118 0-19.48 11.24-29.21 22.65-29.21 34.07s9.73 22.82 29.19 34.07c38.93 22.47 79.1 22.47 118 0 19.46-11.24 29.19-22.66 29.19-34.07s-9.71-22.83-29.17-34.07z"/><path class="cls-20" d="M172.41 67.11c-38.93-22.47-79.1-22.47-118 0C34.93 78.35 25.2 89.76 25.2 101.18s9.73 22.82 29.19 34.07c38.92 22.47 79.09 22.47 118 0 19.46-11.24 29.19-22.66 29.19-34.07s-9.71-22.83-29.17-34.07z"/><path class="cls-21" d="M170.92 67.11c-38.92-22.47-79.09-22.47-118 0-19.47 11.24-29.2 22.65-29.2 34.07s9.73 22.83 29.2 34.07c38.92 22.47 79.09 22.47 118 0 19.46-11.24 29.19-22.66 29.19-34.07s-9.72-22.83-29.19-34.07z"/><path class="cls-22" d="M169.44 67.11c-38.92-22.47-79.09-22.47-118 0C32 78.35 22.23 89.76 22.23 101.18S32 124 51.42 135.25c38.93 22.47 79.1 22.47 118 0 19.47-11.24 29.2-22.66 29.2-34.07s-9.71-22.83-29.18-34.07z"/><path class="cls-23" d="M168 67.11c-38.92-22.47-79.09-22.47-118 0-19.52 11.24-29.25 22.65-29.25 34.07s9.73 22.82 29.19 34.07c38.93 22.47 79.1 22.47 118 0 19.46-11.24 29.19-22.66 29.19-34.07S187.42 78.35 168 67.11z"/><path class="cls-24" d="M166.48 67.11c-38.93-22.47-79.1-22.47-118 0C29 78.35 19.27 89.76 19.27 101.18S29 124 48.46 135.25c38.92 22.47 79.1 22.47 118 0 19.46-11.24 29.19-22.66 29.19-34.07s-9.71-22.83-29.17-34.07z"/><path class="cls-25" d="M165 67.11c-38.93-22.47-79.1-22.47-118 0-19.46 11.24-29.2 22.65-29.19 34.07S27.52 124 47 135.25c38.92 22.47 79.09 22.47 118 0 19.46-11.24 29.19-22.66 29.19-34.07S184.46 78.35 165 67.11z"/><path class="cls-26" d="M163.51 67.11c-38.92-22.47-79.09-22.47-118 0C26 78.35 16.3 89.76 16.3 101.18S26 124 45.5 135.25c38.92 22.47 79.09 22.47 118 0 19.47-11.24 29.2-22.66 29.2-34.07s-9.7-22.83-29.19-34.07z"/><path class="cls-27" d="M162 67.11c-38.92-22.47-79.09-22.47-118 0-19.45 11.24-29.18 22.65-29.18 34.07S24.55 124 44 135.25c38.93 22.47 79.1 22.47 118 0 19.46-11.24 29.2-22.66 29.2-34.07s-9.71-22.83-29.2-34.07z"/><path class="cls-28" d="M160.55 67.11c-38.92-22.47-79.09-22.47-118 0-19.48 11.24-29.21 22.65-29.21 34.07s9.73 22.82 29.19 34.07c38.93 22.47 79.1 22.47 118 0 19.47-11.25 29.21-22.66 29.21-34.07S180 78.35 160.55 67.11z"/><path class="cls-29" d="M159.07 67.11c-38.93-22.47-79.1-22.47-118 0-19.48 11.24-29.21 22.65-29.21 34.07s9.73 22.82 29.19 34.07c38.92 22.47 79.09 22.47 118 0 19.46-11.24 29.19-22.66 29.19-34.07s-9.71-22.83-29.17-34.07z"/><path class="cls-30" d="M157.59 67.11c-38.93-22.47-79.1-22.47-118 0-19.46 11.24-29.2 22.65-29.2 34.07s9.74 22.83 29.2 34.07c38.92 22.47 79.09 22.47 118 0 19.46-11.24 29.19-22.66 29.19-34.07s-9.73-22.83-29.19-34.07z"/><path class="cls-31" d="M156.1 67.11c-38.92-22.47-79.09-22.47-118 0C18.62 78.35 8.89 89.76 8.89 101.18s9.73 22.83 29.2 34.07c38.92 22.47 79.09 22.47 118 0 19.47-11.24 29.2-22.66 29.2-34.07s-9.72-22.83-29.19-34.07z"/><path class="cls-32" d="M154.62 67.11c-38.92-22.47-79.09-22.47-118 0C17.14 78.35 7.41 89.76 7.41 101.18S17.14 124 36.6 135.25c38.93 22.47 79.1 22.47 118 0 19.46-11.24 29.2-22.66 29.2-34.07s-9.72-22.83-29.18-34.07z"/><path class="cls-33" d="M153.14 67.11c-38.92-22.47-79.09-22.47-118 0C15.66 78.35 5.93 89.76 5.93 101.18s9.73 22.82 29.19 34.07c38.93 22.47 79.1 22.47 118 0 19.46-11.24 29.19-22.66 29.19-34.07s-9.71-22.83-29.17-34.07z"/><path class="cls-34" d="M151.66 67.11c-38.93-22.47-79.1-22.47-118 0C14.18 78.35 4.45 89.76 4.45 101.18s9.73 22.82 29.19 34.07c38.92 22.47 79.09 22.47 118 0 19.46-11.24 29.19-22.66 29.19-34.07s-9.71-22.83-29.17-34.07z"/><path class="cls-35" d="M150.18 67.11c-38.93-22.47-79.1-22.47-118 0C12.7 78.35 3 89.76 3 101.18s9.7 22.82 29.16 34.07c38.92 22.47 79.09 22.47 118 0 19.46-11.24 29.19-22.66 29.19-34.07s-9.71-22.83-29.17-34.07z"/><path class="cls-36" d="M148.69 67.11c-38.92-22.47-79.09-22.47-118 0C11.21 78.35 1.48 89.76 1.48 101.18s9.73 22.83 29.2 34.07c38.92 22.47 79.09 22.47 118 0 19.47-11.24 29.2-22.66 29.2-34.07s-9.72-22.83-29.19-34.07z"/><path class="cls-37" d="M147.21 67.11c-38.92-22.47-79.09-22.47-118 0C9.73 78.35 0 89.76 0 101.18S9.73 124 29.19 135.25c38.93 22.47 79.1 22.47 118 0 19.46-11.24 29.19-22.66 29.19-34.07s-9.71-22.83-29.17-34.07z"/></g><path class="cls-38" d="M147.21 118.25c-38.92 22.47-79.09 22.47-118 0C9.73 107 0 95.59 0 84.18v17c0 11.41 9.73 22.82 29.19 34.07 38.93 22.47 79.1 22.47 118 0 19.46-11.24 29.19-22.66 29.19-34.07v-17c.02 11.41-9.71 22.82-29.17 34.07z"/><path class="cls-39" d="M147.21 50.11c-38.92-22.47-79.09-22.47-118 0C9.73 61.34 0 72.76 0 84.18S9.73 107 29.19 118.25c38.93 22.47 79.1 22.47 118 0C166.67 107 176.4 95.59 176.4 84.18s-9.73-22.83-29.19-34.07z"/><g class="cls-40"><g class="cls-3"><path class="cls-4" d="M194.24 48.68l-17.16-9.9v-7.09L122.19 0l-7.34 4.24v71.87l54.9 31.7 7.33-4.24v-2.38l11.46 6.62 5.7-3.29v-2.72l10.4 6.01 3.64-2.11V70.03l-14.04-8.11V48.68z"/><path class="cls-41" d="M192.01 48.68l-17.15-9.9v-7.09L119.96 0l-7.33 4.24v71.87l54.89 31.7 7.34-4.24v-2.38l11.45 6.62 5.7-3.29v-2.72l10.41 6.01 3.64-2.11V70.03l-14.05-8.11V48.68z"/><path class="cls-42" d="M189.79 48.68l-17.15-9.9v-7.09L117.74 0l-7.33 4.24v71.87l54.89 31.7 7.34-4.24v-2.38l11.45 6.62 5.7-3.29v-2.72l10.4 6.01 3.64-2.11V70.03l-14.04-8.11V48.68z"/><path class="cls-43" d="M187.57 48.68l-17.16-9.9v-7.09L115.52 0l-7.34 4.24v71.87l54.9 31.7 7.33-4.24v-2.38l11.46 6.62 5.7-3.29v-2.72l10.4 6.01 3.64-2.11V70.03l-14.04-8.11V48.68z"/><path class="cls-44" d="M185.34 48.68l-17.15-9.9v-7.09L113.29 0l-7.33 4.24v71.87l54.89 31.7 7.34-4.24v-2.38l11.46 6.62 5.69-3.29v-2.72l10.41 6.01 3.64-2.11V70.03l-14.05-8.11V48.68z"/><path class="cls-45" d="M183.12 48.68l-17.15-9.9v-7.09L111.07 0l-7.33 4.24v71.87l54.89 31.7 7.34-4.24v-2.38l11.45 6.62 5.7-3.29v-2.72l10.4 6.01 3.64-2.11V70.03l-14.04-8.11V48.68z"/><path class="cls-46" d="M180.9 48.68l-17.16-9.9v-7.09L108.85 0l-7.34 4.24v71.87l54.9 31.7 7.33-4.24v-2.38l11.46 6.62 5.7-3.29v-2.72l10.4 6.01 3.64-2.11V70.03l-14.04-8.11V48.68z"/><path class="cls-47" d="M178.67 48.68l-17.15-9.9v-7.09L106.62 0l-7.33 4.24v71.87l54.9 31.7 7.33-4.24v-2.38l11.46 6.62 5.69-3.29v-2.72l10.41 6.01 3.64-2.11V70.03l-14.05-8.11V48.68z"/><path class="cls-48" d="M176.45 48.68l-17.15-9.9v-7.09L104.4 0l-7.33 4.24v71.87l54.89 31.7 7.34-4.24v-2.38l11.45 6.62 5.7-3.29v-2.72l10.4 6.01 3.65-2.11V70.03l-14.05-8.11V48.68z"/><path class="cls-49" d="M174.23 48.68l-17.16-9.9v-7.09L102.18 0l-7.34 4.24v71.87l54.9 31.7 7.33-4.24v-2.38l11.46 6.62 5.7-3.29v-2.72l10.4 6.01 3.64-2.11V70.03l-14.04-8.11V48.68z"/><path class="cls-50" d="M172 48.68l-17.15-9.9v-7.09L99.95 0l-7.33 4.24v71.87l54.9 31.7 7.33-4.24v-2.38l11.46 6.62 5.69-3.29v-2.72l10.41 6.01 3.64-2.11V70.03L172 61.92V48.68z"/><path class="cls-51" d="M169.78 48.68l-17.15-9.9v-7.09L97.73 0 90.4 4.24v71.87l54.89 31.7 7.34-4.24v-2.38l11.45 6.62 5.7-3.29v-2.72l10.41 6.01 3.63-2.11V70.03l-14.04-8.11V48.68z"/><path class="cls-52" d="M167.56 48.68l-17.15-9.9v-7.09L95.51 0l-7.34 4.24v71.87l54.9 31.7 7.34-4.24v-2.38l11.45 6.62 5.7-3.29v-2.72l10.4 6.01 3.64-2.11V70.03l-14.04-8.11V48.68z"/><path class="cls-53" d="M165.33 48.68l-17.15-9.9v-7.09L93.28 0l-7.33 4.24v71.87l54.9 31.7 7.33-4.24v-2.38l11.46 6.62 5.69-3.29v-2.72l10.41 6.01 3.64-2.11V70.03l-14.05-8.11V48.68z"/><path class="cls-54" d="M163.11 48.68l-17.15-9.9v-7.09L91.06 0l-7.33 4.24v71.87l54.89 31.7 7.34-4.24v-2.38l11.45 6.62 5.7-3.29v-2.72l10.4 6.01 3.65-2.11V70.03l-14.05-8.11V48.68z"/><path class="cls-55" d="M160.89 48.68l-17.15-9.9v-7.09L88.84 0 81.5 4.24v71.87l54.9 31.7 7.34-4.24v-2.38l11.45 6.62 5.7-3.29v-2.72l10.4 6.01 3.64-2.11V70.03l-14.04-8.11V48.68z"/><path class="cls-56" d="M158.66 48.68l-17.15-9.9v-7.09L86.62 0l-7.34 4.24v71.87l54.9 31.7 7.33-4.24v-2.38l11.46 6.62 5.69-3.29v-2.72l10.41 6.01 3.64-2.11V70.03l-14.05-8.11V48.68z"/><path class="cls-57" d="M156.44 48.68l-17.15-9.9v-7.09L84.39 0l-7.33 4.24v71.87l54.89 31.7 7.34-4.24v-2.38l11.45 6.62 5.7-3.29v-2.72l10.41 6.01 3.64-2.11V70.03l-14.05-8.11V48.68z"/><path class="cls-58" d="M154.22 48.68l-17.15-9.9v-7.09L82.17 0l-7.34 4.24v71.87l54.9 31.7 7.34-4.24v-2.38l11.45 6.62 5.7-3.29v-2.72l10.4 6.01 3.64-2.11V70.03l-14.04-8.11V48.68z"/><path class="cls-59" d="M152 48.68l-17.16-9.9v-7.09L79.95 0l-7.34 4.24v71.87l54.9 31.7 7.33-4.24v-2.38l11.46 6.62 5.7-3.29v-2.72l10.4 6.01 3.64-2.11V70.03L152 61.92V48.68z"/><path class="cls-60" d="M149.77 48.68l-17.15-9.9v-7.09L77.72 0l-7.33 4.24v71.87l54.89 31.7 7.34-4.24v-2.38l11.45 6.62 5.7-3.29v-2.72l10.41 6.01 3.64-2.11V70.03l-14.05-8.11V48.68z"/><path class="cls-61" d="M147.55 48.68l-17.15-9.9v-7.09L75.5 0l-7.33 4.24v71.87l54.89 31.7 7.34-4.24v-2.38l11.45 6.62 5.7-3.29v-2.72l10.4 6.01 3.64-2.11V70.03l-14.04-8.11V48.68z"/><path class="cls-62" d="M145.33 48.68l-17.16-9.9v-7.09L73.28 0l-7.34 4.24v71.87l54.9 31.7 7.33-4.24v-2.38l11.46 6.62 5.7-3.29v-2.72l10.4 6.01 3.64-2.11V70.03l-14.04-8.11V48.68z"/><path class="cls-63" d="M143.1 48.68l-17.15-9.9v-7.09L71.05 0l-7.33 4.24v71.87l54.9 31.7 7.33-4.24v-2.38l11.46 6.62 5.69-3.29v-2.72l10.41 6.01 3.64-2.11V70.03l-14.05-8.11V48.68z"/><path class="cls-64" d="M140.88 48.68l-17.15-9.9v-7.09L68.83 0 61.5 4.24v71.87l54.89 31.7 7.34-4.24v-2.38l11.45 6.62 5.7-3.29v-2.72l10.4 6.01 3.65-2.11V70.03l-14.05-8.11V48.68z"/><path class="cls-65" d="M138.66 48.68l-17.16-9.9v-7.09L66.61 0l-7.34 4.24v71.87l54.9 31.7 7.33-4.24v-2.38l11.46 6.62 5.7-3.29v-2.72l10.4 6.01 3.64-2.11V70.03l-14.04-8.11V48.68z"/><path class="cls-66" d="M136.43 48.68l-17.15-9.9v-7.09L64.39 0l-7.34 4.24v71.87l54.9 31.7 7.33-4.24v-2.38l11.46 6.62 5.69-3.29v-2.72l10.41 6.01 3.64-2.11V70.03l-14.05-8.11V48.68z"/><path class="cls-67" d="M134.21 48.68l-17.15-9.9v-7.09L62.16 0l-7.33 4.24v71.87l54.89 31.7 7.34-4.24v-2.38l11.45 6.62 5.7-3.29v-2.72l10.4 6.01 3.64-2.11V70.03l-14.04-8.11V48.68z"/><path class="cls-68" d="M131.99 48.68l-17.16-9.9v-7.09L59.94 0 52.6 4.24v71.87l54.9 31.7 7.33-4.24v-2.38l11.46 6.62 5.7-3.29v-2.72l10.4 6.01 3.64-2.11V70.03l-14.04-8.11V48.68z"/><path class="cls-69" d="M129.76 48.68l-17.15-9.9v-7.09L57.72 0l-7.34 4.24v71.87l54.9 31.7 7.33-4.24v-2.38l11.46 6.62 5.69-3.29v-2.72l10.41 6.01 3.64-2.11V70.03l-14.05-8.11V48.68z"/><path class="cls-70" d="M127.54 48.68l-17.15-9.9v-7.09L55.49 0l-7.33 4.24v71.87l54.89 31.7 7.34-4.24v-2.38l11.45 6.62 5.7-3.29v-2.72l10.4 6.01 3.65-2.11V70.03l-14.05-8.11V48.68z"/><path class="cls-71" d="M125.32 48.68l-17.15-9.9v-7.09L53.27 0l-7.33 4.24v71.87l54.89 31.7 7.34-4.24v-2.38l11.45 6.62 5.7-3.29v-2.72l10.4 6.01 3.64-2.11V70.03l-14.04-8.11V48.68z"/><path class="cls-72" d="M123.09 48.68l-17.15-9.9v-7.09L51.05 0l-7.34 4.24v71.87l54.9 31.7 7.33-4.24v-2.38l11.46 6.62 5.69-3.29v-2.72l10.41 6.01 3.64-2.11V70.03l-14.05-8.11V48.68z"/><path class="cls-73" d="M120.87 48.68l-17.15-9.9v-7.09L48.82 0l-7.33 4.24v71.87l54.89 31.7 7.34-4.24v-2.38l11.45 6.62 5.7-3.29v-2.72l10.41 6.01 3.64-2.11V70.03l-14.05-8.11V48.68z"/></g></g><path class="cls-74" d="M107.67 89.97l-3.64 2.1 27.25 15.74 3.64-2.11-27.25-15.73z"/><path class="cls-75" d="M134.92 105.7l-3.64 2.11V72.13l3.64-2.1v35.67z"/><path class="cls-76" d="M134.92 70.03l-3.64 2.1-27.25-15.73 3.64-2.11 27.25 15.74z"/><path class="cls-77" d="M104.03 56.4v35.67l27.25 15.74V72.13L104.03 56.4z"/><path class="cls-74" d="M78.23 79.9l-5.7 3.29 42.64 24.62 5.7-3.29L78.23 79.9z"/><path class="cls-75" d="M120.87 104.52l-5.7 3.29V51.97l5.7-3.29v55.84z"/><path class="cls-76" d="M120.87 48.68l-5.7 3.29-42.64-24.62 5.7-3.29 42.64 24.62z"/><path class="cls-77" d="M72.53 27.35v55.84l42.64 24.62V51.97L72.53 27.35z"/><path class="cls-74" d="M48.82 71.88l-7.33 4.23 54.89 31.7 7.34-4.24-54.9-31.69z"/><path class="cls-75" d="M103.72 103.57l-7.34 4.24V35.93l7.34-4.24v71.88z"/><path class="cls-76" d="M103.72 31.69l-7.34 4.24L41.49 4.24 48.82 0l54.9 31.69z"/><path class="cls-77" d="M41.49 4.24v71.87l54.89 31.7V35.93L41.49 4.24z"/><path class="cls-78" d="M86.8 47.55L51.07 26.92v-2.87L86.8 44.68v2.87zm0 8.09L51.07 35.01v-2.87L86.8 52.77v2.87zm0 8.09L51.07 43.1v-2.88L86.8 60.85v2.88zm0 8.09L51.07 51.19v-2.88L86.8 68.94v2.88zm0 8.09L51.07 59.27V56.4L86.8 77.03v2.88zm0 8.08L51.07 67.36v-2.87L86.8 85.12v2.87z"/></g></g></g></svg>