<svg xmlns="http://www.w3.org/2000/svg" viewBox="0 0 225.31 152.33"><defs><style>.cls-1{fill:none}.cls-2{isolation:isolate}.cls-3{mix-blend-mode:multiply}.cls-4{fill:#fff;opacity:0}.cls-5{fill:#fcfcfc}.cls-42,.cls-5{opacity:.03}.cls-6{fill:#f9f9f9}.cls-43,.cls-6{opacity:.06}.cls-7{fill:#f5f5f5}.cls-44,.cls-7{opacity:.09}.cls-8{fill:#f2f2f2}.cls-45,.cls-8{opacity:.12}.cls-9{fill:#efefef}.cls-46,.cls-9{opacity:.15}.cls-10,.cls-45{fill:#ececec}.cls-10,.cls-47{opacity:.18}.cls-11,.cls-46{fill:#e8e8e8}.cls-11,.cls-48{opacity:.21}.cls-12{fill:#e5e5e5}.cls-12,.cls-49{opacity:.24}.cls-13{fill:#e2e2e2}.cls-13,.cls-50{opacity:.27}.cls-14,.cls-48{fill:#dfdfdf}.cls-14,.cls-51{opacity:.3}.cls-15{fill:#dbdbdb}.cls-15,.cls-52{opacity:.33}.cls-16{fill:#d8d8d8}.cls-16,.cls-53{opacity:.36}.cls-17,.cls-50{fill:#d5d5d5}.cls-17,.cls-54{opacity:.39}.cls-18{fill:#d2d2d2}.cls-18,.cls-55{opacity:.42}.cls-19{fill:#cecece}.cls-19,.cls-56{opacity:.45}.cls-20{fill:#cbcbcb}.cls-20,.cls-57{opacity:.48}.cls-21{fill:#c8c8c8}.cls-21,.cls-58{opacity:.52}.cls-22{fill:#c5c5c5}.cls-22,.cls-59{opacity:.55}.cls-23{fill:#c1c1c1}.cls-23,.cls-60{opacity:.58}.cls-24,.cls-55{fill:#bebebe}.cls-24,.cls-61{opacity:.61}.cls-25{fill:#bbb}.cls-25,.cls-62{opacity:.64}.cls-26{fill:#b8b8b8}.cls-26,.cls-63{opacity:.67}.cls-27{fill:#b4b4b4}.cls-27,.cls-64{opacity:.7}.cls-28{fill:#b1b1b1}.cls-28,.cls-65{opacity:.73}.cls-29{fill:#aeaeae}.cls-29,.cls-66{opacity:.76}.cls-30{fill:#ababab}.cls-30,.cls-67{opacity:.79}.cls-31,.cls-60{fill:#a7a7a7}.cls-31,.cls-68{opacity:.82}.cls-32{fill:#a4a4a4}.cls-32,.cls-69{opacity:.85}.cls-33{fill:#a1a1a1}.cls-33,.cls-70{opacity:.88}.cls-34,.cls-62{fill:#9e9e9e}.cls-34,.cls-71{opacity:.91}.cls-35{fill:#9a9a9a}.cls-35,.cls-72{opacity:.94}.cls-36{fill:#979797}.cls-36,.cls-73{opacity:.97}.cls-37,.cls-64{fill:#949494}.cls-38{fill:url(#linear-gradient)}.cls-39{fill:#37384f}.cls-40{fill:#f7f7f7}.cls-41{clip-path:url(#clip-path)}.cls-42{fill:#fafafa}.cls-43{fill:#f6f6f6}.cls-44{fill:#f1f1f1}.cls-47{fill:#e3e3e3}.cls-49{fill:#dadada}.cls-51{fill:#d1d1d1}.cls-52{fill:#ccc}.cls-53{fill:#c7c7c7}.cls-54{fill:#c3c3c3}.cls-56{fill:#b9b9b9}.cls-57{fill:#b5b5b5}.cls-58{fill:#b0b0b0}.cls-59{fill:#acacac}.cls-61{fill:#a2a2a2}.cls-63{fill:#999}.cls-65{fill:#909090}.cls-66{fill:#8b8b8b}.cls-67{fill:#868686}.cls-68{fill:#828282}.cls-69{fill:#7d7d7d}.cls-70{fill:#797979}.cls-71{fill:#747474}.cls-72{fill:#6f6f6f}.cls-73{fill:#6b6b6b}.cls-74{fill:#666}.cls-75{fill:url(#linear-gradient-2)}.cls-76{fill:url(#linear-gradient-3)}.cls-77{fill:url(#linear-gradient-4)}.cls-78{fill:url(#linear-gradient-5)}.cls-79{fill:#ef5619}.cls-80{fill:#3d3d3d}</style><linearGradient id="linear-gradient" y1="118.37" x2="176.4" y2="118.37" gradientUnits="userSpaceOnUse"><stop offset="0" stop-color="#545770"/><stop offset=".1" stop-color="#50536b"/><stop offset=".3" stop-color="#4e5168"/><stop offset=".38" stop-color="#464960"/><stop offset=".59" stop-color="#353850"/><stop offset=".74" stop-color="#2f324a"/><stop offset="1" stop-color="#20233d"/></linearGradient><clipPath id="clip-path"><path class="cls-1" d="M147.21 50.34c-38.92-22.47-79.09-22.47-118 0C9.73 61.58 0 73 0 84.41s9.73 22.83 29.19 34.07c38.93 22.47 79.1 22.47 118 0 19.46-11.24 29.19-22.65 29.19-34.07s-9.71-22.83-29.17-34.07z"/></clipPath><linearGradient id="linear-gradient-2" x1="98.94" y1="78.59" x2="121.84" y2="78.59" gradientUnits="userSpaceOnUse"><stop offset="0" stop-color="#ffe898"/><stop offset=".07" stop-color="#ffeb9b"/><stop offset=".3" stop-color="#ffed9e"/><stop offset=".55" stop-color="#ffdd8e"/><stop offset=".74" stop-color="#ffd788"/><stop offset="1" stop-color="#ffb06d"/></linearGradient><linearGradient id="linear-gradient-3" x1="97.67" y1="12.96" x2="123.19" y2="12.96" gradientUnits="userSpaceOnUse"><stop offset="0" stop-color="#ff682b"/><stop offset=".07" stop-color="#ff6b2e"/><stop offset=".3" stop-color="#ff6d31"/><stop offset=".55" stop-color="#f65d21"/><stop offset=".74" stop-color="#f3571b"/><stop offset="1" stop-color="#c93000"/></linearGradient><linearGradient id="linear-gradient-4" x1="97.67" y1="18.7" x2="123.19" y2="18.7" gradientUnits="userSpaceOnUse"><stop offset="0" stop-color="#e7ecf2"/><stop offset=".02" stop-color="#edf2f8"/><stop offset=".06" stop-color="#eff4fa"/><stop offset=".09" stop-color="#eef3f9"/><stop offset=".3" stop-color="#edf0f6"/><stop offset=".44" stop-color="#e8ecf2"/><stop offset=".74" stop-color="#e2e7ee"/><stop offset=".81" stop-color="#d5dae2"/><stop offset=".94" stop-color="#b2b8c1"/><stop offset=".95" stop-color="#afb6bf"/><stop offset=".97" stop-color="#b2b9c2"/><stop offset=".99" stop-color="#bac2cb"/><stop offset="1" stop-color="#c6d0da"/></linearGradient><linearGradient id="linear-gradient-5" x1="97.67" y1="47.88" x2="123.19" y2="47.88" gradientUnits="userSpaceOnUse"><stop offset="0" stop-color="#ffd900"/><stop offset=".4" stop-color="#ffc300"/><stop offset="1" stop-color="orange"/></linearGradient></defs><title>Asset 11</title><g class="cls-2"><g id="Layer_2" data-name="Layer 2"><g id="Layer_1-2" data-name="Layer 1"><g class="cls-3"><path class="cls-4" d="M196.12 67.34c-38.92-22.47-79.09-22.47-118 0C58.64 78.58 48.91 90 48.91 101.41s9.73 22.83 29.19 34.07c38.93 22.47 79.1 22.47 118 0 19.46-11.24 29.19-22.65 29.19-34.07s-9.71-22.83-29.17-34.07z"/><path class="cls-5" d="M194.64 67.34c-38.93-22.47-79.1-22.47-118 0C57.16 78.58 47.43 90 47.43 101.41s9.73 22.83 29.19 34.07c38.92 22.47 79.09 22.47 118 0 19.46-11.24 29.19-22.65 29.19-34.07s-9.71-22.83-29.17-34.07z"/><path class="cls-6" d="M193.16 67.34c-38.93-22.47-79.1-22.47-118 0C55.68 78.58 45.94 90 45.94 101.41s9.74 22.83 29.2 34.07c38.92 22.47 79.09 22.47 118 0 19.46-11.24 29.19-22.65 29.19-34.07s-9.71-22.83-29.17-34.07z"/><path class="cls-7" d="M191.67 67.34c-38.92-22.47-79.09-22.47-118 0C54.19 78.58 44.46 90 44.46 101.41s9.73 22.83 29.2 34.07c38.92 22.47 79.09 22.47 118 0 19.47-11.24 29.2-22.65 29.2-34.07s-9.72-22.83-29.19-34.07z"/><path class="cls-8" d="M190.19 67.34c-38.92-22.47-79.09-22.47-118 0C52.71 78.58 43 90 43 101.41s9.73 22.83 29.19 34.07c38.93 22.47 79.1 22.47 118 0 19.46-11.24 29.2-22.65 29.2-34.07s-9.74-22.83-29.2-34.07z"/><path class="cls-9" d="M188.71 67.34c-38.92-22.47-79.09-22.47-118 0C51.23 78.58 41.5 90 41.5 101.41s9.73 22.83 29.19 34.07c38.93 22.47 79.1 22.47 118 0 19.46-11.24 29.19-22.65 29.19-34.07s-9.71-22.83-29.17-34.07z"/><path class="cls-10" d="M187.23 67.34c-38.93-22.47-79.1-22.47-118 0C49.75 78.58 40 90 40 101.41s9.73 22.83 29.19 34.07c38.92 22.47 79.09 22.47 118 0 19.46-11.24 29.19-22.65 29.19-34.07s-9.69-22.83-29.15-34.07z"/><path class="cls-11" d="M185.75 67.34c-38.93-22.47-79.1-22.47-118 0C48.27 78.58 38.53 90 38.53 101.41s9.74 22.83 29.2 34.07c38.92 22.47 79.09 22.47 118 0 19.46-11.24 29.19-22.65 29.19-34.07s-9.71-22.83-29.17-34.07z"/><path class="cls-12" d="M184.26 67.34c-38.92-22.47-79.09-22.47-118 0C46.78 78.58 37.05 90 37.05 101.41s9.73 22.83 29.2 34.07c38.92 22.47 79.09 22.47 118 0 19.47-11.24 29.2-22.65 29.2-34.07s-9.72-22.83-29.19-34.07z"/><path class="cls-13" d="M182.78 67.34c-38.92-22.47-79.09-22.47-118 0C45.3 78.58 35.57 90 35.57 101.41s9.73 22.83 29.19 34.07c38.93 22.47 79.1 22.47 118 0 19.46-11.24 29.2-22.65 29.2-34.07s-9.72-22.83-29.18-34.07z"/><path class="cls-14" d="M181.3 67.34c-38.92-22.47-79.09-22.47-118 0C43.82 78.58 34.09 90 34.09 101.41s9.73 22.83 29.19 34.07c38.93 22.47 79.1 22.47 118 0 19.46-11.24 29.19-22.65 29.19-34.07s-9.71-22.83-29.17-34.07z"/><path class="cls-15" d="M179.82 67.34c-38.93-22.47-79.1-22.47-118 0C42.34 78.58 32.61 90 32.61 101.41s9.73 22.83 29.19 34.07c38.92 22.47 79.09 22.47 118 0 19.48-11.24 29.2-22.65 29.2-34.07s-9.72-22.83-29.18-34.07z"/><path class="cls-16" d="M178.34 67.34c-38.93-22.47-79.1-22.47-118 0C40.85 78.58 31.12 90 31.12 101.41s9.74 22.83 29.2 34.07c38.92 22.47 79.09 22.47 118 0 19.46-11.24 29.19-22.65 29.19-34.07s-9.71-22.83-29.17-34.07z"/><path class="cls-17" d="M176.85 67.34c-38.92-22.47-79.09-22.47-118 0C39.37 78.58 29.64 90 29.64 101.41s9.73 22.83 29.2 34.07c38.92 22.47 79.09 22.47 118 0 19.47-11.24 29.2-22.65 29.2-34.07s-9.72-22.83-29.19-34.07z"/><path class="cls-18" d="M175.37 67.34c-38.92-22.47-79.09-22.47-118 0C37.89 78.58 28.16 90 28.16 101.41s9.73 22.83 29.19 34.07c38.93 22.47 79.1 22.47 118 0 19.46-11.24 29.19-22.65 29.19-34.07s-9.71-22.83-29.17-34.07z"/><path class="cls-19" d="M173.89 67.34c-38.93-22.47-79.1-22.47-118 0C36.41 78.58 26.68 90 26.68 101.41s9.73 22.83 29.19 34.07c38.93 22.47 79.1 22.47 118 0 19.46-11.24 29.19-22.65 29.19-34.07s-9.71-22.83-29.17-34.07z"/><path class="cls-20" d="M172.41 67.34c-38.93-22.47-79.1-22.47-118 0C34.93 78.58 25.2 90 25.2 101.41s9.73 22.83 29.19 34.07c38.92 22.47 79.09 22.47 118 0 19.46-11.24 29.19-22.65 29.19-34.07s-9.71-22.83-29.17-34.07z"/><path class="cls-21" d="M170.93 67.34c-38.93-22.47-79.1-22.47-118 0C33.44 78.58 23.71 90 23.71 101.41s9.73 22.83 29.2 34.07c38.92 22.47 79.09 22.47 118 0 19.46-11.24 29.19-22.65 29.19-34.07s-9.71-22.83-29.17-34.07z"/><path class="cls-22" d="M169.44 67.34c-38.92-22.47-79.09-22.47-118 0C32 78.58 22.23 90 22.23 101.41s9.77 22.83 29.19 34.07c38.93 22.47 79.1 22.47 118 0 19.47-11.24 29.2-22.65 29.2-34.07s-9.71-22.83-29.18-34.07z"/><path class="cls-23" d="M168 67.34c-38.92-22.47-79.09-22.47-118 0C30.48 78.58 20.75 90 20.75 101.41s9.73 22.83 29.19 34.07C88.87 158 129 158 168 135.48c19.46-11.24 29.19-22.65 29.19-34.07S187.42 78.58 168 67.34z"/><path class="cls-24" d="M166.48 67.34c-38.93-22.47-79.1-22.47-118 0C29 78.58 19.27 90 19.27 101.41s9.73 22.83 29.19 34.07c38.92 22.47 79.1 22.47 118 0 19.46-11.24 29.19-22.65 29.19-34.07s-9.71-22.83-29.17-34.07z"/><path class="cls-25" d="M165 67.34c-38.93-22.47-79.1-22.47-118 0C27.52 78.58 17.78 90 17.78 101.41s9.74 22.83 29.2 34.07c38.92 22.47 79.09 22.47 118 0 19.46-11.24 29.19-22.65 29.19-34.07S184.46 78.58 165 67.34z"/><path class="cls-26" d="M163.51 67.34c-38.92-22.47-79.09-22.47-118 0C26 78.58 16.3 90 16.3 101.41s9.7 22.83 29.2 34.07c38.92 22.47 79.09 22.47 118 0 19.47-11.24 29.2-22.65 29.2-34.07s-9.7-22.83-29.19-34.07z"/><path class="cls-27" d="M162 67.34c-38.92-22.47-79.09-22.47-118 0C24.55 78.58 14.82 90 14.82 101.41s9.73 22.83 29.18 34.07c38.93 22.47 79.1 22.47 118 0 19.46-11.24 29.2-22.65 29.2-34.07s-9.71-22.83-29.2-34.07z"/><path class="cls-28" d="M160.55 67.34c-38.92-22.47-79.09-22.47-118 0C23.07 78.58 13.34 90 13.34 101.41s9.73 22.83 29.19 34.07c38.93 22.47 79.1 22.47 118 0 19.46-11.24 29.19-22.65 29.19-34.07S180 78.58 160.55 67.34z"/><path class="cls-29" d="M159.07 67.34c-38.93-22.47-79.1-22.47-118 0C21.59 78.58 11.86 90 11.86 101.41s9.73 22.83 29.19 34.07c38.92 22.47 79.09 22.47 118 0 19.46-11.24 29.19-22.65 29.19-34.07s-9.71-22.83-29.17-34.07z"/><path class="cls-30" d="M157.59 67.34c-38.93-22.47-79.1-22.47-118 0C20.11 78.58 10.37 90 10.37 101.41s9.74 22.83 29.2 34.07c38.92 22.47 79.09 22.47 118 0 19.46-11.24 29.19-22.65 29.19-34.07s-9.71-22.83-29.17-34.07z"/><path class="cls-31" d="M156.1 67.34c-38.92-22.47-79.09-22.47-118 0C18.62 78.58 8.89 90 8.89 101.41s9.73 22.83 29.2 34.07c38.92 22.47 79.09 22.47 118 0 19.47-11.24 29.2-22.65 29.2-34.07s-9.72-22.83-29.19-34.07z"/><path class="cls-32" d="M154.62 67.34c-38.92-22.47-79.09-22.47-118 0C17.14 78.58 7.41 90 7.41 101.41s9.73 22.83 29.19 34.07c38.93 22.47 79.1 22.47 118 0 19.46-11.24 29.2-22.65 29.2-34.07s-9.72-22.83-29.18-34.07z"/><path class="cls-33" d="M153.14 67.34c-38.92-22.47-79.09-22.47-118 0C15.66 78.58 5.93 90 5.93 101.41s9.73 22.83 29.19 34.07c38.93 22.47 79.1 22.47 118 0 19.46-11.24 29.19-22.65 29.19-34.07s-9.71-22.83-29.17-34.07z"/><path class="cls-34" d="M151.66 67.34c-38.93-22.47-79.1-22.47-118 0C14.18 78.58 4.45 90 4.45 101.41s9.73 22.83 29.19 34.07c38.92 22.47 79.09 22.47 118 0 19.46-11.24 29.19-22.65 29.19-34.07s-9.71-22.83-29.17-34.07z"/><path class="cls-35" d="M150.18 67.34c-38.93-22.47-79.1-22.47-118 0C12.7 78.58 3 90 3 101.41s9.74 22.83 29.2 34.07c38.92 22.47 79.09 22.47 118 0 19.46-11.24 29.19-22.65 29.19-34.07s-9.75-22.83-29.21-34.07z"/><path class="cls-36" d="M148.69 67.34c-38.92-22.47-79.09-22.47-118 0C11.21 78.58 1.48 90 1.48 101.41s9.73 22.83 29.2 34.07c38.92 22.47 79.09 22.47 118 0 19.47-11.24 29.2-22.65 29.2-34.07s-9.72-22.83-29.19-34.07z"/><path class="cls-37" d="M147.21 67.34c-38.92-22.47-79.09-22.47-118 0C9.73 78.58 0 90 0 101.41s9.73 22.83 29.19 34.07c38.93 22.47 79.1 22.47 118 0 19.46-11.24 29.2-22.65 29.19-34.07s-9.71-22.83-29.17-34.07z"/></g><path class="cls-38" d="M147.21 118.48c-38.92 22.47-79.09 22.47-118 0C9.73 107.24 0 95.83 0 84.41v17c0 11.42 9.73 22.83 29.19 34.07 38.93 22.47 79.1 22.47 118 0 19.46-11.24 29.19-22.65 29.19-34.07v-17c.02 11.42-9.71 22.83-29.17 34.07z"/><path class="cls-39" d="M147.21 50.34c-38.92-22.47-79.09-22.47-118 0C9.73 61.58 0 73 0 84.41s9.73 22.83 29.19 34.07c38.93 22.47 79.1 22.47 118 0 19.46-11.24 29.19-22.65 29.19-34.07s-9.71-22.83-29.17-34.07z"/><path class="cls-40" d="M85.39 112.26c5.35 3.09 14.1 3.09 19.44 0l35.85-20.7c5.35-3.09 5.35-8.14 0-11.23L91 51.67c-5.35-3.09-14.09-3.09-19.44 0l-35.84 20.7c-5.34 3.08-5.34 8.13 0 11.22z"/><g class="cls-41"><g class="cls-3"><path class="cls-4" d="M171 7.37v62.19a5 5 0 0 0 1.32 3.21l8.14 8.23 3.34 3.38 3.34-3.4 7.23-7.33.82-.83a5 5 0 0 0 1.39-3.27V7.37a4.9 4.9 0 0 1-1 2.87 4.9 4.9 0 0 0 1-2.87c0-4.07-5.71-7.37-12.76-7.37S171 3.3 171 7.37z"/><path class="cls-42" d="M168.81 7.37v62.19a5 5 0 0 0 1.32 3.21l8.1 8.23 3.34 3.38 3.35-3.4 7.23-7.33.82-.83a5 5 0 0 0 1.39-3.27V7.37a4.85 4.85 0 0 1-1 2.87 4.85 4.85 0 0 0 1-2.87c0-4.07-5.72-7.37-12.76-7.37s-12.79 3.3-12.79 7.37z"/><path class="cls-43" d="M166.58 7.37v62.19a5 5 0 0 0 1.33 3.21h-.06L176 81l3.34 3.38L182.7 81l7.22-7.33.81-.83a5 5 0 0 0 1.39-3.27V7.37a4.83 4.83 0 0 1-1 2.87 4.83 4.83 0 0 0 1-2.87C192.1 3.3 186.39 0 179.34 0s-12.76 3.3-12.76 7.37z"/><path class="cls-44" d="M164.36 7.37v62.19a5 5 0 0 0 1.32 3.21h-.05l8.16 8.23 3.34 3.38 3.34-3.4 7.23-7.33.82-.83a5 5 0 0 0 1.39-3.27V7.37a4.9 4.9 0 0 1-1 2.87 4.9 4.9 0 0 0 1-2.87c0-4.07-5.71-7.37-12.76-7.37s-12.79 3.3-12.79 7.37z"/><path class="cls-45" d="M162.14 7.37v62.19a5 5 0 0 0 1.32 3.21h-.05l8.15 8.23 3.34 3.38 3.35-3.4 7.23-7.33.82-.83a5 5 0 0 0 1.39-3.27V7.37a4.9 4.9 0 0 1-1 2.87 4.9 4.9 0 0 0 1-2.87C187.66 3.3 181.94 0 174.9 0s-12.76 3.3-12.76 7.37z"/><path class="cls-46" d="M159.91 7.37v62.19a5 5 0 0 0 1.33 3.21h-.06l8.16 8.23 3.34 3.38L176 81l7.22-7.33.81-.83a5 5 0 0 0 1.38-3.27V7.37a4.83 4.83 0 0 1-1 2.87 4.83 4.83 0 0 0 1-2.87c0-4.07-5.71-7.37-12.76-7.37s-12.74 3.3-12.74 7.37z"/><path class="cls-47" d="M157.69 7.37v62.19a5 5 0 0 0 1.31 3.21l8.12 8.23 3.34 3.38L173.8 81l7.2-7.32.82-.83a5 5 0 0 0 1.39-3.27V7.37a4.9 4.9 0 0 1-1 2.87 4.9 4.9 0 0 0 1-2.87c0-4.07-5.71-7.37-12.76-7.37s-12.76 3.3-12.76 7.37z"/><path class="cls-48" d="M155.47 7.37v62.19a5 5 0 0 0 1.32 3.21l8.1 8.23 3.34 3.38 3.35-3.4 7.23-7.33.82-.83a5 5 0 0 0 1.37-3.26V7.37a4.9 4.9 0 0 1-1 2.87 4.9 4.9 0 0 0 1-2.87C181 3.3 175.28 0 168.23 0s-12.76 3.3-12.76 7.37z"/><path class="cls-49" d="M153.24 7.37v62.19a5 5 0 0 0 1.33 3.21l8.1 8.23 3.33 3.41 3.35-3.4 7.22-7.33.81-.83a5 5 0 0 0 1.39-3.27V7.37a4.85 4.85 0 0 1-1 2.87 4.85 4.85 0 0 0 1-2.87C178.77 3.3 173.05 0 166 0s-12.76 3.3-12.76 7.37z"/><path class="cls-50" d="M151 7.37v62.19a5 5 0 0 0 1.33 3.21h-.06l8.18 8.23 3.34 3.38 3.34-3.4 7.23-7.33.82-.83a5 5 0 0 0 1.39-3.27V7.37a4.83 4.83 0 0 1-1 2.87 4.83 4.83 0 0 0 1-2.87c0-4.07-5.71-7.37-12.76-7.37S151 3.3 151 7.37z"/><path class="cls-51" d="M148.8 7.37v62.19a5 5 0 0 0 1.32 3.21h-.05l8.16 8.23 3.33 3.38 3.35-3.4 7.23-7.33.82-.83a5 5 0 0 0 1.39-3.27V7.37a4.9 4.9 0 0 1-1 2.87 4.9 4.9 0 0 0 1-2.87c0-4.07-5.71-7.37-12.76-7.37S148.8 3.3 148.8 7.37z"/><path class="cls-52" d="M146.57 7.37v62.19a5 5 0 0 0 1.33 3.21h-.05L156 81l3.34 3.38 3.35-3.4 7.22-7.33.81-.83a5 5 0 0 0 1.39-3.27V7.37a4.85 4.85 0 0 1-1 2.87 4.85 4.85 0 0 0 1-2.87C172.1 3.3 166.38 0 159.34 0s-12.77 3.3-12.77 7.37z"/><path class="cls-53" d="M144.35 7.37v62.19a5 5 0 0 0 1.33 3.21h-.06l8.16 8.23 3.34 3.38 3.34-3.4 7.23-7.33.82-.83a5 5 0 0 0 1.39-3.27V7.37a4.83 4.83 0 0 1-1 2.87 4.83 4.83 0 0 0 1-2.87c0-4.07-5.71-7.37-12.76-7.37s-12.79 3.3-12.79 7.37z"/><path class="cls-54" d="M142.13 7.37v62.19a5 5 0 0 0 1.32 3.21l8.11 8.23 3.33 3.38 3.35-3.4 7.23-7.33.82-.83a5 5 0 0 0 1.39-3.27V7.37a4.9 4.9 0 0 1-1 2.87 4.9 4.9 0 0 0 1-2.87c0-4.07-5.71-7.37-12.76-7.37s-12.79 3.3-12.79 7.37z"/><path class="cls-55" d="M139.9 7.37v62.19a5 5 0 0 0 1.33 3.21l8.1 8.23 3.34 3.38L156 81l7.23-7.33.81-.83a5 5 0 0 0 1.39-3.27V7.37a4.85 4.85 0 0 1-1 2.87 4.85 4.85 0 0 0 1-2.87c0-4.07-5.72-7.37-12.76-7.37S139.9 3.3 139.9 7.37z"/><path class="cls-56" d="M137.68 7.37v62.19a5 5 0 0 0 1.32 3.21l8.11 8.23 3.34 3.38L153.8 81l7.2-7.32.81-.83a5 5 0 0 0 1.39-3.27V7.37a4.83 4.83 0 0 1-1 2.87 4.83 4.83 0 0 0 1-2.87c0-4.07-5.71-7.37-12.76-7.37s-12.76 3.3-12.76 7.37z"/><path class="cls-57" d="M135.46 7.37v62.19a5 5 0 0 0 1.32 3.21h-.05l8.16 8.23 3.34 3.38 3.34-3.4 7.23-7.33.82-.83a5 5 0 0 0 1.38-3.26V7.37a4.9 4.9 0 0 1-1 2.87 4.9 4.9 0 0 0 1-2.87C161 3.3 155.27 0 148.22 0s-12.76 3.3-12.76 7.37z"/><path class="cls-58" d="M133.24 7.37v62.19a5 5 0 0 0 1.32 3.21h-.05l8.15 8.23 3.34 3.41 3.35-3.4 7.23-7.33.82-.83a5 5 0 0 0 1.39-3.27V7.37a4.85 4.85 0 0 1-1 2.87 4.85 4.85 0 0 0 1-2.87C158.76 3.3 153 0 146 0s-12.76 3.3-12.76 7.37z"/><path class="cls-59" d="M131 7.37v62.19a5 5 0 0 0 1.33 3.21h-.06l8.17 8.23 3.34 3.38 3.35-3.4 7.22-7.33.81-.83a5 5 0 0 0 1.39-3.27V7.37a4.83 4.83 0 0 1-1 2.87 4.83 4.83 0 0 0 1-2.87c0-4.07-5.71-7.37-12.76-7.37S131 3.3 131 7.37z"/><path class="cls-60" d="M128.79 7.37v62.19a5 5 0 0 0 1.32 3.21h-.05l8.16 8.23 3.34 3.38L144.9 81l7.23-7.33.82-.83a5 5 0 0 0 1.39-3.27V7.37a4.9 4.9 0 0 1-1 2.87 4.9 4.9 0 0 0 1-2.87C154.31 3.3 148.6 0 141.55 0s-12.76 3.3-12.76 7.37z"/><path class="cls-61" d="M126.57 7.37v62.19a5 5 0 0 0 1.32 3.21L136 81l3.34 3.38 3.35-3.4 7.23-7.33.82-.83a5 5 0 0 0 1.39-3.27V7.37a4.85 4.85 0 0 1-1 2.87 4.85 4.85 0 0 0 1-2.87c0-4.07-5.72-7.37-12.76-7.37s-12.8 3.3-12.8 7.37z"/><path class="cls-62" d="M124.34 7.37v62.19a5 5 0 0 0 1.33 3.21h-.06l8.16 8.23 3.34 3.38 3.35-3.4 7.22-7.33.81-.83a5 5 0 0 0 1.38-3.27V7.37a4.83 4.83 0 0 1-1 2.87 4.83 4.83 0 0 0 1-2.87C149.86 3.3 144.15 0 137.1 0s-12.76 3.3-12.76 7.37z"/><path class="cls-63" d="M122.12 7.37v62.19a5 5 0 0 0 1.32 3.21l8.11 8.23 3.34 3.38 3.34-3.4 7.23-7.33.82-.83a5 5 0 0 0 1.39-3.27V7.37a4.9 4.9 0 0 1-1 2.87 4.9 4.9 0 0 0 1-2.87c0-4.07-5.71-7.37-12.76-7.37s-12.79 3.3-12.79 7.37z"/><path class="cls-64" d="M119.9 7.37v62.19a5 5 0 0 0 1.32 3.21l8.1 8.23 3.34 3.38L136 81l7.23-7.33.82-.83a5 5 0 0 0 1.39-3.27V7.37a4.9 4.9 0 0 1-1 2.87 4.9 4.9 0 0 0 1-2.87c0-4.07-5.71-7.37-12.76-7.37S119.9 3.3 119.9 7.37z"/><path class="cls-65" d="M117.67 7.37v62.19a5 5 0 0 0 1.33 3.21l8.1 8.23 3.34 3.38 3.35-3.4 7.21-7.3.81-.83a5 5 0 0 0 1.39-3.27V7.37a4.85 4.85 0 0 1-1 2.87 4.85 4.85 0 0 0 1-2.87c0-4.07-5.72-7.37-12.77-7.37s-12.76 3.3-12.76 7.37z"/><path class="cls-66" d="M115.45 7.37v62.19a5 5 0 0 0 1.33 3.21h-.06l8.16 8.23 3.34 3.38 3.34-3.4 7.23-7.33.82-.83a5 5 0 0 0 1.39-3.26V7.37a4.83 4.83 0 0 1-1 2.87 4.83 4.83 0 0 0 1-2.87C141 3.3 135.26 0 128.21 0s-12.76 3.3-12.76 7.37z"/><path class="cls-67" d="M113.23 7.37v62.19a5 5 0 0 0 1.32 3.21l8.11 8.23 3.34 3.41 3.35-3.4 7.23-7.33.82-.83a5 5 0 0 0 1.39-3.27V7.37a4.9 4.9 0 0 1-1 2.87 4.9 4.9 0 0 0 1-2.87C138.75 3.3 133 0 126 0s-12.77 3.3-12.77 7.37z"/><path class="cls-68" d="M111 7.37v62.19a5 5 0 0 0 1.33 3.21l8.1 8.23 3.34 3.38 3.35-3.4 7.22-7.33.81-.83a5 5 0 0 0 1.39-3.27V7.37a4.85 4.85 0 0 1-1 2.87 4.85 4.85 0 0 0 1-2.87c0-4.07-5.72-7.37-12.77-7.37S111 3.3 111 7.37z"/><path class="cls-69" d="M108.78 7.37v62.19a5 5 0 0 0 1.33 3.21h-.06l8.16 8.23 3.34 3.38 3.34-3.4 7.23-7.33.82-.83a5 5 0 0 0 1.39-3.27V7.37a4.83 4.83 0 0 1-1 2.87 4.83 4.83 0 0 0 1-2.87C134.3 3.3 128.59 0 121.54 0s-12.76 3.3-12.76 7.37z"/><path class="cls-70" d="M106.56 7.37v62.19a5 5 0 0 0 1.32 3.21L116 81l3.33 3.38 3.35-3.4 7.23-7.33.82-.83a5 5 0 0 0 1.39-3.27V7.37a4.9 4.9 0 0 1-1 2.87 4.9 4.9 0 0 0 1-2.87c0-4.07-5.71-7.37-12.76-7.37s-12.8 3.3-12.8 7.37z"/><path class="cls-71" d="M104.33 7.37v62.19a5 5 0 0 0 1.33 3.21l8.1 8.23 3.34 3.38 3.35-3.4 7.23-7.33.81-.83a5 5 0 0 0 1.39-3.27V7.37a4.85 4.85 0 0 1-1 2.87 4.85 4.85 0 0 0 1-2.87C129.86 3.3 124.14 0 117.1 0s-12.77 3.3-12.77 7.37z"/><path class="cls-72" d="M102.11 7.37v62.19a5 5 0 0 0 1.33 3.21h-.06l8.16 8.23 3.34 3.38 3.35-3.4 7.22-7.33.81-.83a5 5 0 0 0 1.39-3.27V7.37a4.83 4.83 0 0 1-1 2.87 4.83 4.83 0 0 0 1-2.87c0-4.07-5.71-7.37-12.76-7.37s-12.78 3.3-12.78 7.37z"/><path class="cls-73" d="M99.89 7.37v62.19a5 5 0 0 0 1.32 3.21l8.11 8.23 3.34 3.38L116 81l7.23-7.33.82-.83a5 5 0 0 0 1.39-3.27V7.37a4.9 4.9 0 0 1-1 2.87 4.9 4.9 0 0 0 1-2.87C125.41 3.3 119.7 0 112.65 0S99.89 3.3 99.89 7.37z"/><path class="cls-74" d="M97.67 7.37v62.19A5 5 0 0 0 99 72.77l8.09 8.23 3.34 3.38 3.35-3.4 7.22-7.3.82-.83a5 5 0 0 0 1.39-3.27V7.37a4.85 4.85 0 0 1-1 2.87 4.85 4.85 0 0 0 1-2.87c0-4.07-5.72-7.37-12.76-7.37S97.67 3.3 97.67 7.37z"/></g></g><path class="cls-75" d="M98.94 72.77l11.49 11.64 11.4-11.58-22.89-.06z"/><path class="cls-76" d="M110.43 14.73c-7.05 0-12.76-3.29-12.76-7.36v3.82c0 4.07 5.71 7.37 12.76 7.37s12.76-3.3 12.76-7.37V7.37c0 4.07-5.72 7.36-12.76 7.36z"/><path class="cls-77" d="M110.43 18.56c-7.05 0-12.76-3.3-12.76-7.37v7.65c0 4.07 5.71 7.36 12.76 7.36s12.76-3.29 12.76-7.36v-7.65c0 4.07-5.72 7.37-12.76 7.37z"/><path class="cls-78" d="M110.43 26.2c-7.05 0-12.76-3.29-12.76-7.36v50.72c0 4.06 5.71 7.36 12.76 7.36s12.76-3.3 12.76-7.36V18.84c0 4.07-5.72 7.36-12.76 7.36z"/><path class="cls-79" d="M110.43 14.73c-7.05 0-12.76-3.29-12.76-7.36S103.38 0 110.43 0s12.76 3.3 12.76 7.37-5.72 7.36-12.76 7.36z"/><path class="cls-80" d="M107.09 81l3.34 3.38 3.35-3.4a6 6 0 0 1-6.69 0z"/></g></g></g></svg>