<svg xmlns="http://www.w3.org/2000/svg" viewBox="0 0 225.31 153.22"><defs><style>.cls-1{fill:none}.cls-2{isolation:isolate}.cls-3{mix-blend-mode:multiply}.cls-4{fill:#fff;opacity:0}.cls-5{fill:#fcfcfc}.cls-41,.cls-5{opacity:.03}.cls-6{fill:#f9f9f9}.cls-42,.cls-6{opacity:.06}.cls-7{fill:#f5f5f5}.cls-43,.cls-7{opacity:.09}.cls-8{fill:#f2f2f2}.cls-44,.cls-8{opacity:.12}.cls-9{fill:#efefef}.cls-45,.cls-9{opacity:.15}.cls-10{fill:#ececec}.cls-10,.cls-46{opacity:.18}.cls-11{fill:#e8e8e8}.cls-11,.cls-47{opacity:.21}.cls-12{fill:#e5e5e5}.cls-12,.cls-48{opacity:.24}.cls-13{fill:#e2e2e2}.cls-13,.cls-49{opacity:.27}.cls-14{fill:#dfdfdf}.cls-14,.cls-50{opacity:.3}.cls-15{fill:#dbdbdb}.cls-15,.cls-51{opacity:.33}.cls-16{fill:#d8d8d8}.cls-16,.cls-52{opacity:.36}.cls-17{fill:#d5d5d5}.cls-17,.cls-53{opacity:.39}.cls-18{fill:#d2d2d2}.cls-18,.cls-54{opacity:.42}.cls-19{fill:#cecece}.cls-19,.cls-55{opacity:.45}.cls-20{fill:#cbcbcb}.cls-20,.cls-56{opacity:.48}.cls-21{fill:#c8c8c8}.cls-21,.cls-57{opacity:.52}.cls-22{fill:#c5c5c5}.cls-22,.cls-58{opacity:.55}.cls-23{fill:#c1c1c1}.cls-23,.cls-59{opacity:.58}.cls-24{fill:#bebebe}.cls-24,.cls-60{opacity:.61}.cls-25{fill:#bbb}.cls-25,.cls-61{opacity:.64}.cls-26{fill:#b8b8b8}.cls-26,.cls-62{opacity:.67}.cls-27{fill:#b4b4b4}.cls-27,.cls-63{opacity:.7}.cls-28{fill:#b1b1b1}.cls-28,.cls-64{opacity:.73}.cls-29{fill:#aeaeae}.cls-29,.cls-65{opacity:.76}.cls-30{fill:#ababab}.cls-30,.cls-66{opacity:.79}.cls-31{fill:#a7a7a7}.cls-31,.cls-67{opacity:.82}.cls-32{fill:#a4a4a4}.cls-32,.cls-68{opacity:.85}.cls-33{fill:#a1a1a1}.cls-33,.cls-69{opacity:.88}.cls-34{fill:#9e9e9e}.cls-34,.cls-70{opacity:.91}.cls-35{fill:#9a9a9a}.cls-35,.cls-71{opacity:.94}.cls-36{fill:#979797}.cls-36,.cls-72{opacity:.97}.cls-37{fill:#949494}.cls-38{fill:url(#linear-gradient)}.cls-39{fill:#008cff}.cls-40{clip-path:url(#clip-path)}.cls-41{fill:#fafbfd}.cls-42{fill:#f5f8fb}.cls-43{fill:#eff4f9}.cls-44{fill:#eaf1f7}.cls-45{fill:#e5edf5}.cls-46{fill:#e0eaf2}.cls-47{fill:#dae6f0}.cls-48{fill:#d5e3ee}.cls-49{fill:#d0dfec}.cls-50{fill:#cbdcea}.cls-51{fill:#c5d8e8}.cls-52{fill:#c0d4e6}.cls-53{fill:#bbd1e4}.cls-54{fill:#b6cde2}.cls-55{fill:#b0cae0}.cls-56{fill:#abc6de}.cls-57{fill:#a6c3db}.cls-58{fill:#a1bfd9}.cls-59{fill:#9bbcd7}.cls-60{fill:#96b8d5}.cls-61{fill:#91b5d3}.cls-62{fill:#8cb1d1}.cls-63{fill:#86adcf}.cls-64{fill:#81aacd}.cls-65{fill:#7ca6cb}.cls-66{fill:#77a3c9}.cls-67{fill:#719fc7}.cls-68{fill:#6c9cc4}.cls-69{fill:#6798c2}.cls-70{fill:#6295c0}.cls-71{fill:#5c91be}.cls-72{fill:#578ebc}.cls-73{fill:#528aba}.cls-74{fill:url(#linear-gradient-2)}.cls-75{fill:url(#linear-gradient-3)}.cls-76,.cls-79{mix-blend-mode:color-burn}.cls-77{fill:#9e9fa3}.cls-78{fill:url(#radial-gradient)}.cls-79{fill:url(#radial-gradient-2)}</style><linearGradient id="linear-gradient" y1="119.26" x2="176.4" y2="119.26" gradientUnits="userSpaceOnUse"><stop offset="0" stop-color="#0af"/><stop offset=".04" stop-color="#00a9ff"/><stop offset=".35" stop-color="#00a6ff"/><stop offset=".54" stop-color="#0086dd"/><stop offset=".74" stop-color="#0066ba"/><stop offset="1" stop-color="#0041ad"/></linearGradient><clipPath id="clip-path"><path class="cls-1" d="M147.21 51.23c-38.92-22.48-79.09-22.48-118 0C9.73 62.46 0 73.88 0 85.3s9.73 22.83 29.19 34.06c38.93 22.48 79.1 22.48 118 0 19.46-11.23 29.19-22.65 29.19-34.06s-9.71-22.84-29.17-34.07z"/></clipPath><linearGradient id="linear-gradient-2" x1="-2514.42" y1="1212.8" x2="-2481.24" y2="1212.8" gradientTransform="translate(2586.14 -1126.07)" gradientUnits="userSpaceOnUse"><stop offset="0" stop-color="#9499a3"/><stop offset=".05" stop-color="#9ca0ab"/><stop offset=".16" stop-color="#a5a9b4"/><stop offset=".3" stop-color="#a8acb7"/><stop offset=".46" stop-color="#a5a9b4"/><stop offset=".57" stop-color="#9da0ab"/><stop offset=".67" stop-color="#8e919b"/><stop offset=".76" stop-color="#797c85"/><stop offset=".84" stop-color="#5e6168"/><stop offset=".92" stop-color="#3d4046"/><stop offset="1" stop-color="#17191d"/><stop offset="1" stop-color="#15171b"/></linearGradient><linearGradient id="linear-gradient-3" x1="70.29" y1="80.59" x2="106.8" y2="80.59" gradientUnits="userSpaceOnUse"><stop offset="0" stop-color="#d0d2d7"/><stop offset=".1" stop-color="#d6d8dd"/><stop offset=".3" stop-color="#d9dbe0"/><stop offset=".49" stop-color="#d6d8dd"/><stop offset=".63" stop-color="#cdcfd4"/><stop offset=".75" stop-color="#bdbfc4"/><stop offset=".86" stop-color="#a7a9ae"/><stop offset=".96" stop-color="#8b8d92"/><stop offset="1" stop-color="#7d7f84"/></linearGradient><radialGradient id="radial-gradient" cx="72.42" cy="20.35" r="69.48" gradientUnits="userSpaceOnUse"><stop offset="0" stop-color="#fff2a8"/><stop offset=".05" stop-color="#fff2a3"/><stop offset=".11" stop-color="#fff295"/><stop offset=".18" stop-color="#fff17d"/><stop offset=".18" stop-color="#fff17d"/><stop offset=".3" stop-color="#ffef77"/><stop offset=".46" stop-color="#ffe866"/><stop offset=".65" stop-color="#ffdc49"/><stop offset=".85" stop-color="#ffcd22"/><stop offset="1" stop-color="#ffbf00"/></radialGradient><radialGradient id="radial-gradient-2" cx="89.13" cy="16.68" r="75.59" gradientUnits="userSpaceOnUse"><stop offset="0" stop-color="#fff"/><stop offset=".07" stop-color="#eee"/><stop offset=".27" stop-color="#c2c2c2"/><stop offset=".45" stop-color="#a2a2a2"/><stop offset=".6" stop-color="#8e8e8e"/><stop offset=".71" stop-color="#878787"/></radialGradient></defs><title>Asset 13</title><g class="cls-2"><g id="Layer_2" data-name="Layer 2"><g id="Layer_1-2" data-name="Layer 1"><g class="cls-3"><path class="cls-4" d="M196.12 68.23c-38.92-22.48-79.09-22.48-118 0-19.48 11.23-29.21 22.65-29.21 34.07s9.73 22.83 29.19 34.06c38.93 22.48 79.1 22.48 118 0 19.46-11.23 29.19-22.65 29.19-34.06s-9.71-22.84-29.17-34.07z"/><path class="cls-5" d="M194.64 68.23c-38.93-22.48-79.1-22.48-118 0-19.48 11.23-29.21 22.65-29.21 34.07s9.73 22.83 29.19 34.06c38.92 22.48 79.09 22.48 118 0 19.46-11.23 29.19-22.65 29.19-34.06s-9.71-22.84-29.17-34.07z"/><path class="cls-6" d="M193.16 68.23c-38.93-22.48-79.1-22.48-118 0-19.46 11.23-29.2 22.65-29.2 34.07s9.74 22.83 29.2 34.06c38.92 22.48 79.09 22.48 118 0 19.46-11.23 29.19-22.65 29.19-34.06s-9.73-22.84-29.19-34.07z"/><path class="cls-7" d="M191.67 68.23c-38.92-22.48-79.09-22.48-118 0-19.47 11.23-29.2 22.65-29.2 34.07s9.73 22.83 29.2 34.06c38.92 22.48 79.09 22.48 118 0 19.47-11.23 29.2-22.65 29.2-34.06s-9.73-22.84-29.2-34.07z"/><path class="cls-8" d="M190.19 68.23c-38.92-22.48-79.09-22.48-118 0C52.71 79.46 43 90.88 43 102.3s9.73 22.83 29.19 34.06c38.93 22.48 79.1 22.48 118 0 19.46-11.23 29.2-22.65 29.2-34.06s-9.74-22.84-29.2-34.07z"/><path class="cls-9" d="M188.71 68.23c-38.92-22.48-79.09-22.48-118 0C51.23 79.46 41.5 90.88 41.5 102.3s9.73 22.83 29.19 34.06c38.93 22.48 79.1 22.48 118 0 19.46-11.23 29.19-22.65 29.19-34.06s-9.71-22.84-29.17-34.07z"/><path class="cls-10" d="M187.23 68.23c-38.93-22.48-79.1-22.48-118 0C49.75 79.46 40 90.88 40 102.3s9.73 22.83 29.19 34.06c38.92 22.48 79.09 22.48 118 0 19.46-11.23 29.19-22.65 29.19-34.06s-9.69-22.84-29.15-34.07z"/><path class="cls-11" d="M185.75 68.23c-38.93-22.48-79.1-22.48-118 0-19.46 11.23-29.2 22.65-29.2 34.07s9.74 22.83 29.2 34.06c38.92 22.48 79.09 22.48 118 0 19.46-11.23 29.19-22.65 29.19-34.06s-9.73-22.84-29.19-34.07z"/><path class="cls-12" d="M184.26 68.23c-38.92-22.48-79.09-22.48-118 0-19.47 11.23-29.2 22.65-29.2 34.07s9.73 22.83 29.2 34.06c38.92 22.48 79.09 22.48 118 0 19.47-11.23 29.2-22.65 29.2-34.06s-9.73-22.84-29.2-34.07z"/><path class="cls-13" d="M182.78 68.23c-38.92-22.48-79.09-22.48-118 0C45.3 79.46 35.57 90.88 35.57 102.3s9.73 22.83 29.19 34.06c38.93 22.48 79.1 22.48 118 0 19.46-11.23 29.2-22.65 29.2-34.06s-9.72-22.84-29.18-34.07z"/><path class="cls-14" d="M181.3 68.23c-38.92-22.48-79.09-22.48-118 0-19.48 11.23-29.21 22.65-29.21 34.07s9.73 22.83 29.19 34.06c38.93 22.48 79.1 22.48 118 0 19.46-11.23 29.19-22.65 29.19-34.06s-9.71-22.84-29.17-34.07z"/><path class="cls-15" d="M179.82 68.23c-38.93-22.48-79.1-22.48-118 0-19.48 11.23-29.21 22.65-29.21 34.07s9.73 22.83 29.19 34.06c38.92 22.48 79.09 22.48 118 0 19.48-11.23 29.2-22.65 29.2-34.06s-9.72-22.84-29.18-34.07z"/><path class="cls-16" d="M178.34 68.23c-38.93-22.48-79.1-22.48-118 0-19.47 11.23-29.2 22.65-29.2 34.07s9.73 22.83 29.2 34.06c38.92 22.48 79.09 22.48 118 0 19.46-11.23 29.19-22.65 29.19-34.06s-9.73-22.84-29.19-34.07z"/><path class="cls-17" d="M176.85 68.23c-38.92-22.48-79.09-22.48-118 0-19.48 11.23-29.21 22.65-29.21 34.07s9.73 22.83 29.2 34.06c38.92 22.48 79.09 22.48 118 0 19.47-11.23 29.2-22.65 29.2-34.06s-9.72-22.84-29.19-34.07z"/><path class="cls-18" d="M175.37 68.23c-38.92-22.48-79.09-22.48-118 0-19.48 11.23-29.21 22.65-29.21 34.07s9.73 22.83 29.19 34.06c38.93 22.48 79.1 22.48 118 0 19.46-11.23 29.19-22.65 29.19-34.06s-9.71-22.84-29.17-34.07z"/><path class="cls-19" d="M173.89 68.23c-38.93-22.48-79.1-22.48-118 0-19.48 11.23-29.21 22.65-29.21 34.07s9.73 22.83 29.19 34.06c38.93 22.48 79.1 22.48 118 0 19.46-11.23 29.19-22.65 29.19-34.06s-9.71-22.84-29.17-34.07z"/><path class="cls-20" d="M172.41 68.23c-38.93-22.48-79.1-22.48-118 0C34.93 79.46 25.2 90.88 25.2 102.3s9.73 22.83 29.19 34.06c38.92 22.48 79.09 22.48 118 0 19.46-11.23 29.19-22.65 29.19-34.06s-9.71-22.84-29.17-34.07z"/><path class="cls-21" d="M170.92 68.23c-38.92-22.48-79.09-22.48-118 0-19.47 11.23-29.2 22.65-29.2 34.07s9.73 22.83 29.2 34.06c38.92 22.48 79.09 22.48 118 0 19.46-11.23 29.19-22.65 29.19-34.06s-9.72-22.84-29.19-34.07z"/><path class="cls-22" d="M169.44 68.23c-38.92-22.48-79.09-22.48-118 0C32 79.46 22.23 90.88 22.23 102.3s9.77 22.83 29.19 34.06c38.93 22.48 79.1 22.48 118 0 19.47-11.23 29.2-22.65 29.2-34.06s-9.71-22.84-29.18-34.07z"/><path class="cls-23" d="M168 68.23c-38.92-22.48-79.09-22.48-118 0-19.52 11.23-29.25 22.65-29.25 34.07s9.73 22.83 29.19 34.06c38.93 22.48 79.1 22.48 118 0 19.46-11.23 29.19-22.65 29.19-34.06S187.42 79.46 168 68.23z"/><path class="cls-24" d="M166.48 68.23c-38.93-22.48-79.1-22.48-118 0C29 79.46 19.27 90.88 19.27 102.3s9.73 22.83 29.19 34.06c38.92 22.48 79.1 22.48 118 0 19.46-11.23 29.19-22.65 29.19-34.06s-9.71-22.84-29.17-34.07z"/><path class="cls-25" d="M165 68.23c-38.93-22.48-79.1-22.48-118 0-19.48 11.23-29.22 22.65-29.21 34.07s9.73 22.83 29.21 34.06c38.92 22.48 79.09 22.48 118 0 19.46-11.23 29.19-22.65 29.19-34.06S184.46 79.46 165 68.23z"/><path class="cls-26" d="M163.51 68.23c-38.92-22.48-79.09-22.48-118 0C26 79.46 16.3 90.88 16.3 102.3s9.7 22.83 29.2 34.06c38.92 22.48 79.09 22.48 118 0 19.47-11.23 29.2-22.65 29.2-34.06s-9.7-22.84-29.19-34.07z"/><path class="cls-27" d="M162 68.23c-38.92-22.48-79.09-22.48-118 0-19.45 11.23-29.18 22.65-29.18 34.07s9.73 22.83 29.18 34.06c38.93 22.48 79.1 22.48 118 0 19.46-11.23 29.2-22.65 29.2-34.06s-9.71-22.84-29.2-34.07z"/><path class="cls-28" d="M160.55 68.23c-38.92-22.48-79.09-22.48-118 0-19.48 11.23-29.21 22.65-29.21 34.07s9.73 22.83 29.19 34.06c38.93 22.48 79.1 22.48 118 0 19.46-11.23 29.19-22.65 29.19-34.06S180 79.46 160.55 68.23z"/><path class="cls-29" d="M159.07 68.23c-38.93-22.48-79.1-22.48-118 0-19.48 11.23-29.21 22.65-29.21 34.07s9.73 22.83 29.19 34.06c38.92 22.48 79.09 22.48 118 0 19.46-11.23 29.19-22.65 29.19-34.06s-9.71-22.84-29.17-34.07z"/><path class="cls-30" d="M157.59 68.23c-38.93-22.48-79.1-22.48-118 0-19.46 11.23-29.2 22.65-29.2 34.07s9.74 22.83 29.2 34.06c38.92 22.48 79.09 22.48 118 0 19.46-11.23 29.19-22.65 29.19-34.06s-9.73-22.84-29.19-34.07z"/><path class="cls-31" d="M156.1 68.23c-38.92-22.48-79.09-22.48-118 0C18.62 79.46 8.89 90.88 8.89 102.3s9.73 22.83 29.2 34.06c38.92 22.48 79.09 22.48 118 0 19.47-11.23 29.2-22.65 29.2-34.06s-9.72-22.84-29.19-34.07z"/><path class="cls-32" d="M154.62 68.23c-38.92-22.48-79.09-22.48-118 0C17.14 79.46 7.41 90.88 7.41 102.3s9.73 22.83 29.19 34.06c38.93 22.48 79.1 22.48 118 0 19.46-11.23 29.2-22.65 29.2-34.06s-9.72-22.84-29.18-34.07z"/><path class="cls-33" d="M153.14 68.23c-38.92-22.48-79.09-22.48-118 0C15.66 79.46 5.93 90.88 5.93 102.3s9.73 22.83 29.19 34.06c38.93 22.48 79.1 22.48 118 0 19.46-11.23 29.19-22.65 29.19-34.06s-9.71-22.84-29.17-34.07z"/><path class="cls-34" d="M151.66 68.23c-38.93-22.48-79.1-22.48-118 0C14.18 79.46 4.45 90.88 4.45 102.3s9.73 22.83 29.19 34.06c38.92 22.48 79.09 22.48 118 0 19.46-11.23 29.19-22.65 29.19-34.06s-9.71-22.84-29.17-34.07z"/><path class="cls-35" d="M150.18 68.23c-38.93-22.48-79.1-22.48-118 0C12.7 79.46 3 90.88 3 102.3s9.74 22.83 29.2 34.06c38.92 22.48 79.09 22.48 118 0 19.46-11.23 29.19-22.65 29.19-34.06s-9.75-22.84-29.21-34.07z"/><path class="cls-36" d="M148.69 68.23c-38.92-22.48-79.09-22.48-118 0C11.21 79.46 1.48 90.88 1.48 102.3s9.73 22.83 29.2 34.06c38.92 22.48 79.09 22.48 118 0 19.47-11.23 29.2-22.65 29.2-34.06s-9.72-22.84-29.19-34.07z"/><path class="cls-37" d="M147.21 68.23c-38.92-22.48-79.09-22.48-118 0C9.73 79.46 0 90.88 0 102.3s9.73 22.83 29.19 34.06c38.93 22.48 79.1 22.48 118 0 19.46-11.23 29.19-22.65 29.19-34.06s-9.71-22.84-29.17-34.07z"/></g><path class="cls-38" d="M147.21 119.36c-38.92 22.48-79.09 22.48-118 0C9.73 108.13 0 96.71 0 85.3v17c0 11.41 9.73 22.83 29.19 34.06 38.93 22.48 79.1 22.48 118 0 19.46-11.23 29.19-22.65 29.19-34.06v-17c.02 11.41-9.71 22.83-29.17 34.06z"/><path class="cls-39" d="M147.21 51.23c-38.92-22.48-79.09-22.48-118 0C9.73 62.46 0 73.88 0 85.3s9.73 22.83 29.19 34.06c38.93 22.48 79.1 22.48 118 0 19.46-11.23 29.19-22.65 29.19-34.06s-9.71-22.84-29.17-34.07z"/><g class="cls-40"><g class="cls-3"><path class="cls-4" d="M195.82 34.45a34.45 34.45 0 1 0-68.9 0c0 19.65 16.78 29.1 16.78 35.51V80.7c0 2.37 1.38 4.74 4.14 6.67.08.22.17.43.24.61.81 1.88 1.35 4.09 4 5.64 5.4 3.12 14.16 3.12 19.56 0a8.4 8.4 0 0 0 4.1-5.62c0-.17.09-.35.15-.55 2.82-1.94 4.24-4.34 4.23-6.73V70a7 7 0 0 1-1.66 4.37 7 7 0 0 0 1.66-4.37c0-7 15.7-15.66 15.7-35.55z"/><path class="cls-41" d="M193.6 34.45a34.45 34.45 0 1 0-68.9 0c0 19.65 16.77 29.1 16.77 35.51V80.7c0 2.37 1.39 4.74 4.15 6.67.08.22.16.43.24.61.81 1.88 1.35 4.09 4 5.64 5.4 3.12 14.15 3.12 19.55 0a8.37 8.37 0 0 0 4-5.64c.05-.17.1-.35.15-.55 2.82-1.94 4.24-4.34 4.24-6.73V70a7 7 0 0 1-1.67 4.37A7 7 0 0 0 177.9 70c0-7 15.7-15.66 15.7-35.55z"/><path class="cls-42" d="M191.38 34.45a34.46 34.46 0 0 0-68.91 0c0 19.65 16.78 29.1 16.78 35.51V80.7c0 2.37 1.38 4.74 4.14 6.67.09.22.17.43.25.61.8 1.88 1.35 4.09 4.05 5.64 5.4 3.12 14.15 3.12 19.55 0a8.4 8.4 0 0 0 4-5.64c.05-.17.1-.35.15-.55 2.82-1.94 4.24-4.34 4.24-6.73V70a7 7 0 0 1-1.63 4.33 7 7 0 0 0 1.68-4.33c0-7 15.69-15.66 15.7-35.55z"/><path class="cls-43" d="M189.15 34.45a34.45 34.45 0 1 0-68.9 0C120.25 54.1 137 63.55 137 70v10.7c0 2.37 1.38 4.74 4.14 6.67.08.22.17.43.25.61.8 1.88 1.34 4.09 4 5.64 5.4 3.12 14.16 3.12 19.56 0a8.4 8.4 0 0 0 4-5.64c0-.17.09-.35.15-.55 2.82-1.94 4.24-4.34 4.24-6.73V70a7 7 0 0 1-1.67 4.37 7 7 0 0 0 1.79-4.37c0-7 15.69-15.66 15.69-35.55z"/><path class="cls-44" d="M186.93 34.45a34.45 34.45 0 1 0-68.9 0C118 54.1 134.8 63.55 134.8 70v10.7c0 2.37 1.39 4.74 4.15 6.67.08.22.16.43.24.61.81 1.88 1.35 4.09 4.05 5.64 5.4 3.12 14.15 3.12 19.55 0a8.37 8.37 0 0 0 4.05-5.62c0-.17.1-.35.15-.55 2.82-1.94 4.24-4.34 4.24-6.73V70a7 7 0 0 1-1.67 4.37 7 7 0 0 0 1.67-4.37c0-7 15.7-15.66 15.7-35.55z"/><path class="cls-45" d="M184.71 34.45a34.46 34.46 0 0 0-68.91 0c0 19.65 16.78 29.1 16.78 35.51V80.7c0 2.37 1.38 4.74 4.14 6.67.09.22.17.43.25.61.8 1.88 1.35 4.09 4.05 5.64 5.4 3.12 14.15 3.12 19.55 0a8.4 8.4 0 0 0 4.05-5.62c0-.17.1-.35.15-.55 2.82-1.94 4.24-4.34 4.24-6.73V70a7 7 0 0 1-1.67 4.37A7 7 0 0 0 169 70c0-7 15.71-15.66 15.71-35.55z"/><path class="cls-46" d="M182.48 34.45a34.45 34.45 0 1 0-68.9 0c0 19.65 16.78 29.1 16.78 35.51V80.7c0 2.37 1.38 4.74 4.14 6.67.08.22.17.43.25.61.8 1.88 1.35 4.09 4 5.64 5.4 3.12 14.16 3.12 19.56 0A8.4 8.4 0 0 0 162.4 88c0-.17.09-.35.15-.55 2.82-1.94 4.24-4.34 4.24-6.73V70a7 7 0 0 1-1.67 4.37 7 7 0 0 0 1.67-4.37c0-7 15.69-15.66 15.69-35.55z"/><path class="cls-47" d="M180.26 34.45a34.45 34.45 0 1 0-68.9 0c0 19.65 16.77 29.1 16.77 35.51V80.7c0 2.37 1.39 4.74 4.15 6.67.08.22.16.43.24.61.81 1.88 1.35 4.09 4 5.64 5.4 3.12 14.16 3.12 19.55 0a8.37 8.37 0 0 0 4-5.64c.05-.17.1-.35.15-.55 2.82-1.94 4.24-4.34 4.24-6.73V70a7 7 0 0 1-1.67 4.37 7 7 0 0 0 1.77-4.37c0-7 15.7-15.66 15.7-35.55z"/><path class="cls-48" d="M178 34.45a34.45 34.45 0 1 0-68.9 0c0 19.65 16.77 29.1 16.77 35.51V80.7c0 2.37 1.38 4.74 4.14 6.67.09.22.17.43.25.61.8 1.88 1.35 4.09 4 5.64 5.4 3.12 14.15 3.12 19.55 0A8.37 8.37 0 0 0 158 88c.05-.17.1-.35.15-.55 2.82-1.94 4.24-4.34 4.24-6.73V70a7 7 0 0 1-1.67 4.37 7 7 0 0 0 1.62-4.37c0-7 15.66-15.66 15.66-35.55z"/><path class="cls-49" d="M175.81 34.45a34.45 34.45 0 1 0-68.9 0c0 19.65 16.78 29.1 16.78 35.51V80.7c0 2.37 1.38 4.74 4.14 6.67.09.22.17.43.25.61.8 1.88 1.35 4.09 4 5.64 5.39 3.12 14.15 3.12 19.55 0a8.4 8.4 0 0 0 4-5.64c0-.17.1-.35.15-.55 2.82-1.94 4.24-4.34 4.24-6.73V70a7 7 0 0 1-1.67 4.37 7 7 0 0 0 1.77-4.37c0-7 15.69-15.66 15.69-35.55z"/><path class="cls-50" d="M173.59 34.45a34.45 34.45 0 1 0-68.9 0c0 19.65 16.77 29.1 16.77 35.51V80.7c0 2.37 1.39 4.74 4.15 6.67.08.22.17.43.24.61.81 1.88 1.35 4.09 4.05 5.64 5.4 3.12 14.16 3.12 19.56 0a8.39 8.39 0 0 0 4-5.64c.05-.17.1-.35.15-.55 2.82-1.94 4.24-4.34 4.24-6.73V70a7.07 7.07 0 0 1-1.66 4.37 7.07 7.07 0 0 0 1.7-4.37c0-7 15.7-15.66 15.7-35.55z"/><path class="cls-51" d="M171.37 34.45a34.45 34.45 0 1 0-68.9 0c0 19.65 16.77 29.1 16.77 35.51V80.7c0 2.37 1.38 4.74 4.14 6.67.09.22.17.43.25.61.8 1.88 1.35 4.09 4.05 5.64 5.4 3.12 14.15 3.12 19.55 0a8.37 8.37 0 0 0 4.05-5.62c.05-.17.1-.35.15-.55 2.82-1.94 4.24-4.34 4.24-6.73V70a7 7 0 0 1-1.67 4.33 7 7 0 0 0 1.67-4.33c0-7 15.7-15.66 15.7-35.55z"/><path class="cls-52" d="M169.14 34.45a34.45 34.45 0 1 0-68.9 0C100.24 54.1 117 63.55 117 70v10.7c0 2.37 1.38 4.74 4.14 6.67.09.22.17.43.25.61.8 1.88 1.35 4.09 4 5.64 5.4 3.12 14.15 3.12 19.55 0a8.4 8.4 0 0 0 4.12-5.62c.05-.17.1-.35.15-.55 2.82-1.94 4.24-4.34 4.24-6.73V70a7 7 0 0 1-1.67 4.37 7 7 0 0 0 1.67-4.37c0-7 15.69-15.66 15.69-35.55z"/><path class="cls-53" d="M166.92 34.45a34.45 34.45 0 1 0-68.9 0C98 54.1 114.79 63.55 114.79 70v10.7c0 2.37 1.39 4.74 4.15 6.67.08.22.17.43.24.61.81 1.88 1.35 4.09 4 5.64 5.4 3.12 14.16 3.12 19.56 0a8.4 8.4 0 0 0 4.1-5.62c0-.17.09-.35.15-.55 2.82-1.94 4.23-4.34 4.23-6.73V70a7.07 7.07 0 0 1-1.66 4.37 7.07 7.07 0 0 0 1.66-4.37c0-7 15.7-15.66 15.7-35.55z"/><path class="cls-54" d="M164.7 34.45a34.45 34.45 0 1 0-68.9 0c0 19.65 16.77 29.1 16.77 35.51V80.7c0 2.37 1.39 4.74 4.14 6.67.09.22.17.43.25.61.81 1.88 1.35 4.09 4.05 5.64 5.4 3.12 14.15 3.12 19.55 0a8.37 8.37 0 0 0 4.05-5.62c0-.17.1-.35.15-.55 2.82-1.94 4.24-4.34 4.24-6.73V70a7 7 0 0 1-1.67 4.37A7 7 0 0 0 149 70c0-7 15.7-15.66 15.7-35.55z"/><path class="cls-55" d="M162.47 34.45a34.45 34.45 0 1 0-68.9 0c0 19.65 16.78 29.1 16.78 35.51V80.7c0 2.37 1.38 4.74 4.14 6.67.09.22.17.43.25.61.8 1.88 1.35 4.09 4.05 5.64 5.4 3.12 14.15 3.12 19.55 0a8.4 8.4 0 0 0 4-5.64c.05-.17.1-.35.15-.55 2.82-1.94 4.24-4.34 4.24-6.73V70a7 7 0 0 1-1.67 4.37 7 7 0 0 0 1.72-4.37c0-7 15.69-15.66 15.69-35.55z"/><path class="cls-56" d="M160.25 34.45a34.45 34.45 0 1 0-68.9 0c0 19.65 16.78 29.1 16.78 35.51V80.7c0 2.37 1.38 4.74 4.14 6.67.08.22.17.43.24.61.81 1.88 1.35 4.09 4 5.64 5.4 3.12 14.16 3.12 19.56 0a8.4 8.4 0 0 0 4-5.64c0-.17.09-.35.15-.55 2.82-1.94 4.24-4.34 4.23-6.73V70a7 7 0 0 1-1.66 4.37 7.07 7.07 0 0 0 1.76-4.37c0-7 15.7-15.66 15.7-35.55z"/><path class="cls-57" d="M158 34.45a34.45 34.45 0 1 0-68.9 0c0 19.65 16.77 29.1 16.77 35.51V80.7c0 2.37 1.39 4.74 4.15 6.67.08.22.16.43.24.61.81 1.88 1.35 4.09 4 5.64 5.4 3.12 14.15 3.12 19.55 0a8.37 8.37 0 0 0 4.13-5.62c.05-.17.1-.35.15-.55 2.82-1.94 4.24-4.34 4.24-6.73V70a7 7 0 0 1-1.67 4.37 7 7 0 0 0 1.67-4.37c0-7 15.67-15.66 15.67-35.55z"/><path class="cls-58" d="M155.81 34.45a34.46 34.46 0 0 0-68.91 0c0 19.65 16.78 29.1 16.78 35.51V80.7c0 2.37 1.38 4.74 4.14 6.67.09.22.17.43.25.61.8 1.88 1.35 4.09 4.05 5.64 5.4 3.12 14.15 3.12 19.55 0a8.4 8.4 0 0 0 4.05-5.62c.05-.17.1-.35.15-.55 2.82-1.94 4.24-4.34 4.24-6.73V70a7 7 0 0 1-1.67 4.37 7 7 0 0 0 1.67-4.37c0-7 15.69-15.66 15.7-35.55z"/><path class="cls-59" d="M153.58 34.45a34.45 34.45 0 1 0-68.9 0c0 19.65 16.78 29.1 16.78 35.51V80.7c0 2.37 1.38 4.74 4.14 6.67.08.22.17.43.25.61.8 1.88 1.34 4.09 4 5.64 5.4 3.12 14.16 3.12 19.56 0A8.4 8.4 0 0 0 133.5 88c0-.17.09-.35.15-.55 2.82-1.94 4.24-4.34 4.24-6.73V70a7 7 0 0 1-1.67 4.37 7 7 0 0 0 1.67-4.37c0-7 15.69-15.66 15.69-35.55z"/><path class="cls-60" d="M151.36 34.45a34.45 34.45 0 1 0-68.9 0c0 19.65 16.77 29.1 16.77 35.51V80.7c0 2.37 1.39 4.74 4.15 6.67.08.22.16.43.24.61.81 1.88 1.35 4.09 4 5.64 5.4 3.12 14.15 3.12 19.55 0a8.37 8.37 0 0 0 4.1-5.62c0-.17.1-.35.15-.55 2.82-1.94 4.24-4.34 4.24-6.73V70a7 7 0 0 1-1.66 4.33 7 7 0 0 0 1.66-4.33c0-7 15.7-15.66 15.7-35.55z"/><path class="cls-61" d="M149.14 34.45a34.46 34.46 0 0 0-68.91 0C80.23 54.1 97 63.55 97 70v10.7c0 2.37 1.38 4.74 4.14 6.67.09.22.17.43.25.61.8 1.88 1.35 4.09 4 5.64 5.4 3.12 14.15 3.12 19.55 0a8.4 8.4 0 0 0 4.11-5.62c0-.17.1-.35.15-.55 2.82-1.94 4.24-4.34 4.24-6.73V70a7 7 0 0 1-1.67 4.37 7 7 0 0 0 1.67-4.37c0-7 15.7-15.66 15.7-35.55z"/><path class="cls-62" d="M146.91 34.45a34.45 34.45 0 1 0-68.9 0C78 54.1 94.79 63.55 94.79 70v10.7c0 2.37 1.38 4.74 4.14 6.67.08.22.17.43.25.61.8 1.88 1.35 4.09 4 5.64 5.4 3.12 14.16 3.12 19.56 0a8.4 8.4 0 0 0 4-5.64c0-.17.09-.35.15-.55 2.82-1.94 4.24-4.34 4.24-6.73V70a7 7 0 0 1-1.67 4.37 7 7 0 0 0 1.76-4.37c0-7 15.69-15.66 15.69-35.55z"/><path class="cls-63" d="M144.69 34.45a34.45 34.45 0 1 0-68.9 0c0 19.65 16.77 29.1 16.77 35.51V80.7c0 2.37 1.39 4.74 4.15 6.67.08.22.16.43.24.61.81 1.88 1.35 4.09 4 5.64 5.4 3.12 14.16 3.12 19.55 0a8.37 8.37 0 0 0 4-5.64c.05-.17.1-.35.15-.55 2.82-1.94 4.24-4.34 4.24-6.73V70a7 7 0 0 1-1.67 4.37A7 7 0 0 0 129 70c0-7 15.69-15.66 15.69-35.55z"/><path class="cls-64" d="M142.47 34.45a34.46 34.46 0 0 0-68.91 0c0 19.65 16.78 29.1 16.78 35.51V80.7c0 2.37 1.38 4.74 4.14 6.67.09.22.17.43.25.61.8 1.88 1.35 4.09 4 5.64 5.4 3.12 14.15 3.12 19.55 0a8.37 8.37 0 0 0 4-5.64c.05-.17.1-.35.15-.55 2.82-1.94 4.24-4.34 4.24-6.73V70a7 7 0 0 1-1.67 4.37 7 7 0 0 0 1.77-4.37c0-7 15.7-15.66 15.7-35.55z"/><path class="cls-65" d="M140.24 34.45a34.45 34.45 0 1 0-68.9 0c0 19.65 16.78 29.1 16.78 35.51V80.7c0 2.37 1.38 4.74 4.14 6.67.09.22.17.43.25.61.8 1.88 1.35 4.09 4 5.64 5.39 3.12 14.15 3.12 19.55 0a8.4 8.4 0 0 0 4-5.64c0-.17.1-.35.15-.55 2.82-1.94 4.24-4.34 4.24-6.73V70a7 7 0 0 1-1.67 4.37 7 7 0 0 0 1.77-4.37c0-7 15.69-15.66 15.69-35.55z"/><path class="cls-66" d="M138 34.45a34.45 34.45 0 1 0-68.9 0c0 19.65 16.77 29.1 16.77 35.51V80.7c0 2.37 1.39 4.74 4.15 6.67.08.22.17.43.24.61.81 1.88 1.35 4.09 4 5.64 5.4 3.12 14.16 3.12 19.56 0a8.39 8.39 0 0 0 4-5.64c0-.17.1-.35.15-.55 2.82-1.94 4.24-4.34 4.24-6.73V70a7.07 7.07 0 0 1-1.66 4.37 7.07 7.07 0 0 0 1.77-4.37c0-7 15.68-15.66 15.68-35.55z"/><path class="cls-67" d="M135.8 34.45a34.45 34.45 0 1 0-68.9 0c0 19.65 16.77 29.1 16.77 35.55v10.7c0 2.37 1.38 4.74 4.14 6.67.09.22.17.43.25.61.8 1.88 1.35 4.09 4 5.64 5.4 3.12 14.15 3.12 19.55 0a8.37 8.37 0 0 0 4-5.64c.05-.17.1-.35.15-.55 2.82-1.94 4.24-4.34 4.24-6.73V70a7 7 0 0 1-1.67 4.37A7 7 0 0 0 120.1 70c0-7 15.7-15.66 15.7-35.55z"/><path class="cls-68" d="M133.57 34.45a34.45 34.45 0 1 0-68.9 0c0 19.65 16.78 29.1 16.78 35.51V80.7c0 2.37 1.38 4.74 4.14 6.67.09.22.17.43.25.61.8 1.88 1.35 4.09 4 5.64 5.4 3.12 14.15 3.12 19.55 0a8.4 8.4 0 0 0 4-5.64c.05-.17.1-.35.15-.55 2.82-1.94 4.24-4.34 4.24-6.73V70a7 7 0 0 1-1.67 4.37 7 7 0 0 0 1.77-4.37c0-7 15.69-15.66 15.69-35.55z"/><path class="cls-69" d="M131.35 34.45a34.45 34.45 0 1 0-68.9 0c0 19.65 16.77 29.1 16.77 35.51V80.7c0 2.37 1.39 4.74 4.15 6.67.08.22.17.43.24.61.81 1.88 1.35 4.09 4 5.64 5.4 3.12 14.16 3.12 19.56 0a8.4 8.4 0 0 0 4-5.64c0-.17.09-.35.15-.55 2.82-1.94 4.23-4.34 4.23-6.73V70a7.07 7.07 0 0 1-1.55 4.33 7.07 7.07 0 0 0 1.65-4.33c0-7 15.7-15.66 15.7-35.55z"/><path class="cls-70" d="M129.13 34.45a34.45 34.45 0 1 0-68.9 0C60.23 54.1 77 63.55 77 70v10.7c0 2.37 1.39 4.74 4.14 6.67.09.22.17.43.25.61.81 1.88 1.35 4.09 4 5.64 5.4 3.12 14.15 3.12 19.55 0A8.37 8.37 0 0 0 109 88c0-.17.1-.35.15-.55 2.82-1.94 4.24-4.34 4.24-6.73V70a7 7 0 0 1-1.67 4.37 7 7 0 0 0 1.71-4.37c0-7 15.7-15.66 15.7-35.55z"/><path class="cls-71" d="M126.9 34.45a34.45 34.45 0 1 0-68.9 0C58 54.1 74.78 63.55 74.78 70v10.7c0 2.37 1.38 4.74 4.14 6.67.09.22.17.43.25.61.8 1.88 1.35 4.09 4 5.64 5.4 3.12 14.15 3.12 19.55 0a8.4 8.4 0 0 0 4-5.64c.05-.17.1-.35.15-.55 2.82-1.94 4.24-4.34 4.24-6.73V70a7 7 0 0 1-1.67 4.37 7 7 0 0 0 1.77-4.37c0-7 15.69-15.66 15.69-35.55z"/><path class="cls-72" d="M124.68 34.45a34.45 34.45 0 1 0-68.9 0c0 19.65 16.78 29.1 16.78 35.51V80.7c0 2.37 1.38 4.74 4.14 6.67.08.22.17.43.24.61.81 1.88 1.35 4.09 4 5.64 5.4 3.12 14.16 3.12 19.56 0a8.4 8.4 0 0 0 4-5.64c0-.17.09-.35.15-.55 2.82-1.94 4.24-4.34 4.23-6.73V70a7.07 7.07 0 0 1-1.66 4.37A7.07 7.07 0 0 0 109 70c0-7 15.68-15.66 15.68-35.55z"/><path class="cls-73" d="M122.46 34.45a34.45 34.45 0 1 0-68.9 0c0 19.65 16.77 29.1 16.77 35.51V80.7c0 2.37 1.39 4.74 4.15 6.67.08.22.16.43.24.61.81 1.88 1.35 4.09 4 5.64 5.4 3.12 14.15 3.12 19.55 0a8.37 8.37 0 0 0 4.1-5.62c0-.17.1-.35.15-.55 2.82-1.94 4.24-4.34 4.24-6.73V70a7 7 0 0 1-1.67 4.37 7 7 0 0 0 1.67-4.37c0-7 15.7-15.66 15.7-35.55z"/></g></g><path class="cls-74" d="M104.9 77.5c0 2-3.88 6.59-6.58 8.15-5.4 3.12-14.15 3.12-19.55 0-2.7-1.56-7-4.77-7-6.81 0 0 1.9 6.58 3 9.14.81 1.88 1.35 4.09 4 5.64 5.4 3.12 14.15 3.12 19.55 0a8.37 8.37 0 0 0 4.05-5.62c.83-2.93 2.53-10.5 2.53-10.5z"/><path class="cls-75" d="M101.43 77.39c-7.12 4.11-18.65 4.11-25.76 0-3.56-2.06-5.34-4.75-5.34-7.44V80.7c0 2.69 1.78 5.38 5.34 7.43 7.11 4.11 18.64 4.11 25.76 0 3.55-2 5.33-4.74 5.33-7.43V70c0 2.65-1.76 5.34-5.33 7.39z"/><g class="cls-76"><path class="cls-77" d="M101.43 79.58c-7.12 4.11-18.65 4.11-25.76 0-3.56-2-5.34-4.74-5.34-7.43v2.14c0 2.69 1.78 5.38 5.34 7.44 7.11 4.1 18.64 4.1 25.76 0 3.55-2.06 5.33-4.75 5.33-7.44v-2.14c0 2.69-1.76 5.38-5.33 7.43z"/></g><g class="cls-76"><path class="cls-77" d="M101.43 83.8c-7.12 4.11-18.65 4.11-25.76 0-3.56-2-5.34-4.74-5.34-7.43v2.14c0 2.69 1.78 5.38 5.34 7.44 7.11 4.1 18.64 4.1 25.76 0 3.55-2.06 5.33-4.75 5.33-7.44v-2.14c0 2.69-1.76 5.38-5.33 7.43z"/></g><path class="cls-78" d="M112.37 10.09a34.45 34.45 0 0 0-58.81 24.36c0 19.65 16.77 29.1 16.77 35.51 0 2.69 1.78 5.38 5.34 7.44 7.11 4.1 18.64 4.1 25.76 0 3.55-2 5.33-4.74 5.33-7.43 0-7 15.7-15.62 15.7-35.51a34.37 34.37 0 0 0-10.09-24.37z"/><path class="cls-79" d="M112.37 10.09a34.45 34.45 0 0 0-58.81 24.36c0 19.65 16.77 29.1 16.77 35.51 0 2.69 1.78 5.38 5.34 7.44 7.11 4.1 18.64 4.1 25.76 0 3.55-2 5.33-4.74 5.33-7.43 0-7 15.7-15.62 15.7-35.51a34.37 34.37 0 0 0-10.09-24.37z"/></g></g></g></svg>