<?xml version="1.0" encoding="utf-8"?>
<!-- Generator: Adobe Illustrator 22.0.0, SVG Export Plug-In . SVG Version: 6.00 Build 0)  -->
<svg version="1.1" id="Layer_1" xmlns="http://www.w3.org/2000/svg" xmlns:xlink="http://www.w3.org/1999/xlink" x="0px" y="0px"
	 viewBox="0 0 24 24" style="enable-background:new 0 0 24 24;" xml:space="preserve">
<style type="text/css">
	.st0{fill:#004F84;}
</style>
<path class="st0" d="M17.7,5.3c-3.1-3.1-8.2-3.1-11.3,0s-3.1,8.1,0,11.1L12,22l5.7-5.6C20.8,13.4,20.8,8.4,17.7,5.3z M12,13.5
	c-0.7,0-1.3-0.3-1.8-0.7c-1-1-1-2.6,0-3.5c0.5-0.5,1.1-0.7,1.8-0.7s1.3,0.3,1.8,0.7c1,1,1,2.6,0,3.5C13.3,13.2,12.7,13.5,12,13.5z"
	/>
</svg>
