<svg id="Layer_1" data-name="Layer 1" xmlns="http://www.w3.org/2000/svg" xmlns:xlink="http://www.w3.org/1999/xlink" viewBox="0 0 48 48"><defs><style>.cls-1{fill:url(#linear-gradient)}.cls-2{fill:url(#linear-gradient-2)}.cls-3{fill:url(#linear-gradient-3)}.cls-4{fill:url(#linear-gradient-4)}</style><linearGradient id="linear-gradient" x1="24" y1="46.6" x2="24" gradientUnits="userSpaceOnUse"><stop offset="0" stop-color="#27e9de"/><stop offset=".52" stop-color="#03a4ec"/><stop offset="1" stop-color="#2547a8"/></linearGradient><linearGradient id="linear-gradient-2" x1="31.71" y1="52.75" x2="31.71" y2="14.3" xlink:href="#linear-gradient"/><linearGradient id="linear-gradient-3" y1="32.5" x2="24" y2="-39.84" xlink:href="#linear-gradient"/><linearGradient id="linear-gradient-4" y1="19.92" x2="24" y2="-28.43" xlink:href="#linear-gradient"/></defs><title>message, unread, email, envelope, text</title><path class="cls-1" d="M3 13.37v20A5.63 5.63 0 0 0 8.63 39h30.74A5.63 5.63 0 0 0 45 33.37v-20A4.37 4.37 0 0 0 40.63 9H7.37A4.37 4.37 0 0 0 3 13.37z"/><path class="cls-2" d="M36.25 10.25L20.49 21.51a5 5 0 0 0-2.07 3.62 5 5 0 0 0 2.07 3.62l10.68 7.63a14.1 14.1 0 0 0 8.2 2.62A5.63 5.63 0 0 0 45 33.37V14.58a5 5 0 0 0-1.94-3.95l-.54-.38a5.4 5.4 0 0 0-6.27 0z"/><path class="cls-3" d="M40.63 9H7.37A4.37 4.37 0 0 0 3 13.37v1a3.7 3.7 0 0 0 1.55 3l16.56 11.8a5 5 0 0 0 5.78 0l16.56-11.83a3.71 3.71 0 0 0 1.55-3v-1A4.37 4.37 0 0 0 40.63 9z"/><path class="cls-4" d="M7.37 9a4.36 4.36 0 0 0-4.22 3.28 3.69 3.69 0 0 0 1.4 2l16.56 11.84a5 5 0 0 0 5.78 0L43.45 14.3a3.69 3.69 0 0 0 1.4-2A4.36 4.36 0 0 0 40.63 9z"/></svg>