<svg xmlns="http://www.w3.org/2000/svg" viewBox="0 0 225.31 153.77"><defs><style>.cls-1{fill:none}.cls-2{isolation:isolate}.cls-3{mix-blend-mode:multiply}.cls-4{fill:#fff;opacity:0}.cls-5{fill:#fcfcfc}.cls-41,.cls-5{opacity:.03}.cls-6{fill:#f9f9f9}.cls-42,.cls-6{opacity:.06}.cls-7{fill:#f5f5f5}.cls-43,.cls-7{opacity:.09}.cls-8{fill:#f2f2f2}.cls-44,.cls-8{opacity:.12}.cls-9{fill:#efefef}.cls-45,.cls-9{opacity:.15}.cls-10{fill:#ececec}.cls-10,.cls-46{opacity:.18}.cls-11{fill:#e8e8e8}.cls-11,.cls-47{opacity:.21}.cls-12{fill:#e5e5e5}.cls-12,.cls-48{opacity:.24}.cls-13{fill:#e2e2e2}.cls-13,.cls-49{opacity:.27}.cls-14{fill:#dfdfdf}.cls-14,.cls-50{opacity:.3}.cls-15{fill:#dbdbdb}.cls-15,.cls-51{opacity:.33}.cls-16{fill:#d8d8d8}.cls-16,.cls-52{opacity:.36}.cls-17{fill:#d5d5d5}.cls-17,.cls-53{opacity:.39}.cls-18{fill:#d2d2d2}.cls-18,.cls-54{opacity:.42}.cls-19{fill:#cecece}.cls-19,.cls-55{opacity:.45}.cls-20{fill:#cbcbcb}.cls-20,.cls-56{opacity:.48}.cls-21{fill:#c8c8c8}.cls-21,.cls-57{opacity:.52}.cls-22{fill:#c5c5c5}.cls-22,.cls-58{opacity:.55}.cls-23{fill:#c1c1c1}.cls-23,.cls-59{opacity:.58}.cls-24{fill:#bebebe}.cls-24,.cls-60{opacity:.61}.cls-25{fill:#bbb}.cls-25,.cls-61{opacity:.64}.cls-26{fill:#b8b8b8}.cls-26,.cls-62{opacity:.67}.cls-27{fill:#b4b4b4}.cls-27,.cls-63{opacity:.7}.cls-28{fill:#b1b1b1}.cls-28,.cls-64{opacity:.73}.cls-29{fill:#aeaeae}.cls-29,.cls-65{opacity:.76}.cls-30{fill:#ababab}.cls-30,.cls-66{opacity:.79}.cls-31{fill:#a7a7a7}.cls-31,.cls-67{opacity:.82}.cls-32{fill:#a4a4a4}.cls-32,.cls-68{opacity:.85}.cls-33{fill:#a1a1a1}.cls-33,.cls-69{opacity:.88}.cls-34{fill:#9e9e9e}.cls-34,.cls-70{opacity:.91}.cls-35{fill:#9a9a9a}.cls-35,.cls-71{opacity:.94}.cls-36{fill:#979797}.cls-36,.cls-72{opacity:.97}.cls-37{fill:#949494}.cls-38{fill:url(#linear-gradient)}.cls-39{fill:#ffdb32}.cls-40{clip-path:url(#clip-path)}.cls-41{fill:#fffdfa}.cls-42{fill:#fffbf4}.cls-43{fill:#fffaef}.cls-44{fill:#fff8e9}.cls-45{fill:#fff6e4}.cls-46{fill:#fef4de}.cls-47{fill:#fef2d9}.cls-48{fill:#fef0d4}.cls-49{fill:#feefce}.cls-50{fill:#feedc9}.cls-51{fill:#feebc3}.cls-52{fill:#fee9be}.cls-53{fill:#fee7b8}.cls-54{fill:#fee6b3}.cls-55{fill:#fee4ae}.cls-56{fill:#fee2a8}.cls-57{fill:#fde0a3}.cls-58{fill:#fdde9d}.cls-59{fill:#fddc98}.cls-60{fill:#fddb93}.cls-61{fill:#fdd98d}.cls-62{fill:#fdd788}.cls-63{fill:#fdd582}.cls-64{fill:#fdd37d}.cls-65{fill:#fdd277}.cls-66{fill:#fdd072}.cls-67{fill:#fdce6d}.cls-68{fill:#fccc67}.cls-69{fill:#fcca62}.cls-70{fill:#fcc85c}.cls-71{fill:#fcc757}.cls-72{fill:#fcc551}.cls-73{fill:#fcc34c}.cls-74{fill:#e6e6e6}.cls-75{fill:url(#linear-gradient-2)}.cls-76{fill:#a3a3a3}.cls-77{fill:#c4c4c4}.cls-78{fill:#4f4f4f}</style><linearGradient id="linear-gradient" y1="119.81" x2="176.4" y2="119.81" gradientUnits="userSpaceOnUse"><stop offset="0" stop-color="#ffed44"/><stop offset=".07" stop-color="#fff047"/><stop offset=".3" stop-color="#fff24a"/><stop offset=".55" stop-color="#ffe23a"/><stop offset=".74" stop-color="#ffdc34"/><stop offset="1" stop-color="#f9b519"/></linearGradient><clipPath id="clip-path"><path class="cls-1" d="M147.21 51.78c-38.92-22.47-79.09-22.47-118 0C9.73 63 0 74.43 0 85.85s9.73 22.83 29.19 34.07c38.93 22.47 79.1 22.47 118 0 19.46-11.24 29.19-22.65 29.19-34.07S166.67 63 147.21 51.78z"/></clipPath><linearGradient id="linear-gradient-2" x1="67.9" y1="82.85" x2="102.34" y2="23.19" gradientUnits="userSpaceOnUse"><stop offset="0" stop-color="#fff"/><stop offset=".58" stop-color="#fdfdfd"/><stop offset=".79" stop-color="#f6f6f6"/><stop offset=".94" stop-color="#ebebeb"/><stop offset="1" stop-color="#e3e3e3"/></linearGradient></defs><title>Asset 14</title><g class="cls-2"><g id="Layer_2" data-name="Layer 2"><g id="Layer_1-2" data-name="Layer 1"><g class="cls-3"><path class="cls-4" d="M196.12 68.78c-38.92-22.47-79.09-22.47-118 0C58.64 80 48.91 91.43 48.91 102.85s9.73 22.83 29.19 34.07c38.93 22.47 79.1 22.47 118 0 19.46-11.24 29.19-22.65 29.19-34.07S215.58 80 196.12 68.78z"/><path class="cls-5" d="M194.64 68.78c-38.93-22.47-79.1-22.47-118 0C57.16 80 47.43 91.43 47.43 102.85s9.73 22.83 29.19 34.07c38.92 22.47 79.09 22.47 118 0 19.46-11.24 29.19-22.65 29.19-34.07S214.1 80 194.64 68.78z"/><path class="cls-6" d="M193.16 68.78c-38.93-22.47-79.1-22.47-118 0C55.68 80 45.94 91.43 45.94 102.85s9.74 22.83 29.2 34.07c38.92 22.47 79.09 22.47 118 0 19.46-11.24 29.19-22.65 29.19-34.07S212.62 80 193.16 68.78z"/><path class="cls-7" d="M191.67 68.78c-38.92-22.47-79.09-22.47-118 0C54.19 80 44.46 91.43 44.46 102.85s9.73 22.83 29.2 34.07c38.92 22.47 79.09 22.47 118 0 19.47-11.24 29.2-22.65 29.2-34.07S211.14 80 191.67 68.78z"/><path class="cls-8" d="M190.19 68.78c-38.92-22.47-79.09-22.47-118 0C52.71 80 43 91.43 43 102.85s9.73 22.83 29.19 34.07c38.93 22.47 79.1 22.47 118 0 19.46-11.24 29.2-22.65 29.2-34.07s-9.74-22.85-29.2-34.07z"/><path class="cls-9" d="M188.71 68.78c-38.92-22.47-79.09-22.47-118 0C51.23 80 41.5 91.43 41.5 102.85s9.73 22.83 29.19 34.07c38.93 22.47 79.1 22.47 118 0 19.46-11.24 29.19-22.65 29.19-34.07S208.17 80 188.71 68.78z"/><path class="cls-10" d="M187.23 68.78c-38.93-22.47-79.1-22.47-118 0C49.75 80 40 91.43 40 102.85s9.73 22.83 29.19 34.07c38.92 22.47 79.09 22.47 118 0 19.46-11.24 29.19-22.65 29.19-34.07S206.69 80 187.23 68.78z"/><path class="cls-11" d="M185.75 68.78c-38.93-22.47-79.1-22.47-118 0C48.27 80 38.53 91.43 38.53 102.85s9.74 22.83 29.2 34.07c38.92 22.47 79.09 22.47 118 0 19.46-11.24 29.19-22.65 29.19-34.07S205.21 80 185.75 68.78z"/><path class="cls-12" d="M184.26 68.78c-38.92-22.47-79.09-22.47-118 0C46.78 80 37.05 91.43 37.05 102.85s9.73 22.83 29.2 34.07c38.92 22.47 79.09 22.47 118 0 19.47-11.24 29.2-22.65 29.2-34.07S203.73 80 184.26 68.78z"/><path class="cls-13" d="M182.78 68.78c-38.92-22.47-79.09-22.47-118 0C45.3 80 35.57 91.43 35.57 102.85s9.73 22.83 29.19 34.07c38.93 22.47 79.1 22.47 118 0 19.46-11.24 29.2-22.65 29.2-34.07S202.24 80 182.78 68.78z"/><path class="cls-14" d="M181.3 68.78c-38.92-22.47-79.1-22.47-118 0C43.82 80 34.09 91.43 34.09 102.85s9.73 22.83 29.19 34.07c38.93 22.47 79.1 22.47 118 0 19.46-11.24 29.19-22.65 29.19-34.07S200.76 80 181.3 68.78z"/><path class="cls-15" d="M179.82 68.78c-38.93-22.47-79.1-22.47-118 0C42.34 80 32.61 91.43 32.61 102.85s9.73 22.83 29.19 34.07c38.92 22.47 79.09 22.47 118 0 19.48-11.24 29.2-22.65 29.2-34.07S199.28 80 179.82 68.78z"/><path class="cls-16" d="M178.34 68.78c-38.93-22.47-79.1-22.47-118 0C40.85 80 31.12 91.43 31.12 102.85s9.73 22.83 29.2 34.07c38.92 22.47 79.09 22.47 118 0 19.46-11.24 29.19-22.65 29.19-34.07S197.8 80 178.34 68.78z"/><path class="cls-17" d="M176.85 68.78c-38.92-22.47-79.09-22.47-118 0C39.37 80 29.64 91.43 29.64 102.85s9.73 22.83 29.2 34.07c38.92 22.47 79.09 22.47 118 0 19.47-11.24 29.2-22.65 29.2-34.07S196.32 80 176.85 68.78z"/><path class="cls-18" d="M175.37 68.78c-38.92-22.47-79.09-22.47-118 0C37.89 80 28.16 91.43 28.16 102.85s9.73 22.83 29.19 34.07c38.93 22.47 79.1 22.47 118 0 19.46-11.24 29.19-22.65 29.19-34.07S194.83 80 175.37 68.78z"/><path class="cls-19" d="M173.89 68.78c-38.93-22.47-79.1-22.47-118 0C36.41 80 26.68 91.43 26.68 102.85s9.73 22.83 29.19 34.07c38.93 22.47 79.1 22.47 118 0 19.46-11.24 29.19-22.65 29.19-34.07S193.35 80 173.89 68.78z"/><path class="cls-20" d="M172.41 68.78c-38.93-22.47-79.1-22.47-118 0C34.93 80 25.2 91.43 25.2 102.85s9.73 22.83 29.19 34.07c38.92 22.47 79.09 22.47 118 0 19.46-11.24 29.19-22.65 29.19-34.07S191.87 80 172.41 68.78z"/><path class="cls-21" d="M170.92 68.78c-38.92-22.47-79.09-22.47-118 0C33.44 80 23.71 91.43 23.71 102.85s9.73 22.83 29.2 34.07c38.92 22.47 79.09 22.47 118 0 19.46-11.24 29.19-22.65 29.19-34.07S190.39 80 170.92 68.78z"/><path class="cls-22" d="M169.44 68.78c-38.92-22.47-79.09-22.47-118 0C32 80 22.23 91.43 22.23 102.85s9.77 22.83 29.19 34.07c38.93 22.47 79.1 22.47 118 0 19.47-11.24 29.2-22.65 29.2-34.07S188.9 80 169.44 68.78z"/><path class="cls-23" d="M168 68.78c-38.92-22.47-79.09-22.47-118 0C30.48 80 20.75 91.43 20.75 102.85s9.73 22.83 29.19 34.07c38.93 22.47 79.1 22.47 118 0 19.46-11.24 29.19-22.65 29.19-34.07S187.42 80 168 68.78z"/><path class="cls-24" d="M166.48 68.78c-38.93-22.47-79.1-22.47-118 0C29 80 19.27 91.43 19.27 102.85s9.73 22.83 29.19 34.07c38.92 22.47 79.09 22.47 118 0 19.46-11.24 29.19-22.65 29.19-34.07S185.94 80 166.48 68.78z"/><path class="cls-25" d="M165 68.78c-38.93-22.47-79.1-22.47-118 0C27.52 80 17.78 91.43 17.78 102.85s9.74 22.83 29.2 34.07c38.92 22.47 79.09 22.47 118 0 19.46-11.24 29.19-22.65 29.19-34.07S184.46 80 165 68.78z"/><path class="cls-26" d="M163.51 68.78c-38.92-22.47-79.09-22.47-118 0C26 80 16.3 91.43 16.3 102.85s9.7 22.83 29.2 34.07c38.92 22.47 79.09 22.47 118 0 19.47-11.24 29.2-22.65 29.2-34.07S183 80 163.51 68.78z"/><path class="cls-27" d="M162 68.78c-38.92-22.47-79.09-22.47-118 0C24.55 80 14.82 91.43 14.82 102.85s9.73 22.83 29.18 34.07c38.93 22.47 79.1 22.47 118 0 19.46-11.24 29.2-22.65 29.2-34.07S181.49 80 162 68.78z"/><path class="cls-28" d="M160.55 68.78c-38.92-22.47-79.09-22.47-118 0C23.07 80 13.34 91.43 13.34 102.85s9.73 22.83 29.19 34.07c38.93 22.47 79.1 22.47 118 0 19.46-11.24 29.19-22.65 29.19-34.07S180 80 160.55 68.78z"/><path class="cls-29" d="M159.07 68.78c-38.93-22.47-79.1-22.47-118 0C21.59 80 11.86 91.43 11.86 102.85s9.73 22.83 29.19 34.07c38.92 22.47 79.09 22.47 118 0 19.46-11.24 29.19-22.65 29.19-34.07S178.53 80 159.07 68.78z"/><path class="cls-30" d="M157.59 68.78c-38.93-22.47-79.1-22.47-118 0C20.11 80 10.37 91.43 10.37 102.85s9.74 22.83 29.2 34.07c38.92 22.47 79.09 22.47 118 0 19.46-11.24 29.19-22.65 29.19-34.07S177.05 80 157.59 68.78z"/><path class="cls-31" d="M156.1 68.78c-38.92-22.47-79.09-22.47-118 0C18.62 80 8.89 91.43 8.89 102.85s9.73 22.83 29.2 34.07c38.92 22.47 79.09 22.47 118 0 19.47-11.24 29.2-22.65 29.2-34.07S175.57 80 156.1 68.78z"/><path class="cls-32" d="M154.62 68.78c-38.92-22.47-79.09-22.47-118 0C17.14 80 7.41 91.43 7.41 102.85s9.73 22.83 29.19 34.07c38.93 22.47 79.1 22.47 118 0 19.46-11.24 29.2-22.65 29.2-34.07S174.08 80 154.62 68.78z"/><path class="cls-33" d="M153.14 68.78c-38.92-22.47-79.09-22.47-118 0C15.66 80 5.93 91.43 5.93 102.85s9.73 22.83 29.19 34.07c38.93 22.47 79.1 22.47 118 0 19.46-11.24 29.19-22.65 29.19-34.07S172.6 80 153.14 68.78z"/><path class="cls-34" d="M151.66 68.78c-38.93-22.47-79.1-22.47-118 0C14.18 80 4.45 91.43 4.45 102.85s9.73 22.83 29.19 34.07c38.92 22.47 79.09 22.47 118 0 19.46-11.24 29.19-22.65 29.19-34.07S171.12 80 151.66 68.78z"/><path class="cls-35" d="M150.18 68.78c-38.93-22.47-79.1-22.47-118 0C12.7 80 3 91.43 3 102.85s9.74 22.83 29.2 34.07c38.92 22.47 79.09 22.47 118 0 19.46-11.24 29.19-22.65 29.19-34.07S169.64 80 150.18 68.78z"/><path class="cls-36" d="M148.69 68.78c-38.92-22.47-79.09-22.47-118 0C11.21 80 1.48 91.43 1.48 102.85s9.73 22.83 29.2 34.07c38.92 22.47 79.09 22.47 118 0 19.47-11.24 29.2-22.65 29.2-34.07S168.16 80 148.69 68.78z"/><path class="cls-37" d="M147.21 68.78c-38.92-22.47-79.09-22.47-118 0C9.73 80 0 91.43 0 102.85s9.73 22.83 29.19 34.07c38.93 22.47 79.1 22.47 118 0 19.46-11.24 29.19-22.65 29.19-34.07S166.67 80 147.21 68.78z"/></g><path class="cls-38" d="M147.21 119.92c-38.92 22.47-79.09 22.47-118 0C9.73 108.68 0 97.26 0 85.85v17c0 11.42 9.73 22.83 29.19 34.07 38.93 22.47 79.1 22.47 118 0 19.46-11.24 29.19-22.65 29.19-34.07v-17c.02 11.42-9.71 22.83-29.17 34.07z"/><path class="cls-39" d="M147.21 51.78c-38.92-22.47-79.09-22.47-118 0C9.73 63 0 74.43 0 85.85s9.73 22.83 29.19 34.07c38.93 22.47 79.1 22.47 118 0 19.46-11.24 29.19-22.65 29.19-34.07S166.67 63 147.21 51.78z"/><g class="cls-40"><g class="cls-3"><path class="cls-4" d="M198.9 36.58a4.63 4.63 0 0 0-2.77-.56 4.63 4.63 0 0 1 2.77.56L141 3.16 136.55.58c-1.58-.91-3.76-.78-6.15.6-4.8 2.77-8.72 9.57-8.72 15.11v51.09c0 2.76 1 4.71 2.55 5.63l62.34 36c1.58.91 3.76.78 6.15-.6 4.8-2.77 8.72-9.57 8.72-15.11V42.22c.01-2.77-.97-4.72-2.54-5.64z"/><path class="cls-41" d="M196.67 36.58a4.72 4.72 0 0 0-2.77-.56 4.63 4.63 0 0 1 2.77.56L138.8 3.16 134.33.58c-1.58-.91-3.76-.78-6.16.6-4.79 2.77-8.72 9.57-8.72 15.11v51.09c0 2.76 1 4.71 2.56 5.63l62.33 36c1.56.93 3.75.78 6.15-.6 4.79-2.77 8.72-9.57 8.72-15.11V42.22c.02-2.77-.97-4.7-2.54-5.64z"/><path class="cls-42" d="M194.45 36.58a4.72 4.72 0 0 0-2.77-.56 4.63 4.63 0 0 1 2.77.56L136.58 3.16 132.1.58c-1.58-.91-3.75-.78-6.15.6-4.79 2.77-8.72 9.57-8.72 15.11v51.09c0 2.76 1 4.71 2.56 5.63l62.33 36c1.57.93 3.76.78 6.16-.6 4.79-2.77 8.72-9.57 8.72-15.11V42.22c0-2.77-1-4.7-2.55-5.64z"/><path class="cls-43" d="M192.23 36.58a4.69 4.69 0 0 0-2.77-.56 4.61 4.61 0 0 1 2.77.56L134.35 3.16 129.88.58c-1.58-.91-3.76-.78-6.15.6C118.93 4 115 10.75 115 16.29v51.09c0 2.76 1 4.71 2.55 5.63l62.34 36c1.57.93 3.76.78 6.15-.6 4.8-2.77 8.72-9.57 8.72-15.11V42.22c.02-2.77-.97-4.7-2.53-5.64z"/><path class="cls-44" d="M190 36.58a4.7 4.7 0 0 0-2.77-.56 4.63 4.63 0 0 1 2.77.56L132.13 3.16 127.66.58c-1.58-.91-3.76-.78-6.15.6-4.8 2.77-8.73 9.57-8.73 15.11v51.09c0 2.76 1 4.71 2.56 5.63l62.33 36c1.56.93 3.76.78 6.15-.6 4.8-2.77 8.72-9.57 8.72-15.11V42.22c.02-2.77-.97-4.7-2.54-5.64z"/><path class="cls-45" d="M187.78 36.58A4.72 4.72 0 0 0 185 36a4.63 4.63 0 0 1 2.77.56l-57.86-33.4-4.48-2.58c-1.58-.91-3.75-.78-6.15.6-4.79 2.77-8.72 9.57-8.72 15.11v51.09c0 2.76 1 4.71 2.56 5.63l62.33 36c1.57.93 3.76.78 6.16-.6 4.79-2.77 8.72-9.57 8.72-15.11V42.22c.01-2.77-.98-4.7-2.55-5.64z"/><path class="cls-46" d="M185.56 36.58a4.73 4.73 0 0 0-2.78-.56 4.64 4.64 0 0 1 2.78.56L127.68 3.16 123.21.58c-1.58-.91-3.76-.78-6.15.6-4.8 2.77-8.72 9.57-8.72 15.11v51.09c0 2.76 1 4.71 2.55 5.63l62.34 36c1.57.93 3.76.78 6.15-.6 4.8-2.77 8.73-9.57 8.73-15.11V42.22c.01-2.77-.99-4.7-2.55-5.64z"/><path class="cls-47" d="M183.33 36.58a4.7 4.7 0 0 0-2.77-.56 4.63 4.63 0 0 1 2.77.56L125.46 3.16 121 .58c-1.58-.91-3.76-.78-6.15.6-4.8 2.77-8.73 9.57-8.73 15.11v51.09c0 2.76 1 4.71 2.56 5.63L171 109c1.56.93 3.76.78 6.15-.6 4.8-2.77 8.72-9.57 8.72-15.11V42.22c.02-2.77-.97-4.7-2.54-5.64z"/><path class="cls-48" d="M181.11 36.58a4.72 4.72 0 0 0-2.77-.56 4.63 4.63 0 0 1 2.77.56L123.24 3.16 118.76.58c-1.58-.91-3.75-.78-6.15.6-4.79 2.77-8.72 9.57-8.72 15.11v51.09c0 2.76 1 4.71 2.56 5.63l62.33 36c1.57.93 3.76.78 6.16-.6 4.79-2.77 8.72-9.57 8.72-15.11V42.22c.01-2.77-.98-4.7-2.55-5.64z"/><path class="cls-49" d="M178.89 36.58a4.72 4.72 0 0 0-2.77-.56 4.63 4.63 0 0 1 2.77.56L121 3.16 116.54.58c-1.58-.91-3.76-.78-6.15.6-4.8 2.77-8.72 9.57-8.72 15.11v51.09c0 2.76 1 4.71 2.56 5.63l62.33 36c1.57.93 3.76.78 6.15-.6 4.8-2.77 8.73-9.57 8.73-15.11V42.22c.01-2.77-.99-4.7-2.55-5.64z"/><path class="cls-50" d="M176.66 36.58a4.7 4.7 0 0 0-2.77-.56 4.63 4.63 0 0 1 2.77.56L118.79 3.16 114.32.58c-1.58-.91-3.76-.78-6.15.6-4.8 2.77-8.72 9.57-8.72 15.11v51.09c0 2.76 1 4.71 2.55 5.63l62.34 36c1.56.93 3.76.78 6.15-.6 4.8-2.77 8.72-9.57 8.72-15.11V42.22c.01-2.77-.98-4.7-2.55-5.64z"/><path class="cls-51" d="M174.44 36.58a4.72 4.72 0 0 0-2.77-.56 4.63 4.63 0 0 1 2.77.56L116.57 3.16 112.1.58c-1.58-.91-3.76-.78-6.16.6-4.79 2.77-8.72 9.57-8.72 15.11v51.09c0 2.76 1 4.71 2.56 5.63l62.33 36c1.57.93 3.76.78 6.16-.6 4.79-2.77 8.72-9.57 8.72-15.11V42.22c.01-2.77-.99-4.7-2.55-5.64z"/><path class="cls-52" d="M172.22 36.58a4.72 4.72 0 0 0-2.77-.56 4.63 4.63 0 0 1 2.77.56L114.35 3.16 109.87.58c-1.58-.91-3.76-.78-6.15.6C98.93 4 95 10.75 95 16.29v51.09c0 2.76 1 4.71 2.56 5.63l62.33 36c1.57.93 3.76.78 6.16-.6 4.79-2.77 8.72-9.57 8.72-15.11V42.22c.01-2.77-.99-4.7-2.55-5.64z"/><path class="cls-53" d="M170 36.58a4.7 4.7 0 0 0-2.77-.56 4.63 4.63 0 0 1 2.77.56L112.12 3.16 107.65.58c-1.58-.91-3.76-.78-6.15.6-4.8 2.82-8.72 9.57-8.72 15.11v51.09c0 2.76 1 4.71 2.55 5.63l62.34 36c1.57.93 3.76.78 6.15-.6 4.8-2.77 8.72-9.57 8.72-15.11V42.22c.01-2.77-.98-4.7-2.54-5.64z"/><path class="cls-54" d="M167.77 36.58A4.72 4.72 0 0 0 165 36a4.63 4.63 0 0 1 2.77.56L109.9 3.16 105.43.58c-1.58-.91-3.76-.78-6.16.6-4.79 2.82-8.72 9.57-8.72 15.11v51.09c0 2.76 1 4.71 2.56 5.63l62.33 36c1.56.93 3.75.78 6.15-.6 4.79-2.77 8.72-9.57 8.72-15.11V42.22c.02-2.77-.97-4.7-2.54-5.64z"/><path class="cls-55" d="M165.55 36.58a4.72 4.72 0 0 0-2.77-.56 4.63 4.63 0 0 1 2.77.56L107.68 3.16 103.2.58c-1.58-.91-3.75-.78-6.15.6-4.79 2.82-8.72 9.57-8.72 15.11v51.09c0 2.76 1 4.71 2.56 5.63l62.33 36c1.57.93 3.76.78 6.16-.6 4.79-2.77 8.72-9.57 8.72-15.11V42.22c.01-2.77-.98-4.7-2.55-5.64z"/><path class="cls-56" d="M163.33 36.58a4.7 4.7 0 0 0-2.77-.56 4.63 4.63 0 0 1 2.77.56L105.45 3.16 101 .58c-1.58-.91-3.76-.78-6.15.6C90 4 86.11 10.75 86.11 16.29v51.09c0 2.76 1 4.71 2.55 5.63L151 109c1.57.93 3.76.78 6.15-.6 4.8-2.77 8.72-9.57 8.72-15.11V42.22c.01-2.77-.98-4.7-2.54-5.64z"/><path class="cls-57" d="M161.1 36.58a4.72 4.72 0 0 0-2.77-.56 4.63 4.63 0 0 1 2.77.56L103.23 3.16 98.76.58c-1.58-.91-3.76-.78-6.16.6-4.79 2.82-8.72 9.57-8.72 15.11v51.09c0 2.76 1 4.71 2.56 5.63l62.33 36c1.56.93 3.75.78 6.15-.6 4.79-2.77 8.72-9.57 8.72-15.11V42.22c.02-2.77-.97-4.7-2.54-5.64z"/><path class="cls-58" d="M158.88 36.58a4.72 4.72 0 0 0-2.78-.58 4.63 4.63 0 0 1 2.77.56L101 3.16 96.53.58c-1.58-.91-3.75-.78-6.15.6-4.79 2.82-8.72 9.57-8.72 15.11v51.09c0 2.76 1 4.71 2.56 5.63l62.33 36c1.57.93 3.76.78 6.16-.6 4.79-2.77 8.72-9.57 8.72-15.11V42.22c.01-2.77-.98-4.7-2.55-5.64z"/><path class="cls-59" d="M156.66 36.58a4.7 4.7 0 0 0-2.77-.56 4.61 4.61 0 0 1 2.77.56L98.78 3.16 94.31.58c-1.58-.91-3.76-.78-6.15.6-4.8 2.77-8.72 9.57-8.72 15.11v51.09c0 2.76 1 4.71 2.55 5.63l62.34 36c1.57.93 3.76.78 6.15-.6 4.8-2.77 8.72-9.57 8.72-15.11V42.22c.01-2.77-.98-4.7-2.54-5.64z"/><path class="cls-60" d="M154.43 36.58a4.7 4.7 0 0 0-2.77-.56 4.63 4.63 0 0 1 2.77.56L96.56 3.16 92.09.58c-1.58-.91-3.76-.78-6.15.6-4.8 2.77-8.73 9.57-8.73 15.11v51.09c0 2.76 1 4.71 2.56 5.63l62.33 36c1.56.93 3.76.78 6.15-.6 4.8-2.77 8.72-9.57 8.72-15.11V42.22c.03-2.77-.97-4.7-2.54-5.64z"/><path class="cls-61" d="M152.21 36.58a4.72 4.72 0 0 0-2.77-.56 4.63 4.63 0 0 1 2.77.56L94.34 3.16 89.86.58c-1.58-.91-3.75-.78-6.15.6C78.92 4 75 10.75 75 16.29v51.09c0 2.76 1 4.71 2.56 5.63l62.33 36c1.57.93 3.76.78 6.16-.6 4.79-2.77 8.72-9.57 8.72-15.11V42.22c0-2.77-.99-4.7-2.56-5.64z"/><path class="cls-62" d="M150 36.58a4.73 4.73 0 0 0-2.8-.58 4.64 4.64 0 0 1 2.78.56L92.11 3.16 87.64.58c-1.58-.91-3.76-.78-6.15.6-4.8 2.77-8.72 9.57-8.72 15.11v51.09c0 2.76 1 4.71 2.55 5.63l62.34 36c1.57.93 3.76.78 6.15-.6 4.8-2.77 8.73-9.57 8.73-15.11V42.22c.01-2.77-.99-4.7-2.54-5.64z"/><path class="cls-63" d="M147.76 36.58A4.7 4.7 0 0 0 145 36a4.63 4.63 0 0 1 2.77.56L89.89 3.16 85.42.58c-1.58-.91-3.76-.78-6.15.6-4.8 2.77-8.73 9.57-8.73 15.11v51.09c0 2.76 1 4.71 2.56 5.63l62.33 36c1.56.93 3.76.78 6.15-.6 4.8-2.77 8.72-9.57 8.72-15.11V42.22c.02-2.77-.97-4.7-2.54-5.64z"/><path class="cls-64" d="M145.54 36.58a4.72 4.72 0 0 0-2.77-.56 4.63 4.63 0 0 1 2.77.56L87.67 3.16 83.19.58c-1.58-.91-3.75-.78-6.15.6-4.79 2.82-8.72 9.57-8.72 15.11v51.09c0 2.76 1 4.71 2.56 5.63l62.33 36c1.57.93 3.76.78 6.16-.6 4.79-2.77 8.72-9.57 8.72-15.11V42.22c.01-2.77-.98-4.7-2.55-5.64z"/><path class="cls-65" d="M143.32 36.58a4.72 4.72 0 0 0-2.77-.56 4.63 4.63 0 0 1 2.77.56L85.44 3.16 81 .58c-1.58-.91-3.76-.78-6.15.6C70 4 66.1 10.75 66.1 16.29v51.09c0 2.76 1 4.71 2.55 5.63L131 109c1.57.93 3.76.78 6.15-.6 4.8-2.77 8.73-9.57 8.73-15.11V42.22c0-2.77-1-4.7-2.56-5.64z"/><path class="cls-66" d="M141.09 36.58a4.7 4.7 0 0 0-2.77-.56 4.63 4.63 0 0 1 2.77.56L83.22 3.16 78.75.58c-1.58-.91-3.75-.78-6.15.6-4.8 2.82-8.72 9.57-8.72 15.11v51.09c0 2.76 1 4.71 2.55 5.63l62.34 36c1.56.93 3.76.78 6.15-.6 4.8-2.77 8.72-9.57 8.72-15.11V42.22c.01-2.77-.98-4.7-2.55-5.64z"/><path class="cls-67" d="M138.87 36.58a4.72 4.72 0 0 0-2.77-.56 4.63 4.63 0 0 1 2.77.56L81 3.16 76.53.58c-1.59-.91-3.76-.78-6.16.6-4.79 2.82-8.72 9.57-8.72 15.11v51.09c0 2.76 1 4.71 2.56 5.63l62.33 36c1.57.93 3.76.78 6.16-.6 4.79-2.77 8.72-9.57 8.72-15.11V42.22c.01-2.77-.98-4.7-2.55-5.64z"/><path class="cls-68" d="M136.65 36.58a4.72 4.72 0 0 0-2.77-.56 4.63 4.63 0 0 1 2.77.56L78.78 3.16 74.3.58c-1.58-.91-3.76-.78-6.15.6-4.8 2.77-8.72 9.57-8.72 15.11v51.09c0 2.76 1 4.71 2.56 5.63l62.33 36c1.57.93 3.76.78 6.16-.6 4.79-2.77 8.72-9.57 8.72-15.11V42.22c.01-2.77-.99-4.7-2.55-5.64z"/><path class="cls-69" d="M134.43 36.58a4.7 4.7 0 0 0-2.77-.56 4.63 4.63 0 0 1 2.77.56L76.55 3.16 72.08.58c-1.58-.91-3.76-.78-6.15.6-4.8 2.77-8.72 9.57-8.72 15.11v51.09c0 2.76 1 4.71 2.55 5.63l62.34 36c1.57.93 3.76.78 6.15-.6 4.8-2.77 8.72-9.57 8.72-15.11V42.22c.03-2.77-.97-4.7-2.54-5.64z"/><path class="cls-70" d="M132.2 36.58a4.72 4.72 0 0 0-2.77-.56 4.63 4.63 0 0 1 2.77.56L74.33 3.16 69.86.58c-1.58-.91-3.76-.78-6.16.6C58.91 4 55 10.75 55 16.29v51.09c0 2.76 1 4.71 2.56 5.63l62.33 36c1.56.93 3.75.78 6.15-.6 4.79-2.77 8.72-9.57 8.72-15.11V42.22c0-2.77-.99-4.7-2.56-5.64z"/><path class="cls-71" d="M130 36.58a4.72 4.72 0 0 0-2.8-.58 4.63 4.63 0 0 1 2.77.56L72.11 3.16 67.63.58c-1.58-.91-3.75-.78-6.15.6-4.79 2.82-8.72 9.57-8.72 15.11v51.09c0 2.76 1 4.71 2.56 5.63l62.33 36c1.57.93 3.76.78 6.16-.6 4.79-2.77 8.72-9.57 8.72-15.11V42.22c.01-2.77-.98-4.7-2.53-5.64z"/><path class="cls-72" d="M127.76 36.58A4.7 4.7 0 0 0 125 36a4.63 4.63 0 0 1 2.77.56L69.88 3.16 65.41.58c-1.58-.91-3.76-.78-6.15.6-4.8 2.77-8.72 9.57-8.72 15.11v51.09c0 2.76 1 4.71 2.55 5.63l62.34 36c1.57.93 3.76.78 6.15-.6 4.8-2.77 8.72-9.57 8.72-15.11V42.22c.01-2.77-.98-4.7-2.54-5.64z"/><path class="cls-73" d="M125.53 36.58a4.63 4.63 0 0 0-2.77-.56 4.63 4.63 0 0 1 2.77.56L67.66 3.16 63.19.58c-1.58-.91-3.76-.78-6.16.6-4.79 2.82-8.72 9.57-8.72 15.11v51.09c0 2.76 1 4.71 2.56 5.63l62.33 36c1.58.91 3.75.78 6.15-.6 4.79-2.77 8.72-9.57 8.72-15.11V42.22c.02-2.77-.96-4.72-2.54-5.64z"/></g></g><path class="cls-74" d="M119.37 37.18c-4.8 2.77-8.72 9.57-8.72 15.11v51.08c0 2.77 1 4.72 2.55 5.63 1.58.91 3.75.78 6.15-.6 4.79-2.77 8.72-9.57 8.72-15.11V42.22c0-2.77-1-4.72-2.56-5.64-1.57-.91-3.75-.78-6.14.6z"/><path class="cls-75" d="M67.66 3.16L63.19.58c-1.58-.91-3.76-.78-6.16.6-4.79 2.82-8.72 9.57-8.72 15.11v51.09c0 2.76 1 4.71 2.56 5.63l62.33 36c-1.57-.91-2.55-2.86-2.55-5.63V52.29c0-5.54 3.92-12.34 8.72-15.11 2.39-1.38 4.57-1.51 6.15-.6z"/><path class="cls-76" d="M100.87 73.13l-13.54-7.82v-2.09l13.54 7.82v2.09z"/><path class="cls-77" d="M100.87 72.03l-13.54-7.82v-1.04l13.54 7.81v1.05z"/><path class="cls-76" d="M100.87 79l-13.54-7.82V69.1l13.54 7.82V79z"/><path class="cls-77" d="M100.87 77.9l-13.54-7.82v-1.04l13.54 7.82v1.04z"/><path class="cls-76" d="M100.87 84.88l-13.54-7.82v-2.09l13.54 7.82v2.09z"/><path class="cls-77" d="M100.87 83.78l-13.54-7.82v-1.05l13.54 7.82v1.05z"/><path class="cls-76" d="M100.87 90.75l-13.54-7.82v-2.08l13.54 7.82v2.08z"/><path class="cls-77" d="M100.87 89.65l-13.54-7.82v-1.04l13.54 7.82v1.04z"/><path class="cls-76" d="M58.09 46.28v13.9L71.64 68V54.11l-13.55-7.83z"/><path class="cls-77" d="M59.1 47.91v11.81l11.52 6.65V54.56L59.1 47.91z"/><path class="cls-76" d="M71.64 73.87l-13.55-7.82v-2.08l13.55 7.82v2.08z"/><path class="cls-77" d="M71.64 72.77l-13.55-7.82v-1.04l13.55 7.82v1.04z"/><path class="cls-76" d="M86.25 64.69l-13.54-7.82v-2.09l13.54 7.82v2.09z"/><path class="cls-77" d="M86.25 63.59l-13.54-7.82v-1.04l13.54 7.81v1.05z"/><path class="cls-76" d="M86.25 70.56l-13.54-7.82v-2.08l13.54 7.82v2.08z"/><path class="cls-77" d="M86.25 69.46l-13.54-7.82V60.6l13.54 7.82v1.04z"/><path class="cls-76" d="M86.25 76.44l-13.54-7.82v-2.09l13.54 7.82v2.09z"/><path class="cls-77" d="M86.25 75.34l-13.54-7.82v-1.05l13.54 7.82v1.05z"/><path class="cls-76" d="M86.25 82.31l-13.54-7.82v-2.08l13.54 7.82v2.08z"/><path class="cls-77" d="M86.25 81.21l-13.54-7.82v-1.04l13.54 7.82v1.04z"/><path class="cls-78" d="M62.38 31.84v14.34L60 44.78V25l3.38 1.95 2.77 13.45V28.53l2.4 1.39v19.8l-2.77-1.6zm10.76 9.09l3.7 2.14v2.83l-3.7-2.14v5.8l4.65 2.69v2.83l-7.34-4.24V31l7.34 4.24v2.83l-4.65-2.69zm12.3 8.01l-1 10-3.7-2.14-1.91-20.9 2.62 1.51 1.44 16.45L84.21 39l2.6 1.5L88.16 57l1.39-14.92 2.35 1.35L90 62.12l-3.57-2.06zm11.44-2.87a8 8 0 0 1 4 7.27V54l-2.58-1.51v-.82a2.83 2.83 0 0 0-1.3-2.73c-.85-.49-1.35-.24-1.35 1.17 0 4.08 5.27 7.88 5.27 13.54 0 3.17-1.37 4.19-4 2.66a8 8 0 0 1-4-7.3V57.8l2.54 1.47v1.41a2.85 2.85 0 0 0 1.4 2.73c.86.49 1.4.3 1.4-1.12 0-4.07-5.27-7.88-5.27-13.53-.08-3.17 1.27-4.2 3.89-2.69z"/></g></g></g></svg>