<svg xmlns="http://www.w3.org/2000/svg" viewBox="0 0 225.31 153.63"><defs><style>.cls-1{fill:none}.cls-2{isolation:isolate}.cls-3{mix-blend-mode:multiply}.cls-4{fill:#fff;opacity:0}.cls-5{fill:#fcfcfc}.cls-41,.cls-5{opacity:.03}.cls-6{fill:#f9f9f9}.cls-42,.cls-6{opacity:.06}.cls-7{fill:#f5f5f5}.cls-43,.cls-7{opacity:.09}.cls-8{fill:#f2f2f2}.cls-44,.cls-8{opacity:.12}.cls-9{fill:#efefef}.cls-45,.cls-9{opacity:.15}.cls-10{fill:#ececec}.cls-10,.cls-46{opacity:.18}.cls-11{fill:#e8e8e8}.cls-11,.cls-47{opacity:.21}.cls-12{fill:#e5e5e5}.cls-12,.cls-48{opacity:.24}.cls-13{fill:#e2e2e2}.cls-13,.cls-49{opacity:.27}.cls-14{fill:#dfdfdf}.cls-14,.cls-50{opacity:.3}.cls-15{fill:#dbdbdb}.cls-15,.cls-51{opacity:.33}.cls-16{fill:#d8d8d8}.cls-16,.cls-52{opacity:.36}.cls-17{fill:#d5d5d5}.cls-17,.cls-53{opacity:.39}.cls-18{fill:#d2d2d2}.cls-18,.cls-54{opacity:.42}.cls-19{fill:#cecece}.cls-19,.cls-55{opacity:.45}.cls-20{fill:#cbcbcb}.cls-20,.cls-56{opacity:.48}.cls-21{fill:#c8c8c8}.cls-21,.cls-57{opacity:.52}.cls-22{fill:#c5c5c5}.cls-22,.cls-58{opacity:.55}.cls-23{fill:#c1c1c1}.cls-23,.cls-59{opacity:.58}.cls-24{fill:#bebebe}.cls-24,.cls-60{opacity:.61}.cls-25{fill:#bbb}.cls-25,.cls-61{opacity:.64}.cls-26{fill:#b8b8b8}.cls-26,.cls-62{opacity:.67}.cls-27{fill:#b4b4b4}.cls-27,.cls-63{opacity:.7}.cls-28{fill:#b1b1b1}.cls-28,.cls-64{opacity:.73}.cls-29{fill:#aeaeae}.cls-29,.cls-65{opacity:.76}.cls-30{fill:#ababab}.cls-30,.cls-66{opacity:.79}.cls-31{fill:#a7a7a7}.cls-31,.cls-67{opacity:.82}.cls-32{fill:#a4a4a4}.cls-32,.cls-68{opacity:.85}.cls-33{fill:#a1a1a1}.cls-33,.cls-69{opacity:.88}.cls-34{fill:#9e9e9e}.cls-34,.cls-70{opacity:.91}.cls-35{fill:#9a9a9a}.cls-35,.cls-71{opacity:.94}.cls-36{fill:#979797}.cls-36,.cls-72{opacity:.97}.cls-37{fill:#949494}.cls-38{fill:url(#linear-gradient)}.cls-39{fill:#ef5619}.cls-40{clip-path:url(#clip-path)}.cls-41{fill:#fefaf7}.cls-42{fill:#fdf5f0}.cls-43{fill:#fcf0e8}.cls-44{fill:#fbebe0}.cls-45{fill:#fae6d8}.cls-46{fill:#f9e1d1}.cls-47{fill:#f8dcc9}.cls-48{fill:#f7d7c1}.cls-49{fill:#f7d2b9}.cls-50{fill:#f6cdb2}.cls-51{fill:#f5c8aa}.cls-52{fill:#f4c3a2}.cls-53{fill:#f3be9b}.cls-54{fill:#f2b993}.cls-55{fill:#f1b48b}.cls-56{fill:#f0af83}.cls-57{fill:#efab7c}.cls-58{fill:#eea674}.cls-59{fill:#eda16c}.cls-60{fill:#ec9c64}.cls-61{fill:#eb975d}.cls-62{fill:#ea9255}.cls-63{fill:#e98d4d}.cls-64{fill:#e88846}.cls-65{fill:#e8833e}.cls-66{fill:#e77e36}.cls-67{fill:#e6792e}.cls-68{fill:#e57427}.cls-69{fill:#e46f1f}.cls-70{fill:#e36a17}.cls-71{fill:#e2650f}.cls-72{fill:#e16008}.cls-73{fill:#e05b00}.cls-74{fill:url(#linear-gradient-2)}.cls-75{fill:#262626}.cls-76{fill:#ffdb32}.cls-77{fill:#a6a6a6;mix-blend-mode:color-burn}.cls-78{fill:url(#linear-gradient-3)}</style><linearGradient id="linear-gradient" y1="119.67" x2="176.4" y2="119.67" gradientUnits="userSpaceOnUse"><stop offset="0" stop-color="#ff682b"/><stop offset=".07" stop-color="#ff6b2e"/><stop offset=".3" stop-color="#ff6d31"/><stop offset=".55" stop-color="#f65d21"/><stop offset=".74" stop-color="#f3571b"/><stop offset="1" stop-color="#c93000"/></linearGradient><clipPath id="clip-path"><path class="cls-1" d="M147.21 51.64c-38.92-22.47-79.09-22.47-118 0C9.73 62.88 0 74.29 0 85.71s9.73 22.83 29.19 34.07c38.93 22.47 79.1 22.47 118 0 19.46-11.24 29.19-22.65 29.19-34.07s-9.71-22.83-29.17-34.07z"/></clipPath><linearGradient id="linear-gradient-2" x1="76.55" y1="6.45" x2="127.26" y2="94.28" gradientTransform="translate(.35 -.49)" gradientUnits="userSpaceOnUse"><stop offset="0" stop-color="#ffed44"/><stop offset=".07" stop-color="#fff047"/><stop offset=".3" stop-color="#fff24a"/><stop offset=".48" stop-color="#ffdf37"/><stop offset=".5" stop-color="#ffdc34"/><stop offset="1" stop-color="#f9b519"/></linearGradient><linearGradient id="linear-gradient-3" x1="62.28" y1="2.95" x2="67.36" y2="11.76" gradientTransform="translate(.35 -.49)" gradientUnits="userSpaceOnUse"><stop offset="0" stop-color="#383838"/><stop offset=".06" stop-color="#2e2e2e"/><stop offset=".23" stop-color="#1a1a1a"/><stop offset=".42" stop-color="#0b0b0b"/><stop offset=".64" stop-color="#030303"/><stop offset="1"/></linearGradient></defs><title>Asset 12</title><g class="cls-2"><g id="Layer_2" data-name="Layer 2"><g id="Layer_1-2" data-name="Layer 1"><g class="cls-3"><path class="cls-4" d="M196.12 68.64c-38.92-22.47-79.09-22.47-118 0-19.48 11.24-29.21 22.65-29.21 34.07s9.73 22.83 29.19 34.07c38.93 22.47 79.1 22.47 118 0 19.46-11.24 29.19-22.65 29.19-34.07s-9.71-22.83-29.17-34.07z"/><path class="cls-5" d="M194.64 68.64c-38.93-22.47-79.1-22.47-118 0-19.48 11.24-29.21 22.65-29.21 34.07s9.73 22.83 29.19 34.07c38.92 22.47 79.09 22.47 118 0 19.46-11.24 29.19-22.65 29.19-34.07s-9.71-22.83-29.17-34.07z"/><path class="cls-6" d="M193.16 68.64c-38.93-22.47-79.1-22.47-118 0-19.46 11.24-29.2 22.65-29.2 34.07s9.74 22.83 29.2 34.07c38.92 22.47 79.09 22.47 118 0 19.46-11.24 29.19-22.65 29.19-34.07s-9.73-22.83-29.19-34.07z"/><path class="cls-7" d="M191.67 68.64c-38.92-22.47-79.09-22.47-118 0-19.47 11.24-29.2 22.65-29.2 34.07s9.73 22.83 29.2 34.07c38.92 22.47 79.09 22.47 118 0 19.47-11.24 29.2-22.65 29.2-34.07s-9.73-22.83-29.2-34.07z"/><path class="cls-8" d="M190.19 68.64c-38.92-22.47-79.09-22.47-118 0C52.71 79.88 43 91.29 43 102.71s9.73 22.83 29.19 34.07c38.93 22.47 79.1 22.47 118 0 19.46-11.24 29.2-22.65 29.2-34.07s-9.74-22.83-29.2-34.07z"/><path class="cls-9" d="M188.71 68.64c-38.92-22.47-79.09-22.47-118 0C51.23 79.88 41.5 91.29 41.5 102.71s9.73 22.83 29.19 34.07c38.93 22.47 79.1 22.47 118 0 19.46-11.24 29.19-22.65 29.19-34.07s-9.71-22.83-29.17-34.07z"/><path class="cls-10" d="M187.23 68.64c-38.93-22.47-79.1-22.47-118 0C49.75 79.88 40 91.29 40 102.71s9.73 22.83 29.19 34.07c38.92 22.47 79.09 22.47 118 0 19.46-11.24 29.19-22.65 29.19-34.07s-9.69-22.83-29.15-34.07z"/><path class="cls-11" d="M185.75 68.64c-38.93-22.47-79.1-22.47-118 0-19.46 11.24-29.2 22.65-29.2 34.07s9.74 22.83 29.2 34.07c38.92 22.47 79.09 22.47 118 0 19.46-11.24 29.19-22.65 29.19-34.07s-9.73-22.83-29.19-34.07z"/><path class="cls-12" d="M184.26 68.64c-38.92-22.47-79.09-22.47-118 0-19.47 11.24-29.2 22.65-29.2 34.07s9.73 22.83 29.2 34.07c38.92 22.47 79.09 22.47 118 0 19.47-11.24 29.2-22.65 29.2-34.07s-9.73-22.83-29.2-34.07z"/><path class="cls-13" d="M182.78 68.64c-38.92-22.47-79.09-22.47-118 0-19.48 11.24-29.21 22.65-29.21 34.07s9.73 22.83 29.19 34.07c38.93 22.47 79.1 22.47 118 0 19.48-11.24 29.24-22.65 29.24-34.07s-9.76-22.83-29.22-34.07z"/><path class="cls-14" d="M181.3 68.64c-38.92-22.47-79.09-22.47-118 0-19.48 11.24-29.21 22.65-29.21 34.07s9.73 22.83 29.19 34.07c38.93 22.47 79.1 22.47 118 0 19.46-11.24 29.19-22.65 29.19-34.07s-9.71-22.83-29.17-34.07z"/><path class="cls-15" d="M179.82 68.64c-38.93-22.47-79.1-22.47-118 0-19.48 11.24-29.21 22.65-29.21 34.07s9.73 22.83 29.19 34.07c38.92 22.47 79.09 22.47 118 0 19.48-11.24 29.2-22.65 29.2-34.07s-9.72-22.83-29.18-34.07z"/><path class="cls-16" d="M178.34 68.64c-38.93-22.47-79.1-22.47-118 0-19.47 11.24-29.2 22.65-29.2 34.07s9.73 22.83 29.2 34.07c38.92 22.47 79.09 22.47 118 0 19.46-11.24 29.19-22.65 29.19-34.07s-9.73-22.83-29.19-34.07z"/><path class="cls-17" d="M176.85 68.64c-38.92-22.47-79.09-22.47-118 0-19.48 11.24-29.21 22.65-29.21 34.07s9.73 22.83 29.2 34.07c38.92 22.47 79.09 22.47 118 0 19.47-11.24 29.2-22.65 29.2-34.07s-9.72-22.83-29.19-34.07z"/><path class="cls-18" d="M175.37 68.64c-38.92-22.47-79.09-22.47-118 0-19.48 11.24-29.21 22.65-29.21 34.07s9.73 22.83 29.19 34.07c38.93 22.47 79.1 22.47 118 0 19.46-11.24 29.19-22.65 29.19-34.07s-9.71-22.83-29.17-34.07z"/><path class="cls-19" d="M173.89 68.64c-38.93-22.47-79.1-22.47-118 0-19.48 11.24-29.21 22.65-29.21 34.07s9.73 22.83 29.19 34.07c38.93 22.47 79.1 22.47 118 0 19.46-11.24 29.19-22.65 29.19-34.07s-9.71-22.83-29.17-34.07z"/><path class="cls-20" d="M172.41 68.64c-38.93-22.47-79.1-22.47-118 0C34.93 79.88 25.2 91.29 25.2 102.71s9.73 22.83 29.19 34.07c38.92 22.47 79.09 22.47 118 0 19.46-11.24 29.19-22.65 29.19-34.07s-9.71-22.83-29.17-34.07z"/><path class="cls-21" d="M170.93 68.64c-38.93-22.47-79.1-22.47-118 0-19.47 11.24-29.2 22.65-29.2 34.07s9.73 22.83 29.2 34.07c38.92 22.47 79.09 22.47 118 0 19.46-11.24 29.19-22.65 29.19-34.07s-9.73-22.83-29.19-34.07z"/><path class="cls-22" d="M169.44 68.64c-38.92-22.47-79.09-22.47-118 0C32 79.88 22.23 91.29 22.23 102.71s9.77 22.83 29.19 34.07c38.93 22.47 79.1 22.47 118 0 19.47-11.24 29.2-22.65 29.2-34.07s-9.72-22.83-29.18-34.07z"/><path class="cls-23" d="M168 68.64c-38.92-22.47-79.09-22.47-118 0-19.52 11.24-29.25 22.65-29.25 34.07s9.73 22.83 29.19 34.07c38.93 22.47 79.1 22.47 118 0 19.46-11.24 29.19-22.65 29.19-34.07S187.42 79.88 168 68.64z"/><path class="cls-24" d="M166.48 68.64c-38.93-22.47-79.1-22.47-118 0C29 79.88 19.27 91.29 19.27 102.71s9.73 22.83 29.19 34.07c38.92 22.47 79.09 22.47 118 0 19.46-11.24 29.19-22.65 29.19-34.07s-9.71-22.83-29.17-34.07z"/><path class="cls-25" d="M165 68.64c-38.93-22.47-79.1-22.47-118 0-19.46 11.24-29.2 22.65-29.2 34.07s9.74 22.83 29.2 34.07c38.92 22.47 79.09 22.47 118 0 19.46-11.24 29.19-22.65 29.19-34.07S184.46 79.88 165 68.64z"/><path class="cls-26" d="M163.51 68.64c-38.92-22.47-79.09-22.47-118 0C26 79.88 16.3 91.29 16.3 102.71s9.7 22.83 29.2 34.07c38.92 22.47 79.09 22.47 118 0 19.47-11.24 29.2-22.65 29.2-34.07s-9.7-22.83-29.19-34.07z"/><path class="cls-27" d="M162 68.64c-38.92-22.47-79.09-22.47-118 0-19.45 11.24-29.18 22.65-29.18 34.07s9.73 22.83 29.18 34.07c38.93 22.47 79.1 22.47 118 0 19.46-11.24 29.2-22.65 29.2-34.07s-9.71-22.83-29.2-34.07z"/><path class="cls-28" d="M160.55 68.64c-38.92-22.47-79.09-22.47-118 0-19.48 11.24-29.21 22.65-29.21 34.07s9.73 22.83 29.19 34.07c38.93 22.47 79.1 22.47 118 0 19.46-11.24 29.19-22.65 29.19-34.07S180 79.88 160.55 68.64z"/><path class="cls-29" d="M159.07 68.64c-38.93-22.47-79.1-22.47-118 0-19.48 11.24-29.21 22.65-29.21 34.07s9.73 22.83 29.19 34.07c38.92 22.47 79.09 22.47 118 0 19.46-11.24 29.19-22.65 29.19-34.07s-9.71-22.83-29.17-34.07z"/><path class="cls-30" d="M157.59 68.64c-38.93-22.47-79.1-22.47-118 0-19.46 11.24-29.2 22.65-29.2 34.07s9.74 22.83 29.2 34.07c38.92 22.47 79.09 22.47 118 0 19.46-11.24 29.19-22.65 29.19-34.07s-9.73-22.83-29.19-34.07z"/><path class="cls-31" d="M156.1 68.64c-38.92-22.47-79.09-22.47-118 0C18.62 79.88 8.89 91.29 8.89 102.71s9.73 22.83 29.2 34.07c38.92 22.47 79.09 22.47 118 0 19.47-11.24 29.2-22.65 29.2-34.07s-9.72-22.83-29.19-34.07z"/><path class="cls-32" d="M154.62 68.64c-38.92-22.47-79.09-22.47-118 0C17.14 79.88 7.41 91.29 7.41 102.71s9.73 22.83 29.19 34.07c38.93 22.47 79.1 22.47 118 0 19.46-11.24 29.2-22.65 29.2-34.07s-9.72-22.83-29.18-34.07z"/><path class="cls-33" d="M153.14 68.64c-38.92-22.47-79.09-22.47-118 0C15.66 79.88 5.93 91.29 5.93 102.71s9.73 22.83 29.19 34.07c38.93 22.47 79.1 22.47 118 0 19.46-11.24 29.19-22.65 29.19-34.07s-9.71-22.83-29.17-34.07z"/><path class="cls-34" d="M151.66 68.64c-38.93-22.47-79.1-22.47-118 0C14.18 79.88 4.45 91.29 4.45 102.71s9.73 22.83 29.19 34.07c38.92 22.47 79.09 22.47 118 0 19.46-11.24 29.19-22.65 29.19-34.07s-9.71-22.83-29.17-34.07z"/><path class="cls-35" d="M150.18 68.64c-38.93-22.47-79.1-22.47-118 0C12.7 79.88 3 91.29 3 102.71s9.74 22.83 29.2 34.07c38.92 22.47 79.09 22.47 118 0 19.46-11.24 29.19-22.65 29.19-34.07s-9.75-22.83-29.21-34.07z"/><path class="cls-36" d="M148.69 68.64c-38.92-22.47-79.09-22.47-118 0C11.21 79.88 1.48 91.29 1.48 102.71s9.73 22.83 29.2 34.07c38.92 22.47 79.09 22.47 118 0 19.47-11.24 29.2-22.65 29.2-34.07s-9.72-22.83-29.19-34.07z"/><path class="cls-37" d="M147.21 68.64c-38.92-22.47-79.09-22.47-118 0C9.73 79.88 0 91.29 0 102.71s9.73 22.83 29.19 34.07c38.93 22.47 79.1 22.47 118 0 19.46-11.24 29.19-22.65 29.19-34.07s-9.71-22.83-29.17-34.07z"/></g><path class="cls-38" d="M147.21 119.78c-38.92 22.47-79.09 22.47-118 0C9.73 108.54 0 97.13 0 85.71v17c0 11.42 9.73 22.83 29.19 34.07 38.93 22.47 79.1 22.47 118 0 19.46-11.24 29.19-22.65 29.19-34.07v-17c.02 11.42-9.71 22.83-29.17 34.07z"/><path class="cls-39" d="M147.21 51.64c-38.92-22.47-79.09-22.47-118 0C9.73 62.88 0 74.29 0 85.71s9.73 22.83 29.19 34.07c38.93 22.47 79.1 22.47 118 0 19.46-11.24 29.19-22.65 29.19-34.07s-9.71-22.83-29.17-34.07z"/><g class="cls-40"><g class="cls-3"><path class="cls-4" d="M188.3 26.17L151.79 5.08l-7-4c-2.11-1.22-4-1.33-5.43-.53l-14.08 8.09c-1.39.81-2.25 2.52-2.25 5v53.54a17 17 0 0 0 7.68 13.3l7 4 36.51 21.08c2.11 1.21 4 1.32 5.39.53a3.9 3.9 0 0 0 .69-.52 3.9 3.9 0 0 1-.69.52L193.69 98c1.32-.76 2.16-2.35 2.25-4.58V39.46a17 17 0 0 0-7.64-13.29z"/><path class="cls-41" d="M186.08 26.17L149.56 5.08l-7-4c-2.11-1.22-4-1.33-5.42-.53l-14.08 8.09c-1.39.81-2.25 2.52-2.25 5v53.54a17 17 0 0 0 7.67 13.3l7 4L172 105.6c2.1 1.21 4 1.32 5.39.53a3.9 3.9 0 0 0 .69-.52 3.9 3.9 0 0 1-.69.52L191.47 98c1.31-.76 2.16-2.35 2.25-4.58V39.46a17 17 0 0 0-7.64-13.29z"/><path class="cls-42" d="M183.86 26.17L147.34 5.08l-7-4c-2.11-1.22-4-1.33-5.42-.53l-14.08 8.09c-1.39.81-2.26 2.52-2.26 5v53.54a17 17 0 0 0 7.68 13.3l7 4 36.52 21.08c2.1 1.21 4 1.32 5.39.53a4.23 4.23 0 0 0 .68-.52 4.23 4.23 0 0 1-.68.52L189.25 98c1.31-.76 2.16-2.35 2.25-4.58V39.46a17 17 0 0 0-7.64-13.29z"/><path class="cls-43" d="M181.64 26.17L145.12 5.08l-7-4c-2.11-1.22-4-1.33-5.42-.53l-14.09 8.09c-1.39.81-2.25 2.52-2.25 5v53.54a17 17 0 0 0 7.64 13.3l7 4 36.51 21.08c2.11 1.21 4 1.32 5.39.53a3.9 3.9 0 0 0 .69-.52 3.9 3.9 0 0 1-.69.52L187 98c1.32-.76 2.16-2.35 2.25-4.58V39.46a17 17 0 0 0-7.61-13.29z"/><path class="cls-44" d="M179.41 26.17L142.89 5.08l-7-4c-2.12-1.22-4-1.33-5.43-.53l-14.07 8.09c-1.39.81-2.25 2.52-2.25 5v53.54a17 17 0 0 0 7.67 13.3l7 4 36.52 21.08c2.1 1.21 4 1.32 5.39.53a3.9 3.9 0 0 0 .69-.52 3.9 3.9 0 0 1-.69.52L184.8 98c1.32-.76 2.16-2.35 2.25-4.58V39.46a17 17 0 0 0-7.64-13.29z"/><path class="cls-45" d="M177.19 26.17L140.67 5.08l-7-4c-2.11-1.22-4-1.33-5.42-.53l-14.08 8.09c-1.39.81-2.26 2.52-2.26 5v53.54a17 17 0 0 0 7.68 13.3l7 4 36.52 21.08c2.1 1.21 4 1.32 5.39.53a4.23 4.23 0 0 0 .68-.52 4.23 4.23 0 0 1-.68.52L182.58 98c1.31-.76 2.16-2.35 2.25-4.58V39.46a17 17 0 0 0-7.64-13.29z"/><path class="cls-46" d="M175 26.17L138.45 5.08l-7-4c-2.11-1.22-4-1.33-5.42-.53L112 8.64c-1.4.81-2.26 2.52-2.26 5v53.54a17 17 0 0 0 7.68 13.3l7 4 36.52 21.08c2.1 1.21 4 1.32 5.38.53a3.9 3.9 0 0 0 .69-.52 3.9 3.9 0 0 1-.69.52L180.35 98c1.32-.76 2.16-2.35 2.25-4.58V39.46a17 17 0 0 0-7.6-13.29z"/><path class="cls-47" d="M172.74 26.17L136.22 5.08l-7-4c-2.12-1.22-4-1.33-5.43-.53l-14.07 8.09c-1.39.81-2.25 2.52-2.25 5v53.54a17 17 0 0 0 7.68 13.3l7 4 36.52 21.08c2.1 1.21 4 1.32 5.39.53a3.9 3.9 0 0 0 .69-.52 3.9 3.9 0 0 1-.69.52L178.13 98c1.32-.76 2.16-2.35 2.25-4.58V39.46a17 17 0 0 0-7.64-13.29z"/><path class="cls-48" d="M170.52 26.17L134 5.08l-7-4c-2.11-1.22-4-1.33-5.42-.53L107.5 8.64c-1.39.81-2.26 2.52-2.26 5v53.54a17 17 0 0 0 7.68 13.3l7 4 36.52 21.08c2.1 1.21 4 1.32 5.39.53a4.8 4.8 0 0 0 .69-.52 4.8 4.8 0 0 1-.69.52L175.91 98c1.31-.76 2.16-2.35 2.25-4.58V39.46a17 17 0 0 0-7.64-13.29z"/><path class="cls-49" d="M168.3 26.17L131.78 5.08l-7-4c-2.11-1.22-4-1.33-5.42-.53l-14.08 8.09c-1.4.81-2.26 2.52-2.26 5v53.54a17 17 0 0 0 7.68 13.3l7 4 36.52 21.08c2.1 1.21 4 1.32 5.38.53a3.9 3.9 0 0 0 .69-.52 3.9 3.9 0 0 1-.69.52L173.68 98c1.32-.76 2.16-2.35 2.25-4.58V39.46a17 17 0 0 0-7.63-13.29z"/><path class="cls-50" d="M166.07 26.17L129.56 5.08l-7-4c-2.12-1.22-4-1.33-5.43-.53l-14.08 8.09c-1.39.81-2.25 2.52-2.25 5v53.54a17 17 0 0 0 7.68 13.3l7 4L152 105.6c2.1 1.21 4 1.32 5.39.53a3.9 3.9 0 0 0 .69-.52 3.9 3.9 0 0 1-.69.52L171.46 98c1.32-.76 2.16-2.35 2.25-4.58V39.46a17 17 0 0 0-7.64-13.29z"/><path class="cls-51" d="M163.85 26.17L127.33 5.08l-7-4c-2.11-1.22-4-1.33-5.42-.53l-14.08 8.09c-1.39.81-2.25 2.52-2.25 5v53.54a17 17 0 0 0 7.67 13.3l7 4 36.52 21.08c2.1 1.21 4 1.32 5.39.53a4.8 4.8 0 0 0 .69-.52 4.8 4.8 0 0 1-.69.52L169.24 98c1.31-.76 2.16-2.35 2.25-4.58V39.46a17 17 0 0 0-7.64-13.29z"/><path class="cls-52" d="M161.63 26.17L125.11 5.08l-7-4c-2.11-1.22-4-1.33-5.42-.53L98.61 8.64c-1.39.81-2.26 2.52-2.26 5v53.54a17 17 0 0 0 7.65 13.3l7 4 36.52 21.08c2.1 1.21 4 1.32 5.38.53a3.9 3.9 0 0 0 .69-.52 3.9 3.9 0 0 1-.69.52L167 98c1.32-.76 2.16-2.35 2.26-4.58V39.46a17 17 0 0 0-7.63-13.29z"/><path class="cls-53" d="M159.4 26.17L122.89 5.08l-7-4c-2.12-1.22-4-1.33-5.43-.53L96.38 8.64c-1.39.81-2.25 2.52-2.25 5v53.54a17 17 0 0 0 7.68 13.3l7 4 36.51 21.08c2.1 1.21 4 1.32 5.39.53a3.9 3.9 0 0 0 .69-.52 3.9 3.9 0 0 1-.69.52L164.79 98c1.32-.76 2.16-2.35 2.25-4.58V39.46a17 17 0 0 0-7.64-13.29z"/><path class="cls-54" d="M157.18 26.17L120.66 5.08l-7-4c-2.11-1.22-4-1.33-5.42-.53L94.16 8.64c-1.39.81-2.25 2.52-2.25 5v53.54a17 17 0 0 0 7.67 13.3l7 4 36.52 21.12c2.1 1.21 4 1.32 5.39.53a4.8 4.8 0 0 0 .69-.52 4.8 4.8 0 0 1-.69.52L162.57 98c1.31-.76 2.16-2.35 2.25-4.58V39.46a17 17 0 0 0-7.64-13.29z"/><path class="cls-55" d="M155 26.17L118.44 5.08l-7-4c-2.11-1.22-4-1.33-5.42-.53L91.94 8.64c-1.39.81-2.26 2.52-2.26 5v53.54a17 17 0 0 0 7.68 13.3l7 4 36.52 21.08c2.1 1.21 4 1.32 5.38.53a3.9 3.9 0 0 0 .69-.52 3.9 3.9 0 0 1-.69.52L160.35 98c1.31-.76 2.15-2.35 2.25-4.58V39.46a17 17 0 0 0-7.6-13.29z"/><path class="cls-56" d="M152.73 26.17L116.22 5.08l-7-4c-2.12-1.22-4-1.33-5.43-.53L89.71 8.64c-1.39.81-2.25 2.52-2.25 5v53.54a17 17 0 0 0 7.68 13.3l7 4 36.51 21.08c2.11 1.21 4 1.32 5.39.53a3.9 3.9 0 0 0 .69-.52 3.9 3.9 0 0 1-.69.52L158.12 98c1.32-.76 2.16-2.35 2.25-4.58V39.46a17 17 0 0 0-7.64-13.29z"/><path class="cls-57" d="M150.51 26.17L114 5.08l-7-4c-2.11-1.22-4-1.33-5.42-.53L87.49 8.64c-1.39.81-2.25 2.52-2.25 5v53.54a17 17 0 0 0 7.67 13.3l7 4 36.52 21.08c2.1 1.21 4 1.32 5.39.53a3.9 3.9 0 0 0 .69-.52 3.9 3.9 0 0 1-.69.52L155.9 98c1.31-.76 2.16-2.35 2.25-4.58V39.46a17 17 0 0 0-7.64-13.29z"/><path class="cls-58" d="M148.29 26.17L111.77 5.08l-7-4c-2.11-1.22-4-1.33-5.42-.53L85.27 8.64c-1.39.81-2.26 2.52-2.26 5v53.54a17 17 0 0 0 7.68 13.3l7 4 36.52 21.08c2.1 1.21 4 1.32 5.39.53a4.23 4.23 0 0 0 .68-.52 4.23 4.23 0 0 1-.68.52L153.68 98c1.31-.76 2.16-2.35 2.25-4.58V39.46a17 17 0 0 0-7.64-13.29z"/><path class="cls-59" d="M146.07 26.17L109.55 5.08l-7-4c-2.11-1.22-4-1.33-5.42-.53L83 8.64c-1.39.81-2.25 2.52-2.25 5v53.54a17 17 0 0 0 7.68 13.3l7 4L132 105.6c2.11 1.21 4 1.32 5.39.53a3.9 3.9 0 0 0 .69-.52 3.9 3.9 0 0 1-.69.52L151.45 98c1.32-.76 2.16-2.35 2.25-4.58V39.46a17 17 0 0 0-7.63-13.29z"/><path class="cls-60" d="M143.84 26.17L107.32 5.08l-7-4c-2.12-1.22-4-1.33-5.43-.53L80.82 8.64c-1.39.81-2.25 2.52-2.25 5v53.54a17 17 0 0 0 7.67 13.3l7 4 36.52 21.08c2.1 1.21 4 1.32 5.39.53a3.9 3.9 0 0 0 .69-.52 3.9 3.9 0 0 1-.69.52L149.23 98c1.32-.76 2.16-2.35 2.25-4.58V39.46a17 17 0 0 0-7.64-13.29z"/><path class="cls-61" d="M141.62 26.17L105.1 5.08l-7-4C96-.18 94.07-.29 92.68.51L78.6 8.64c-1.39.81-2.26 2.52-2.26 5v53.54A17 17 0 0 0 84 80.48l7 4 36.52 21.08c2.1 1.21 4 1.32 5.39.53a4.23 4.23 0 0 0 .68-.52 4.23 4.23 0 0 1-.68.52L147 98c1.31-.76 2.16-2.35 2.25-4.58V39.46a17 17 0 0 0-7.63-13.29z"/><path class="cls-62" d="M139.4 26.17L102.88 5.08l-7-4c-2.11-1.22-4-1.33-5.42-.53L76.38 8.64c-1.4.81-2.26 2.52-2.26 5v53.54a17 17 0 0 0 7.68 13.3l7 4 36.52 21.08c2.1 1.21 4 1.32 5.38.53a3.9 3.9 0 0 0 .69-.52 3.9 3.9 0 0 1-.69.52L144.78 98c1.32-.76 2.16-2.35 2.25-4.58V39.46a17 17 0 0 0-7.63-13.29z"/><path class="cls-63" d="M137.17 26.17L100.65 5.08l-7-4c-2.12-1.22-4-1.33-5.43-.53L74.15 8.64c-1.39.81-2.25 2.52-2.25 5v53.54a17 17 0 0 0 7.68 13.3l7 4 36.52 21.08c2.1 1.21 4 1.32 5.39.53a3.9 3.9 0 0 0 .69-.52 3.9 3.9 0 0 1-.69.52L142.56 98c1.32-.76 2.16-2.35 2.25-4.58V39.46a17 17 0 0 0-7.64-13.29z"/><path class="cls-64" d="M135 26.17L98.43 5.08l-7-4C89.32-.18 87.4-.29 86 .51L71.93 8.64c-1.39.81-2.26 2.52-2.26 5v53.54a17 17 0 0 0 7.68 13.3l7 4 36.52 21.08c2.1 1.21 4 1.32 5.39.53a4.8 4.8 0 0 0 .69-.52 4.8 4.8 0 0 1-.69.52L140.34 98c1.31-.76 2.16-2.35 2.25-4.58V39.46A17 17 0 0 0 135 26.17z"/><path class="cls-65" d="M132.73 26.17L96.21 5.08l-7-4c-2.11-1.22-4-1.33-5.42-.53L69.71 8.64c-1.4.81-2.26 2.52-2.26 5v53.54a17 17 0 0 0 7.68 13.3l7 4 36.52 21.08c2.1 1.21 4 1.32 5.38.53a3.9 3.9 0 0 0 .69-.52 3.9 3.9 0 0 1-.69.52L138.11 98c1.32-.76 2.16-2.35 2.25-4.58V39.46a17 17 0 0 0-7.63-13.29z"/><path class="cls-66" d="M130.5 26.17L94 5.08 87 1C84.87-.18 83-.29 81.56.51L67.48 8.64c-1.39.81-2.25 2.52-2.25 5v53.54a17 17 0 0 0 7.68 13.3l7 4 36.52 21.08c2.1 1.21 4 1.32 5.39.53a3.9 3.9 0 0 0 .69-.52 3.9 3.9 0 0 1-.69.52L135.89 98c1.32-.76 2.16-2.35 2.25-4.58V39.46a17 17 0 0 0-7.64-13.29z"/><path class="cls-67" d="M128.28 26.17L91.76 5.08l-7-4c-2.11-1.22-4-1.33-5.42-.53L65.26 8.64c-1.39.81-2.25 2.52-2.25 5v53.54a17 17 0 0 0 7.67 13.3l7 4 36.52 21.12c2.1 1.21 4 1.32 5.39.53a4.8 4.8 0 0 0 .69-.52 4.8 4.8 0 0 1-.69.52L133.67 98c1.31-.76 2.16-2.35 2.25-4.58V39.46a17 17 0 0 0-7.64-13.29z"/><path class="cls-68" d="M126.06 26.17L89.54 5.08l-7-4c-2.11-1.22-4-1.33-5.42-.53L63 8.64c-1.39.81-2.26 2.52-2.26 5v53.54a17 17 0 0 0 7.68 13.3l7 4L112 105.6c2.1 1.21 4 1.32 5.38.53a3.9 3.9 0 0 0 .69-.52 3.9 3.9 0 0 1-.69.52L131.44 98c1.32-.76 2.16-2.35 2.26-4.58V39.46a17 17 0 0 0-7.64-13.29z"/><path class="cls-69" d="M123.83 26.17L87.32 5.08l-7-4c-2.12-1.22-4-1.33-5.43-.53L60.81 8.64c-1.39.81-2.25 2.52-2.25 5v53.54a17 17 0 0 0 7.68 13.3l7 4 36.51 21.08c2.1 1.21 4 1.32 5.39.53a3.9 3.9 0 0 0 .69-.52 3.9 3.9 0 0 1-.69.52L129.22 98c1.32-.76 2.16-2.35 2.25-4.58V39.46a17 17 0 0 0-7.64-13.29z"/><path class="cls-70" d="M121.61 26.17L85.09 5.08l-7-4C76-.18 74.06-.29 72.67.51L58.59 8.64c-1.39.81-2.25 2.52-2.25 5v53.54A17 17 0 0 0 64 80.48l7 4 36.52 21.08c2.1 1.21 4 1.32 5.39.53a4.8 4.8 0 0 0 .69-.52 4.8 4.8 0 0 1-.69.52L127 98c1.31-.76 2.16-2.35 2.25-4.58V39.46a17 17 0 0 0-7.64-13.29z"/><path class="cls-71" d="M119.39 26.17L82.87 5.08l-7-4c-2.11-1.22-4-1.33-5.42-.53L56.37 8.64c-1.39.81-2.26 2.52-2.26 5v53.54a17 17 0 0 0 7.68 13.3l7 4 36.52 21.08c2.1 1.21 4 1.32 5.38.53a3.9 3.9 0 0 0 .69-.52 3.9 3.9 0 0 1-.69.52L124.78 98c1.31-.76 2.15-2.35 2.25-4.58V39.46a17 17 0 0 0-7.64-13.29z"/><path class="cls-72" d="M117.16 26.17L80.65 5.08l-7-4c-2.12-1.22-4-1.33-5.43-.53L54.14 8.64c-1.39.81-2.25 2.52-2.25 5v53.54a17 17 0 0 0 7.68 13.3l7 4 36.51 21.08c2.11 1.21 4 1.32 5.39.53a3.9 3.9 0 0 0 .69-.52 3.9 3.9 0 0 1-.69.52L122.55 98c1.32-.76 2.16-2.35 2.25-4.58V39.46a17 17 0 0 0-7.64-13.29z"/><path class="cls-73" d="M114.94 26.17L78.42 5.08l-7-4C69.31-.18 67.39-.29 66 .51L51.92 8.64c-1.39.81-2.25 2.52-2.25 5v53.54a17 17 0 0 0 7.67 13.3l7 4 36.52 21.08c2.1 1.21 4 1.32 5.39.53a3.9 3.9 0 0 0 .69-.52 3.9 3.9 0 0 1-.69.52L120.33 98c1.31-.76 2.16-2.35 2.25-4.58V39.46a17 17 0 0 0-7.64-13.29z"/></g></g><path class="cls-74" d="M114.94 26.17L78.42 5.08l-14.08 8.13 36.52 21.09a17 17 0 0 1 7.67 13.29v53.96c-.09 2.23-.94 3.82-2.25 4.58L120.33 98c1.31-.76 2.16-2.35 2.25-4.58V39.46a17 17 0 0 0-7.64-13.29z"/><path class="cls-75" d="M57.34 9.17c-2.11-1.22-4-1.33-5.42-.53s-2.25 2.52-2.25 5v53.54a17 17 0 0 0 7.67 13.3l7 4V13.21z"/><path class="cls-76" d="M108.53 83.61v-36a17 17 0 0 0-7.67-13.29L64.34 13.21v71.31l36.52 21.08c2.1 1.21 4 1.32 5.39.53s2.16-2.35 2.25-4.58v-.38z"/><path class="cls-77" d="M99.64 73.62l-26.4-15.24V36.73l26.4 15.25v21.64z"/><path class="cls-78" d="M71.42 1C69.31-.18 67.39-.29 66 .51L51.92 8.64c1.39-.8 3.31-.69 5.42.53l7 4 14.08-8.09z"/></g></g></g></svg>