<svg xmlns="http://www.w3.org/2000/svg" xmlns:xlink="http://www.w3.org/1999/xlink" viewBox="0 0 225.31 152.67"><defs><style>.cls-1{fill:none}.cls-2{isolation:isolate}.cls-3{mix-blend-mode:multiply}.cls-4{fill:#fff;opacity:0}.cls-5{fill:#fcfcfc}.cls-41,.cls-5{opacity:.03}.cls-6{fill:#f9f9f9}.cls-42,.cls-6{opacity:.06}.cls-7{fill:#f5f5f5}.cls-43,.cls-7{opacity:.09}.cls-8{fill:#f2f2f2}.cls-44,.cls-8{opacity:.12}.cls-9{fill:#efefef}.cls-45,.cls-9{opacity:.15}.cls-10{fill:#ececec}.cls-10,.cls-46{opacity:.18}.cls-11{fill:#e8e8e8}.cls-11,.cls-47{opacity:.21}.cls-12{fill:#e5e5e5}.cls-12,.cls-48{opacity:.24}.cls-13{fill:#e2e2e2}.cls-13,.cls-49{opacity:.27}.cls-14{fill:#dfdfdf}.cls-14,.cls-50{opacity:.3}.cls-15{fill:#dbdbdb}.cls-15,.cls-51{opacity:.33}.cls-16{fill:#d8d8d8}.cls-16,.cls-52{opacity:.36}.cls-17{fill:#d5d5d5}.cls-17,.cls-53{opacity:.39}.cls-18{fill:#d2d2d2}.cls-18,.cls-54{opacity:.42}.cls-19{fill:#cecece}.cls-19,.cls-55{opacity:.45}.cls-20{fill:#cbcbcb}.cls-20,.cls-56{opacity:.48}.cls-21{fill:#c8c8c8}.cls-21,.cls-57{opacity:.52}.cls-22{fill:#c5c5c5}.cls-22,.cls-58{opacity:.55}.cls-23{fill:#c1c1c1}.cls-23,.cls-59{opacity:.58}.cls-24{fill:#bebebe}.cls-24,.cls-60{opacity:.61}.cls-25{fill:#bbb}.cls-25,.cls-61{opacity:.64}.cls-26{fill:#b8b8b8}.cls-26,.cls-62{opacity:.67}.cls-27{fill:#b4b4b4}.cls-27,.cls-63{opacity:.7}.cls-28{fill:#b1b1b1}.cls-28,.cls-64{opacity:.73}.cls-29{fill:#aeaeae}.cls-29,.cls-65{opacity:.76}.cls-30{fill:#ababab}.cls-30,.cls-66{opacity:.79}.cls-31{fill:#a7a7a7}.cls-31,.cls-67{opacity:.82}.cls-32{fill:#a4a4a4}.cls-32,.cls-68{opacity:.85}.cls-33{fill:#a1a1a1}.cls-33,.cls-69{opacity:.88}.cls-34{fill:#9e9e9e}.cls-34,.cls-70{opacity:.91}.cls-35{fill:#9a9a9a}.cls-35,.cls-71{opacity:.94}.cls-36{fill:#979797}.cls-36,.cls-72{opacity:.97}.cls-37{fill:#949494}.cls-38{fill:url(#linear-gradient)}.cls-39{fill:#ffdb32}.cls-40{clip-path:url(#clip-path)}.cls-41{fill:#fefdfb}.cls-42{fill:#fdfaf7}.cls-43{fill:#fdf8f2}.cls-44{fill:#fcf6ee}.cls-45{fill:#fbf3ea}.cls-46{fill:#faf1e6}.cls-47{fill:#faefe2}.cls-48{fill:#f9edde}.cls-49{fill:#f8ead9}.cls-50{fill:#f7e8d5}.cls-51{fill:#f7e6d1}.cls-52{fill:#f6e3cd}.cls-53{fill:#f5e1c9}.cls-54{fill:#f4dfc4}.cls-55{fill:#f4dcc0}.cls-56{fill:#f3dabc}.cls-57{fill:#f2d8b8}.cls-58{fill:#f1d6b4}.cls-59{fill:#f1d3b0}.cls-60{fill:#f0d1ab}.cls-61{fill:#efcfa7}.cls-62{fill:#eecca3}.cls-63{fill:#eeca9f}.cls-64{fill:#edc89b}.cls-65{fill:#ecc596}.cls-66{fill:#ebc392}.cls-67{fill:#ebc18e}.cls-68{fill:#eabf8a}.cls-69{fill:#e9bc86}.cls-70{fill:#e8ba82}.cls-71{fill:#e8b87d}.cls-72{fill:#e7b579}.cls-73{fill:#e6b375}.cls-74{fill:#40bd40}.cls-75{fill:url(#linear-gradient-2)}.cls-76{fill:#454545}.cls-77{fill:#262626}.cls-78{fill:#f2b539}.cls-79{fill:url(#radial-gradient)}.cls-80{fill:url(#radial-gradient-2)}.cls-81{fill:#c7c7c7;mix-blend-mode:color-burn}.cls-82{fill:url(#radial-gradient-3)}.cls-83{fill:url(#linear-gradient-3)}</style><linearGradient id="linear-gradient" y1="118.71" x2="176.4" y2="118.71" gradientUnits="userSpaceOnUse"><stop offset="0" stop-color="#ffed44"/><stop offset=".07" stop-color="#fff047"/><stop offset=".3" stop-color="#fff24a"/><stop offset=".55" stop-color="#ffe23a"/><stop offset=".74" stop-color="#ffdc34"/><stop offset="1" stop-color="#f9b519"/></linearGradient><clipPath id="clip-path"><path class="cls-1" d="M147.21 50.68c-38.92-22.47-79.09-22.47-118 0C9.73 61.92 0 73.33 0 84.75s9.73 22.83 29.19 34.07c38.93 22.47 79.1 22.47 118 0 19.46-11.24 29.19-22.65 29.19-34.07s-9.71-22.83-29.17-34.07z"/></clipPath><linearGradient id="linear-gradient-2" x1="56.93" y1="88.88" x2="119.48" y2="88.88" gradientUnits="userSpaceOnUse"><stop offset="0" stop-color="#383838"/><stop offset=".1" stop-color="#3d3b3c"/><stop offset=".3" stop-color="#403d3e"/><stop offset=".55" stop-color="#302d2e"/><stop offset=".74" stop-color="#2a2728"/><stop offset="1"/></linearGradient><radialGradient id="radial-gradient" cx="88.47" cy="14.8" r="36.62" xlink:href="#linear-gradient"/><radialGradient id="radial-gradient-2" cx="3209.96" cy="2574.76" r="36.62" gradientTransform="rotate(180 1648.945 1331.555)" xlink:href="#linear-gradient"/><radialGradient id="radial-gradient-3" cx="80.15" cy="57.79" r="33.41" gradientUnits="userSpaceOnUse"><stop offset="0" stop-color="#fffc6e"/><stop offset=".16" stop-color="#fff968"/><stop offset=".37" stop-color="#fff056"/><stop offset=".62" stop-color="#ffe13a"/><stop offset=".89" stop-color="#ffcd12"/><stop offset="1" stop-color="#ffc400"/></radialGradient><linearGradient id="linear-gradient-3" x1="56.93" y1="30.29" x2="119.48" y2="30.29" xlink:href="#linear-gradient-2"/></defs><title>Asset 7</title><g class="cls-2"><g id="Layer_2" data-name="Layer 2"><g id="Layer_1-2" data-name="Layer 1"><g class="cls-3"><path class="cls-4" d="M196.12 67.68c-38.92-22.47-79.09-22.47-118 0-19.48 11.24-29.21 22.65-29.21 34.07s9.73 22.83 29.19 34.07c38.93 22.47 79.1 22.47 118 0 19.46-11.24 29.19-22.65 29.19-34.07s-9.71-22.83-29.17-34.07z"/><path class="cls-5" d="M194.64 67.68c-38.93-22.47-79.1-22.47-118 0-19.48 11.24-29.21 22.65-29.21 34.07s9.73 22.83 29.19 34.07c38.92 22.47 79.09 22.47 118 0 19.46-11.24 29.19-22.65 29.19-34.07s-9.71-22.83-29.17-34.07z"/><path class="cls-6" d="M193.16 67.68c-38.93-22.47-79.1-22.47-118 0-19.46 11.24-29.2 22.65-29.2 34.07s9.74 22.83 29.2 34.07c38.92 22.47 79.09 22.47 118 0 19.46-11.24 29.19-22.65 29.19-34.07s-9.73-22.83-29.19-34.07z"/><path class="cls-7" d="M191.67 67.68c-38.92-22.47-79.09-22.47-118 0-19.47 11.24-29.2 22.65-29.2 34.07s9.73 22.83 29.2 34.07c38.92 22.47 79.09 22.47 118 0 19.47-11.24 29.2-22.65 29.2-34.07s-9.73-22.83-29.2-34.07z"/><path class="cls-8" d="M190.19 67.68c-38.92-22.47-79.09-22.47-118 0C52.71 78.92 43 90.33 43 101.75s9.73 22.83 29.19 34.07c38.93 22.47 79.1 22.47 118 0 19.46-11.24 29.2-22.65 29.2-34.07s-9.74-22.83-29.2-34.07z"/><path class="cls-9" d="M188.71 67.68c-38.92-22.47-79.09-22.47-118 0C51.23 78.92 41.5 90.33 41.5 101.75s9.73 22.83 29.19 34.07c38.93 22.47 79.1 22.47 118 0 19.46-11.24 29.19-22.65 29.19-34.07s-9.71-22.83-29.17-34.07z"/><path class="cls-10" d="M187.23 67.68c-38.93-22.47-79.1-22.47-118 0C49.75 78.92 40 90.33 40 101.75s9.73 22.83 29.19 34.07c38.92 22.47 79.09 22.47 118 0 19.46-11.24 29.19-22.65 29.19-34.07s-9.69-22.83-29.15-34.07z"/><path class="cls-11" d="M185.75 67.68c-38.93-22.47-79.1-22.47-118 0-19.46 11.24-29.2 22.65-29.2 34.07s9.74 22.83 29.2 34.07c38.92 22.47 79.09 22.47 118 0 19.46-11.24 29.19-22.65 29.19-34.07s-9.73-22.83-29.19-34.07z"/><path class="cls-12" d="M184.26 67.68c-38.92-22.47-79.09-22.47-118 0-19.47 11.24-29.2 22.65-29.2 34.07s9.73 22.83 29.2 34.07c38.92 22.47 79.09 22.47 118 0 19.47-11.24 29.2-22.65 29.2-34.07s-9.73-22.83-29.2-34.07z"/><path class="cls-13" d="M182.78 67.68c-38.92-22.47-79.09-22.47-118 0-19.48 11.24-29.21 22.65-29.21 34.07s9.73 22.83 29.19 34.07c38.93 22.47 79.1 22.47 118 0 19.46-11.24 29.2-22.65 29.2-34.07s-9.72-22.83-29.18-34.07z"/><path class="cls-14" d="M181.3 67.68c-38.92-22.47-79.1-22.47-118 0-19.48 11.24-29.21 22.65-29.21 34.07s9.73 22.83 29.19 34.07c38.93 22.47 79.1 22.47 118 0 19.46-11.24 29.19-22.65 29.19-34.07s-9.71-22.83-29.17-34.07z"/><path class="cls-15" d="M179.82 67.68c-38.93-22.47-79.1-22.47-118 0-19.48 11.24-29.21 22.65-29.21 34.07s9.73 22.83 29.19 34.07c38.92 22.47 79.09 22.47 118 0 19.48-11.24 29.2-22.65 29.2-34.07s-9.72-22.83-29.18-34.07z"/><path class="cls-16" d="M178.34 67.68c-38.93-22.47-79.1-22.47-118 0-19.47 11.24-29.2 22.65-29.2 34.07s9.73 22.83 29.2 34.07c38.92 22.47 79.09 22.47 118 0 19.46-11.24 29.19-22.65 29.19-34.07s-9.73-22.83-29.19-34.07z"/><path class="cls-17" d="M176.85 67.68c-38.92-22.47-79.09-22.47-118 0-19.48 11.24-29.21 22.65-29.21 34.07s9.73 22.83 29.2 34.07c38.92 22.47 79.09 22.47 118 0 19.47-11.24 29.2-22.65 29.2-34.07s-9.72-22.83-29.19-34.07z"/><path class="cls-18" d="M175.37 67.68c-38.92-22.47-79.09-22.47-118 0-19.48 11.24-29.21 22.65-29.21 34.07s9.73 22.83 29.19 34.07c38.93 22.47 79.1 22.47 118 0 19.46-11.24 29.19-22.65 29.19-34.07s-9.71-22.83-29.17-34.07z"/><path class="cls-19" d="M173.89 67.68c-38.93-22.47-79.1-22.47-118 0-19.48 11.24-29.21 22.65-29.21 34.07s9.73 22.83 29.19 34.07c38.93 22.47 79.1 22.47 118 0 19.46-11.24 29.19-22.65 29.19-34.07s-9.71-22.83-29.17-34.07z"/><path class="cls-20" d="M172.41 67.68c-38.93-22.47-79.1-22.47-118 0C34.93 78.92 25.2 90.33 25.2 101.75s9.73 22.83 29.19 34.07c38.92 22.47 79.09 22.47 118 0 19.46-11.24 29.19-22.65 29.19-34.07s-9.71-22.83-29.17-34.07z"/><path class="cls-21" d="M170.92 67.68c-38.92-22.47-79.09-22.47-118 0-19.47 11.24-29.2 22.65-29.2 34.07s9.73 22.83 29.2 34.07c38.92 22.47 79.09 22.47 118 0 19.46-11.24 29.19-22.65 29.19-34.07s-9.72-22.83-29.19-34.07z"/><path class="cls-22" d="M169.44 67.68c-38.92-22.47-79.09-22.47-118 0C32 78.92 22.23 90.33 22.23 101.75s9.77 22.83 29.19 34.07c38.93 22.47 79.1 22.47 118 0 19.47-11.24 29.2-22.65 29.2-34.07s-9.72-22.83-29.18-34.07z"/><path class="cls-23" d="M168 67.68c-38.92-22.47-79.09-22.47-118 0-19.52 11.24-29.25 22.65-29.25 34.07s9.73 22.83 29.19 34.07c38.93 22.47 79.1 22.47 118 0 19.46-11.24 29.19-22.65 29.19-34.07S187.42 78.92 168 67.68z"/><path class="cls-24" d="M166.48 67.68c-38.93-22.47-79.1-22.47-118 0C29 78.92 19.27 90.33 19.27 101.75s9.73 22.83 29.19 34.07c38.92 22.47 79.09 22.47 118 0 19.46-11.24 29.19-22.65 29.19-34.07s-9.71-22.83-29.17-34.07z"/><path class="cls-25" d="M165 67.68c-38.93-22.47-79.1-22.47-118 0-19.46 11.24-29.2 22.65-29.2 34.07s9.74 22.83 29.2 34.07c38.92 22.47 79.09 22.47 118 0 19.46-11.24 29.19-22.65 29.19-34.07S184.46 78.92 165 67.68z"/><path class="cls-26" d="M163.51 67.68c-38.92-22.47-79.09-22.47-118 0C26 78.92 16.3 90.33 16.3 101.75s9.7 22.83 29.2 34.07c38.92 22.47 79.09 22.47 118 0 19.47-11.24 29.2-22.65 29.2-34.07s-9.7-22.83-29.19-34.07z"/><path class="cls-27" d="M162 67.68c-38.92-22.47-79.09-22.47-118 0-19.45 11.24-29.18 22.65-29.18 34.07s9.73 22.83 29.18 34.07c38.93 22.47 79.1 22.47 118 0 19.46-11.24 29.2-22.65 29.2-34.07s-9.71-22.83-29.2-34.07z"/><path class="cls-28" d="M160.55 67.68c-38.92-22.47-79.09-22.47-118 0-19.48 11.24-29.21 22.65-29.21 34.07s9.73 22.83 29.19 34.07c38.93 22.47 79.1 22.47 118 0 19.46-11.24 29.19-22.65 29.19-34.07S180 78.92 160.55 67.68z"/><path class="cls-29" d="M159.07 67.68c-38.93-22.47-79.1-22.47-118 0-19.48 11.24-29.21 22.65-29.21 34.07s9.73 22.83 29.19 34.07c38.92 22.47 79.09 22.47 118 0 19.46-11.24 29.19-22.65 29.19-34.07s-9.71-22.83-29.17-34.07z"/><path class="cls-30" d="M157.59 67.68c-38.93-22.47-79.1-22.47-118 0-19.46 11.24-29.2 22.65-29.2 34.07s9.74 22.83 29.2 34.07c38.92 22.47 79.09 22.47 118 0 19.46-11.24 29.19-22.65 29.19-34.07s-9.73-22.83-29.19-34.07z"/><path class="cls-31" d="M156.1 67.68c-38.92-22.47-79.09-22.47-118 0C18.62 78.92 8.89 90.33 8.89 101.75s9.73 22.83 29.2 34.07c38.92 22.47 79.09 22.47 118 0 19.47-11.24 29.2-22.65 29.2-34.07s-9.72-22.83-29.19-34.07z"/><path class="cls-32" d="M154.62 67.68c-38.92-22.47-79.09-22.47-118 0C17.14 78.92 7.41 90.33 7.41 101.75s9.73 22.83 29.19 34.07c38.93 22.47 79.1 22.47 118 0 19.46-11.24 29.2-22.65 29.2-34.07s-9.72-22.83-29.18-34.07z"/><path class="cls-33" d="M153.14 67.68c-38.92-22.47-79.09-22.47-118 0C15.66 78.92 5.93 90.33 5.93 101.75s9.73 22.83 29.19 34.07c38.93 22.47 79.1 22.47 118 0 19.46-11.24 29.19-22.65 29.19-34.07s-9.71-22.83-29.17-34.07z"/><path class="cls-34" d="M151.66 67.68c-38.93-22.47-79.1-22.47-118 0C14.18 78.92 4.45 90.33 4.45 101.75s9.73 22.83 29.19 34.07c38.92 22.47 79.09 22.47 118 0 19.46-11.24 29.19-22.65 29.19-34.07s-9.71-22.83-29.17-34.07z"/><path class="cls-35" d="M150.18 67.68c-38.93-22.47-79.1-22.47-118 0C12.7 78.92 3 90.33 3 101.75s9.74 22.83 29.2 34.07c38.92 22.47 79.09 22.47 118 0 19.46-11.24 29.19-22.65 29.19-34.07s-9.75-22.83-29.21-34.07z"/><path class="cls-36" d="M148.69 67.68c-38.92-22.47-79.09-22.47-118 0C11.21 78.92 1.48 90.33 1.48 101.75s9.73 22.83 29.2 34.07c38.92 22.47 79.09 22.47 118 0 19.47-11.24 29.2-22.65 29.2-34.07s-9.72-22.83-29.19-34.07z"/><path class="cls-37" d="M147.21 67.68c-38.92-22.47-79.09-22.47-118 0C9.73 78.92 0 90.33 0 101.75s9.73 22.83 29.19 34.07c38.93 22.47 79.1 22.47 118 0 19.46-11.24 29.19-22.65 29.19-34.07s-9.71-22.83-29.17-34.07z"/></g><path class="cls-38" d="M147.21 118.82c-38.92 22.47-79.09 22.47-118 0C9.73 107.58 0 96.17 0 84.75v17c0 11.42 9.73 22.83 29.19 34.07 38.93 22.47 79.1 22.47 118 0 19.46-11.24 29.19-22.65 29.19-34.07v-17c.02 11.42-9.71 22.83-29.17 34.07z"/><path class="cls-39" d="M147.21 50.68c-38.92-22.47-79.09-22.47-118 0C9.73 61.92 0 73.33 0 84.75s9.73 22.83 29.19 34.07c38.93 22.47 79.1 22.47 118 0 19.46-11.24 29.19-22.65 29.19-34.07s-9.71-22.83-29.17-34.07z"/><g class="cls-40"><g class="cls-3"><path class="cls-4" d="M186.28 35.51c.5-.38 1-.75 1.45-1.14 3.4-3 5.11-6.45 5.11-9.9v-6.4c0-4.63-3.05-9.25-9.16-12.77-12.21-7-32-7-44.23 0-6.11 3.53-9.16 8.15-9.16 12.77v6.4c0 3.91 2.21 7.81 6.57 11.05 3.29 8.58 10.85 12.23 10.85 16.06 0 3.64-5.83 6.64-9.48 13.08-5.27 3.41-7.94 7.69-7.94 12v6.4c0 4.62 3.05 9.24 9.16 12.76a41.84 41.84 0 0 0 16.14 5 53.88 53.88 0 0 0 6 .33c8 0 16-1.76 22.12-5.29a23.1 23.1 0 0 0 5.58-4.37 12.46 12.46 0 0 0 3.58-8.4v-6.45c0-4.29-2.67-8.57-7.94-12-3.64-6.53-9.48-9.73-9.48-13.08-.03-4.15 7.55-7.5 10.83-16.05z"/><path class="cls-41" d="M184.06 35.51c.5-.38 1-.75 1.44-1.14 3.41-3 5.12-6.45 5.12-9.9v-6.4c0-4.63-3.05-9.25-9.16-12.77-12.22-7-32-7-44.23 0-6.11 3.53-9.16 8.15-9.16 12.77v6.4c0 3.91 2.2 7.81 6.57 11.05 3.28 8.58 10.85 12.23 10.85 16.06 0 3.64-5.84 6.64-9.48 13.08-5.27 3.41-7.94 7.69-7.94 12v6.4c0 4.62 3.05 9.24 9.16 12.76a41.79 41.79 0 0 0 16.14 5 53.88 53.88 0 0 0 6 .33c8 0 16-1.76 22.12-5.29a23.1 23.1 0 0 0 5.51-4.41 12.46 12.46 0 0 0 3.58-8.4v-6.41c0-4.29-2.67-8.57-7.94-12-3.65-6.53-9.48-9.73-9.48-13.08.04-4.15 7.63-7.5 10.9-16.05z"/><path class="cls-42" d="M181.84 35.51c.5-.38 1-.75 1.44-1.14 3.41-3 5.12-6.45 5.12-9.9v-6.4c0-4.63-3.06-9.25-9.16-12.77-12.22-7-32-7-44.24 0-6.1 3.53-9.16 8.15-9.16 12.77v6.4c0 3.91 2.21 7.81 6.58 11.05 3.28 8.58 10.84 12.23 10.84 16.06 0 3.64-5.83 6.64-9.48 13.08-5.27 3.41-7.94 7.69-7.94 12v6.4c0 4.62 3.06 9.24 9.16 12.76a41.84 41.84 0 0 0 16.14 5 54.2 54.2 0 0 0 6 .33c8 0 16-1.76 22.11-5.29a23.16 23.16 0 0 0 5.59-4.37 12.5 12.5 0 0 0 3.58-8.4v-6.45c0-4.29-2.67-8.57-7.94-12-3.65-6.53-9.48-9.73-9.48-13.08 0-4.15 7.56-7.5 10.84-16.05z"/><path class="cls-43" d="M179.61 35.51c.51-.38 1-.75 1.45-1.14 3.41-3 5.11-6.45 5.11-9.9v-6.4c0-4.63-3-9.25-9.16-12.77-12.21-7-32-7-44.23 0-6.11 3.53-9.16 8.15-9.16 12.77v6.4c0 3.91 2.21 7.81 6.57 11.05C133.48 44.1 141 47.75 141 51.58c0 3.64-5.83 6.64-9.48 13.08-5.27 3.41-7.94 7.69-7.94 12v6.4c0 4.62 3 9.24 9.16 12.76a41.84 41.84 0 0 0 16.14 5 53.93 53.93 0 0 0 6 .33c8 0 16-1.76 22.11-5.29a23.1 23.1 0 0 0 5.58-4.37 12.46 12.46 0 0 0 3.58-8.4v-6.45c0-4.29-2.67-8.57-7.93-12-3.65-6.53-9.49-9.73-9.49-13.08.02-4.15 7.61-7.5 10.88-16.05z"/><path class="cls-44" d="M177.39 35.51c.5-.38 1-.75 1.44-1.14 3.41-3 5.12-6.45 5.12-9.9v-6.4c0-4.63-3-9.25-9.16-12.77-12.21-7-32-7-44.23 0-6.11 3.53-9.16 8.15-9.16 12.77v6.4c0 3.91 2.2 7.81 6.57 11.05 3.28 8.58 10.85 12.23 10.85 16.06 0 3.64-5.83 6.64-9.48 13.08-5.27 3.41-7.94 7.69-7.94 12v6.4c0 4.62 3 9.24 9.16 12.76a41.79 41.79 0 0 0 16.14 5 53.88 53.88 0 0 0 6 .33c8 0 16-1.76 22.12-5.29a23.1 23.1 0 0 0 5.58-4.37 12.46 12.46 0 0 0 3.58-8.4v-6.45c0-4.29-2.67-8.57-7.94-12-3.65-6.53-9.48-9.73-9.48-13.08-.03-4.15 7.56-7.5 10.83-16.05z"/><path class="cls-45" d="M175.17 35.51c.5-.38 1-.75 1.44-1.14 3.41-3 5.12-6.45 5.12-9.9v-6.4c0-4.63-3.06-9.25-9.16-12.77-12.22-7-32-7-44.24 0-6.1 3.53-9.16 8.15-9.16 12.77v6.4c0 3.91 2.21 7.81 6.58 11.05 3.28 8.58 10.84 12.23 10.84 16.06 0 3.64-5.83 6.64-9.48 13.08-5.27 3.41-7.94 7.69-7.94 12v6.4c0 4.62 3.06 9.24 9.16 12.76a41.83 41.83 0 0 0 16.15 5 53.88 53.88 0 0 0 6 .33c8 0 16-1.76 22.12-5.29a23.1 23.1 0 0 0 5.58-4.37 12.5 12.5 0 0 0 3.58-8.4v-6.45c0-4.29-2.67-8.57-7.94-12-3.65-6.53-9.48-9.73-9.48-13.08-.03-4.15 7.55-7.5 10.83-16.05z"/><path class="cls-46" d="M172.94 35.51c.51-.38 1-.75 1.45-1.14 3.41-3 5.11-6.45 5.11-9.9v-6.4c0-4.63-3.05-9.25-9.16-12.77-12.21-7-32-7-44.23 0C120 8.82 117 13.44 117 18.06v6.4c0 3.91 2.21 7.81 6.57 11.05 3.29 8.58 10.85 12.23 10.85 16.06 0 3.64-5.83 6.64-9.48 13.08-5.27 3.41-7.94 7.69-7.94 12v6.4c0 4.62 3 9.24 9.16 12.76a41.84 41.84 0 0 0 16.14 5 53.93 53.93 0 0 0 6 .33c8 0 16-1.76 22.11-5.29a23.1 23.1 0 0 0 5.58-4.37 12.46 12.46 0 0 0 3.58-8.4v-6.44c0-4.29-2.67-8.57-7.93-12-3.65-6.53-9.49-9.73-9.49-13.08-.07-4.15 7.52-7.5 10.79-16.05z"/><path class="cls-47" d="M170.72 35.51c.5-.38 1-.75 1.44-1.14 3.41-3 5.12-6.45 5.12-9.9v-6.4c0-4.63-3.05-9.25-9.16-12.77-12.21-7-32-7-44.23 0-6.11 3.53-9.16 8.15-9.16 12.77v6.4c0 3.91 2.21 7.81 6.57 11.05 3.28 8.58 10.85 12.23 10.85 16.06 0 3.64-5.83 6.64-9.48 13.08-5.27 3.41-7.94 7.69-7.94 12v6.4c0 4.62 3 9.24 9.16 12.76a41.79 41.79 0 0 0 16.14 5 53.88 53.88 0 0 0 6 .33c8 0 16-1.76 22.12-5.29a23.1 23.1 0 0 0 5.58-4.37 12.46 12.46 0 0 0 3.58-8.4v-6.45c0-4.29-2.67-8.57-7.94-12-3.65-6.53-9.48-9.73-9.48-13.08-.03-4.15 7.56-7.5 10.83-16.05z"/><path class="cls-48" d="M168.5 35.51c.5-.38 1-.75 1.44-1.14 3.41-3 5.12-6.45 5.12-9.9v-6.4c0-4.63-3.06-9.25-9.16-12.77-12.22-7-32-7-44.23 0-6.11 3.53-9.17 8.15-9.17 12.77v6.4c0 3.91 2.21 7.81 6.58 11.05 3.28 8.58 10.84 12.23 10.84 16.06 0 3.64-5.83 6.64-9.48 13.08-5.27 3.41-7.94 7.69-7.94 12v6.4c0 4.62 3.06 9.24 9.16 12.76a41.83 41.83 0 0 0 16.15 5 53.88 53.88 0 0 0 6 .33c8 0 16-1.76 22.12-5.29a23.1 23.1 0 0 0 5.58-4.37 12.5 12.5 0 0 0 3.58-8.4v-6.45c0-4.29-2.67-8.57-7.94-12-3.65-6.53-9.48-9.73-9.48-13.08-.03-4.15 7.55-7.5 10.83-16.05z"/><path class="cls-49" d="M166.27 35.51c.51-.38 1-.75 1.45-1.14 3.41-3 5.11-6.45 5.11-9.9v-6.4c0-4.63-3.05-9.25-9.16-12.77-12.21-7-32-7-44.23 0-6.11 3.53-9.16 8.15-9.16 12.77v6.4c0 3.91 2.21 7.81 6.58 11.05 3.28 8.58 10.84 12.23 10.84 16.06 0 3.64-5.83 6.64-9.48 13.08-5.27 3.41-7.94 7.69-7.94 12v6.4c0 4.62 3 9.24 9.16 12.76a41.84 41.84 0 0 0 16.14 5 54.06 54.06 0 0 0 6 .33c8 0 16-1.76 22.11-5.29a23.36 23.36 0 0 0 5.59-4.37 12.49 12.49 0 0 0 3.57-8.4v-6.45c0-4.29-2.67-8.57-7.93-12-3.65-6.53-9.49-9.73-9.49-13.08-.02-4.15 7.57-7.5 10.84-16.05z"/><path class="cls-50" d="M164.05 35.51c.5-.38 1-.75 1.44-1.14 3.41-3 5.12-6.45 5.12-9.9v-6.4c0-4.63-3.05-9.25-9.16-12.77-12.21-7-32-7-44.23 0-6.11 3.53-9.16 8.15-9.16 12.77v6.4c0 3.91 2.21 7.81 6.57 11.05 3.28 8.58 10.85 12.23 10.85 16.06 0 3.64-5.83 6.64-9.48 13.08-5.27 3.41-7.94 7.69-7.94 12v6.4c0 4.62 3 9.24 9.16 12.76a41.84 41.84 0 0 0 16.14 5 53.88 53.88 0 0 0 6 .33c8 0 16-1.76 22.12-5.29a23.1 23.1 0 0 0 5.52-4.41 12.46 12.46 0 0 0 3.58-8.4v-6.41c0-4.29-2.67-8.57-7.94-12-3.65-6.53-9.48-9.73-9.48-13.08.03-4.15 7.62-7.5 10.89-16.05z"/><path class="cls-51" d="M161.83 35.51c.5-.38 1-.75 1.44-1.14 3.41-3 5.12-6.45 5.12-9.9v-6.4c0-4.63-3.06-9.25-9.16-12.77-12.22-7-32-7-44.23 0-6.11 3.53-9.17 8.15-9.17 12.77v6.4c0 3.91 2.21 7.81 6.58 11.05 3.28 8.58 10.84 12.23 10.84 16.06 0 3.64-5.83 6.64-9.48 13.08-5.27 3.41-7.94 7.69-7.94 12v6.4c0 4.62 3.06 9.24 9.16 12.76a41.83 41.83 0 0 0 16.15 5 53.88 53.88 0 0 0 6 .33c8 0 16-1.76 22.12-5.29a23.1 23.1 0 0 0 5.58-4.37 12.5 12.5 0 0 0 3.58-8.4v-6.45c0-4.29-2.67-8.57-7.94-12-3.68-6.51-9.48-9.71-9.48-13.06 0-4.17 7.55-7.52 10.83-16.07z"/><path class="cls-52" d="M159.61 35.51c.5-.38 1-.75 1.44-1.14 3.41-3 5.11-6.45 5.11-9.9v-6.4c0-4.63-3-9.25-9.16-12.77-12.21-7-32-7-44.23 0-6.1 3.53-9.16 8.15-9.16 12.77v6.4c0 3.91 2.21 7.81 6.58 11.05C113.47 44.1 121 47.75 121 51.58c0 3.64-5.83 6.64-9.48 13.08-5.27 3.41-7.94 7.69-7.94 12v6.4c0 4.62 3 9.24 9.16 12.76a41.84 41.84 0 0 0 16.14 5 54.2 54.2 0 0 0 6 .33c8 0 16-1.76 22.11-5.29a23.36 23.36 0 0 0 5.59-4.37 12.49 12.49 0 0 0 3.57-8.4v-6.45c0-4.29-2.66-8.57-7.93-12-3.65-6.53-9.49-9.73-9.49-13.08.01-4.15 7.6-7.5 10.88-16.05z"/><path class="cls-53" d="M157.38 35.51c.5-.38 1-.75 1.45-1.14 3.4-3 5.11-6.45 5.11-9.9v-6.4c0-4.63-3.05-9.25-9.16-12.77-12.21-7-32-7-44.23 0-6.11 3.53-9.16 8.15-9.16 12.77v6.4c0 3.91 2.21 7.81 6.57 11.05 3.28 8.58 10.85 12.23 10.85 16.06 0 3.64-5.83 6.64-9.48 13.08-5.27 3.41-7.94 7.69-7.94 12v6.4c0 4.62 3 9.24 9.16 12.76a41.84 41.84 0 0 0 16.14 5 53.88 53.88 0 0 0 6 .33c8 0 16-1.76 22.12-5.29a23.1 23.1 0 0 0 5.58-4.37 12.46 12.46 0 0 0 3.58-8.4v-6.45c0-4.29-2.67-8.57-7.94-12-3.65-6.53-9.48-9.73-9.48-13.08-.03-4.15 7.56-7.5 10.83-16.05z"/><path class="cls-54" d="M155.16 35.51c.5-.38 1-.75 1.44-1.14 3.41-3 5.12-6.45 5.12-9.9v-6.4c0-4.63-3.05-9.25-9.16-12.77-12.22-7-32-7-44.23 0-6.11 3.53-9.16 8.15-9.16 12.77v6.4c0 3.91 2.21 7.81 6.58 11.05 3.28 8.58 10.85 12.23 10.85 16.06 0 3.64-5.84 6.64-9.48 13.08-5.27 3.41-7.94 7.69-7.94 12v6.4c0 4.62 3.06 9.24 9.16 12.76a41.83 41.83 0 0 0 16.15 5 53.88 53.88 0 0 0 6 .33c8 0 16-1.76 22.12-5.29a23.1 23.1 0 0 0 5.58-4.37 12.46 12.46 0 0 0 3.58-8.4v-6.45c0-4.29-2.67-8.57-7.94-12-3.65-6.53-9.48-9.73-9.48-13.08-.05-4.15 7.54-7.5 10.81-16.05z"/><path class="cls-55" d="M152.94 35.51c.5-.38 1-.75 1.44-1.14 3.41-3 5.12-6.45 5.12-9.9v-6.4c0-4.63-3.05-9.25-9.15-12.77-12.22-7-32-7-44.24 0-6.1 3.53-9.16 8.15-9.16 12.77v6.4c0 3.91 2.21 7.81 6.58 11.05 3.28 8.58 10.84 12.23 10.84 16.06 0 3.64-5.83 6.64-9.48 13.08-5.27 3.41-7.94 7.69-7.94 12v6.4c0 4.62 3 9.24 9.16 12.76a41.84 41.84 0 0 0 16.14 5 54.2 54.2 0 0 0 6 .33c8 0 16-1.76 22.11-5.29a23.16 23.16 0 0 0 5.59-4.37 12.5 12.5 0 0 0 3.58-8.4v-6.45c0-4.29-2.66-8.57-7.93-12-3.65-6.53-9.49-9.73-9.49-13.08-.04-4.15 7.55-7.5 10.83-16.05z"/><path class="cls-56" d="M150.71 35.51c.5-.38 1-.75 1.45-1.14 3.4-3 5.11-6.45 5.11-9.9v-6.4c0-4.63-3.05-9.25-9.16-12.77-12.21-7-32-7-44.23 0-6.11 3.53-9.16 8.15-9.16 12.77v6.4c0 3.91 2.21 7.81 6.57 11.05 3.29 8.58 10.85 12.23 10.85 16.06 0 3.64-5.83 6.64-9.48 13.08-5.27 3.41-7.94 7.69-7.94 12v6.4c0 4.62 3 9.24 9.16 12.76a41.84 41.84 0 0 0 16.14 5 53.88 53.88 0 0 0 6 .33c8 0 16-1.76 22.12-5.29a23.1 23.1 0 0 0 5.58-4.37 12.46 12.46 0 0 0 3.58-8.4v-6.45c0-4.29-2.67-8.57-7.94-12-3.64-6.53-9.48-9.73-9.48-13.08-.03-4.15 7.56-7.5 10.83-16.05z"/><path class="cls-57" d="M148.49 35.51c.5-.38 1-.75 1.44-1.14 3.41-3 5.12-6.45 5.12-9.9v-6.4c0-4.63-3.05-9.25-9.16-12.77-12.22-7-32-7-44.23 0-6.11 3.53-9.16 8.15-9.16 12.77v6.4c0 3.91 2.2 7.81 6.57 11.05 3.28 8.58 10.85 12.23 10.85 16.06 0 3.64-5.84 6.64-9.48 13.08-5.27 3.41-7.94 7.69-7.94 12v6.4c0 4.62 3 9.24 9.15 12.76a41.89 41.89 0 0 0 16.15 5 53.88 53.88 0 0 0 6 .33c8 0 16-1.76 22.12-5.29a23.1 23.1 0 0 0 5.58-4.37 12.46 12.46 0 0 0 3.58-8.4v-6.45c0-4.29-2.67-8.57-7.94-12-3.65-6.53-9.48-9.73-9.48-13.08-.03-4.15 7.56-7.5 10.83-16.05z"/><path class="cls-58" d="M146.27 35.51c.5-.38 1-.75 1.44-1.14 3.41-3 5.12-6.45 5.12-9.9v-6.4c0-4.63-3.06-9.25-9.16-12.77-12.22-7-32-7-44.24 0-6.1 3.53-9.16 8.15-9.16 12.77v6.4c0 3.91 2.21 7.81 6.58 11.05 3.28 8.58 10.84 12.23 10.84 16.06 0 3.64-5.83 6.64-9.48 13.08-5.27 3.41-7.94 7.69-7.94 12v6.4c0 4.62 3.06 9.24 9.16 12.76a41.84 41.84 0 0 0 16.14 5 54.2 54.2 0 0 0 6 .33c8 0 16-1.76 22.11-5.29a23.16 23.16 0 0 0 5.59-4.37 12.5 12.5 0 0 0 3.58-8.4v-6.45c0-4.29-2.67-8.57-7.94-12-3.65-6.53-9.48-9.73-9.48-13.08-.02-4.15 7.57-7.5 10.84-16.05z"/><path class="cls-59" d="M144 35.51c.51-.38 1-.75 1.45-1.14 3.41-3 5.11-6.45 5.11-9.9v-6.4c0-4.63-3-9.25-9.16-12.77-12.21-7-32-7-44.23 0-6.11 3.53-9.16 8.15-9.16 12.77v6.4c0 3.91 2.21 7.81 6.57 11.05 3.29 8.58 10.85 12.23 10.85 16.06 0 3.64-5.83 6.64-9.48 13.08-5.27 3.41-7.94 7.69-7.94 12v6.4c0 4.62 3 9.24 9.16 12.76a41.84 41.84 0 0 0 16.14 5 53.93 53.93 0 0 0 6 .33c8 0 16-1.76 22.11-5.29a23.1 23.1 0 0 0 5.58-4.41 12.46 12.46 0 0 0 3.58-8.4v-6.41c0-4.29-2.67-8.57-7.94-12-3.64-6.53-9.48-9.73-9.48-13.08.02-4.15 7.61-7.5 10.84-16.05z"/><path class="cls-60" d="M141.82 35.51c.5-.38 1-.75 1.44-1.14 3.41-3 5.12-6.45 5.12-9.9v-6.4c0-4.63-3-9.25-9.16-12.77-12.21-7-32-7-44.23 0-6.11 3.53-9.16 8.15-9.16 12.77v6.4c0 3.91 2.2 7.81 6.57 11.05 3.28 8.58 10.85 12.23 10.85 16.06 0 3.64-5.83 6.64-9.48 13.08-5.27 3.41-7.94 7.69-7.94 12v6.4c0 4.62 3 9.24 9.16 12.76a41.79 41.79 0 0 0 16.14 5 53.88 53.88 0 0 0 6 .33c8 0 16-1.76 22.12-5.29a23.1 23.1 0 0 0 5.58-4.37 12.46 12.46 0 0 0 3.58-8.4v-6.45c0-4.29-2.67-8.57-7.94-12-3.65-6.53-9.48-9.73-9.48-13.08.01-4.15 7.56-7.5 10.83-16.05z"/><path class="cls-61" d="M139.6 35.51c.5-.38 1-.75 1.44-1.14 3.41-3 5.12-6.45 5.12-9.9v-6.4c0-4.63-3.06-9.25-9.16-12.77-12.22-7-32-7-44.24 0-6.1 3.53-9.16 8.15-9.16 12.77v6.4c0 3.91 2.21 7.81 6.58 11.05C93.46 44.1 101 47.75 101 51.58c0 3.64-5.83 6.64-9.48 13.08-5.27 3.41-7.94 7.69-7.94 12v6.4c0 4.62 3.06 9.24 9.16 12.76a41.83 41.83 0 0 0 16.15 5 53.88 53.88 0 0 0 6 .33c8 0 16-1.76 22.12-5.29a23.1 23.1 0 0 0 5.58-4.37 12.5 12.5 0 0 0 3.58-8.4v-6.45c0-4.29-2.67-8.57-7.94-12-3.65-6.53-9.48-9.73-9.48-13.08-.01-4.15 7.57-7.5 10.85-16.05z"/><path class="cls-62" d="M137.37 35.51c.51-.38 1-.75 1.45-1.14 3.41-3 5.11-6.45 5.11-9.9v-6.4c0-4.63-3.05-9.25-9.16-12.77-12.21-7-32-7-44.23 0-6.11 3.53-9.16 8.15-9.16 12.77v6.4c0 3.91 2.21 7.81 6.57 11.05C91.24 44.1 98.8 47.75 98.8 51.58c0 3.64-5.83 6.64-9.48 13.08-5.27 3.41-7.94 7.69-7.94 12v6.4c0 4.62 3.05 9.24 9.16 12.76a41.84 41.84 0 0 0 16.14 5 53.93 53.93 0 0 0 6 .33c8 0 16-1.76 22.11-5.29a23.1 23.1 0 0 0 5.58-4.37 12.46 12.46 0 0 0 3.58-8.4v-6.45c0-4.29-2.67-8.57-7.93-12-3.65-6.53-9.49-9.73-9.49-13.08-.02-4.15 7.57-7.5 10.84-16.05z"/><path class="cls-63" d="M135.15 35.51c.5-.38 1-.75 1.44-1.14 3.41-3 5.12-6.45 5.12-9.9v-6.4c0-4.63-3.05-9.25-9.16-12.77-12.21-7-32-7-44.23 0-6.11 3.53-9.16 8.15-9.16 12.77v6.4c0 3.91 2.21 7.81 6.57 11.05C89 44.1 96.58 47.75 96.58 51.58c0 3.64-5.83 6.64-9.48 13.08-5.27 3.41-7.94 7.69-7.94 12v6.4c0 4.62 3 9.24 9.16 12.76a41.79 41.79 0 0 0 16.14 5 53.88 53.88 0 0 0 6 .33c8 0 16-1.76 22.12-5.29a23.1 23.1 0 0 0 5.58-4.37 12.46 12.46 0 0 0 3.58-8.4v-6.45c0-4.29-2.67-8.57-7.94-12-3.65-6.53-9.48-9.73-9.48-13.08-.03-4.15 7.56-7.5 10.83-16.05z"/><path class="cls-64" d="M132.93 35.51c.5-.38 1-.75 1.44-1.14 3.41-3 5.12-6.45 5.12-9.9v-6.4c0-4.63-3.06-9.25-9.16-12.77-12.22-7-32-7-44.24 0-6.1 3.53-9.16 8.15-9.16 12.77v6.4c0 3.91 2.21 7.81 6.58 11.05 3.28 8.58 10.84 12.23 10.84 16.06 0 3.64-5.83 6.64-9.48 13.08-5.27 3.41-7.94 7.69-7.94 12v6.4c0 4.62 3.06 9.24 9.16 12.76a41.83 41.83 0 0 0 16.15 5 53.88 53.88 0 0 0 6 .33c8 0 16-1.76 22.12-5.29a23.1 23.1 0 0 0 5.58-4.37 12.5 12.5 0 0 0 3.58-8.4v-6.45c0-4.29-2.67-8.57-7.94-12-3.65-6.53-9.48-9.73-9.48-13.08-.03-4.15 7.55-7.5 10.83-16.05z"/><path class="cls-65" d="M130.7 35.51c.51-.38 1-.75 1.45-1.14 3.41-3 5.11-6.45 5.11-9.9v-6.4c0-4.63-3-9.25-9.16-12.77-12.21-7-32-7-44.23 0-6.11 3.53-9.16 8.15-9.16 12.77v6.4c0 3.91 2.21 7.81 6.58 11.05 3.28 8.58 10.84 12.23 10.84 16.06 0 3.64-5.83 6.64-9.48 13.08-5.27 3.41-7.94 7.69-7.94 12v6.4c0 4.62 3.05 9.24 9.16 12.76a41.84 41.84 0 0 0 16.14 5 54.06 54.06 0 0 0 6 .33c8 0 16-1.76 22.11-5.29a23.36 23.36 0 0 0 5.59-4.37 12.49 12.49 0 0 0 3.57-8.4v-6.45c0-4.29-2.67-8.57-7.93-12-3.65-6.53-9.49-9.73-9.49-13.08-.02-4.15 7.57-7.5 10.84-16.05z"/><path class="cls-66" d="M128.48 35.51c.5-.38 1-.75 1.44-1.14 3.41-3 5.12-6.45 5.12-9.9v-6.4c0-4.63-3-9.25-9.16-12.77-12.21-7-32-7-44.23 0-6.11 3.53-9.16 8.15-9.16 12.77v6.4c0 3.91 2.21 7.81 6.57 11.05 3.28 8.58 10.85 12.23 10.85 16.06 0 3.64-5.83 6.64-9.48 13.08-5.27 3.41-7.94 7.69-7.94 12v6.4c0 4.62 3.05 9.24 9.16 12.76a41.84 41.84 0 0 0 16.14 5 53.88 53.88 0 0 0 6 .33c8 0 16-1.76 22.12-5.29a23.1 23.1 0 0 0 5.58-4.37 12.46 12.46 0 0 0 3.58-8.4v-6.45c0-4.29-2.67-8.57-7.94-12-3.65-6.53-9.48-9.73-9.48-13.08-.03-4.15 7.56-7.5 10.83-16.05z"/><path class="cls-67" d="M126.26 35.51c.5-.38 1-.75 1.44-1.14 3.41-3 5.12-6.45 5.12-9.9v-6.4c0-4.63-3.06-9.25-9.16-12.77-12.22-7-32-7-44.23 0-6.11 3.53-9.17 8.15-9.17 12.77v6.4c0 3.91 2.21 7.81 6.58 11.05 3.28 8.58 10.84 12.23 10.84 16.06 0 3.64-5.83 6.64-9.48 13.08-5.27 3.41-7.94 7.69-7.94 12v6.4c0 4.62 3.06 9.24 9.16 12.76a41.83 41.83 0 0 0 16.15 5 53.88 53.88 0 0 0 6 .33c8 0 16-1.76 22.12-5.29a23.1 23.1 0 0 0 5.58-4.37 12.5 12.5 0 0 0 3.58-8.4v-6.45c0-4.29-2.67-8.57-7.94-12-3.65-6.53-9.48-9.73-9.48-13.08-.03-4.15 7.57-7.5 10.83-16.05z"/><path class="cls-68" d="M124 35.51c.5-.38 1-.75 1.44-1.14 3.41-3 5.11-6.45 5.11-9.9v-6.4c0-4.63-3-9.25-9.16-12.77-12.21-7-32-7-44.23 0C71.1 8.82 68 13.44 68 18.06v6.4c0 3.91 2.21 7.81 6.58 11.05 3.32 8.59 10.88 12.24 10.88 16.07 0 3.64-5.83 6.64-9.48 13.08-5.27 3.41-7.94 7.69-7.94 12v6.4c0 4.62 3 9.24 9.16 12.76a41.84 41.84 0 0 0 16.14 5 54.06 54.06 0 0 0 6 .33c8 0 16-1.76 22.11-5.29a23.36 23.36 0 0 0 5.55-4.41 12.49 12.49 0 0 0 3.57-8.4v-6.41c0-4.29-2.66-8.57-7.93-12-3.65-6.53-9.49-9.73-9.49-13.08.02-4.15 7.61-7.5 10.85-16.05z"/><path class="cls-69" d="M121.81 35.51c.5-.38 1-.75 1.45-1.14 3.4-3 5.11-6.45 5.11-9.9v-6.4c0-4.63-3.05-9.25-9.16-12.77-12.21-7-32-7-44.23 0-6.11 3.53-9.16 8.15-9.16 12.77v6.4c0 3.91 2.21 7.81 6.57 11.05 3.28 8.58 10.85 12.23 10.85 16.06 0 3.64-5.83 6.64-9.48 13.08-5.27 3.41-7.94 7.69-7.94 12v6.4c0 4.62 3.05 9.24 9.16 12.76a41.84 41.84 0 0 0 16.14 5 53.88 53.88 0 0 0 6 .33c8 0 16-1.76 22.12-5.29a23.1 23.1 0 0 0 5.58-4.37 12.46 12.46 0 0 0 3.58-8.4v-6.45c0-4.29-2.67-8.57-7.94-12-3.65-6.53-9.48-9.73-9.48-13.08.02-4.15 7.56-7.5 10.83-16.05z"/><path class="cls-70" d="M119.59 35.51c.5-.38 1-.75 1.44-1.14 3.41-3 5.12-6.45 5.12-9.9v-6.4c0-4.63-3.05-9.25-9.16-12.77-12.22-7-32-7-44.23 0-6.11 3.53-9.16 8.15-9.16 12.77v6.4c0 3.91 2.21 7.81 6.58 11.05C73.45 44.1 81 47.75 81 51.58c0 3.64-5.84 6.64-9.49 13.08-5.26 3.41-7.93 7.69-7.93 12v6.4c0 4.62 3.06 9.24 9.16 12.76a41.83 41.83 0 0 0 16.15 5 53.88 53.88 0 0 0 6 .33c8 0 16-1.76 22.12-5.29a23.1 23.1 0 0 0 5.58-4.37 12.46 12.46 0 0 0 3.58-8.4v-6.45c0-4.29-2.67-8.57-7.94-12-3.65-6.53-9.48-9.73-9.48-13.08-.02-4.15 7.57-7.5 10.84-16.05z"/><path class="cls-71" d="M117.37 35.51c.5-.38 1-.75 1.44-1.14 3.41-3 5.12-6.45 5.12-9.9v-6.4c0-4.63-3-9.25-9.15-12.77-12.22-7-32-7-44.24 0-6.1 3.53-9.16 8.15-9.16 12.77v6.4c0 3.91 2.21 7.81 6.58 11.05C71.24 44.1 78.8 47.75 78.8 51.58c0 3.64-5.83 6.64-9.48 13.08-5.27 3.41-7.94 7.69-7.94 12v6.4c0 4.62 3.05 9.24 9.16 12.76a41.84 41.84 0 0 0 16.14 5 54.2 54.2 0 0 0 6 .33c8 0 16-1.76 22.11-5.29a23.36 23.36 0 0 0 5.59-4.37 12.5 12.5 0 0 0 3.58-8.4v-6.45c0-4.29-2.66-8.57-7.93-12-3.65-6.53-9.49-9.73-9.49-13.08-.04-4.15 7.55-7.5 10.83-16.05z"/><path class="cls-72" d="M115.14 35.51c.5-.38 1-.75 1.45-1.14 3.4-3 5.11-6.45 5.11-9.9v-6.4c0-4.63-3-9.25-9.16-12.77-12.21-7-32-7-44.23 0-6.11 3.53-9.16 8.15-9.16 12.77v6.4c0 3.91 2.21 7.81 6.57 11.05C69 44.1 76.57 47.75 76.57 51.58c0 3.64-5.83 6.64-9.48 13.08-5.27 3.41-7.94 7.69-7.94 12v6.4c0 4.62 3.05 9.24 9.16 12.76a41.84 41.84 0 0 0 16.14 5 53.88 53.88 0 0 0 6 .33c8 0 16-1.76 22.12-5.29a23.1 23.1 0 0 0 5.58-4.37 12.46 12.46 0 0 0 3.58-8.4v-6.45c0-4.29-2.67-8.57-7.94-12-3.64-6.53-9.48-9.73-9.48-13.08-.03-4.15 7.56-7.5 10.83-16.05z"/><path class="cls-73" d="M112.92 35.51c.5-.38 1-.75 1.44-1.14 3.41-3 5.12-6.45 5.12-9.9v-6.4c0-4.63-3-9.25-9.16-12.77-12.22-7-32-7-44.23 0-6.09 3.52-9.16 8.14-9.16 12.76v6.4c0 3.91 2.2 7.81 6.57 11.05 3.28 8.58 10.85 12.23 10.85 16.06 0 3.64-5.84 6.64-9.48 13.08-5.27 3.41-7.94 7.69-7.94 12v6.4c0 4.62 3 9.24 9.15 12.76a41.89 41.89 0 0 0 16.15 5 53.88 53.88 0 0 0 6 .33c8 0 16-1.76 22.12-5.29a23.1 23.1 0 0 0 5.58-4.37 12.46 12.46 0 0 0 3.58-8.4v-6.44c0-4.29-2.67-8.57-7.94-12-3.65-6.53-9.48-9.73-9.48-13.08-.03-4.15 7.56-7.5 10.83-16.05z"/></g></g><path class="cls-74" d="M110.32 70.29c-12.21-7.06-32-7.06-44.23 0-6.11 3.52-9.16 8.14-9.16 12.76 0 4.62 3 9.24 9.15 12.76 12.22 7.06 32 7.05 44.24 0 6.11-3.52 9.16-8.14 9.16-12.77 0-4.61-3.05-9.23-9.16-12.75z"/><path class="cls-75" d="M110.32 89.41c-12.22 7-32 7.06-44.23 0-6.11-3.52-9.16-8.14-9.16-12.76v6.41c0 4.62 3 9.24 9.16 12.76 12.21 7.06 32 7.05 44.23 0 6.1-3.52 9.16-8.14 9.16-12.76v-6.42c0 4.63-3.06 9.25-9.16 12.77z"/><path class="cls-76" d="M110.32 63.88c-12.22-7.06-32-7.05-44.23 0C60 67.4 56.93 72 56.93 76.64c0 4.62 3 9.24 9.16 12.76 12.21 7.06 32 7 44.23 0 6.1-3.52 9.16-8.14 9.16-12.77 0-4.63-3.05-9.23-9.16-12.75z"/><path class="cls-77" d="M106.73 16.49c-10.23-5.91-26.82-5.9-37.06 0-5.12 3-7.67 6.83-7.67 10.7 0 3.88 2.55 7.75 7.67 10.7 10.23 5.91 26.83 5.91 37.06 0 5.12-3 7.68-6.83 7.68-10.7 0-3.87-2.56-7.74-7.68-10.7z"/><path class="cls-78" d="M106.73 65.26c-10.23-5.91-26.82-5.91-37.06 0C64.55 68.21 62 72.09 62 76c0 3.87 2.55 7.74 7.67 10.7 10.23 5.91 26.83 5.91 37.06 0 5.12-3 7.68-6.83 7.68-10.7 0-3.91-2.56-7.79-7.68-10.74z"/><path class="cls-79" d="M88.2 42.32c-14.47 0-26.2-6.77-26.2-15.13 0 15 12.35 19.51 12.35 24.39h27.71c0-5.3 12.35-9.25 12.35-24.38 0 8.35-11.73 15.12-26.21 15.12z"/><path class="cls-80" d="M88.2 60.83c14.48 0 26.21 6.77 26.21 15.13 0-14.95-12.35-19.51-12.35-24.38H74.35C74.35 56.88 62 60.83 62 76c0-8.4 11.73-15.17 26.2-15.17z"/><path class="cls-81" d="M66.09 63.88c-.44.25-.82.52-1.22.78A22.21 22.21 0 0 0 62 76c0-8.36 11.73-15.13 26.2-15.13S114.41 67.6 114.41 76a22.56 22.56 0 0 0-2.87-11.3c-.4-.27-.79-.53-1.22-.78-12.22-7.1-32.02-7.1-44.23-.04z"/><path class="cls-82" d="M95.41 58c-7.75-4.47-6.67-4.47-14.41 0-3.87 2.28-12.63 13-12.63 16 0 2.93 1.94 5.86 5.81 8.09 7.74 4.47 20.3 4.47 28 0 3.92-2.27 5.82-5.2 5.82-8.09 0-3-8.72-13.72-12.59-16z"/><path class="cls-74" d="M110.32 11.7c-12.21-7-32-7-44.23 0-6.11 3.53-9.16 8.15-9.16 12.77 0 4.62 3 9.24 9.15 12.77 12.22 7 32 7 44.24 0 6.11-3.53 9.16-8.15 9.16-12.77 0-4.63-3.05-9.25-9.16-12.77z"/><path class="cls-83" d="M110.32 30.83c-12.22 7.05-32 7.05-44.23 0-6.09-3.53-9.16-8.15-9.16-12.77v6.41c0 4.62 3 9.24 9.16 12.77 12.21 7 32 7 44.23 0 6.1-3.53 9.16-8.15 9.16-12.77v-6.41c0 4.62-3.06 9.24-9.16 12.77z"/><path class="cls-76" d="M110.32 5.29c-12.22-7-32-7-44.23 0-6.09 3.53-9.16 8.15-9.16 12.77 0 4.62 3 9.24 9.16 12.77 12.21 7.05 32 7.05 44.23 0 6.1-3.53 9.16-8.15 9.16-12.77 0-4.63-3.05-9.25-9.16-12.77z"/></g></g></g></svg>