<svg fill="#fff" height="2119" stroke="#00579c" stroke-linecap="round" stroke-linejoin="round" stroke-width="2" version="1.2" width="1000" xmlns="http://www.w3.org/2000/svg"><path d="M370.8 2117.2l-1.6.8-1.2-1.2 2.8-3.2.6-.1.1 1.6-.9.8.2 1.3zm-185.5-118.4l-2.6.8-.1-2.3-1.2-1.3 4.8-.6 1.6.6-1.5 1.5-1 1.3zm120.5-52.3v1.1l-1.7-1.7.7-4.4.9-.2-.2 1.9.4 2.2-.1 1.1zm40.3-20l-.9 1.9-1.8.7-1.4-.7h-2l-.4-.7.9-1.1 1.2-1 1.5-.8 1.9.8 1 .9zm638-527.9l.3 1.1-1.8-.3-.8-1.5-.3-1.5.8.3 1.2 1.5.6.4zm-31.5-246.1l-1.6.2-1.8-.6-1.1-.7.1-.6.9-.8 3.4-.1 1.5.7.5.9-1.9 1zm-79.9-78l-.7.4-.7-1.1-2.5-1.7-.2-1.2-.8-.7-1.8-.4-.3-1.2 1.5-1.1 1-.2 4.1 3.2.4 1.4v2.6zM518.9 585l-.8.3-1.1-1.5v-1l.5-.5 1.5-.3.7.6.1.8-.9 1.6zm245.3-110.6l-.4.5-1.2-.3-.4-.4.6-.7 1.1-.7.8-.1-.5 1.7zm-37.5-85.9l-1.8.9 1.4-1.7 1.1-1.7.4 1.1-1.1 1.4zm69.7-74l-.8.3-1.6-.2-1.1-.7.1-.8 1.9-.7.9-.1.8.4.2 1-.4.8zm-113 71.1l-1.3.4-1-1.5 1.2-1.9.7-.6.5.4-.3 2.4.2.8zm46.7-3.2l-1.2 1-.9-.9.9-1.1 1.3-.7-.1 1.7zm-50-5.9l1.2.2v.8l.8.6.2.9-.6.5-.1 1.5-1 .5-.9-2.1v-1.5l-.4-1.5.8.1zm39.9 4.4l-.4.7-1.3-1.4-.3-1.6.1-1.1.4-1 .7-.4.9 1.4.5 1.9-.6 1.5zm-4.4-5.8l-.1 2-.4.2-.7-.9-.9-.5-1.1.2-1.4-.7-1.1-2.5-.2-2.1h.6l1.6 1.9 1.7.5 1.6 1 .4.9zm-81-1.6l1.8 1 1.6-.2.3.6-1 .9-1.7.3-1.1-.2-.9-.5-1.9-2-.5-1-.1-1.5.6-.6 2.9 3.2zm69.5-2.9l-.7.7h-.9l-.2.5-1.1.3-.8-1.2 1.8-.7-.4-.5 1-.7v1.1l1.3.5zm-26.3.4l.3.8.7.7-.9.5-1.2-1.5-1 .3-.6-1 1.7-1.8.7.3-.2 1.1.5.6zm-27.9-3.4l.4 2.5h-.8v1l-2.1-1v-.8l1.6-1.5-.2-1.4 1.1 1.2zm12.8 1.9l1.5 1.4h.8l.2-2.4 1.3-.6 1.8.8 1.4 1.2v1l-.4 1.5 1.6 1.1 2.2.5 2.2-.1 1.1 1.8-1.2.5-.8-.4v1.1l1 .9.8 1-1.6-.3-1-.9-1.2-2.7-.5 1.3.1 1 .5.9.9.7v1l-1.8.7h-1.3l-1.2-.6-1.3-1.1.7 3.1 4.1 2.4.8 2.5h-1v-.9h-.8l-.7 2.5-1.2 2.5v-3.2l-1 .4-.9.7h-.9l-1-1.1v-.9h2.9v-.9l-1-1.1h-.9v1.1h-1l-1.7-2.1h-1l1 2.1v.9l-2.8-1.9-3-4.3-1.7-1.8-4-2.5-1.5-2 .4-2.7 3.2-1.1.9-.6.5-1v-1l.5-1 1.8 1.9 4.2.7zm-33.6-3.3l.9.4 1.7 3.5-1.6-.5-.9-1.5-1.4-.3-1.3-.8-.3-.9 1-1 1.1 1 .8.1zm62.9 1.3l-1.3-.8-1.6-1.3.9-.6 2 1.2.2.6-.2.9zm18.4-3.3l.7.3 2-.4 2.2.1 1.4.5.4.9-.7 1-.3 1-1.8.8-1.8-.1-1-.7-1.4-1.8H709l-.4-.9.2-.7.7-.3.9.3zm-4.3-.2l1.4 2.8-2.1-2-2.1-3.1.3-.2 2.5 2.5zm.1-3.2l.6 1.2.9 3.2-1.5-1.7-.5-1.8.5-.9zm-64.4 4.6l.7 2 4.9 6.5.7 3.7-1.8.9-2.4-.5-1.1-.6-.7-2.4-2.7-5.8-.4-3.4-.8 1.3-.2 1.3.3 1.3.7 1.2h-1l-1.8-1.1-2.1-.4-1.8-.9-.6-2.7 1-4.1 1.6-3.7 5.4 2.3 1.5 1.8.6 3.3zm20.6-5.5l-1.4-.8-.6-1.2 1.8-.8h.9v1.1l-.7 1.7zm54-5.7l-.4 1.3-2.8 2.7-1.6.7h-.7l-3.1-.7-1.2-.7-.2-.8 1.3-.1 1.8-.5 1.1 1.1.6-.6 1.7-.4 1.6-1.8 1.6-.8.3.6zm-1.1 7.8l-3.9.3-.3-.5 3-.7 4.5-1.3 1-.6.9-1.4.4-1.5 1.3-1.1.9-1.1 1.2-1 .8.6-1.3 2.8-1.5 1.9-1.8 1.5-5.2 2.1zm12.9 12.9h-1.8l2.2-5.1.3-2.3-1.6-1.7v-.9l2.9-.1 1.9-.5 1.4-1.2 1.3-2.1 3.2-6.7.5-2.4.7 1 .2 1-.8 3.3-1.2 2.5-6.4 9.6-.8 1.6-1 2.9-1 1.1zm-57.6-20.1l-1.9.8-2.1-.5-.5-.5 1.6-2.9.8-.1.9-.5 1 .2 1.4 2.2.1.5-1.3.8zm-39.3-3.8l.4 2.8-.2 1-.6.8-2.9-.5-1.5-.4-1.9.1-1.5-.3-1.3-.9-1-1.9.2-1.1.7-.5.9.5.5.7 1 .6 2.3.6.8-.6-.6-1.2v-.9l.6-.9.9-.4.7.1 1.2.9 1.3 1.5zm139.8-1.9v.9l-1.9-.9h-.8l.6 2.8-.9 2.2-2 1.7-2.4 1.2 2.5-4.9.2-1.6-.7-.9-1.3-.8-.8-1.3 1-2.5 1.7.5 4.8 3.6zm4.6.4l-1.3.1-.1-2.5 1.2-2.8 2.2-1.5 2 .3-.5 1.9-1.1 1.2-2.4 3.3zm-39.9-7.5v3l1.8-2.1.8-.5.8.5-.5 1.9-2.1 5.2-1.4 5.1-.9 2.1-1.4 1.8-1.9 1.1-2.2.5-3.3.4-6.1 1.5-2.3.4v-.9l3.9-1.8 3.7-2.1 3.1-2.4 2.4-2.7-.4-1.6.5-2.2 1.7-4.2 2 1 .4-1.3 1.4-2.7zm6.6-11.2l-.1 2.2-1.1 2.7-1.4.7-.1.9-1.4.7-2.1 1.7-.2.6-2.9 1.3-.8.6h-1.4l1.2-1.3 1.2-.7 1-.9 1.1-1.7v-1.5l1-.9.5-1.1.7-.7.9-2 .6-.3 1.4.5 1.2-.7.7-.1zm1.1 15.9l-1.4 3.7-2.7-.4 1.4-.6.2-.9-.6-3 .4-1.5 1.9-1.8.5-1.7.2-3.2.3-1.3.9-1.7 3.2-3.3.9-.6.5.2v1l-4.9 10.6-.8 4.5zm-.8-18.8l-.3 1.2-2.1 1.8-1-.9.2-.6.9-1.1 2.3-.4zm10.9-1.1l-.9-.4 1.7-7.2.5-1.2.9-.2-2.2 9zM747 314h-.6l-1.6-.7.6-.7 4.6-2.3.1 1.4-3.1 2.3zm-4.2-3.7l-.7.3-1.7.2-.8.4-.8-.7-1 .1-.8-.4.3-.9 1.8-1 2.1-.1 1.4.7.6 1-.4.4zm-7.5 8l.5.7h.8l.9-.6 4.8-1.3 3-1.1.4.3-.6 1.8-1.5 1.7-4.5 3.1-1.4 2.2h-1.1l-2-.4-2.7 2.9-4.6 6.4-1.5.8-3.3 1.3-1.7 1-4.6 3.9-2.1-1.7.9-3.3 2-3.6 1.1-2.9.3-1.7 1.2-4.1.6-4.4h.9l1 1.2.4-.1.2-1.2.6-.8 1.3-.3-.6-1-.2-2.3.3-3.7.7-2.7 1-.8 1.1.1 1.9 1.4 3.2 4 .9.7 1.6.5.3 1.3.1 2.1.4.6zm2.3-11.3l1.5-.1-.5.9-1.9 1.3-1 .4-1-1.6 1.1-1.5 1.8.6zm29 0l-.8-.4.7-1 1.6-.5 2.7-.3.4.7h-1.8l-1.1.3-1.7 1.2zm-8.2-1.5l-5.3 3.6-.1-.2 2.3-2.8 2.4-1.4.7.8zm14.9-8.1l-13.3 5.8 2-2.4 7.9-4.8 2.2-.8 1.8.2.6 1-.2.8-1 .2zm25.6-7.4l-5.2 3.5-2.1.8-1.1-1.2h-.8l-1.1.6-9.2 3.2-1.8.3.3-1.5.7-1.7.9 2.1.6-1.2.8-.9 1-.6-2.8-.1-3.4.7v-.9l4.5-1.4 1.1-.6 17.6-2v.9zm-182.8 55.3l-1 .1-5.2-1.2-3.8-2.3-13.4-1.6-2.9-.7-1.7-1-.6-1.5-.1-1.7.2-1.8.7-1.3 1.5-1.1 3.5-1.2 1.6-1 1.5-1.3 1.4-1.6 2.3-3.3 1.7-3.1 29 4.7 8.8-.1 7.2-2.2 6.3-.9 3.3-.9 2.1-1.2 1.2-2 1.1-2.7 1-3.1 1.5-9.2 1.2-1.8.9-1.2 6.9-3.7 4.8-.5 3.6-.9 8.7-3.3 3.2-2 2.3-2.2 1.4-2.2.9-2.9.1-2.2-.4-2.2-3-6 1.2-2.4 1.1-1.7 12.5-8.2 2 1.9 4.7-2.9 3.7-3.8 2.2-1 2.7.8 1.5 2.2.5 5.1 1.8.9 2.3.9 1.4.4h1.2l1.1-.8 1.1-2.4.9-.8 2.4-.3 5.7.8h2.8l7.9-1.8 2.5-1 5.4-4 2-.8 2.1-.1 2.4.3 4.6 1.2 2.8 1.3 1 1.3.7 1.9 1.5 2.5 1.6 1.6 3.9 2.9 4.7 5.1 1.8.5 6.4 6.6-2.9 1.4-2.9 3.1-2.6 1.8-1.8-2.3v-1.5l1.8-2.1-.1-1.1-.9-1.8-.5-2.2-1.2-1.3-1.7-.7-2.1-.4.1 1.7-1 1.3h-.9l-.7-2.4-1 1.3-1.1 4.1-1.6.7-1-1-.3-2 .1-2.6h-.9l-1 .9v1l.8 1.1.2 1.9h-1l-.8-2-1 1.1-.5-2.9-1.7-.7-2.3.6-2 .9v1h2.2l1.7.6 1.1 1.2.5 2.1-1.8-.8.7 3 .3 1-1.5-.1-1.1.5-.8.7-.4.9.9.9-2.3 4-2.4-.1-1.2.1-1.4 1.7-1.8.1-1.9-.7-1-1.1h-1l-.9 1v.9l.9 1.8-.8 1.1-1.8.2-2.1-1 .4 1.4.6.5v1.1l-1.1.6-.4.6.4.8 1.1 1-.9.1-1.9.9.4.7-2.2-.7-.6 3.6-.6 1.7-1.2.8-2.3-.2-1.5-.5-1.1-.9-1-1.5-.6-1.7-.3-1.6-.7-1.1-1.8-.5v.6l.9 3.1-.5 1.2v1.1l1.7.8-1.5.4-3 .1-4.4-.8-1.4-.8-.6-1.3-.8-.3-4.9-1.2-.8 2 .9.9 3.7 2.2v.9l-2.7 1.1-4.3-.1-3.3 1v1l.8 1.1-.3.9-.8.8-.6 1.2-.2 5.3-.7 1.7 1.1.8 1.2.6 1.2.1 1.2-.5-.9 6.5-.9 3.4-2 2.1.8 1.2.1.8-.5.5-1.3.4.6 2.1.3 2.2.5 1.8 1.4.9v.9l-2.3 1.8-1.3.8-1.9.6-5.7.2-1.7.7-1.8-.7-2.9.2-2.8.7-1.8.9 1.7.8 1 .1v1l-2.2.5-2.9 3.3.5 2.2-2.1.1-1.4.5-1.4.1-1.6-.7v1l-2.1-2-6.6-1-2.6-1.1v-.9l4-5.1 7.3-4.9v-1l-1.8.1-1.7.4-1.7.6-1.3.8-.6 1-.6 1.8-1.2.4-.5-.5.2-1 .8-1.7-.9-.9-1.1 2.4-1.3 1.2-.7-.7.3-2.9h-.9l-.1 2.9h-.8l-.3-1.6-.9-1.1-1.7-.2v.9l1.9 2.1h-1.9l1.9 2h-1.9l-1.3-.7-2.4-2.3-.4 2 3.5 2.9.6 2-1.2 2.2-2.1.9-2.6.2-2.5-.2-2.2-.4-2.1-.8-1.7-.9-1.4-1-3.3-3-1.5-.6-.8 1.7-.6-.9h-1.3l4 4.6 1.6 1.3 3.7 2 .5 1 .3 1.2.6 1.1 1.4.7v1l-3.5-.1-2.1-.6-1.4-1.5-1.3-2.8h-1l.2 1.3.9 2 .8.7-2.8 4-1.1-1-1-3-2.6-2 .5-.8-.5-1.2h-.9l-2.8.8-3.1-1.5-1.4-2.2 2.2-1.1 2.5-.1 1.3-.5.5-1-.1-1.4-2.4-1.4-.5-1 1.9-1.6-1.9-1.7-1.2-.4h-1.5l.9 2.1-3.1-.3-2.2-1.3-2.1-.8-2.8 1.4v1h1.1v1.1l-5.1-2.1-3-.7-2.2.7 1.2.3zm-29.4 1323l3.5 1.2 1.5 2.2 2.1 8.5.4 2.6v1.7l-.6.4-2.8.7-4.6 8.3-2.5 3-1.3 1.1-2.1 2.1-1.1 1.6-3.6 7.7-.8 2.5-.5 2.7-.2 5.4.2 2.2.5 2.3.8 2 1.5 2.9.8 1.1 1 2.3.6 2.3 1.4 1.7 2.2 1.6 1.8 2.2 1.2 4.4-1.5 8.2-1 2.7-1.5 3-1.3 1.9-3.7 3.9-4.7-4.2-1.8-1-1.8-.7-.8.3-.4.9.2 2.3-.3 1.1-1.1.8-11.2 3.4-1.9-.1-1.3-.3-1.1-.9h1.4l.9-.8-1.5-2.8-2.2-7.9-1.6-2.4-2.4-1.8-2.3-.4-2.1 1.2-1.6 3-1.4-2.8-1.8-2.3-4.7-4.1-2.1-2.3-3.3-5.2-2-1.8-7.2-1.8-2.8-2.1-1.5-3.9-.3-3-1.8-1.1-2.2-.5-1.8-1.4-.1-2 2.2-10.4 1.5-4.7.4-2.1-.2-2.1-2.1-7.3.3-3.6-.1-1.8-.7-1.6-1.5-1.1-3.6-.7-1.6-.9-1.8-2.9.4-2.8 1.6-2.4 1.8-2 3.1-2.6 2.3-.5 6.4 2.4 3.9.2 1.6-2 1.3-2.9 3.8-3.9.7-1.7.4-1.9.1-1.9 3.1-3.4 6.3 1.1 7 2.2 5.6.1 9.4 2.9 2.7 1.5 1 1.2 1.9 3 1.2 1 1.8.3 7.7-2 1.4-.1 1.4.2 1.9.6 2.9 2.2 1.8.9 1.7-.1 1.2-2.2zM195.3 218.6l.9 19.5 1.7 11.6-.1 4.6-1 4.7-2.1 3.7-2.7 3.5-6.1 5.3-2 2.9-1 2.5-.7 3.3-1.1 1.8-1.4 1.4-5.2 2.3-1.5 1.3-1.1 1.8-.2 1.6.5 1.1 1.8 1.5.4 1.5-.4 2 .2 1.6 1 1.5 5 3.9 1 2.3.5 3.3-.4 5.6-.9 4.2-2.6 5.7-.4 2.1.4 2.3 2 5.4.2 2.9-.9 1.7-1.9.9-2.3.4h-2.7l-2.5-.5-2.2-1.1-2-1.5-1.7-1-1.7-.5-1.5.1-.9.8-.3 1.1.1 1.7.5 2.2.2 2.7-.5 2-1.2 1.4-2.9 1.8-1.3 1.7-.6 2.1-.5 5.1-1.6 5.5-.6 4.7.3 4.6-1 .3-1.6-.1-1.3-.5-1.9-1.3-1.1-.6-1.4-.4-2.4-.3-1.5-.6-.8-.7-2-1.9-3.9-4.9-2.5-4.3-4.3-9.3-3-6.6-2.1-2.4-3.4-1.5-2 .3-1.1-.5-1.2-2.3-1-2.6-1.3-5.7-1.5-2.4-1.4-.9-2-.3-.9-1.4v-1.4l1.2-2.9.2-1.4-.7-1.7-1.3-1.6-1.8-1.2-2-.8-3-.1-2.6.3-1.1-.7 1.6-2.7 2.2-1.8 4.6-1.1 1.7-1.7.5-2.5.1-6.6.5-3 4.5-7.3.2-1.7-1.9-.4-2.6 1.3-2.7 1.7-2.1 1 6.2-10.2 2.9-2.7 5.1-6.4 2.7-2.6v-1.7l-1.4-3.1-.4-3.6.1-10-.2-1.7-.6-1.6-1.1-1.9-.7-.3-.7.6-9.9 4.3-2.3.1-1.7-1.7-.4-2.8.4-5.9-1.1-6.6-2.7-2.2-2.4 2.3-.3 11.8-1.7 4.7-3 3.9-4.2 2.8-1.5.3-7.2.2-.9.1-1-1.5-.9-2.3-.6-3.3-.3-3.4.6-8.5-1.3-6-4.6-10.6-4.2-3.6-6-2-5.1-2.7-1.6-5.5.1-.6 2.1-3.2-2-1.9-3.4-1.9-2.8-2.2-1-1.6-1.3-3.7-.9-1.5-1.3-1.2-4.2-2.6-9.7-9.6-8.2-4.1-2.6-2.5-.9-3-1.9-1.9-2.4-1.6-2-2.2-.2-.9.5-1.8-.5-1.4-1.5-1.4-1.4-4.7-1.7-3.5 1.4-1.9 2.5-1.5 2.3-.7 3 .7 2.3 1.2 2 .3 1.8-2.3.7-2.5.8-5 1.4-2.6 9.8-10.3 7.4-1.5 3 .1 7.7 1.9 6.8-.7 2 .7 1.9 3 1.9 1.5 2.3 1 1.3 2.5 9.1 10.5 2.5 1.8 5.2 1.4 4.8 3.1 5.4 4.8 3.2 4.3 2.3 5 1.1 5.4v4l1.6 2 1.1 2h2.1l3.9-1 2.6 1.4 1.1 3.2.8 3.7 1.6 2.7 2.4.2 12-1.7 3.6 1.1 3.9 2.6 6 5.4 5.1-.4 11.8 5.9 2.7-.9-2.5-2.2-.4-1 .5-.8 7.8-10 2-1.2h3l3 1.2 2.3 2 .9 2.4.4 3.5.9 2.1 3.4 2.9 1.5 1.9.8 2.5.4 2.9.1 3.1.5.7 2.5 1.7 1.2.3.6.6 6.3 11 .9.9zm358.6-76.2l2.4 5.3 1.3 7.3 1 1.9 3.4 3.7.8 1.5.2 1.5-.3 1.8-2.3 7.6-6.8 12.7-1.1 1.4-1.2 1.2-1.4 1-2.7 1.5-1.4 1.1-1.3 2.2-.6 2.8-.7 12.7-7 1.3-1.5.8-2.1.9-1.3.9-1 1.4-1.5 2.7-.9.9-3.1 1.2-2.1 1.1-6.4 5.4-2.2 1.3-2.2.5-2.5.1-1.9.3-1.6.8-.9 1.5-1.6 2.9-.9.7-1-.1-.8-1.1-.8-2.8-1.1-3.1-.2-1.4-.2-3-.7-3.5.2-2.3.5-2.1V213l-.8-2.9-.3-3-.4-1.8-1-1.9-1.8-2.1-2.3-2.2-2.4-1.5-2.4-.4-2.2.3-5.2 1.7-2.5 1.3-2.6 3-3.2 4.8-3.6.9-1.6-6.6-4.9-8.8-1.2-3.1-.8-3.5-.9-7.8.9-16.7.7-3.9 1.2-3.5 1.5-3.2 4.5-7.3 4.8-5.7 1.6-2.6 1.2-3.4.2-3.2-.5-3.8-1.4-3.8-1.4-3.2-2.5-4 6.1-5.9 4.8-6.7 6.1-4.9 2.2-1.2 2.1-.7h1.7l4.1 1 .9.6.4 1 .1 1.5-.5 1.7-1.4 4-.4 2 .1 2 .5 1.9.8 1.8 2.3 3.9.8 2.3.5 2.5.8 3 1.6 3 3.8 3.5 2.4 1 2.6.4 2-.4 2-.8 2.1-1.5 2.1-1.2 3.4-1.3 2.5-1.7 1.7-.9 7-2.2 4.6-.3 2.2.5 1.3 1.2-.1 2.9.2 1.3.9 1.1 2.3 2.1.5 1.5-.1 3.6.3 2 1.3 1.8 2 1.6 4.2.3z"/><path d="M543.2 209.6l.5 7.3 1 3.9 1.6 3.8.2 1.8v3.1l.5 1 .8.5 1.2.1 1.6.8 1.8 1.5 9.7 13.2.5 1.5-.2 1.1-3.3 2.9-3.1 3.8-5.5 8.9-.9-4.7-.8-1.2-1.5-1.5-2.3-.6-8.2-1.1h-2.2l-1.2.7-.4 1.2.2 1.6 4.3 15.5v3l-.6 3-2.2 4-2.1 2.1-2.3 1.1-2.2.1-1.6-.3-1.4.1-1.3.6-6.8 11.8-3.5-.9-6.3-4.3-5.9-1.4-2.7.4-1.8 1.2-1.1-3.3-1.1-2.3-2.1-2.5-14.1-10.4-8-8-3-1.9-1.3-1.5-1.2-1.7-2-4.2-.5-4.1-.1-5.3 2.3-28.5 2-6.6 1.1-5.7 3.6-.9 3.2-4.8 2.6-3 2.5-1.3 5.2-1.7 2.2-.3 2.4.4 2.4 1.5 2.3 2.2 1.8 2.1 1 1.9.4 1.8.3 3 .8 2.9v1.9l-.5 2.1-.2 2.3.7 3.5.2 3 .2 1.4 1.1 3.1.8 2.8.8 1.1 1 .1.9-.7 1.6-2.9.9-1.5 1.6-.8 1.9-.3 2.5-.1 2.2-.5 2.2-1.3 6.4-5.4 2.1-1.1 3.1-1.2.9-.9 1.5-2.7 1-1.4 1.3-.9 2.1-.9 1.5-.8 7-1.3zm-348-102.8l3 2.5 4.1 7.8 1 3.4.6 3.2-.5 2.5-1.4 1.7-1.6 1.7-1.3 1.7-.2 2.2 1.5 2.3 3.4 2.6 2.8 1.6 2.6.8 2.3.1 2.3-.5 2.2-.6 2.9-.2 3.1.9 4.4 3 2 2.6 1 2.7-.2 2.6-.9 2.7-3 5.7-6.1 7.6-1.7 1.7-2 1.4-6.8 2-2 1.4-1.7 1.7-2.8 4.3-1.2 2.4-.9 2.4-2.2 12.4-3.9 5.1-.7 2.3v2.9l2 11.2-.9-.9-6.3-11-.6-.6-1.2-.3-2.5-1.7-.5-.7-.1-3.1-.4-2.9-.8-2.5-1.5-1.9-3.4-2.9-.9-2.1-.4-3.5-.9-2.4-2.3-2-3-1.2h-3l-2 1.2-7.8 10-.5.8.4 1 2.5 2.2-2.7.9-11.8-5.9-5.1.4-6-5.4-3.9-2.6-3.6-1.1-12 1.7-2.4-.2-1.6-2.7-.8-3.7-1.1-3.2-2.6-1.4-3.9 1h-2.1l-1.1-2-1.6-2v-4l-1.1-5.4-2.3-5-3.2-4.3-5.4-4.8-4.8-3.1-5.2-1.4-2.5-1.8-9.1-10.5-1.3-2.5-2.3-1-1.9-1.5-1.9-3-2-.7-6.8.7-7.7-1.9-3-.1-7.4 1.5 7-7.4 1.1-2-.8-1.5-.8-.9-1.3-.9-1-1v-1.7l.9-1.1 1.4-.1 1.6.1 1.4-.5 1.7-1.9 1-2.4 1.5-5.2 2.3-2.9 3.4-.5 3.6 1.2 2.9 2.2 1.4 2.9.4 2.6.9 1.8 3.1.1 1-.7 1.4-2.1 1.4-.3.6.5 2.1 2.4.8.7 2.7 1 5.4 1 2.8 1.1 8 6.7 2.7 1.1 5.7 1.3 2.5 1.3 1.8 2.2 1.1 2.4.8 2.7 4.7 9.2 1.2 1.5 2.3 1.2 5 1.4 4.4 3.3 2.7 1h2.8l2.1-1.5.6-2.4-.6-2.3-.1-2 1.9-1.3 2.2-.4 2.3-1.1 6.9-4.8.5-1.1-.2-1.5-1.6-2.1-.3-1.2 1.5-4.2 3.7-2.9 8.1-4.3 2.2-1.9 1.1-1.5 2.3-6.5 5.4-9.6 1.7-.3 3 1.1 1.8 1 1.6 1.3 1.3 1.5 1.2 1.7 1.9 1.1.3 2.1-.2 2.5.3 2.6.9 2.1 4.9 8.3 3.5 3.9 1.7 1.1 2.5.4 1.4-.8 4.3-6.5.7-1.4-.2-1.2z"/><path d="M600.1 142.9l.2.8.3 5.5.7 2.2 1.8 2 3 1 5.4.3 2.3 2 .8 1.8 3.1 10.8-.3 1.5-1.2 1.1-1.6 2.2.3 2.1.9 1.6 1 1.5.7 1.7v1.1l-.4 2.3v1.2l.4.8 1.5 2.1.1 3.8-.7 3.5-2.7 6.9.2 2.6.5 1.3.8.9 2.1.1 2.1-1.6 4.4-5 .9-.2 1.8.7.8.5 1.7 2.2 2.8 1.5 2.4.3 5.6-.1 3.3.8 1.6 1.6 1.2 2 1.8 2.3 3 1.6 2.3-.5 2.2-1.3 2.4-1 2.8.1 2.3 1.1 1.5 2.2.1 3-1.2 2.4-2 2.2-1.4 2.3.3 3 1.9 2 2.8 1 5.7 1.2 3.9 2.5 10.6 9.3 5.4 1.4 4.3-1.4 3.9-.5 4.1 4.4 3.6 10.6.5.5-12.5 8.2-1.1 1.7-1.2 2.4 3 6 .4 2.2-.1 2.2-.9 2.9-1.4 2.2-2.3 2.2-3.2 2-8.7 3.3-3.6.9-4.8.5-5.6-2.2-.7-1.2-.7-1.8v-4.4l-.9-2.2-1.4-.6-1.8.4-2.5.7-2.8.2-3-1.2-1.7-2.3-1.4-3.1-3.6-5.1-2.1-3.5-1.2-3.2-.5-2.5-.7-1.9-1.6-.6-2.2.7-2.3 1.2-1.9 1.4-3 2.9-1.5.8-2.1-.2-1.8-1.6-5-5.4-3.2-1.3-3.7-.3-3.5.5-3.4 1-2.8 1.9-2.6 2.6-2.5 3.4-4.3 11-1.7 3.1-2.4 2.6-3.3 1.9-5 1-3.5-.5-2.8-1.4-8.2-7.8-4.3-2-4.3-1.1-4.4-.5-2.5-.9-1.7-1.3-.8-2-.2-2.2 1.3-3.6 5.5-8.9 3.1-3.8 3.3-2.9.2-1.1-.5-1.5-9.7-13.2-1.8-1.5-1.6-.8-1.2-.1-.8-.5-.5-1v-3.1l-.2-1.8-1.6-3.8-1-3.9-.5-7.3.7-12.7.6-2.8 1.3-2.2 1.4-1.1 2.7-1.5 1.4-1 1.2-1.2 1.1-1.4 6.8-12.7 2.3-7.6.3-1.8-.2-1.5-.8-1.5-3.4-3.7-1-1.9-1.3-7.3-2.4-5.3 4.5-4.1 2-1 2.4-.7 1.9.1 1.9.7 11.3 7.7 3.9 1.5 3.8.4 3.7-.1 3-.4 2.8-.8 4.5-2.4.5-.4zM246.2 243l12.3 5.1 20.9 3.7 4.6-.2 3.8-1.3 5.2-4.3 2.4-1.3 2.6-.2 2.7 1.4 2.1 2.2 1 2v2.6l-2.9 7.8-1.5 5.3-.8 5.6-.1 4.4.7 3.9 1.7 3.5 3.9 4.1 12 7.1 3.3.8 2.8-.5 9.2-5.7 3.2-1.2 2.9-.1 3 1.1 3.7 2.3 2.8 1.1 2.3.2 4.2-1.4h2l1.6 1 1.4 2.2 1.1 2.4 1.8 2.6 2.2 1 1.9.3 2.6-.6 5 11.6 1.4 6.7-.6 8.1.3 1.6.6 1.2 2.3 1.8 1.8 2.3-3.6 5.8-.2 2.2v3.5l1.5 2 1.7 2.6 1.3 3.9 11.3 12.6 1 .6 1.3 1.8 9.9 6.9.6.8.3 1.9-.6.2-1 1.4-.6 1.6-3.4.6-.6.8-2 1.9-2.6 1.5-2.6.9-2.8.5-11.9-.7-2.1.2-1.8.8-1.4 1.5-1 3-.2 6 .6 4.3-4.4 5.1-2.1 1.2-2.5 1-2.3.2-2.1-.5-2.2-1.2-4.9-3.6-2.1-2-4.5-2.6-3.9-.1.1-.5-2-2.1-7.7-2.6-7-3.4-2.2-2.3-1.3-4.6-1.9-2-2.7-.3h-3.1l-2.8-.8-1-1.1-1.1-2.5-.7-1.1-1.1-.7-2.1-.8-1.1-.8-1.8-2.1-2.2-4.5-1.6-2.2-2.2-1.7-2.6-1.1-1.3.1-3 .9h-1l-.5-.7-1.4-3-.8-1.1-1-.7-3.8-1.4-1.5-.2-3.1-.1-1.2-.2-1.2-.6-2-1.5-1-.5-4.8.3-6.2 7.4-5 .8h-1.6l-1.4.3-2.7 1.3-10 3.2-1.1.7-2 1.8-1.2.7-1.4.1-2.7-.4-1.5.5-1.3 1.6-1.4 2.7-1.2 3-.5 2.3.3 3 .5 1.4-.6 1-2.7 1.7-1.7.6-1.2.2-.8.5-.7 1.9.2 1.4 1.4 2.8v1.2l-.7.7-1.5.8-1.7.6-1.2.1-1.5-.2-4-3.6-5.2-5.7-2.7-1.6-8.3-1.8-1.4-.1-1.2-.3-2.1-1.4-1.5-1.9-2.5-4.8-1.6-1.7-1.9-.7-.7.4-.4.9-1 .9-2.7 1.6-3.7 1-2.2-.2-3.8-1.3-7.6-4.1-2.3-.7-1.2.1-1.6.6-.3-4.6.6-4.7 1.6-5.5.5-5.1.6-2.1 1.3-1.7 2.9-1.8 1.2-1.4.5-2-.2-2.7-.5-2.2-.1-1.7.3-1.1.9-.8 1.5-.1 1.7.5 1.7 1 2 1.5 2.2 1.1 2.5.5h2.7l2.3-.4 1.9-.9.9-1.7-.2-2.9-2-5.4-.4-2.3.4-2.1 2.6-5.7.9-4.2.4-5.6-.5-3.3-1-2.3-5-3.9-1-1.5-.2-1.6.4-2-.4-1.5-1.8-1.5-.5-1.1.2-1.6 1.1-1.8 1.5-1.3 5.2-2.3 1.4-1.4 1.1-1.8.7-3.3 1-2.5 2-2.9 6.1-5.3 2.7-3.5 2.1-3.7 1-4.7.1-4.6-1.7-11.6-.9-19.5-2-11.2v-2.9l.7-2.3 3.9-5.1 4.9-1.2 1.7.8 2.3 1.8 1.7 2.9 6 16.1 2.6 4.8 16.8 18.8 3 2.5 2.9 1 2.4-.5 4-1.1z"/><path d="M370.7 402.3l4.2.9 6.2 3.2 2.7.9 17.3 2.3 2.6-.1 4-1.7 3.1-.5 1.9.7 1.7 1.4 4.4 6.3 2.2 2.1 12.9 9 19.9 10.2 4.9 1.8 3.4.9 3.6.1 28.8 24.6 8.7 6 5.8 3 7.7 2.3 3.5 2.2 2.7 2.2 2.5 1.5 2.3.7 4.6.4 2.2.5 1.4 1 1 1.3.4 1.4v1.1l-.3.8-1.2 1.5-3.4 2.5v.7l-.3-.5h-.9l-.8 1.9-1.5 1.8-6 5.5-1.2 1.4-.8 2.2v1.4l1 2.2v1.4l-2.9 4-.5 2.1.1 4.1-.5 1.6-1.8-1.9-.9 1.5-1.9 1.4-3.7 2 .8 1.1 1.8-.9 3.9-.4 1.8-.8-.8 1.9-2.4 3.3-.5 2.3-.9 1-1.9-.1-1.9.1-.9 1.9-.6 2.4-3 4.8-1.1 2.3-.2 2.2-.1 4-.6 1.7-.2-3.3-1.9-.4-1.7 1.4.6 1.3 1-1.3 1 .5.4 1.4.2 2.3h.6v5.4l-1.5 10.9.6 5.4-1.9-1-1.8 3.9-1.9-.9v.9l1.5 1.3.6 1.6.7 4.1 2.5 4.8.3 2-2.8-1.9.9 3 1-.4.7.4-.3 2.8-.3.9-5.8-2.9-8.7-1.2-1.7-1-7.5-7.6-2.7-1.9-2-.9-1.5-.9-1.3-1.3-3.5-5.6-2.2-2.6-3.8-2.3-3.1-.6-6.4.7-2.8-.6-2.1-1.5-4.1-5.9-1.8-2.2-2-1.2-1.8-.2-1.6.6-1.3 1.1-3 3.1-1.2.3-.7-.7-.1-2.5.2-6-.2-3-1.2-3-2-2.7-7.8-7-3-3.9-2.9-6.3-1.1-4.2-.3-3.5.5-2.3 1.1-2 3.3-3.5 1-1.9v-1.8l-1.4-2-2.4-1.5-8-2.2-4-1.6-6.6-4.1-7-2.7-2.3-.5.5-.5.5-2-.3-1.8-.4-1.7-.2-2.7-.4-1.2v-.9l.5-.4 1.9-.4.4-.5-1-2.3-5.2-3.5-1.9-2.7-.2-3.2.8-1.6-.2-1.1-12-6.6-5.5.3-6.1 2.1-5.8 1.1-4.6-2.3-.6-1.9-.1-2.9.2-3 .5-1.9 1.2-.9 1.1.1 1.1-.3.9-2 .1-1.3-.2-1.7-.5-1.6-.5-1.2-1.9-1.5-5.2-2.1-2.2-1.5-3.1-4.4-1.9-1-19.4.4-5.5-1.4-4.3-2.8.9-2.7 7.7-5.3 2.9-5.7 3.4 2.7 3.5.6 3.4-1.1 3-2.4 8.7-12.1 1-3.4 3.9.1 4.5 2.6 2.1 2 4.9 3.6 2.2 1.2 2.1.5 2.3-.2 2.5-1 2.1-1.2 4.4-5.1zm98.4-287.2l2.5 4 1.4 3.2 1.4 3.8.5 3.8-.2 3.2-1.2 3.4-1.6 2.6-4.8 5.7-4.5 7.3-1.5 3.2-1.2 3.5-.7 3.9-.9 16.7.9 7.8.8 3.5 1.2 3.1 4.9 8.8 1.6 6.6-1.1 5.7-2 6.6-2.3 28.5.1 5.3.5 4.1 2 4.2 1.2 1.7 1.3 1.5 3 1.9-3 2.3-2.2 1.1-6.7 2.6-4 .8-9.1.3-10.3-2.8-5.2-8-6.2-7.2-7.8-7.1-8.7-5.4-1.9-1.9-1-1.8-.7-3 .5-2.4 1.5-4.2-.9-2.8-2.3-3.4-9-10-1.8-2.6.2-7.4-.8-2.4-1.3-2.5-2.8-2.7-5.7-3.9-4.9-5.4-4.9-11.8 5.6-5.8 5.4-8.6.7-1.7.6-1.7v-3.9l.2-2.1.8-1.8 1.5-1.3 2.6-.3 2.2.4 3.9 1.5 1.5.1 1.2-.6 1.1-1.6 2.3-9.6 1-2.8 1.3-2.7 1.7-2.7 4-4.6 1.4-2.4 3.3-9.1.7-2.5.8-4.7 1.2-1.3 2.3-.3 5.2 1.3 14.8 5.5 8.5.7 12.7 2.3 9.2-1.7z"/><path d="M371.4 177.1l4.9 11.8 4.9 5.4 5.7 3.9 2.8 2.7 1.3 2.5.8 2.4-.2 7.4 1.8 2.6 9 10 2.3 3.4.9 2.8-1.5 4.2-.5 2.4.7 3 1 1.8 1.9 1.9-5.4 3.7-2.6.9-7.4 1.7-3.6 1.3-3.4 1.7-3.4 2.9-2.5 3.6-1.8 4.2-.3 6.4 1.1 5.6 3 9.4.2 3.3-1.6 2.7-1.7 2-9 5.2-2.6.6-1.9-.3-2.2-1-1.8-2.6-1.1-2.4-1.4-2.2-1.6-1h-2l-4.2 1.4-2.3-.2-2.8-1.1-3.7-2.3-3-1.1-2.9.1-3.2 1.2-9.2 5.7-2.8.5-3.3-.8-12-7.1-3.9-4.1-1.7-3.5-.7-3.9.1-4.4.8-5.6 1.5-5.3 2.9-7.8v-2.6l-1-2-2.1-2.2-2.7-1.4-2.6.2-2.4 1.3-5.2 4.3-3.8 1.3-4.6.2-20.9-3.7-12.3-5.1 1.6-2.8 1.8-4 .4-2-.1-1.8-.9-1.9-4.4-7.1-.3-1.1.4-1.1 1-1.4 2.3-2.5 2.8-4.6 2.4-6 .9-.9 1.4.2 1.6 1.1 3.8 3.8 2.4 1.6 2.4 1 2.8.5 5.7.5 2.5.5 2.1.9 1.7 1.2 1.3 1.2 1.3.2 1.2-.7 1.4-2.5.7-2.2.1-2.1-.2-1.7.4-1.1 1.1-.3 1.4.6 3.5 2 11.2 5.2 3.3 1 2.6.2 2.3-1 1.9-1.9 1.5-2.3 1-2.9.1-2.5-.5-2.7-1.3-3-5.7-10.2-1.1-3 .5-2.6 2-2.5 4.3-2 3-.1 2.9.8 9.2 6.4 1.7.6 1.5-.6 1.7-2 2.2-3.8 1.9-2.1 2-1.3 1.8-.6 1.2-.8.4-1.6-.3-2.1-1.9-4.4-.5-4.5 3.1-1.5h2.3l2.9.6 2.5 1.5 2.1 2.3 3.4 5.5 2.9 2.9 3.6 1.3 3.2.7 3.8-.4zm62.4 169.1l9.3-1.6 8.3.6 3.7 1.1 2.9 1.6 2.5 1.9 1.8 2.4 1.3 2.3.6 2.2.2 1.8-.3 1.6-3 5.5-.4 2.3.2 2.3 1.2 2.6 2.1 2.2 11 7.6 2.3 2.8 1.4 2.9 1.8 6.1 1.4 2.8 2.2 3.4 1.5 1.5 1.9 1 2 .5 2.5 1.1 2.2 1.2 4.3 4.7 3.1 10.9 4.4 10.7-4.7-.7-4.9-2.5h-1.5l-1.7.5-4.5 2.7-1 .9-.2.9.2 1.2.8 2.1.5 2.4.3 2.5-.3 2.2-1.2 1.4-1.6.6-2.8-.4-2.5-1.5-7.4-6.1-2.1-1.2-1.8-.2-1.4.1-2.7 2.7-3.6-.1-3.4-.9-4.9-1.8-19.9-10.2-12.9-9-2.2-2.1-4.4-6.3-1.7-1.4-1.9-.7-3.1.5-4 1.7-2.6.1-17.3-2.3-2.7-.9-6.2-3.2-4.2-.9-.6-4.3.2-6 1-3 1.4-1.5 1.8-.8 2.1-.2 11.9.7 2.8-.5 2.6-.9 2.6-1.5 2-1.9.6-.8 3.4-.6.6-1.6 1-1.4.6-.2-.3-1.9-.6-.8-9.9-6.9-1.3-1.8-1-.6-11.3-12.6-1.3-3.9-1.7-2.6-1.5-2v-3.5l.2-2.2 3.6-5.8 1.6 4.2 1.1 1.1 1.9 1.6 13.5 6.6 10 8.5 3.1 1.4 2.9.5 4.7-.3 2.3.1 11.5 3.3 2.7.2 2.3-.7v-5.4l-.4-3.7-.9-1.6-1-1-1.1-1.8zm168-26.5l-1.7 3.1-2.3 3.3-1.4 1.6-1.5 1.3-1.6 1-3.5 1.2-1.5 1.1-.7 1.3-.2 1.8.1 1.7.6 1.5 1.7 1 2.9.7 13.4 1.6 3.8 2.3-1.6 6-.1 1.6-.8 1.4-1.8.8-2.3.4-1.7 1.1-1.1 1.7-.4 2.9.4 2.2-.2 1.9-.9 1.4-2.4 1.2-1.9 1.4-.8 2.4.8 1.8 1.4 1.4 1.6 1.1 3 1.5.4 1.3-1.1 1.9-7.4 7.1-2.8 1.7-5.8.3-21.7 3.4-9-9.3-2.9-1.9-4.3-3.3-1.6-2.6-.6-2.8.5-2.6.9-2.8 3.7-8.1-1-10.5 10.1 1.8 3.1-.1 3.9-.6 2.3-1.4 1.6-1.9.9-2.6.3-2.8-.2-3-2.2-9.2 4.3-7.8 3.1-2.5 4.5-2.6 4.9-1.2 4.9-.2 4.1.6 3.5 1.6 2.1 1.4 2.2 2z"/><path d="M616.1 345.3l4.3 1.8v.9l-.9-.3-2.8-.6v.9l1.4 1.3.5 1.5.2 1.6.7 1.5 1.4.9 3.5.2 2.9 1.3h1.7l1.2.6.5 2.5-.3 1.9-1.2 1.9-.4 1.7h-.9l-2.7-2.9-2.5 3 1.1 1.7 2.6 1.4 2.4 1.8 1.1 3.3-.5 3.2-1.7 1.3-2.5-1.9.9 2.6 1.9 3 2.3 2.7 2.3 1.8.8-1.1 1.4 2.3 2.3 7.7-2.8-2.2-1.2-1.3-1.2-1.7-1.6.6-1.5 1-.4.6-1.2.2-2.2.8h-1.7l-3.9-1.1-1.7.1v1l3.4 1.4 2 1.4.1 1.8-2.8 2.3-1.8 1-2.1.8-2.2.4-2.3-.2-1.2-.8-1.9-2.9-1.5-1.2.9 2.4-4.4 1-1.4.9-.9 2.3-.9.8-1.2.5-1.2.3-3.4-.1-2.6.9-.9.1-1.2-1.2-1.6-2.8-2.4-6.2-1.8-7 5.8-.3 2.8-1.7 7.4-7.1 1.1-1.9-.4-1.3-3-1.5-1.6-1.1-1.4-1.4-.8-1.8.8-2.4 1.9-1.4 2.4-1.2.9-1.4.2-1.9-.4-2.2.4-2.9 1.1-1.7 1.7-1.1 2.3-.4 1.8-.8.8-1.4.1-1.6 1.6-6 5.2 1.2 1-.1zm-67.7 2.9l1 10.5-3.7 8.1-.9 2.8-.5 2.6.6 2.8 1.6 2.6 4.3 3.3 2.9 1.9 9 9.3-3.3 2.5-1.6.9-2 .8-7.2-.3-2 .3-1.9 1.1-1.6 1.4-.1 2.6-4.9 2.4-2.3-.2-.8-.8-3-4.6-.6-1.4-.2-1.5.3-1.6.7-2.5-.4-.9-1.3-.6-1.8-.1-2.2-.2-1.3-.4-1.7-2.1-.5-5.7-1.2-2.3-1.2-.6-2.5-.7-1.2-.8-.7-1.2-.3-1.4-.1-3 .6-2.3 1-2.4.1-2.1-1.9-1.6-1.3-.6-.6-.8-.2-1 .5-2.4.7-2.4 1.2-2.7 1.5-1.3 1.3-.7 9.7-1.7 2.4-.9 7.3-.6 10.3.5z"/><path d="M517 300.2l2.7 5.7.7 3.3-.1 2.7-2.8 3.8-.5 1.9-.4 2.4.1 2.9.5 3.1.9 3.4 1.4 2.7 1.7 1.9 4.4 3.1 1.9 1.7 1.6 2.5.5 2.1-.1 2.1-1.1 3.7-9.7 1.7-1.3.7-1.5 1.3-1.2 2.7-.7 2.4-.5 2.4.2 1 .6.8 1.3.6 1.9 1.6-.1 2.1-1 2.4-.6 2.3.1 3 .3 1.4.7 1.2 1.2.8 2.5.7 1.2.6 1.2 2.3.5 5.7 1.7 2.1 1.3.4 2.2.2-2.7 3.7-1.4 1-3 .8-4.6-.5-7.5 3.2h-2.1l-1.6-.4-.8-.6-.9.5-1.2 1.8-1 3.8-3.2 7.7-4.3-4.7-2.2-1.2-2.5-1.1-2-.5-1.9-1-1.5-1.5-2.2-3.4-1.4-2.8-1.8-6.1-1.4-2.9-2.3-2.8-11-7.6-2.1-2.2-1.2-2.6-.2-2.3.4-2.3 3-5.5.3-1.6-.2-1.8-.6-2.2-1.3-2.3-1.8-2.4-2.5-1.9-2.9-1.6-3.7-1.1-8.3-.6-9.3 1.6-2.3-3.8-.8-2.4.3-3.1 2.1-4.2.5-3.2-.8-2.1-1.4-2-1.1-2.3.4-3 2.5-2.7 3.2-1.6 2.2-2.5-.4-5.2 1.2-2.7.7-1.3 2.7-1.2 2.9-.3 2.6.6 1.6 2.2.4 2.3.7 3.5.7 2.4 2.2 4 1.3 1.7 1.6 1.6 2.3 1.8 1.3.6 1.4.3 19.4 1 1.8.4 5.2 3 4.1 3.3 1.4.7 1.8.7-.1-2.4 2.2-5.2.3-3.2-1.9-12.3 1.1-9.4-.3-5 1.8-1.2 2.7-.4 5.9 1.4 6.3 4.3 3.5.9z"/><path d="M568.2 328.4l2.2 9.2.2 3-.3 2.8-.9 2.6-1.6 1.9-2.3 1.4-3.9.6-3.1.1-10.1-1.8-10.3-.5-7.3.6-2.4.9 1.1-3.7.1-2.1-.5-2.1-1.6-2.5-1.9-1.7-4.4-3.1-1.7-1.9-1.4-2.7-.9-3.4-.5-3.1-.1-2.9.4-2.4.5-1.9 2.8-3.8 11.4 5.2 2.4.8 3.4-.1 1.8.3 2.4 1 15.1 2.4 1.8.5 3.2 1.5 1.7 1 2.3 2.6 2.4 1.3zm-71.4-33.2l.3 5-1.1 9.4 1.9 12.3-.3 3.2-2.2 5.2.1 2.4-1.8-.7-1.4-.7-4.1-3.3-5.2-3-1.8-.4-19.4-1-1.4-.3-1.3-.6-2.3-1.8-1.6-1.6-1.3-1.7-2.2-4-.7-2.4-.7-3.5 2.3-1.4 1.6-2.1-.1-1.6-.8-1.8-4.4-5.5-2.5-5.3-1.1-1.6-2.3-1-1.5-.2-1.7-1.4-1.1-1.2-3.6-11.6 10.3 2.8 9.1-.3 4-.8 6.7-2.6 2.2-1.1 3-2.3 8 8 14.1 10.4 2.1 2.5 1.1 2.3 1.1 3.3zm9.4 137l2.7 3.6 5.6 4.6 6.6 3.8.4 3.8 1.3 4 1.8 1.6 2 .7 3.9.4 1.2.7 2.6 2.6 1.2.2 1.3-.4 2.1-1.2 1.6-.2 1.1.9.7 1 1.5.9 3.3.5.9.6.8 1.1.6 1.9.3 2.1.1 2.3-1.4 6.8-5.2 13.5h-.9l-.4 2.4-2.1 6.2-.7 1.3-2-.5-2.2-1.3-1.8-1.6-.7-1v-.7l3.4-2.5 1.2-1.5.3-.8v-1.1l-.4-1.4-1-1.3-1.4-1-2.2-.5-4.6-.4-2.3-.7-2.5-1.5-2.7-2.2-3.5-2.2-7.7-2.3-5.8-3-8.7-6-28.8-24.6 2.7-2.7 1.4-.1 1.8.2 2.1 1.2 7.4 6.1 2.5 1.5 2.8.4 1.6-.6 1.2-1.4.3-2.2-.3-2.5-.5-2.4-.8-2.1-.2-1.2.2-.9 1-.9 4.5-2.7 1.7-.5h1.5l4.9 2.5 4.7.7z"/><path d="M543 401.4l1.8 1 .3 1.2.3 4 .9 2 3 2.5 1.2 1.7.6 2 .8 4.2.9 1.8-4.1.5-2-.2-5 .8-2-.3-2.3.3-2 1.4-2.2 4-.9 2.8-1 2.1-1.6 1-1.3.1-.8-.6-.9-2.2-.7-.5-1.1.2-1.4 1-2.2 4.1-.2 7.9-6.6-3.8-5.6-4.6-2.7-3.6-4.4-10.7-3.1-10.9 3.2-7.7 1-3.8 1.2-1.8.9-.5.8.6 1.6.4h2.1l7.5-3.2 4.6.5 3-.8 1.4-1 2.7-3.7 1.8.1 1.3.6.4.9-.7 2.5-.3 1.6.2 1.5.6 1.4 3 4.6.8.8 2.3.2 4.9-2.4z"/><path d="M596 449.4l.3.4 1.1.5 1-.6.6-1.4 3.2 2.4.6.7.4 1.3 1.4 2.4.8 2.1-.3 2.1-2.1 1.1-1.8-.2-1.6.5-3.3.8-4.3.3-1.8.4-8.8 1.1v-1.1h.9v-.9l-1.6.3-1.3.6v1.1l1 1-.9.8-2.9 1.2-.9 1-1.8 3.9-4.7 6-3 2-3.3 4.8-3.1 1.9-3.3 3.9-2 1.2 1.3-3.2.5-.7-1-1.1-1 2-1.6 4.3-1.1 1.7-2 1.2-5 1.3-2.3 1.4-.8-2.1.4-2.4.9-2.5.4-2.9 5.2-13.5 1.4-6.8-.1-2.3-.3-2.1-.6-1.9-.8-1.1-.9-.6-3.3-.5-1.5-.9-.7-1-1.1-.9-1.6.2-2.1 1.2-1.3.4-1.2-.2-2.6-2.6-1.2-.7-3.9-.4-2-.7-1.8-1.6-1.3-4-.4-3.8.2-7.9 2.2-4.1 1.4-1 1.1-.2.7.5.9 2.2.8.6 1.3-.1 1.6-1 1-2.1.9-2.8 2.2-4 2-1.4 2.3-.3 2 .3 5-.8 2 .2 4.1-.5.7.7 2.5.9.9.7.4 1 .1 1-.6 3.3v2.1l.8 1.5 1.9.6 3.8-.2 1.4.7 1 2v2l-.6 1.6-.9 1.5-.6 1.9.5 1.8 1.4.3 1.8-.7 1.5-1 2.8-2.8 1.5-.7 2.1.1.7 1.3 4.3 2.2 1.1 1.1 2.1 2.4 5.4 4.2 1.7.6h1.7l1.7-.5 2.1-2zM435.1 273l3.6 11.6 1.1 1.2 1.7 1.4 1.5.2 2.3 1 1.1 1.6 2.5 5.3 4.4 5.5.8 1.8.1 1.6-1.6 2.1-2.3 1.4-.4-2.3-1.6-2.2-2.6-.6-2.9.3-2.7 1.2-.7 1.3-1.2 2.7.4 5.2-2.2 2.5-3.2 1.6-2.5 2.7-.4 3 1.1 2.3 1.4 2 .8 2.1-.5 3.2-2.1 4.2-.3 3.1.8 2.4 2.3 3.8 1.1 1.8 1 1 .9 1.6.4 3.7v5.4l-2.3.7-2.7-.2-11.5-3.3-2.3-.1-4.7.3-2.9-.5-3.1-1.4-10-8.5-13.5-6.6-1.9-1.6-1.1-1.1-1.6-4.2-1.8-2.3-2.3-1.8-.6-1.2-.3-1.6.6-8.1-1.4-6.7-5-11.6 9-5.2 1.7-2 1.6-2.7-.2-3.3-3-9.4-1.1-5.6.3-6.4 1.8-4.2 2.5-3.6 3.4-2.9 3.4-1.7 3.6-1.3 7.4-1.7 2.6-.9 5.4-3.7 8.7 5.4 7.8 7.1 6.2 7.2 5.2 8zm115.4-8.2l-1.3 3.6.2 2.2.8 2 1.7 1.3 2.5.9 4.4.5 4.3 1.1 4.3 2 8.2 7.8 2.8 1.4 3.5.5 5-1 3.3-1.9 2.4-2.6 1.7-3.1 4.3-11 2.5-3.4 2.6-2.6 2.8-1.9 3.4-1 3.5-.5 3.7.3 3.2 1.3 5 5.4 1.8 1.6 2.1.2 1.5-.8 3-2.9 1.9-1.4 2.3-1.2 2.2-.7 1.6.6.7 1.9.5 2.5 1.2 3.2 2.1 3.5 3.6 5.1 1.4 3.1 1.7 2.3 3 1.2 2.8-.2 2.5-.7 1.8-.4 1.4.6.9 2.2v4.4l.7 1.8.7 1.2 5.6 2.2-6.9 3.7-.9 1.2-1.2 1.8-1.5 9.2-1 3.1-1.1 2.7-1.2 2-2.1 1.2-3.3.9-6.3.9-7.2 2.2-8.8.1-29-4.7-2.2-2-2.1-1.4-3.5-1.6-4.1-.6-4.9.2-4.9 1.2-4.5 2.6-3.1 2.5-4.3 7.8-2.4-1.3-2.3-2.6-1.7-1-3.2-1.5-1.8-.5-15.1-2.4-2.4-1-1.8-.3-3.4.1-2.4-.8-11.4-5.2.1-2.7-.7-3.3-2.7-5.7 6.8-11.8 1.3-.6 1.4-.1 1.6.3 2.2-.1 2.3-1.1 2.1-2.1 2.2-4 .6-3v-3l-4.3-15.5-.2-1.6.4-1.2 1.2-.7h2.2l8.2 1.1 2.3.6 1.5 1.5.8 1.2.9 4.7z"/><path d="M608.3 399.2l.8 1.2 2 2.4.7.5 1.1.3.1 1.6-.1.8-.8 1.4-2.3.9-3 2.8-8.7 3.5 2.4 1.3 2-.1 4-2.1v.9l-1.7 2.3 1 2.1 1.3 2.1-.6 2.6-.9.1-3.8 1.4-1.2.8-1 1.1-1.5 2.5h.9l1.8-1.3 3.2-1.3 3-.4 1.4 1.4-.5 6.3-.9 3.3-1.5 2-.7-1.4-1.1.3 2.4 2.4.9 3.1.2 2.2 1 6.8-1.5 1.7-3-3.3-1.3-1.8-1.8-1.4-2.1-.7-2.3.8h-.9l.7 1.1-2.1 2-1.7.5h-1.7l-1.7-.6-5.4-4.2-2.1-2.4-1.1-1.1-4.3-2.2-.7-1.3-2.1-.1-1.5.7-2.8 2.8-1.5 1-1.8.7-1.4-.3-.5-1.8.6-1.9.9-1.5.6-1.6v-2l-1-2-1.4-.7-3.8.2-1.9-.6-.8-1.5v-2.1l.6-3.3-.1-1-.4-1-.9-.7-2.5-.9-.7-.7-.9-1.8-.8-4.2-.6-2-1.2-1.7-3-2.5-.9-2-.3-4-.3-1.2-1.8-1 .1-2.6 1.6-1.4 1.9-1.1 2-.3 7.2.3 2-.8 1.6-.9 3.3-2.5 21.7-3.4 1.8 7 2.4 6.2 1.6 2.8 1.2 1.2.9-.1 2.6-.9 3.4.1 1.2-.3 1.2-.5.9-.8.9-2.3 1.4-.9 4.4-1zm-10.2 387l-1.1.1-5.9-1.4-11-1-4.8.8-2.5 1.8-1.5 2.1-1.3 2.3-1.4 1.5-3.1.7-4.3-.2-14.6-2.7-8.4-2.6-2-1.3-.5-1 .2-2.7-.1-1.8-.8-2-1.4-2.2-2-2.1-2.5-1.7-3.2-1.5-8-1.4-4.9.2-4.3.8-5.3 2.2-8.8 2.6-2.6 1.1-3.5 3.2-3.9 2.7-10.7 1.7-1.8-3.8-3.2-1.8-1-1-.5-1.4-.5-3.2-.7-1.6-1.1-1.1-2.4-1.3-1.1-1-2.2-5.1-.6-.4-1.5-.3-.7-.6.7-1.6v-.9l-1.1-3.8-.8-1.3-2.1-1.7-2.7-1.1-2.9-.2-2.5 1.1-.8 1.3-.6 3.2-.5 1-1.3.8-.7-.8-1-.5-2.1-.5-2.5-1.1-2.2-1.5-1.4-2.1-.1-1.6.9-3.5-.2-1.6-1-1.5-1.2.4-5 .5-1.4-.4-1-.9-1.1-2.2-.8-1-6.6-4.1-1.3-1.9-.1-3 .9-1.8v-1.8l-2.3-2.4-4.3-3.2-3.1-3-1.5-4 .7-5.9 2.1-8 1.8-4.2 1.9-2.6 1.7-.2 1.6.5 1.3-.2 1-2.4v-.5l3.6-.1 10.7-1 15 4.8 3.7.7 3.3-.2 3.2-.8 5.9-.4 15 2.1 2.5.2.9.6 3 1 2.6-1 2.1-3.5-.7-.8-.3-2.1.6-.6 1.8-.6.4-1.3.7-1.2 1.7-1 3.2-1.2 2.6-1.2v-3.4l-.4-8.7 2.3 1.2.8 4.1.2 4.2.6 1.9.9 1.6 3.2 10.2 7.3 11.9 4.9 5.4 4.6.3.4 2.7.9 2.8 1.2 2.5 1.3 1.9 3.1 2.3 1 1 5.2 6.6 7.1 6.1 1.6 2.1.3 1.8-2.6.6 1.4 1 2.3-.5 2.9-1 3.2-.5 2.1.8 7.2 5.6.9.5 2.9 1.1 1.2.8 3.8 4.9 4.5 3.5 1.9 1.8 1.1 2.5h-1l-1.3-.8-1.8.4-1.5 1.1-.9 1.4 1.8.9 1.1-.7 1.7-.2-.8 1.7.3 1.3 1.4 2.8v-1.7l.4-1.7.7-1.5.7-.9 1.5-.8 1.8.9 1.5-.1 1.1-.8 2.6-3.2 1.7.7-.2 1.4-1.5 2.8.7 3 1.5 3 10.8 13.6z"/><path d="M501.5 597.5l-1.2 1-2.3.3-1.2 4.2-1.7.1-1.9-.3-.3.7-1.6 8.9-.2 5.2 1 3.7-3.5 1.7-1.3.9-.9 1.3-3.7-1.2-3.3 3.5-2.6 5.3-1.4 4.3-.1 1.8.7 1.4.3 1.2.2 1.9 1 4.6.7 1.8 1.8 2.5 3 2.5 3.3 2 3 .9v.9l-1.9 2.1-.5-1.3-.8-.9-1.1-.6-1.4-.2 1.5 3.4.4.6.9.3 2.4-.2 1 .4 2.8 3.1 1.5 2.2.7 2.1-2 5.9.6.9 1.2 1.2.3 2.7-.4 3-.6 1.9-3.2 1.2-1.7 1-.7 1.2-.4 1.3-1.8.6-.6.6.3 2.1.7.8-2.1 3.5-2.6 1-3-1-.9-.6-2.5-.2-15-2.1-5.9.4-3.2.8-3.3.2-3.7-.7-15-4.8-10.7 1-3.6.1v-1.8l-.9-1.2-2.9-2-3.9-6.5-1.7-.5-1.5.2-1.6.5-1.7.1-3.3-1.2-6.8-4-2.2-.5-2.3.7h-2.7l-2.4-.6-1.4-1.4-1.3-3.6-3.6-1.1-7.8.6-1.9-.2-5.2-1.6-5.6-.8-1.6-.6-1-.9-1.6-2.4-.7-.8-1.4-.5-2.6-.2-1.4-.4-2-1.4-3.7-3.8-2-1.5-4.5-2.5-1.6-1.5-4.7-7.1-1.6-1.6-2.3-1.4-2.6-.7-4.2.4-2.4-.5-1.7-1.3-3.9-6-2.3-2-2.2-1.1-2.3-.7-2.6-1.2-2.1-1.7-1.7-1.9-2-1.5-2.8-.7-3.9 1.2-1.2-1.2v-2.6l-.5-2.8-1.4-1.4-5.4-3.8-15.1-6.8-2.8-.7-2.8.2-3.1 1.2-4-2.9-3.4-1.8-1-.7-.7-1-1.7-3.5-2.2-.2h-2.5l-1.3-.6 1.1-2.5 1.8-1.4 4.8-2.2 2.1-1.5 2.7-4.1 1.6-1.4 2.9-.7 3.1-1.6 3.2-1.2 2-.2.5.4 1-2 .5-1.4.6-3.3.8-1.6 1.4-.8 1.5-.3 1.1-.7.6-1.7-1.6-2-.4-2.3-.2-2.5-.9-2.3-1.5-1.3-4.3-2.6-1.5-2.1-2.7-7.5-.3-1.8.8-2.3 1.2-.5 1.6.4 6.5 3.4 2.6.9 2.7-.4 1.1-.9 1-2.2 1.6-1.6 3-.1 9.6-2.6 1.8 1.5 4.7 1.7 2.5 4.2 6.3-4.1 2.5-.6 2.7.3 1.6 1.2 1.3 1.8 1.9 1.9 1.1.8 3.5 1.5 7.7 4.7 2.3.5 3.1-.4 1.2-.5 2.1-1.4 1.2-.4 1.2.3 2.3 1.3 1.3-.1 1.2-1.5 4.3-11.6 1.1-1.9 1.8-1.9 2.1-1.6 1.7-.4 1.8-.2 2.6-.8 3.3-3 3.3-1.5 2.7-2.1 1.3-4.5.3-2.4-.1-1.3-1-.8-2.5-.9-4-.2-.7-.8.8-2.7 2.6-3.3 7.4-4.4 3.1-2.4 1.2-2 .3-1.2.6-.7 2.6-.4 4 .4 1.8-.3 1.4-1.1 2.3.5 7 2.7 6.6 4.1 4 1.6 8 2.2 2.4 1.5 1.4 2v1.8l-1 1.9-3.3 3.5-1.1 2-.5 2.3.3 3.5 1.1 4.2 2.9 6.3 3 3.9 7.8 7 2 2.7 1.2 3 .2 3-.2 6 .1 2.5.7.7 1.2-.3 3-3.1 1.3-1.1 1.6-.6 1.8.2 2 1.2 1.8 2.2 4.1 5.9 2.1 1.5 2.8.6 6.4-.7 3.1.6 3.8 2.3 2.2 2.6 3.5 5.6 1.3 1.3 1.5.9 2 .9 2.7 1.9 7.5 7.6 1.7 1 8.7 1.2 5.8 2.9zm96.6 188.7l.9 1v.9l-2.8 1.8-2.7 2.2-1.4 1.8-1.1 1.8-1.5 1.2h-2.6v1l1.5.4.6.9-.3 1.3-.8 1.4 1.2 2.6 1.2 4.1 1.2 7.3.7 1.6 2.8 2.7.3 1.1-1.1 1.1-1.5-.1-4.1-1.8-1.7-3.3-1.4-.8-2-.3-4.9-2.6-9.2-1-2-.9-1 .9 2 1.4 3.2 1.3 3.2.9 4.6.5 6.6 1.8v1h-.9l-2.7-1.1-2.7 1.8-.4 2.9 3.9 2.3-1.1-2.4-.7-.6 3-1.3 4.4.6 4.4 1.7 3 2 1.4 1.8 3.3 6 3.7 4.2 6.6 11.3 1.5 4.6 1.2 2.3.5.2 2.7 2.2 2.4 3.4 11.9 13.4 24.8 18.5 8.3 6.1-.9.6-13.4 8.2-2.6 2.9-3.6 4.9-1.9 4.2-1.7 2.9-1.8 2.4-4.2 1.7-5 .7-21.8-1.5-4.1 1.8-3.3 1.3-.1-3.2-1.2-2.3-3.7 3.6-3.2-1-2.3-.4-2.6-1-2.3-1.1-1.2-1-.4-1.4-2.9-5.9.1-.7.9-1.5v-.8l-1.4-2.5-6.5-6.1-4.1-6.8-.7-2.2.1-1.4 1.1-2.3.1-1.3-.5-.8-1.9-2-.7-1-.3-1.7.2-1.5-.3-1.2-1.7-.7-1.7.1-.7.8-.3 1.3-.6 1.1-2 2.1-1.5 1-2-.2-3-1.6-22.5-19.5-11.8-14.4-2.9-3-8.8-11.6-3.6-3.3-4.4-2.9-7.1-3.2-1.6-1.3-1.3-2.3-1.7-5.4-1.2-2.4-3.1-4.1-3.5-6.7-5.2-4.9-1.5-4.8 1.6-10.9-.4-.7 10.7-1.7 3.9-2.7 3.5-3.2 2.6-1.1 8.8-2.6 5.3-2.2 4.3-.8 4.9-.2 8 1.4 3.2 1.5 2.5 1.7 2 2.1 1.4 2.2.8 2 .1 1.8-.2 2.7.5 1 2 1.3 8.4 2.6 14.6 2.7 4.3.2 3.1-.7 1.4-1.5 1.3-2.3 1.5-2.1 2.5-1.8 4.8-.8 11 1 5.9 1.4 1.1-.1zm290.8 699l8.7 14 1.9 2.1 2.8 2.2 7.8 5 6 3 3.3 1.1 11.2 2.6 9.3 3.9-9 7.9-1.1.7-1.3.2h-2.8l-1.3.1-2.2 1-1.1 1.6-1.2 2.5-2 5.9-.2 2.8.2 2 .6 1.2v1.5l-.6 2-1.4 3.2-1.4 4.6-.8 1.3-1.8.7-1.7-.4-4.9-2.7-1.3-.5-1.4-.1-1.4.3-1.5.5-2.5 1.3-1.9.3-3-.6-1 .1-.9.7-.7 1.3-.6 2.9-.3 5 .5 6 1.8 9.2-5.8 3.4-2.1.6-2.7.4-2.4-.4-6.7-2.9-2.8-.7-2.2.2-2.1.8-7.9 6.8-2.3 1.2-2.4.2-5.7-1-1.8.2-1.9 1-2 1.5-4.1 2-2 1.4-1.2 1.2-.4 1.2-.3 2.3-.8.9-.9.2-1.9-.8-1.3-.4-2.8-.1-3.9-.9h-2l-1.3.6-2.9 2.1 1.7-5.3-.2-1.5-.5-.6-3.2-2.2-3.3-6-2.6-1.4-1.5-2.3-2.3-1-2.6-.6-2.1-.2-2.2-.5-1.6-1.1-3.5-5.4-.9-2.2-.5-2.6-.1-3 .7-2 1.8-1.6 2.1-.6 1.9 1 1.4-1.8 1.6-2.9.8-2.7-2.3-1.7-1.7-1.9-7.4-2.4-1.6-1.1-.3-.9.1-1.8.4-1.3-5.1-3.6-1.4-12.7-2.9-5.2h-24l-17 .6-.4-4.2.2-3.7-.4-3.7-1.8-3.8-3.9-4.4-.9-1.6-.5-2.1-.5-4.3-1.6-3.5-.3-1.5.3-1.5.8-1.4 1-1.3-.4-1.9-2.1-1.6-.4-2 13.8-33.5 4.1-2.1 4-2.2 5.5-4.3 1.2-.8 1.4-.5 16.4-2.3 17.2.6 2.3-.3 2.4-.7 9.2-4.4 2.3-.5 2.9-.1 5.2.6 34.8 12.4 3.2 2.2 3 3.9 1.7 3.3 1.6 3.6 5.1 17.8 5.8 5.8 19.9 5.1z"/><path d="M889.7 1261.5l2.2 9.7.5 9.8-1.5 11.7-5.6 21.9.1 9.1 1.1 6 2.1 4.5 2.2 3.1 4.1 4.6 1.3 1.9.5 1.9-.1 2.6-.5 2.9-.3 3.6.5 3.2 1.7 3.6 6.2 8.5 3.4 6.4 1.2 3.9 1.9 11.5.5 15-.5 17.7.4 3 .9 2.7 2.3 4.9.8 2.5.1 2.5-.3 2.8.1 2.5.5 2.1 2.1 3.7.6 1.9-.3 2-1.3 2.3-2.7 2.8-4.5 3.3-11.3 6.3-2.9 2.2-2.7 2.6-3 4.5-.6 6-19.9-5.1-5.8-5.8-5.1-17.8-1.6-3.6-1.7-3.3-3-3.9-3.2-2.2-34.8-12.4-5.2-.6-2.9.1-2.3.5-9.2 4.4-2.4.7-2.3.3-17.2-.6-16.4 2.3-1.4.5-1.2.8-5.5 4.3-4 2.2-4.1 2.1 6.1-15 .5-4.3-.8-13.7-1-5.1-11.2-22-2.4-3.4-3.1-3.5-1.6-2.7-2.6-3.1-.7-2.1.1-1.5.9-3 .1-1.2-1.5-4.3.7-2.3.7-1.6.4-1.6-.3-1.7 2.8-1.5 8.9-6.2 5.3-4.8 5-5.5 2.9-4.8 1.8-4 2.1-3.5 3.1-2.9 5.3-3.8 9.1-4.2 49.7-16 14.5-6.8 10.3-7.3 6.3-6 3.8-6 1.6-4 .5-2.9-.2-1.8-.4-1.2-1.6-2.3-.3-1.1.2-1.3 1-.6 1.3-.3 1.9.1 1.7.4 3 1.5 1.1.4 1.5.1 16.9-4.4 6.6 6.2zm89.8 331.5l1 .4.8.7.9 1.7-2.1 1.6-.6.3-.8-.9-.8-.5-1.1-.1-.4.9.2.6-2.7-.3-2.5-1.3-2-1.7-1.2-1.4v-1l3.8 1v-2l2.4 1 5.1 1zm10.4-48.6l-.7 1.8-2.2-.7-5-3.5-1.6-2.1-1.6-.5-1.6-1.1 1.2-1.9 3.5-.4 3.1.5 1.9.5 1 1.4.4 1.7 1.6 4.3zm-2.8-36.6l-1 .2-1.2 1.1.9 1.1.2 1.7-.1 1.9v2l6.1 11.8 2.1 2.4 2 .1 2.5 1.8.4.6-.3 1.1-1.8.6-.8.7-.3 2.1.5 5.6-.2 1.8-1.5.8-1.4-1.5-1.7-4.1-1.6-1.8-.3-1.5 2.8-2.4v-.9l-2.8-4.9-.2 1.4-.8.6-1.1.2-1.6-.2.6 1.2.2 1.2-.2 1.2-.6 1.2-.7-1.4-1-1-1.2-.5h-1.7l2.5-3.6.3-.7 3.1-1.6.6-1.3-.5-2.2-2.3-3.2-.9-1.7v-4.2l-.5-.6-1.5.3-.5.9-.1 1.1-.7 1-4.7 3.1-1.3 1.3-3.3 4.1-2 1.8-1.7.8-1.2.9-3.9 5.7v1.3l.4 5.4-1 .9.1 2.2.5 2.2v1.3l.9.3-.1.7h1l.5-1.4.2-1.7.6-1.2 1.5-.5v-.8h-.9v-1.1l2.3.8-.3 1.9-1.2 2.3-.8 2.1.7 2.5 1.6 1.8 6.7 4.4.7 1.1-1.4 2.9.1 1.4.6 1.1.7.5 2 .7 2.5 1.7 1.2 1.9-1.5 1.5 1 1-1 .9-1.6-1.9-1 1.2-.9 2.4-1.6 1.2-2-.7-1.4-1.6-1.8-3.4-5.9-6.7-4.1-2.6-3.9.6.7.8.7 1.5-2.3-.3.7 1.9 2.1 2.3.9 1.5 2.6-.5 1.4 2.2.5 3.3.1 3.1.4 1.1 1 1.5 1.1 1.2 1.7 1.2.1 1.2-.8.8-1.6-.8h-.9l-.5.9-1.3 3.8-3.1-1.4v.7l1.3 1 2.6 1.7-.8 2.1.5 1.6 1.2 1.4 1 1.5-3.6-1-1.4.3.4.8 1.8.9.7 1.1.7 3.8 1 1.2.7 1.6-.6 1.3-1.6 1.5-.1 1.2.5 5.7.9 2.5 3.9 7.3 1.2 1.5 3.9 2.7v.9l-.4 2.9-2.4 1.9v2.3l.6 2 1.4 1.6 1.8.7v1l-2.2.9-2.2-.1-1.9-1-1.2-1.7-1.9.9-1.1-4.2.8-10.1-1.6-4.7h1l-3-8.2-1.3-6-1.3-1.6-1.8 2.4 1.7 3.3.8 1-.7 3.9.7 1.4 3.2 3 .7 2.2-.4 4-1.2 4-2.3 3.6-3.5 3.2-2.6.4-1.5 4.5.7 4.7 4.4.8.6-1.3 2-2.7 2-2.3 1 .2-.5 2-1 1.7-.1 1.9 1.6 2.4-.1 3-2.9.3-1.7-.1-4.9-.7-2.7-.8-2.1-1.3-1.7-1.7-1.7-3-1-4.4-.8-1.9-1.4-1.6-2.3-1.3-8.5-2.6-8.9-1.4-1.9-.9-1.8-1.6-1.4-3-.8-2.3-2.6-5.6-3-9.5-1.4-3.2-2.4-2.9-2-1.8-7.9-3.2-1.7-12.4-1.7-3.8-1.7-.7-1.8-9.2-.5-6 .3-5 .6-2.9.7-1.3.9-.7 1-.1 3 .6 1.9-.3 2.5-1.3 1.5-.5 1.4-.3 1.4.1 1.3.5 4.9 2.7 1.7.4 1.8-.7.8-1.3 1.4-4.6 1.4-3.2.6-2v-1.5l-.6-1.2-.2-2 .2-2.8 2-5.9 1.2-2.5 1.1-1.6 2.2-1 1.3-.1h2.8l1.3-.2 1.1-.7 9-7.9 5-.2 2-1 2-1.6 4-4.9 3-2.8 2.8-1.6 2.7-1 2.7-.5 2.8-.2 5.6.4 6.1-.6h2.8l2.5.6 1.5.7 1.7 1.4z"/><path d="M896.8 1598.5l-2.1 2.1-1.2 1.5-1.1 2.1-.5 2.4.3 2.8.7 2.4.3 3.1-1.6 12.5-5.9 18.6.3 4.2 1.1 2.5 1.3 1.7 2.4 2.4.8 1.2.5 1.4-.2 2.1-1 2.7-2.9 3.9-4.8 4.1-1.2 1.4-.4 2v1.6l1.7 6.9-1.2 1.9-1.6 4.1-1.1 1.6-1.5.6-2.2-.8-3.9-2-2.9-.3-17.3.5-2.8.6-3.3 1.6-1.9 1.8-1.1 1.7-.6 2.2-.1 2.5.2 2.4.8 2.2 2 3.6.3 1.4-.4 1.5-1.4 1.7-2.7 2.3-3.4 2.4-4 2.2-4.2 1.6-5.8.9-3.3 1-2.8 1.6-1.9 2.1-3.5 5-1.9 1.5-1.7.6-1.2-.3-.6-.8.4-4.5-.1-2-.3-1.8-.9-1.7-1.9-1.5-2.9-1-34.5-1.9-4-.6-4.8-1.2-4.7-2.3-6.4-2.3-11.2-5.7-5.9-.7-2.1.1-1.6-.5-1-.9-.7-1.9-.1-1.5.3-1.1 1.9-2 .5-1.3-.6-1.3-1.3-1.1-2.9-1-2.5-.6-1.5-.5-.9-1.1-.1-1.1.1-3.5-.5-1.3-1.8-.6-3.8.1-5.2-.9-.1-2.7-1.5-3.2-2-2.6-.2-1.7.6-2.1 2.6-5.2 1.9-2.2 1.3-1.3 8.5-4.7 4.1 1.1 1.5.1 1.6-.2 3-.7 1.5-.7 1.8-1.4 1.7-1.1 2.3-.7 4.2-.6 1.8-.7 8-5.3 7.3-6.6.8-1.3.8-2 .7-.9 1.2-.5 2.2-.4 1.4.2 1 .3.7 1.4.2 2.1.5 1.6.9.9 2.6 1.8 1.9.1 4.7-.7 2-.7 4-.6h1.3l1.4.3 1.2.5.8.9.5 1.1-.1 2.8.1 1.8.6 1.4 1 1 1.6.2 4.5-.7 1.5.2 1 .6 1.2 1.7 1.5 1.2 1.4-.5 2.2-1.7 4.8-5 2.7-4 1.3-3.9-.3-2.4.8-3.7-.7-2.4-.9-.7-1.2-.4-1.1-.8-1-2.5-3.3-3.3-1.3-1.7-.4-1-.3-3.5-.5-.8-.9-.5-3.1-2.5v-1.9l.3-1.4 1.2-3.2.4-1.6h.9l1.2.7 1.4-1 1.8-1.5 2.2-1 5.5.8 2.6-.4.5-1.2 2.9-2.1 1.3-.6h2l3.9.9 2.8.1 1.3.4 1.9.8.9-.2.8-.9.3-2.3.4-1.2 1.2-1.2 2-1.4 4.1-2 2-1.5 1.9-1 1.8-.2 5.7 1 2.4-.2 2.3-1.2 7.9-6.8 2.1-.8 2.2-.2 2.8.7 6.7 2.9 2.4.4 2.7-.4 2.1-.6 5.8-3.4 1.7.7 1.7 3.8 1.7 12.4z"/><path d="M962.6 1653l-.1.6 5.4 6.7-1.5 3-1-1-1 1-1.2 2.9-2.4 3-.3 1.2-.1 1.4-.5 2-.8 1-2.4 2.1-.6 1.1-.3 1.6-.8 1.5-1.7 2.2h-.9l-1.6-1.4-2-.1-2.3.2-2.5-.6-1.6-1.8-1-4.8-.6-1-3.2.8.2 1.7 1.6 1.8 1 .8-.3 2-.5 1.8-.1 2.1.9 2.3h-3.8l2.1 3.5v6l-1.2 9.4.4 5.3-.6 1.7-1.7 1.7-3.3 2.7-2 1.3-2 .6-2.5-.1-3.7-1.7-.3-2.1-.6-1.9-1.7-2.7-2.5-2.3-3.8-1.6-2.7-.4-4.2.3-1.5-.2-.9-.8-.5-1.7-.4-3.9-.3-1.5-.9-.9-3.4-.9-1.3-.7-.9-1.3-.3-1.5-.5-3.8-.6-1.7-1-1.5-2-1.2-2.1-.9-6.4-.2-1.7-6.9v-1.6l.4-2 1.2-1.4 4.8-4.1 2.9-3.9 1-2.7.2-2.1-.5-1.4-.8-1.2-2.4-2.4-1.3-1.7-1.1-2.5-.3-4.2 5.9-18.6 1.6-12.5-.3-3.1-.7-2.4-.3-2.8.5-2.4 1.1-2.1 1.2-1.5 2.1-2.1 7.9 3.2 2 1.8 2.4 2.9 1.4 3.2 3 9.5 2.6 5.6.8 2.3 1.4 3 1.8 1.6 1.9.9 8.9 1.4 8.5 2.6 2.3 1.3 1.4 1.6.8 1.9 1 4.4 1.7 3 1.7 1.7 2.1 1.3 2.7.8 4.9.7 1.7.1 2.9-.3zm24.5-145.2l-1.7-1.4-1.5-.7-2.5-.6h-2.8l-6.1.6-5.6-.4-2.8.2-2.7.5-2.7 1-2.8 1.6-3 2.8-4 4.9-2 1.6-2 1-5 .2-9.3-3.9-11.2-2.6-3.3-1.1-6-3-7.8-5-2.8-2.2-1.9-2.1-8.7-14 .6-6 3-4.5 2.7-2.6 2.9-2.2 11.3-6.3 4.5-3.3 2.7-2.8 1.3-2.3.3-2-.6-1.9-2.1-3.7-.5-2.1-.1-2.5.3-2.8-.1-2.5-.8-2.5-2.3-4.9-.9-2.7-.4-3 .5-17.7 11.4 2.7h4.6l4.7-.6 11.4-4.5 2.5-1.8 8.6-10 2.6-2 6.6-1.6 3.5-1.9.2 1v3.8l.3 2.8.9 3 1.3 2.4 1.7.9.1.7 1.6 1.2 1.8 1.1.7-.1.4 1.3v.9l-.8.5-1.5.2v.9l.8 1 .2 1.9-1.1-1.2-3.1-5.4-1.4-3.4-3.6-4.2-1.1-2.1h-1l-.1 2.2.7 1 1.2.6 1.1 1 .7 1.5.5 2.8.6 1.5 1.7 1.6 1.3.7-.7 1.5.5 1.4 2.8 3.4h1l1-1.1 1.7-.8-.4 1.4-1.2 1.6-.2 1.2.4 1.8 1.2 1.2 1.5.2 1.5-.8.7 1.4-1.2 1.9.5 1.6-1.3 2.5-.9 1.2-1.5 1-1.1-1.5-3-.6-.5-1.3.6-.9 1.5-.6 1.3-.9.3-1.8-.9-1-4.3-2.9-1.3.1-1 .5-.9 1.1-.9 2.2.7 1.1-.4 2.3 1.5 1.4-1.1 1-.4 1.4-.3 2.3 2.3 1.2 2.3 3.2 1.9 1.2 1.5-1.4 1.1-.2 1.1 1.6.2 1.6-.4 1.1-1.1.5-1.5-.1v.8l.7.7.4 1.8-.1 1.4-2.8-1.9-.7 1.3-1.3.6 1.9 4.7 1.2 2 1.7 1.9-.2-4.4.5-1.6 1.5-.7v-.9l-.6-1.1.7-.8.8.9.6 1.2.2 1.3.2 2.8-.3 1.1-1.6 3.2v1.4l.9 2.8-.3 2.3-.7 2.2-.3 2.1.4 2.5 1.1 1.9 1.3 1.7.9 1.9-.4 1.2 1.7 1.2 1.1 1.1 2.8 5.1 3.6 4 2.7 4.4 5.7 6.6.9 1.5.3 2.2-.1 2.6-.5 2.3-.6 1.5-3.1.9h-.6l-.4-1 1.7-1.2 1.3-1.7-.2-.5-1.4-.3-2.9 1.9-1.3 2.9-.6.9-1.1.4-1.4.2zM658.7 1723l-4.2 9.5-.4 2.3.6 1.4 1.2.8 1.3 1.6 1.4 2.4 1.4 4.3.2 2.1-.5 1.7-2.4 4.3-5.7 4.7-1.4.5-1.6.1-1.7-.3-1.7-.8-1.4-1.1-1.3-1.2-1.1-.6-1.4-.2-1.7.5-1.9.9-1.8 1.5-.5 1.2.5 2.6-.1 2.6.1 1.1 1.4 2.6 1.1 1.6 1.5 1.6 2.1 2.9.5 4.1-5-.9-1.6.4-5.1 1.8-2.1.5-1.7-.1-1.3-.7-1.8-2.8-3.4-4.5-2.7-4.5-4.7-6.1-.2-2.1-.2-.8-.7-.4h-2.6l-1.2-.5-1.2-1.6-5.9-9.9-1.2-1.3-1.1-.8-2.1-.1-1.7.1-7.6 1.6-1.2-4.4-1.8-2.2-2.2-1.6-1.4-1.7-.6-2.3-1-2.3-.8-1.1-1.5-2.9-.8-2-.5-2.3-.2-2.2.2-5.4.5-2.7.8-2.5 3.6-7.7 1.1-1.6 2.1-2.1 1.3-1.1 2.5-3 4.6-8.3 2.2 2 2 1.4 1.5 1.5 1.1 1.3.4 1.1.5 2.1 1.2.9 1.7.3 1.9.5 2.1 1 3.9 2.3 1.6 1.3.9 1.2v1l-.2 2.8-.5 3.4.1 1.3.5 1.2 1.4 1.8.5 1 .1 2.1.7.9 1.2.4 2.6-.3 1.5-.9.8-1.3.7-3.1 1-.5 1.4.3 2 1.8.6 1.1-.1 1-1.3 1.6-.3 1 .7.6 1.5.3 3.3-1 1.6-1.2 1.7-2h1.8l2.8.8 9.9 4.1 6.6 2.1 4.3.2zm-30.8 145.7l-1.9.3-.8-.6-1.2-1.7-2.6-1.1-17.7-3.3-6.5-2.8 2.1-.2 4.6 2 3.6.8 15.6.2 2.9.9 3.1.8 1.2.8.4 1.8-.8 1.1-2 1zm-16.7-28.6l2.1-1.3 1.5-1.8 1-2.1h.9l.7 1.9.3 2.2 1 1.6 2.7-.1 1.1-1.1 2.1-3.7 1.4-.8 2.3.8 1.5 2 1.1 2.4 1.2 1.9 1.8 2 .8 2 1 12-.6 3-2.1 1.3-2.6-.2-7.1-1.7-14.4.1-9.9-2h-5.1l-2.6-.6-2.2-1.2-2-.8-2 .7-1.4-.9-4.5-1.8-1.7-.3-1.7-.1-1.6.2-6.8 2.5-1.7.3-7-.2-3.3.5-6.2 2.4-2.6.2h-4.3l-3.3-.7-6.5-2.4-2.2-.3h-2.1l-2.1.3-2 .8-2.3 1.7-.2 1.7-7.7-.3-6.6-1.5-.6-.7-.8-5.2.5-1.1.8-1.3 1.3-.9 12.3-15.5 1.2-3.2.7-2.5v-4.4l5.4.3 6.5 1.1 3.8-.1 2.8-.6 1.4-1.1 2.4-3.2 2.5-1.4 2.8-.3 14.2.8 2.4.4 1.7 1 1.8 1.5 5.7 8.1 1.8 1.2 2.4 1 3.8.6 2.1.9 1.3 1.1.5 1.3v1.3l-.4 2.8.3 1.3 1.2.9 1.9.4 6.3-.5 4 .5 5.8-.1 3.1-1.4 1-1.6zm203.9-237.5l-.5 1.2-2.6.4-5.5-.8-2.2 1-1.8 1.5-1.4 1-1.2-.7h-.9l-.4 1.6-1.2 3.2-.3 1.4v1.9l3.1 2.5.9.5.5.8.3 3.5.4 1 1.3 1.7 3.3 3.3 1 2.5 1.1.8 1.2.4.9.7.7 2.4-.8 3.7.3 2.4-1.3 3.9-2.7 4-4.8 5-2.2 1.7-1.4.5-1.5-1.2-1.2-1.7-1-.6-1.5-.2-4.5.7-1.6-.2-1-1-.6-1.4-.1-1.8.1-2.8-.5-1.1-.8-.9-1.2-.5-1.4-.3h-1.3l-4 .6-2 .7-4.7.7-1.9-.1-2.6-1.8-.9-.9-.5-1.6-.2-2.1-.7-1.4-1-.3-1.4-.2-2.2.4-1.2.5-.7.9-.8 2-.8 1.3-7.3 6.6-8 5.3-1.8.7-4.2.6-2.3.7-1.7 1.1-1.8 1.4-1.5.7-3 .7-1.6.2-1.5-.1-4.1-1.1 1.4-4.6v-1.7l-.5-1.4-1.2-1.6-1-2-.9-2.4-.9-6.3-1-3.1-2-3.1-2.1-2.3-7.7-5.2-2-3.5-1.5-6.3-2.5-32.5-.1-1.6 6.5-2 6-.5 3.2 1.9 4.1 6.4 2.6 2.3 3.1-.2 4.6-6.2 3.3-2.3 3.5-1.5 2-2.5 1-3.1.7-3.4 4-11.4v-3.2l-.9-1.9.2-1.5.9-1.5.7-1.7.5-4.3-.2-4.5-3.4-15.3 17-.6h24l2.9 5.2 1.4 12.7 5.1 3.6-.4 1.3-.1 1.8.3.9 1.6 1.1 7.4 2.4 1.7 1.9 2.3 1.7-.8 2.7-1.6 2.9-1.4 1.8-1.9-1-2.1.6-1.8 1.6-.7 2 .1 3 .5 2.6.9 2.2 3.5 5.4 1.6 1.1 2.2.5 2.1.2 2.6.6 2.3 1 1.5 2.3 2.6 1.4 3.3 6 3.2 2.2.5.6.2 1.5-1.7 5.3z"/><path d="M716.4 1658.1l-8.5 4.7-1.3 1.3-1.9 2.2-2.6 5.2-.6 2.1.2 1.7 2 2.6 1.5 3.2.1 2.7-10.1 5.3-12.7 4-2.9 1.6-2 1.7-1.2 2.2-.7 1.8-.5 1.8-.4 3.4-.5.9-1.7 2.1-1.4 2.7-1.4 1.9-2.8 2.9-2.3 1.6-1.1 1.1-1 1.9-.9.8-3 1.5-4.3-.2-6.6-2.1-9.9-4.1-2.8-.8h-1.8l-1.7 2-1.6 1.2-3.3 1-1.5-.3-.7-.6.3-1 1.3-1.6.1-1-.6-1.1-2-1.8-1.4-.3-1 .5-.7 3.1-.8 1.3-1.5.9-2.6.3-1.2-.4-.7-.9-.1-2.1-.5-1-1.4-1.8-.5-1.2-.1-1.3.5-3.4.2-2.8v-1l-.9-1.2-1.6-1.3-3.9-2.3-2.1-1-1.9-.5-1.7-.3-1.2-.9-.5-2.1-.4-1.1-1.1-1.3-1.5-1.5-2-1.4-2.2-2 2.8-.7.6-.4v-1.7l-.4-2.6-2.1-8.5-1.5-2.2-3.5-1.2-1.1-3.1-3.7-6.3-.2-2.2.8-1.9 1.1-1.9.9-1.9.2-1.2.2-3.6 2-3.3.4-.3-.8-3.4-4-7.6-1.3-3.7 3.2-.9 1.6-.1 1.7.3 1.3.9.5 1.2.7.9 1.8.1 4.2-2.9 6.5.1 11.7 1.6-1.1-2.1 6.8 1.5 2.9-.8 2.6-3.5 1.6-4.5 2.2-3.3 3.1-1.9 4.2-.3 10.4.8 5-.6 5-2 3.3-2.2 9.3-9.3 4.3-5.4 3.6-2.5 1.6-1.5.9-2 4.1-4.3 8-4 2.2-.7.1 1.6 2.5 32.5 1.5 6.3 2 3.5 7.7 5.2 2.1 2.3 2 3.1 1 3.1.9 6.3.9 2.4 1 2 1.2 1.6.5 1.4v1.7l-1.4 4.6zm229-407.3l.6 9.3.7 1.4-.1 1.5h-1.3l-.8 1.5-.9.6-.4 1 .8 1.8.9-2.8.1-1.1 4.6 12.6 2.4 3.2.6 2-.2 7.6.3 1.9.7 2.4 1.8 3.9 4.3 4.8 1.3 1.9.5 1.9.9 5.8-1.4 2.2 1.9 4.8 4.6 7.4-2.5-.3-1.1-1.3-.6-1.7-1.4-1.6-3.1-.6-.3 2.2 1.6 2.9 4.2 2.3 1.4 2.2 3.7 10 1.8 15.6 1.2 2 3.6 2.9.8 1.3-.9 11 .4 5.4-1.1.5h-3.5l-.3-1.5.8-8.1-1.9-7-1.1-2.3-1.7 1.5-.4 1.5-.5 5.2-1.4 2.6-.2 1 1.6-.6 1 3.2.9 1.1 1.7.4-1.5 1.6-1.7 1.3-1.2 1.8-.2 3 1.7 3.3-3.5 1.9-6.6 1.6-2.6 2-8.6 10-2.5 1.8-11.4 4.5-4.7.6h-4.6l-11.4-2.7-.5-15-1.9-11.5-1.2-3.9-3.4-6.4-6.2-8.5-1.7-3.6-.5-3.2.3-3.6.5-2.9.1-2.6-.5-1.9-1.3-1.9-4.1-4.6-2.2-3.1-2.1-4.5-1.1-6-.1-9.1 5.6-21.9 1.5-11.7-.5-9.8-2.2-9.7 6.1-3.7 4.4-1.9 6.5-4.2 3-1 6.5-.9 15.8.9 7.4-1.2 2.3-.2 2.9.8.8.7zm-106-52.8l5.3 5.1 2.1 1.5 5.6 5.2 5 9.9 1.8 2.3 3.1 2.9 2.4 1.6 2.6 1 4.4 1.1 1.9.7 1.6 2.1 1.6 3.7 3.3 12.4 3 7.8-16.9 4.4-1.5-.1-1.1-.4-3-1.5-1.7-.4-1.9-.1-1.3.3-1 .6-.2 1.3.3 1.1 1.6 2.3.4 1.2.2 1.8-.5 2.9-1.6 4-3.8 6-6.3 6-10.3 7.3-14.5 6.8-49.7 16-9.1 4.2-5.3 3.8-3.1 2.9-2.1 3.5-1.8 4-2.9 4.8-5 5.5-5.3 4.8-8.9 6.2-2.8 1.5-.1-.7-1.9-4.1-.2-1.3.2-1.3-.1-1.4-.8-1.3-2.1-.9-5.1.5-2.3-.8-1.6-2.6.1-2.8.4-2.9-.3-2.8-1.5-2.4-1.2-1.3-.6-1.6.6-3.4 4.6-13.3.7-4.9v-1.3l-.4-1.4-1.2-2.7-.3-1.3.3-2.9 1-2.5 2.8-4.9.5-2.6.5-1.2 1-1 1.8-.5.8.6.5.9.9.5 2.6-.7 1.7-1.4 1.2-2.2 1.7-3.6.6-2.9.6-1.9 1.9-2.9.7-1.6.2-2.2-.5-4.2.2-2.1 3.1-7.1.7-3.6-1.6-3.7.2-2-1-1.3-1.4-1.2-.8-1.3 1.5-1.8-.7-2-1.4-2.2-.4-2.2 1.1-1.9 5.6-5.5 2-2.7.4-1.5-1.1-1.2-8.2-6.3-2.1-1.1-1.6-1.2-1.1-1.6-.6-1.8.2-2.1-.9-2.3.1-1.9 1.3-1.2 2.6-.2 6.1-1.9 2.2-.2 3.7.7 2.1-.2 1.5-1.6.1-1.5-1.2-2.5-.1-1.4.7-1.1 2.7-2.2 1.4-2.1.8-2.7.3-4.6.5-1.3 1.3-1.2 1.4 1 .9-.3.4-.8 1-6.7v-2.2l-.9-1.9-2-2.2-6-4.6-1.6-1.8-.9-2.5-.3-5.4-.2-.5 3.5-1 4.1.8 2.3.8 5.4 3.9 1.7 2.1 1.1 2.1.9 3.8.7 1.3 1.1.7 4.2.1 2.2.5 2.8 1.9 1.9 1.9 3.5 4.2 1.8 1.6 1.6.8 2.4.1 4.4-1 2.3-.2 2.6.5 3.2 1.4 4.6 3.1 7.7 6.7 1 1.6.6 2-.1 2.3-.7 4.9.1 2.5.8 1.9 2.9 3.2 1.1 1.8 1.8 4 1.3 1.6 1.5.9 1.9-.2 2.1-1.1 3-3 1.1-2.2.3-2.1-.6-3.5-.1-1.9 1-1.1 1.8-.2 6.7 2 4.2.4z"/><path d="M779.7 1051.6l10.5 1.1 7.4-1.5h1.7l.8.6.3 4.5.4 2.2-.1 3.1.6 1.9 2.5 2.4 2.9 1.1 3.5.4 2.7-.2 11.2-2.9 1.1-.1 12.3 1.1 1.5 2.9 1.7 2.1 7.1 5.6 2.2 1 1.9 1.4 1 2.5-1.4.2-1.1.7-.3.7 1 .3.8-.5 1.9-1.7 1 .3.7 1.9 1.2 8.7 4.3 8.2 22.1 30.7 3.8 2.2 5-.5-1.2 3.9-.9 1-1.6-2-1.6.5-2 1-1.2 1.6 1.1 2.7 3.2 2.4 2.2-1.3 3-6h.9l.7 2.9.2 3.5.8 1 3.2 2.8 1.4 1.5 2.4 1.5-3.5.7-5.8.4-3.6.8-17.9 6.5-6.6 1.7-13.5 1.3-2 .4-1.8 1-1.7 1.5-1.3 1.4-1.7 4-1.5 2.2-3.4 4-1.2 2.2-.3 2.7.5 2.5 1.9 2.9 3.7 4 .6 2 .1 1.5-4.1 5.3-4.2-.4-6.7-2-1.8.2-1 1.1.1 1.9.6 3.5-.3 2.1-1.1 2.2-3 3-2.1 1.1-1.9.2-1.5-.9-1.3-1.6-1.8-4-1.1-1.8-2.9-3.2-.8-1.9-.1-2.5.7-4.9.1-2.3-.6-2-1-1.6-7.7-6.7-4.6-3.1-3.2-1.4-2.6-.5-2.3.2-4.4 1-2.4-.1-1.6-.8-1.8-1.6-3.5-4.2-1.9-1.9-2.8-1.9-2.2-.5-4.2-.1-1.1-.7-.7-1.3-.9-3.8-1.1-2.1-1.7-2.1-5.4-3.9-2.3-.8-4.1-.8-3.5 1-.5-1.1-2.3-.7-5.9.9-2.5-1.5-.6-2.5.1-3.3-.4-2.8-1.8-1-1 .6h-.8l-.6-.6-1.2-2.8-.6-.1-1.5.7-2.7-.7h-1l-1.3 1-.9 1.3-.9.6-1.7-1.1-7.2-13-1.7-1.6-5.2-2.7-2.3-1.7-1.3-2-.6-2.2-.6-5.9-.6-2-1.4-1.5-7.5-4.4-1.5-2.1.1-2.9 3.4-7.7 1.5-1.5 1.7-.4 2.7 1 1.2.2 1.1-.3 9.5-6.1 2.4-1 5.2-.9 1.9-.9 2.1-2.4 3.7-6.7 2-1.8 1.6-2-.1-1.2-1-1.2-.6-1.6.2-2.4 3.6-.5 6.3-.1 9.5.8 2.8-.3 2.1-1.1 3.8-2.8 2.9-1.1 2 .5 1.5 1.5 2.9 6.1 1.7 2.5 1.1.3 1.1-.5 2.7-3.5 3.6-4 2.5-1.9 2.6-1.1 1.8-.2 2.9.9z"/><path d="M945.4 1250.8l-.8-.7-2.9-.8-2.3.2-7.4 1.2-15.8-.9-6.5.9-3 1-6.5 4.2-4.4 1.9-6.1 3.7-6.6-6.2-3-7.8-3.3-12.4-1.6-3.7-1.6-2.1-1.9-.7-4.4-1.1-2.6-1-2.4-1.6-3.1-2.9-1.8-2.3-5-9.9-5.6-5.2-2.1-1.5-5.3-5.1 4.1-5.3-.1-1.5-.6-2-3.7-4-1.9-2.9-.5-2.5.3-2.7 1.2-2.2 3.4-4 1.5-2.2 1.7-4 1.3-1.4 1.7-1.5 1.8-1 2-.4 13.5-1.3 6.6-1.7 17.9-6.5 3.6-.8 5.8-.4 3.5-.7 1.6 1.4.2 1.7-.2 1.6.1 1.7.8 1.6-.9 2h.9l1-2.8 2 .2 2.6-.2v-1l-3.4-.5-1-2.5.9-3 2.6-1.8v-.9l-.8-.4-1.1-1.6 1.9.7.9-.1.9-.6.7 2.1.8 5.6.9 1.1 1.1.5 3.3 2.6.7 1.1-.3 5.2.8 1.9 3.5 3.2 1.6 1 1.1.3 1.8.1.8.4-1.1 1.9-1.4 1.4-1.8.7-2.2-.1v1h2.2l.4.7.2 1.2-1.9-1-.6 1.6-.5 4.1-.6 2.1-2.2-1-1.8.2-.8 1 1 1.7h.9l1.1-.5 1.1.3.7 1.2v1.9h.8l.2-2.1.7-1.7 1.2 12.5 3.2 11 8.5 19.8-2.7.3.7.8 3 1.2.6 1.3 2.7 4.1.9.9 5.1 6.7.7 2 1.2 6.7-1.2-.5-.8-.9-.4.7zm-226.1-293l-.6 1.3-9.3 13.4-4 3.8-2.9 1.9-2.6.9-12.8 1.7-6.1 1.9-2 1.4-.8 1.6.3 2.6 1.1 2.7 1.6 2.2 1.5 1.6 2.6 1.8.8.7v1l-.7 1.5-4.9 5.8-6 5.4-1.7 2.5-.8 1.8.6 6.6.1.9-2-.6-5.3-.6-4.6.2-1.8-.2-1.4-1.1-.4-.9-.4-3.2-.7-1.4-.9-.8-3.3-1.8-2.3-2-1.3-1.7-1.6-3.9-2.3.9-.5-.4v-.8l.9-1.4.6-4.7-.4-5.7-2.3-3.7-3.3-.2-2.9 5-.5 2.3-1.6 1.5-3.6 2.4-.6 1.1-.3 2.2-1.4 1-1.3.6-1 .1-.4-.7v-1.5l-4 .6-3-2.3-2.1-3.7-1.9-5.6-.2-1.6.6-7.6-.6-1.6-2-1-1.9-.2-2.7-1.1-2.6-1.5-3-3.5-1.3-3-.7-3.5-.2-37.8 3.3-1.3 4.1-1.8 21.8 1.5 5-.7 4.2-1.7 1.8-2.4 1.7-2.9 1.9-4.2 3.6-4.9 2.6-2.9 13.4-8.2.9-.6 14.1 10.5 2.1 4.1-.8 5.8 1.6 1.3 7.3 10.7 1.9 1.1.4 1-.4.7-1.9 1.1-.5 1.2-.8.6-4.8 2.8v.9h3.5l1.5-.2 1.6-.7.1-.7-.2-1.9 2.4-1.8 1.2-.4 1 1 .8 1.2.7.7 2 1.1 17.6 15.1 4.4 3.3z"/><path d="M826.3 1034l-9.1 1.5-6.6-.9-5.7-1.9-2.7-.3-6.7.4-2.7.6-2.3 1.9-2.1 3.3-4.7 9.4-4 3.6-2.9-.9-1.8.2-2.6 1.1-2.5 1.9-3.6 4-2.7 3.5-1.1.5-1.1-.3-1.7-2.5-2.9-6.1-1.5-1.5-2-.5-2.9 1.1-3.8 2.8-2.1 1.1-2.8.3-9.5-.8-6.3.1-3.6.5.3-1.9-.6-.7-2.7.1-7.5 2-4 .4-3.8-1.1-3.1-2.8-5-6.5-3.6-2.4-2.1-.6-1.9-.3-1.8-.5-2.1-1.3-1.7-1.6-1.1-1.6-.8-1.8-1.5-7.5-1.1-1.9-2.6-1.9-2.9-1.4-.1-.9-.6-6.6.8-1.8 1.7-2.5 6-5.4 4.9-5.8.7-1.5v-1l-.8-.7-2.6-1.8-1.5-1.6-1.6-2.2-1.1-2.7-.3-2.6.8-1.6 2-1.4 6.1-1.9 12.8-1.7 2.6-.9 2.9-1.9 4-3.8 9.3-13.4.6-1.3 11.7 8.7 14.5 13.2 4.2 1.2v1l-5.3-1.5-16.7-8.9-4.1.8 10.4 5.9 3.3.8 1.5.6 1.2 1.9 1.4.4 1.6-.2 1.1-.8 1 1.5 1.3 1 3.3 1.4v1.1l-1.9-1.1h-.9l-.9 2.1h2l1.9-.2 3.6-.8-1.5 1.9-.4 1.1.4 1.2 1 1.3.7 1.6-.2.6h1.3l.7-.6 1.2-1.8 1.4-.8.8.8 1.1 2.4 5.2 3.6 1.2 1.3 3.2 5 2.4 1.7 3 4 2.6 1-1 .8-.9.1-.9-.4-1.8-1.3-1.4-.2-.3 1.1 1.7 8 .7 1.4 1.6 1.2 3.3 1.8h.9l1.2-.9 1.2.3.8 1.1.5 1.4 1.2-.8.7.8 5-3.8.6-1-.9-4.4-.1-1.4 2-.5 6.2 4.5 2.9.8 1.2-.8 1.4-2.5 1.6-.5.1.9 1.3 4.9 1.2 2.4 4.4 7.3-3.9-2.9-1.9-.7-.8 2.1 1.1 1.6 2.4 1 2.6.3 1.4-.5h1l2.4 1.1 3.4.8 3.7.3 3.5-.3-.6.7z"/><path d="M826.3 1034l-1.4 1.9-4.8 3.9-1.6 3.2.1 4.1 2.3 2.2 3 1.7 2.1 2.8 2.1-2.1 1.1-.7 1 .3 1.1 4.8.2.5-.7 2.1-1.4 2-1.7 1.6.8.3 2.5-1.4 2.1-.6 1.2 1.8-1.3-7.2-1-2-.1-2.1.9-2.5-.1-2.1-3-.5v-1.1l1.9-1.7.9-2.2 1.3.8.5-.8h.9l1.2 1.3 1.6 1.2 2 1 2.2.4.2-.7.8-1.3.9-.9.8 1.1 1.6 1.8-1.6 1.3-1.5.9-1.1 1-.5 1.7-1.2-1-3.5.7-1.9-.7-.9 5.1.9 5.6 1.9 5 .4.8-12.3-1.1-1.1.1-11.2 2.9-2.7.2-3.5-.4-2.9-1.1-2.5-2.4-.6-1.9.1-3.1-.4-2.2-.3-4.5-.8-.6h-1.7l-7.4 1.5-10.5-1.1 4-3.6 4.7-9.4 2.1-3.3 2.3-1.9 2.7-.6 6.7-.4 2.7.3 5.7 1.9 6.6.9 9.1-1.5zM691 1839.8l1.1 1.8-1.9-1.1h-.9l-.4 1.8-1.9 1.3-1 2.7-1.3.8-2.8 1-1.9 1.7-2.9 4.2-1.8 1.7-1.8-6.8.7-2.6 5.5-1.4 4.1-2.1.8-.8.1-1.4.4-1.8.6-1.6 1.1-1 4.2 3.6zm-27.8-25.8l.6.1v1l1.7.8 1.4 1-.4 2.3-1.5 3.4.4 1 1.7 1.6-.2 1.2-.9.2-1.2-.7-1.6-1.4 1-.9-1.9-2v-.9l.7-1.2.2-1.6v-3.9zm70.4-18.1l8.5 19.6 1 5.6-2.2 1.6-3.6 3.6-.7 1.5-1.1 1.7-2.6 1.6-8.7 3.9-2.4.7-6.1.7-5.4 1.7-1.5-.4-1.1 1.5-4 3.7-3.3 5.2-2.4-.1-5.2-3.1-3.5-.5.6-1.2 2.3-.8.8-.8-.1-1.3-.7-1.2-.9-1-1.3-.9-2.7-2.8-2 .1-1.6-.2-1-.4v2h-.8l-1.8-1.9-2.7-1.3-2.8-.2-2.2 1.4h-.8l.4-1.9-.4-1.8-1.3 2.7-1 1.2-1.5.8-.8-2.7-.1-1.1-.7-1.4.7-.5 1-1.5.2-1.4-.3-9.8-.4-.9-1.8-1.9-.1-1.1 1.4.6v-.6l2.1-.2 10.3-3.9 2.3-1.4 1.3-1.5.4-2.7v-2.2l.7-.8 12.2-5.8 1.8-.6 1.6-.1 2 .8 1.1 1.3.4 1.7-.3 1.8-.1 1.9.4 1.7 1.1 1.6 1.7 1.2 1.9.7 2.1-.2 2.2-1 8.8-11 3.1-3.1 1.6-1.2 2 .1 1.4.4 4.6 5.8z"/><path d="M930.3 1828.9l-.7 2-2.8-.2-1.4-1.4-.6-2.2.5-2 1.8-1 2.2 2 1 2.8zm-8.2-111.4l-2.2-1-2.1-.5h-2.4l-2.5.4-2.3 1-4.5 3.2-1.7 1.7-1.3 1.7-1.1 2.5-1.6 7.1-1.1 2.4-1.1 1.1-1.7.3h-2.3l-1.3-.3-2.9-1.3-1.8-.3-1.3.4-2.8 1.2-1.4.3h-5.2l-.7.5-1.7 1.8-3.8 1.3-2.4 2-1.8 2.5-1.2 2.2-1.3 5.7-1.3 1.5-3.5.5-1 .4-4.9 2.4-1.4.3-2.3.1-1 .5-.8 1.8-1.7 6.3-.7 1.4-2.7.3-1.3 1-2.1 4.4h-.9l-1.1-4.3-3.6-1.1-16.8 3.3-3.9 1.3-1.6 2.3-.7 1.3-3.2 3.4-.7 1.9-.5 1.6-1.9 3.9-1 5.7-5.1 10.2h-.9l-1.5-.9-6-1.8-2.3-.3-2.8.1-2.2.4-7.9 3.4-5.7 4.8-1.9 1.1-5 1.7-8.8 4.7-3 .4-3.1 1.1-4.7 2.6-1-5.6-8.5-19.6 6.3-6.3 1.9-2.9 1.8-3.9.2-4.2-.5-4.2-1.3-3.9-1.3-2.8-1.6-2.7-1.7-1.7-1.8-1.1-2.2-.2-2.4.3-2.8-.3-2.3-1-2.5-1.9-1.5-2.2.9-1.9 2.2-3.6 1.1-2.3.6-3.7 1.5-3.8 2.6-4.6 1.4-3.9.7-1.4 3.1-5.1 1.9-4.4 2.9-5.3 1.4-2 1.3-1.4 1.7-1.1 1-.2 6.4 2.3 4.7 2.3 4.8 1.2 4 .6 34.5 1.9 2.9 1 1.9 1.5.9 1.7.3 1.8.1 2-.4 4.5.6.8 1.2.3 1.7-.6 1.9-1.5 3.5-5 1.9-2.1 2.8-1.6 3.3-1 5.8-.9 4.2-1.6 4-2.2 3.4-2.4 2.7-2.3 1.4-1.7.4-1.5-.3-1.4-2-3.6-.8-2.2-.2-2.4.1-2.5.6-2.2 1.1-1.7 1.9-1.8 3.3-1.6 2.8-.6 17.3-.5 2.9.3 3.9 2 2.2.8 1.5-.6 1.1-1.6 1.6-4.1 1.2-1.9 6.4.2 2.1.9 2 1.2 1 1.5.6 1.7.5 3.8.3 1.5.9 1.3 1.3.7 3.4.9.9.9.3 1.5.4 3.9.5 1.7.9.8 1.5.2 4.2-.3 2.7.4 3.8 1.6 2.5 2.3 1.7 2.7.6 1.9.3 2.1z"/><path d="M746.2 1712.2l-1 .2-1.7 1.1-1.3 1.4-1.4 2-2.9 5.3-1.9 4.4-3.1 5.1-.7 1.4-1.4 3.9-2.6 4.6-1.5 3.8-.6 3.7-1.1 2.3-2.2 3.6-.9 1.9 1.5 2.2 2.5 1.9 2.3 1 2.8.3 2.4-.3 2.2.2 1.8 1.1 1.7 1.7 1.6 2.7 1.3 2.8 1.3 3.9.5 4.2-.2 4.2-1.8 3.9-1.9 2.9-6.3 6.3-4.6-5.8-1.4-.4-2-.1-1.6 1.2-3.1 3.1-8.8 11-2.2 1-2.1.2-1.9-.7-1.7-1.2-1.1-1.6-.4-1.7.1-1.9.3-1.8-.4-1.7-1.1-1.3-2-.8-1.6.1-1.8.6-12.2 5.8-.7.8v2.2l-.4 2.7-1.3 1.5-2.3 1.4-10.3 3.9-2.1.2-.2-2.9-1.4-2.2-4-3.7-.6 2 1.4 1.5 1.9 1.3 1 1.3-1.2 3.4v.8l-.6-.1h-.9l-.9 3.9-.1 4.2-1.7-2.4-1-3-2.6-2.7-2.4-2.1-1.8-1.8-2.9-2.3h-1.8l-3.4 1.7-2.4-.4-2.5-1.8-1.5-1.5-1.7-.9-2.5-1-1.5-.4-1.1-.6-.1-2.3-.5-1.8-.2-3.1-.5-1.7.9-.4 4.8 2.7 1.3-.2 1.3-1 1.6-.9 1.1-.3 2.7-.1 1 .3 2 1 1.4-.1-.1-1.8.6-.9.1-2-.6-2.3-3.8-7.1-2.3-3.2-.5-4.1-2.1-2.9-1.5-1.6-1.1-1.6-1.4-2.6-.1-1.1.1-2.6-.5-2.6.5-1.2 1.8-1.5 1.9-.9 1.7-.5 1.4.2 1.1.6 1.3 1.2 1.4 1.1 1.7.8 1.7.3 1.6-.1 1.4-.5 5.7-4.7 2.4-4.3.5-1.7-.2-2.1-1.4-4.3-1.4-2.4-1.3-1.6-1.2-.8-.6-1.4.4-2.3 4.2-9.5 3-1.5.9-.8 1-1.9 1.1-1.1 2.3-1.6 2.8-2.9 1.4-1.9 1.4-2.7 1.7-2.1.5-.9.4-3.4.5-1.8.7-1.8 1.2-2.2 2-1.7 2.9-1.6 12.7-4 10.1-5.3 5.2.9 3.8-.1 1.8.6.5 1.3-.1 3.5.1 1.1.9 1.1 1.5.5 2.5.6 2.9 1 1.3 1.1.6 1.3-.5 1.3-1.9 2-.3 1.1.1 1.5.7 1.9 1 .9 1.6.5 2.1-.1 5.9.7 11.2 5.7zm-325.8 65l.9 6.4.6 2.1 1 1.8 1.9 1.5.8 3.7 5.2 5.7.5 1.1.6 3.1 1.6.8 5.6-.3 3.1.2 1 4.7.2 1.5-.4 4.2.4 2.1 1.2 1.8 2.2 1.7 13.7 6.8 1.4 1.1 1.3 1.3 1 1.5 2.5 4.8 1.1 1.5 1.1 1 2.3 1.4-6.7 6-5.4 9.6-.3 3.3-2.5 4.7-1.9.6-2.4-.7-1.6.4-1.5 1-4 3.8-1.6.7-1.3-.1-1-1-2.5-3.2-1.3-1.2-1.7-.5-.8.3-.6 1.9-.9 1-2.4.8-1.5.8-1.2 1-3.3 4.8-48-25.2-22.2-19.1 6.7.8 6.1-.3 4.9-1.9 3.3-3.4 5.5-8.6 1.6-1.8 1.8-1.5 13.3-6.8 3.3-3.2-.1-4.4-4.8-9.1-2.2-5.1-.4-4.8.9-2.2 1.5-2 1.8-1.7 1.8-1.3 3-1.5.8.5.3 1.9 1.6 2.1 1.9.6 13.2 2.5z"/><path d="M507.3 1858.7l3.6 4.7.8 3.6.4.5 2.1.9 1.5 1.3.5 1.1.1 1.3-.1 2.3-.7 2.2-1.2 1.6-2.7 1.9-1.8.8-2.4.3-4.2-.7-3.6-1.1-3.3-1.6-4.2-2.8-1.3-.3-1.5.5-1.2 1-.5 1.1.4 1.3.2 1.9-2.2 2.8-8.4 3-14.4 3.1-13.8 4.9-9.8-10.4-3.6-3.2-6.9-4.5-4.3-3.5 3.3-4.8 1.2-1 1.5-.8 2.4-.8.9-1 .6-1.9.8-.3 1.7.5 1.3 1.2 2.5 3.2 1 1 1.3.1 1.6-.7 4-3.8 1.5-1 1.6-.4 2.4.7 1.9-.6 2.5-4.7.3-3.3 5.4-9.6 6.7-6 6.6 4 1.8.6 5.6.3 1.8.4 1.6.8 1.4 1 6.1 7 2.1 1.9 2.4 1.5 6.7 2.5z"/><path d="M463.1 1768.9l.5 2.6 1.4 1.8 1.5 1.2 3.6 2.3 2.1 2 8.5 10.2 28.9 27.4 7.7 5.6 5.4 1.9v4.4l-.7 2.5-1.2 3.2-12.3 15.5-1.3.9-.8 1.3-.5 1.1.8 5.2.6.7-6.7-2.5-2.4-1.5-2.1-1.9-6.1-7-1.4-1-1.6-.8-1.8-.4-5.6-.3-1.8-.6-6.6-4-2.3-1.4-1.1-1-1.1-1.5-2.5-4.8-1-1.5-1.3-1.3-1.4-1.1-13.7-6.8-2.2-1.7-1.2-1.8-.4-2.1.4-4.2-.2-1.5-1-4.7-3.1-.2-5.6.3-1.6-.8-.6-3.1-.5-1.1-5.2-5.7-.8-3.7-1.9-1.5-1-1.8-.6-2.1-.9-6.4 6 1.1 2.1 1.4 4.7 4.1 2 .7 1.3-1.3 4-8.3 5.5-6.4 1.7-1.2.7.3 3.8 1.1 3 1.6 1.1.1 6.8-1.5zm203.1 60.8l.7 1.4-1.9 1-1.1.8-.7 1h-.9l.4-2.1 1.3-1.2 2.2-.9zm-9.8.6l-.6 4.2-2.9 7.1h1l.9-1.9 2.9 1.9 1.5 1.2 1.2 1.6-6.6 1.6-2.8 1.2-1.8 1.9h-.9v-2.5l-.7-1.9-.8-1.6-.4-1.5.4-2.5 2.1-3 .3-2.2h-.9v2l-1.2-3.2 1.2-2.1 2.5-1.3 2.8-.9 2.8 1.9zm-3.5-10.1l.3 1.5.6 1.5.1 1.3-1 .9-.7-.5-.8-1.3-1.2-2.9h-1l.4 1.8 1.2 2.5.3 1.8-.8 1.5-1.8-.5-1.9-1.3-1.1-1.1-1.6-2.6v-1.4l1.3-1.1.8-3.9-.5-1.3-1.9-1.1v-.8l1.5-.4 1.8-.2 1.4.1.2 1 3.1 2.1.7 1.2 1.6.8.1 1.1-1.1 1.3zm-7.9 12.9l1.4 2.8v.9l-2.2-.6-1.8-.8-1.7-.3-1.7.8.7.4 1.1-.4 2.1 1.9 1.5 2.9-.1 2.6-2.5 1.1-3.3-1.3-3.3-3.1-2.9-3.8-1.6-3.2-.5-2.2v-1.7l.5-3.7-.5-1.1-.4-2.2.5-.4 2.2-.4.9-.6 1-3.4-1-3.2-3.6-5.7h3.1l1.3.4 1.2 1.2 1.2 2 .8.8 3.7 1.1 1.7 1.7.8 2.1v2l-.9.9-.7.9-.2 1.6 1.8 2.8 1.9 1.4.6 1.9-1 1.7-3.3.2v1l2.1.1 1.1.9zm-3.8-55.4l2.3 3.2 3.8 7.1.6 2.3-.1 2-.6.9.1 1.8-1.4.1-2-1-1-.3-2.7.1-1.1.3-1.6.9-1.3 1-1.3.2-4.8-2.7-.9.4.5 1.7.2 3.1.5 1.8.1 2.3 1.1.6 1.5.4 2.5 1 1.7.9 1.5 1.5 2.5 1.8 2.4.4 3.4-1.7h1.8l2.9 2.3 1.8 1.8 2.4 2.1 2.6 2.7 1 3 1.7 2.4 1.1 3.7 2.6 2.5-2.3 1.2-3 5.3-1.2 1.1-.8-.7.2-1.2.5-1.5.1-1.4-.6-1.4-1.4-1.2-.8-1.2-.7-2.7.1-2.5.6-4.7-8.3-7.1-4.5 2.3-2.7.7-1.2-1.5-.8-1.5-1.7-2.1-2.1-1.8-1.8-.8-3.4 1.7-.8.6-.7 1.6 1 .9 1.3.6.7.8.3 1.3 1.6 3.9-.5 1.6-2.3 2.1-1.1 3.4-.7-1.3v-1.2l.6-4.1.1-2.5-.9-1.9-1.7-1.6-1.9-1.1-1.8-.4-1.4.1-2.6 1.6-1.3.7-1.8-.3-1.4-1.1-1.8-1.9-1.5-1.1-6-2.5-5.9-3.2-2.5-1.8-1.3-1.8.3-1.8.9-2.3 2.6-5.1.5-3.2-.2-3.5-1.8-4.8-2.1-2.9-2.6-2.5-2.5-1.7-3.1-1.6-5.3-2.1-4.5-2.5 3.7-3.9 1.3-1.9 1.5-3 1-2.7 1.5-8.2 7.6-1.6 1.7-.1 2.1.1 1.1.8 1.2 1.3 5.9 9.9 1.2 1.6 1.2.5h2.6l.7.4.2.8.2 2.1 4.7 6.1 2.7 4.5 3.4 4.5 1.8 2.8 1.3.7 1.7.1 2.1-.5 5.1-1.8 1.6-.4 5 .9zM257 1838.1l.6.6 9.9 10.4.4 2.4v14.6l-5.2 13.3-1.8 7.6 2.4 3.7-1 2.9v1.7l.5 1.5.5 2.4-2.2-1.2-.6-.7-2.7-1.2-1.9-6.1-1.8-11.6-3.6-10.4-2.7-4.4-3.9-3.2-5.2-2.6-1.7-1.8-1.1-5.5-.5-1.4.7-.4 8.6 1.2 2.6-.2 1.2-1.1 1.7-2.8 1.8-1 .4-1.3.3-1.6.4-1.4 1-1.2 1.3-1.1 1.6-.1zm97.6-9.7l22.2 19.1 48 25.2 4.3 3.5 6.9 4.5 3.6 3.2 9.8 10.4 6.3 6.6 2.7 2.2 4.1 3.8.9 1.5.3 1.7.1 2.9-.4 3.6-.9 3.3-2.1 3.2-15.6 14.8-2.9 3.4-.8 2.6.7 1.4 1.4 1.2 2.2 3-.1 7.7-9.3-2.2-2.4-.4-1.4.7-.5 1.8 2.1 7.2.3 2.7-1.3 2.4-2.5 3.7-.5 1.6.6 1.8 1.8 2.3.4.7-.6 1.5-2 1.1-5.3-1.5-20.7-10.4-6.4-4.1-2.3-.8-3.8.3-2.2-.4-1.4-.2-1.2.6-.6.7-1.1.3-1.6.2-3.1-.5-3.7 1.9-1.8-.1-5.3-3.7.2-3 2.9-25 2.1-7.6 2.8-8 6.3.2 4.2-.6.9-2.4 2.2-2.3 8.4-6.3 2.9-1.3 1.4 1 .4 2.2 3.2 8.7v-2l-.8-5.1v-6.1l-.9-3-1.8-3.1-6.1-8-5.3-5.1-2.7-1.6-2.7-.3-5.3 1.3-3.2-.1-4.4-2.6-3.1-4.3-2.8-4.7-2.7-3.6-4.5-2.7-4.5-.6-4.3 1.2-3.5 3.1-.5 1.4v1.2l-.3.9-1.5.3-.8.6-.6 2.7-.4.6-4.8-.3-.4.3-.7-1.3.8-1.9-.1-1.6-.6-.9-1.8-2.1-.4-1.3v-3.8l-.5-3.2-1.3-1.9-3.7-2.9-.9 1.9h-1.1l-.1-3.8-1.4-2.7-3-3.9-.7-1.8 1.4-.3 1.1-.8 1.1-1.6.7-1.3v-1.4l-.7-1.4h-1.1l-1 2.1-1.5 1.7-1.7 1.2-2.3.7-2.1-.2-.1-1.5.4-2.3-.6-1.7 2.4.5 2-.3 1.4-1.3 5.7-8.3 1.1-2.2 1.3-2 1.7-1.4 2.2-.5 5.8-.2 13.4 1.7z"/><path d="M577.1 1764.7l4.5 2.5 5.3 2.1 3.1 1.6 2.5 1.7 2.6 2.5 2.1 2.9 1.8 4.8.2 3.5-.5 3.2-2.6 5.1-.9 2.3-.3 1.8 1.3 1.8 2.5 1.8 5.9 3.2 6 2.5 1.5 1.1 1.8 1.9 1.4 1.1 1.8.3 1.3-.7 2.6-1.6 1.4-.1 1.8.4 1.9 1.1 1.7 1.6.9 1.9-.1 2.5-.6 4.1v1.2l.7 1.3-.4 1.7-1 2.4-1.7 1-4.4 1.6-2.2-.1-1.3-2.4h-1l.5 2 1.3 1.8-1.5.3-1.5.7-1.2 1.1-1 2.8-1.4.8-1.8.7-1.7 1.2.1-2.3-.4-1.8-.7-1.4-.9-1.2.2 4.8.7 2 1.4.7 2.4-.4-1 1.6-3.1 1.4-5.8.1-4-.5-6.3.5-1.9-.4-1.2-.9-.3-1.3.4-2.8v-1.3l-.5-1.3-1.3-1.1-2.1-.9-3.8-.6-2.4-1-1.8-1.2-5.7-8.1-1.8-1.5-1.7-1-2.4-.4-14.2-.8-2.8.3-2.5 1.4-2.4 3.2-1.4 1.1-2.8.6-3.8.1-6.5-1.1-5.4-.3-5.4-1.9-7.7-5.6-28.9-27.4-8.5-10.2-2.1-2-3.6-2.3-1.5-1.2-1.4-1.8-.5-2.6 14.7-3.1 3.1-1.4 5.8-3.6 3.9-1.1 3.6.4 2.3 2.6 2.4 4.2 4.6 6.4 1 2.1 1.5 4.8 1.1 2 1.8 2.2 2.4 1.6 2.8-.1 1.3-1.3 1.6-2.8 1.2-3 .2-2.3 4.6 3.7 3.7 4.4 3.5 2.5 3.8 1.9 3.5 1.3 7.7.8 3.6.9 3 2.4-3.5-13.2-3.3-6.4-.7-2.3.2-.3.2-3.5-.3-.3 1.2-1.9 2.4-.3 2.9.1 1.1.9 1.3.3 1.9.1 11.2-3.4 1.1-.8.3-1.1-.2-2.3.4-.9.8-.3 1.8.7 1.8 1 4.7 4.2zm24.5 157.9l-1.2 1.2-1.9-1.2-3.3-5.1-3.9-2.1-6.2-5.9.6-.4 2.2.4 5.8 4.2 1.6 1.6 4.5 4.5 1.8 2.8zm-16.5-66l7.8 4.9 32.7 11.2.7.5 2.2 1.9 1.5.8 1.6 1.3 2.8.3 1 .4.6.7.2 1.2-.3 3.2-.8 2.1-7.3 7.7-2.2 1.3-2.3-.6.7-1 .1-1.3-.2-1.3-.6-1.2h-1l-.6 2.4-.3.5-1.8 1.9-.8 1.1-.3 1.2 1.5 1.6.6 1.2-.6.6-2.1.2-.5.7.1.9-1 1.3-.3 1.1-.9.5-5.1-.2-2.2-.8-2-1.4-1.8-1.8-2.1-1.5-6.8-2.9-3.9-3.2-3.5-4.2-11.3-18.1-3.9-3.9-5.3-1.7.7.8 1.4.6 4.1 3.2 1.6 1.8 1.2 5.3 1.4 2.9 12.6 16.5 3.1 2.9 10.5 4.9 7.1 5.6 7.7 4.1 2.1.5 1.3 1.2-.4 2.8-1.4 2.9-1.9 1.7v-1l.9-1 .1-1.3-.3-1.3-.7-1h-.8l-.7 4.8-2.7 3.2-3.6 1.2-3.3-.8-3.2-2.6-8-8.8-3.3-2.6-11.5-6.9-34-35-2.4-1.5-1.2.1-2.4-1.5-3.7-1.6-12-3.2-4.1-.6.2-1.7 2.3-1.7 2-.8 2.1-.3h2.1l2.2.3 6.5 2.4 3.3.7h4.3l2.6-.2 6.2-2.4 3.3-.5 7 .2 1.7-.3 6.8-2.5 1.6-.2 1.7.1 1.7.3 4.5 1.8 1.4.9zm-79.3 43l-2.6-.4 2.6 3.9 8.7 8.7-9.5 22.3-.3 1.6-.1 1.7-.4.9-.8.7-1.8.3-2 .6-16.1 9.8-14.2 4.2-4.8 1.6-9.7 1.6-9.5.1.1-7.7-2.2-3-1.4-1.2-.7-1.4.8-2.6 2.9-3.4 15.6-14.8 2.1-3.2.9-3.3.4-3.6-.1-2.9-.3-1.7-.9-1.5-4.1-3.8-2.7-2.2-6.3-6.6 13.8-4.9 14.4-3.1 8.4-3 2.3 2 9.5 6.1 4.3 3.8 3.7 4.4z"/><path d="M509.9 2002.9l-14.7 6-30 11.2-3.4 2.9-5.9 6.4-3.7 2.8-1.4 1.8-.6 2.4-.4.4-.7-3.4-.9-1.5-2.1-2-4.7-1.4-1.7-.7-1.4-1.6-1.3-2.4-1.9-7.1v-2.7l.1-1.3-.2-1.1-.8-.7-2.4-.2-1.3-1-.3-1.5v-2.8l1.6-3.4 1.5-2.3 1.3-1.6.4-1.1-.2-.9-1.3-1.3-1.5-1.2-1-1.2-.1-1 1.1-1.7 1.1-1 .3-2-3.4-4.6 2-1.1.6-1.5-.4-.7-1.8-2.3-.6-1.8.5-1.6 2.5-3.7 1.3-2.4-.3-2.7-2.1-7.2.5-1.8 1.4-.7 2.4.4 9.3 2.2 9.5-.1 9.7-1.6 4.8-1.6 1.1 20.8 1.2 2.7 1.8 3 3.5.5 1.4.5 2.8 2.1 2.1.9 2.8.7 5.9.6 2.1-.3 2.9-1.4 1.8-.3 2.1.5 2.9 1.7 1.4 2 4.8 15z"/><path d="M430 1982.1l3.4 4.6-.3 2-1.1 1-1.1 1.7.1 1 1 1.2 1.5 1.2 1.3 1.3.2.9-.4 1.1-1.3 1.6-1.5 2.3-1.6 3.4v2.8l.3 1.5 1.3 1 2.4.2.8.7.2 1.1-.1 1.3v2.7l1.9 7.1 1.3 2.4 1.4 1.6 1.7.7 4.7 1.4 2.1 2 .9 1.5.7 3.4-1.7.5-.7.5v2.9l-10 19.2-2.6 3.8-3 3.4-4.6 3.7-5.7.8-4.5 1.9-4 4.8-3.8 6.3-3.4 3.6-9.1 2.4-24.2 7-3.2-.5-2.4-1.7-8.5-1.3-3.2-1.2-.8-.4-.3-1.5 1-.4 1.7.6 2.6-.5 6.6-4.4 1.5-.9 2.2-.8.5-1.5-.7-1.4-1.4-.7-.6-.6 1.8-1.1 1.8.1 8.9 1.8 2-.5 2.2-1.1 1.9-1.5.9-1.6-3.2 1.5-4.3 1.2h-4.3l-3.1-1.8-.6-1.5.6-.8 1.5-.3 2.2-.3h3.3l1-.2 2.3-1.7v-.8l-1.3-2.4-.4-2.7.7-2.6-8.6 3.8-5.6 1.4-3.4-1.7-2.4-4.7 1.5-5.2 1.5-4.8 2.1-6.3-.4-5.3-.2-9.7.5-11.9 1.1-8.3.9-20.2v-8.4l.9-15.7.2-2.7 5.3 3.7 1.8.1 3.7-1.9 3.1.5 1.6-.2 1.1-.3.6-.7 1.2-.6 1.4.2 2.2.4 3.8-.3 2.3.8 6.4 4.1 20.7 10.4 5.3 1.5zm188.5 89.7h-1.8l.7.8.3 1.1-3.2.3v1.5l1.4 2 .8 1.8-1.7-.7-1.4.1-2.9.6-1.2.5-.3 1.4v2.8l.4 1.2-.5.5-2.2.1-.7-.6-2.1-2.7-.4-.9 1.5-3.3 3.7-3.6 4.4-3.1 3.8-1.6 1 .4.4 1.4zm-62.2-119.3l1.8 1.7 7.6 1.8 1.7 1.2-.2 3.5-.9 2.4-1.9 1.3-3.5-.1v-.8l.7-2.6-2.1-3-2.9-2.5-2.1-1.4-1 .8 2 2.6 2.3 1.8.7 1-2.7.3-1.4-1.2-4.6-7.3-3.4-4.1-1.6-2.5-.6-2.3-.5-3-1.2-2.2-2.9-3.8.8-.9.3.7 1.6 1.2 6.5 9.4 6.5 6.4 1 1.6zm-46.4 50.4l-4.8-15-1.4-2-2.9-1.7-2.1-.5-1.8.3-2.9 1.4-2.1.3-5.9-.6-2.8-.7-2.1-.9-2.8-2.1-1.4-.5-3.5-.5-1.8-3-1.2-2.7-1.1-20.8 14.2-4.2 16.1-9.8 2-.6 1.8-.3.8-.7.4-.9.1-1.7.3-1.6 9.5-22.3 23.2 23.2.9 2.4.5 2.4 1.3 2.8 14.1 20.9.9 1.9.5 2.2.4 5.7-.6 1.7-5 5.4 1.3 1.3 1.2.6 1 .7.3 2-.5 2.1-1.3 1-3.9.7-18.6 5.8-20.3 8.3zm17.4-87.3l8.9-5.1 4.7-1.9 4-.4 1.5-1.1.1-1.3-.6-1.9-.3-1.8.3-1 1-.9 4.9-1.9 1.4-1 .7-1.3.6-1.5 1.1-1.9 1.3-1.3 2.8-1.2 1.5-.5 5 3.7 1.2 1.2.8 1.2 1.2 2.3.8 1.2 6.9 6.6.8.4 2.6 3.3 11.8 9.8 3.4 3.8 2.4 4.5 1.2 5.4 1.4 1.6 3.5.5 1.6 1.1.6 2.6.1 2.8-.6 7.1-1.7 4.7-2.7 4-3.4 3.1-2.9 1.8-1.6.4-2.8-1.1-1.4.6-2 1.3-5.6-.1-1.8-.9-6.5-5-11.8-6.4-25.2-23.9-9.2-11.6z"/><path d="M521.6 1860.5l4.1.6 12 3.2 3.7 1.6 2.4 1.5-.7.6.6.7 2.4 1.2 3.1 3.4 1.1 2 .9 4.6 1.3 2 1.5 1.8 2.9 2.7 4.3 3.2-1.5.5-2.8 1.2-1.3 1.3-1.1 1.9-.6 1.5-.7 1.3-1.4 1-4.9 1.9-1 .9-.3 1 .3 1.8.6 1.9-.1 1.3-1.5 1.1-4 .4-4.7 1.9-8.9 5.1-3.6-4.4-5.1-4.8-3.9-2.9-4.7-1.2-4.2-2.7-3.7-4.4-4.3-3.8-9.5-6.1-2.3-2 2.2-2.8-.2-1.9-.4-1.3.5-1.1 1.2-1 1.5-.5 1.3.3 4.2 2.8 3.3 1.6 3.6 1.1 4.2.7 2.4-.3 1.8-.8 2.7-1.9 1.2-1.6.7-2.2.1-2.3-.1-1.3-.5-1.1-1.5-1.3-2.1-.9-.4-.5-.8-3.6-3.6-4.7 6.6 1.5 7.7.3zm78.5-1717.6l-.5.4-4.5 2.4-2.8.8-3 .4-3.7.1-3.8-.4-3.9-1.5-11.3-7.7-1.9-.7-1.9-.1-2.4.7-2 1-4.5 4.1-4.2-.3-2-1.6-1.3-1.8-.3-2 .1-3.6-.5-1.5-2.3-2.1-.9-1.1-.2-1.3.1-2.9-1.3-1.2-2.2-.5-4.6.3-7 2.2-1.7.9-2.5 1.7-3.4 1.3-2.1 1.2-2.1 1.5-2 .8-2 .4-2.6-.4-2.4-1-3.8-3.5-1.6-3-.8-3-.5-2.5-.8-2.3-2.3-3.9-.8-1.8-.5-1.9-.1-2 .4-2 1.4-4 .5-1.7-.1-1.5-.4-1-.9-.6-4.1-1h-1.7l-2.1.7-2.2 1.2-6.1 4.9-4.8 6.7-6.1 5.9-6.5-10.4-4.1-9.9-2.1-3.1-3-3.4-20.3-11.8-.9-1.6.8-1.6 7.8-5.5 2.4-2.7 2.2-2.7 2.8-4.6 1.3-1.6 1.3-1.2 1.4-.7h1.5l3.2.6 1.4-1 1.3-2.4 1.7-9.2.4-.7 1.1-.7 1.9-.4v.7l.6 2.8 1.6 2.3 1.9.8 9.7.4 3.8 1.2 3.4-.1 1.4.9 2.6 2.7 1.6.8 1.6.5 1.6.8 1.5 1.5 1.8 2.8 7.6 8.7 2.5 1.8 1.2-.4 1-2.3.8-.7 1.5-.3 2.3.7 1.3.1 4.3-.5 2.2-.6 1.7-1.1 2.2-4.6 1.2-.7 10.7-.8 7.4.9 5.1 1.3 4.4 2.8L558 68l.6 5.4.9 1.8 2.9 1.3 2.9.5h2.7l2.6-.4 19.3-5.1 2.1-1.2.6-3.4 1.3-.8 1.9.5 2.1 1 6.8 1.7 2 1.2 1.4 2.1 1 2.4 1.5 1.8 3 .5 1-.6 1.1-2 1.2-.4 1.4.3 1 .9 1.4 2 4.1 3.2 2.2 3.8-.1.4 2 .1 3.1-.3 2.9.3 1.2 1.9-.9 1.8-4.5 2.6-1.6 1.5-1 2.5-.5 4.7-1.2 2.6-3 4.6-1 2.3-2.3 7.5-1.7 1.5-2.9.1-2.2-1.7-1.5-2.5-1.6-1.9-2.7.3-1.4 1.9-1.2 3-3.1 15-.6 1.2-1.5 2.2-.4 1.7v1.5l.8 3.6z"/><path d="M464.7 40.5l-1.9.4-1.1.7-.4.7-1.7 9.2-1.3 2.4-1.4 1-3.2-.6h-1.5l-1.4.7-1.3 1.2-1.3 1.6-2.8 4.6-2.2 2.7-2.4 2.7-7.8 5.5-.8 1.6.9 1.6 20.3 11.8 3 3.4 2.1 3.1 4.1 9.9 6.5 10.4-9.2 1.7-12.7-2.3-8.5-.7-14.8-5.5-5.2-1.3-2.3.3-1.2 1.3-.8 4.7-.7 2.5-3.3 9.1-1.4 2.4-4 4.6-1.7 2.7-1.3 2.7-1 2.8-2.3 9.6-1.1 1.6-1.2.6-1.5-.1-3.9-1.5-2.2-.4-2.6.3-1.5 1.3-.8 1.8-.2 2.1v3.9l-.6 1.7-.7 1.7-5.4 8.6-5.6 5.8-3.8.4-3.2-.7-3.6-1.3-2.9-2.9-3.4-5.5-2.1-2.3-2.5-1.5-2.9-.6h-2.3l-3.1 1.5-2.3 3.1-.9.6-.8-.1-.7-1-.3-1.9.3-2 1.1-4.6-.1-2.4-.9-2.5-2-2.7-1.9-1.7-2.1-1.4-4.5-2.1-4.7-2.9-1.6-2-.7-2.7.1-4.3-.3-2.2-.8-2.7-1.7-3.8-.7-4.1.2-1.9 1.1-.8 3.5-.1.5-.6-.1-.9-.9-1.5-4.9-6.2-.9-1.3-1-1-1.4-.8-4.2-.8-1.5-1-.7-.8-.4-1.9v-.8l11.9-7.8 2.6-2.9 8.8-7.3 2.7-3.1 1.2.2-.1 1.5.5.6 1.9 1.7 1.3.3.8-.4 1.4-1.6.7-.4 2.6.3 4.6 1.5 2.7-.2 2.4-.9 2-1.3 1.8-1.8 4.7-6.7 1.5-1.7 6.7-4.1.6-1.5-.1-3-4-19.3 1.8-1.6 3.4-.5 3.4-3 .6-2 .2-2.4.4-2 1.5-1.2 1.9.2 3.5 2.1 1.9.2 1.4-.8 4.9-4.5 4.7-2.4 4.2-3 1.9-.8 11.1-3.2 1-1.6.8-.3 1.3.9 1.5.4 1.8.9 1.5-.3 2.3-1.7.8-2.4.5-2.8 1.2-2.8 1.3-1.6 4.6-4.2 1.9-1.1 2.5.1 1.1 1.7.6 2.6 1 2.7 1.6 2.1 2.1 1.8 2.2 1.5 1.9.9 1.3.1 2.1-.5 1.5.8.7.8 1.8 3.3 2.8 5.8 1.2 1.7 5.9 3.9 1.5 1.8.9 2.9.1 5.5z"/><path d="M305.4 100.4v.8l.4 1.9.7.8 1.5 1 4.2.8 1.4.8 1 1 .9 1.3 4.9 6.2.9 1.5.1.9-.5.6-3.5.1-1.1.8-.2 1.9.7 4.1 1.7 3.8.8 2.7.3 2.2-.1 4.3.7 2.7 1.6 2 4.7 2.9 4.5 2.1 2.1 1.4 1.9 1.7 2 2.7.9 2.5.1 2.4-1.1 4.6-.3 2 .3 1.9.7 1 .8.1.9-.6 2.3-3.1.5 4.5 1.9 4.4.3 2.1-.4 1.6-1.2.8-1.8.6-2 1.3-1.9 2.1-2.2 3.8-1.7 2-1.5.6-1.7-.6-9.2-6.4-2.9-.8-3 .1-4.3 2-2 2.5-.5 2.6 1.1 3 5.7 10.2 1.3 3 .5 2.7-.1 2.5-1 2.9-1.5 2.3-1.9 1.9-2.3 1-2.6-.2-3.3-1-11.2-5.2-3.5-2-1.4-.6-1.1.3-.4 1.1.2 1.7-.1 2.1-.7 2.2-1.4 2.5-1.2.7-1.3-.2-1.3-1.2-1.7-1.2-2.1-.9-2.5-.5-5.7-.5-2.8-.5-2.4-1-2.4-1.6-3.8-3.8-1.6-1.1-1.4-.2-.9.9-2.4 6-2.8 4.6-2.3 2.5-1 1.4-.4 1.1.3 1.1 4.4 7.1.9 1.9.1 1.8-.4 2-1.8 4-1.6 2.8-4 1.1-2.4.5-2.9-1-3-2.5-16.8-18.8-2.6-4.8-6-16.1-1.7-2.9-2.3-1.8-1.7-.8-4.9 1.2 2.2-12.4.9-2.4 1.2-2.4 2.8-4.3 1.7-1.7 2-1.4 6.8-2 2-1.4 1.7-1.7 6.1-7.6 3-5.7.9-2.7.2-2.6-1-2.7-2-2.6-4.4-3-3.1-.9-2.9.2-2.2.6-2.3.5-2.3-.1-2.6-.8-2.8-1.6-3.4-2.6-1.5-2.3.2-2.2 1.3-1.7 1.6-1.7 1.4-1.7.5-2.5-.6-3.2-1-3.4-4.1-7.8-3-2.5-.7-6.2.4-1.4 2.8-3.6 1.2-2.3.8-2.2 1-1.8 1.9-1.2 5.8-3.4 1.6.9 9.2 11.3 9.2 8.3 1.5 1.8.6 1.3 2.7 4.3.9 1 1.1.5 3 3.5.8.3 2.2.2.8.4 1.1 1.6 2 3.7 1.1.7 2.1.6 1.4 1.2 1.1 1.3 2-1.2 1.5-1.7.3-1.9-.2-2.1v-2.3l.6-2.3 1.8-4.3.5-2.3.9-8.9 1.4-4.1 2.8-3.9 1.3-1.2 1.6-3 1-1.3 1.8-1.3 1.7-.4 3.9-.4 11.6-4.1 3.8.1-1.1 2.9-.6 3.1.1 3.2 1 2.9 1.7 2 7.4 3.5 2.9 1.8 2 .9 2.1-.3.8-.6z"/><circle cx="543.6" cy="1842.8"/><circle cx="468.9" cy="1875"/><circle cx="471.2" cy="1863.5"/></svg>