<?xml version="1.0" encoding="utf-8"?>
<!-- Generator: Adobe Illustrator 22.0.0, SVG Export Plug-In . SVG Version: 6.00 Build 0)  -->
<svg version="1.1" id="Layer_1" xmlns="http://www.w3.org/2000/svg" xmlns:xlink="http://www.w3.org/1999/xlink" x="0px" y="0px"
	 viewBox="0 0 100 125" style="enable-background:new 0 0 100 125;" xml:space="preserve">
<style type="text/css">
	.st0{fill:#D5E7EA;}
</style>
<g>
	<path class="st0" d="M48.9,42.4c0-11.3-9.1-20.4-20.4-20.4S9,30.8,8,42C6.6,59.1,19.6,73.5,35.4,78.1c-5.4-3.3-9.1-8.9-9.8-15.5
		c0.9,0.1,1.9,0.2,2.8,0.2C39.7,62.8,48.9,53.6,48.9,42.4z"/>
	<path class="st0" d="M92,42.4c0-11.3-9.1-20.4-20.4-20.4c-11.3,0-19.5,8.8-20.4,20.1c-1.5,17.1,11.6,31.5,27.4,36.1
		c-5.4-3.3-9.1-8.9-9.8-15.5c0.9,0.1,1.9,0.2,2.8,0.2C82.9,62.8,92,53.6,92,42.4z"/>
</g>
</svg>
