<svg id="Layer_1" data-name="Layer 1" xmlns="http://www.w3.org/2000/svg" xmlns:xlink="http://www.w3.org/1999/xlink" viewBox="0 0 48 48"><defs><style>.cls-1{fill:url(#linear-gradient)}.cls-2{fill:url(#linear-gradient-2)}.cls-3{fill:url(#linear-gradient-3)}.cls-4{fill:url(#linear-gradient-4)}.cls-5{fill:url(#linear-gradient-5)}</style><linearGradient id="linear-gradient" x1="24" y1="-8.39" x2="24" y2="58.73" gradientUnits="userSpaceOnUse"><stop offset="0" stop-color="#f3c57a"/><stop offset=".49" stop-color="#f39369"/><stop offset="1" stop-color="#e94867"/></linearGradient><linearGradient id="linear-gradient-2" x1="24" y1="36.87" x2="24" y2="63.68" gradientUnits="userSpaceOnUse"><stop offset="0" stop-color="#273a9b"/><stop offset=".56" stop-color="#202f65"/><stop offset="1" stop-color="#021e2f"/></linearGradient><linearGradient id="linear-gradient-3" y1="-20" x2="24" y2="48.89" xlink:href="#linear-gradient"/><linearGradient id="linear-gradient-4" x1="24" y1="45.42" x2="24" y2="35.99" xlink:href="#linear-gradient-2"/><linearGradient id="linear-gradient-5" y1="7.5" x2="24" y2="47.05" xlink:href="#linear-gradient"/></defs><title>lightbulb, energy, power, flashlight</title><path class="cls-1" d="M40 19a16 16 0 1 0-26.2 12.24 11.31 11.31 0 0 1 4.1 7.06l.1.7h12a12.37 12.37 0 0 1 4.22-7.78A15.9 15.9 0 0 0 40 19z"/><path class="cls-2" d="M18 39h12v3a3 3 0 0 1-3 3h-6a3 3 0 0 1-3-3v-3z"/><path class="cls-3" d="M23.67 6a1.42 1.42 0 0 0-1.14.57 1.7 1.7 0 0 1-1.22.72 3 3 0 0 1 .39 2.63 2.93 2.93 0 0 1-2 1.94 3 3 0 0 1-3.64-1.73 1.67 1.67 0 0 1-1.49.09 1.6 1.6 0 0 0-1.75.32 15.87 15.87 0 0 0-4.72 9.87v.06a15.91 15.91 0 0 0 5.73 10.79 11.24 11.24 0 0 1 4.07 7l.1.74h12a12.37 12.37 0 0 1 4.22-7.78 15.9 15.9 0 0 0 5.66-10.78A16 16 0 0 0 23.67 6z"/><path class="cls-4" d="M18 39h12v1.5H18z"/><path class="cls-5" d="M28.5 24.31a4.5 4.5 0 1 0-7.43 3.39 4.05 4.05 0 0 1 1.43 3.07V39h3v-8.22a4.11 4.11 0 0 1 1.5-3.09 4.45 4.45 0 0 0 1.5-3.38z"/></svg>