<svg xmlns="http://www.w3.org/2000/svg" xmlns:xlink="http://www.w3.org/1999/xlink" viewBox="0 0 225.31 152.1"><defs><style>.cls-1{fill:none;}.cls-2{isolation:isolate;}.cls-3{mix-blend-mode:multiply;}.cls-4{fill:#fff;opacity:0;}.cls-5{fill:#fcfcfc;}.cls-41,.cls-5{opacity:0.03;}.cls-6{fill:#f9f9f9;}.cls-42,.cls-6{opacity:0.06;}.cls-7{fill:#f5f5f5;}.cls-43,.cls-7{opacity:0.09;}.cls-8{fill:#f2f2f2;}.cls-44,.cls-8{opacity:0.12;}.cls-9{fill:#efefef;}.cls-45,.cls-9{opacity:0.15;}.cls-10{fill:#ececec;}.cls-10,.cls-46{opacity:0.18;}.cls-11{fill:#e8e8e8;}.cls-11,.cls-47{opacity:0.21;}.cls-12{fill:#e5e5e5;}.cls-12,.cls-48{opacity:0.24;}.cls-13{fill:#e2e2e2;}.cls-13,.cls-49{opacity:0.27;}.cls-14{fill:#dfdfdf;}.cls-14,.cls-50{opacity:0.3;}.cls-15{fill:#dbdbdb;}.cls-15,.cls-51{opacity:0.33;}.cls-16{fill:#d8d8d8;}.cls-16,.cls-52{opacity:0.36;}.cls-17{fill:#d5d5d5;}.cls-17,.cls-53{opacity:0.39;}.cls-18{fill:#d2d2d2;}.cls-18,.cls-54{opacity:0.42;}.cls-19{fill:#cecece;}.cls-19,.cls-55{opacity:0.45;}.cls-20{fill:#cbcbcb;}.cls-20,.cls-56{opacity:0.48;}.cls-21{fill:#c8c8c8;}.cls-21,.cls-57{opacity:0.52;}.cls-22{fill:#c5c5c5;}.cls-22,.cls-58{opacity:0.55;}.cls-23{fill:#c1c1c1;}.cls-23,.cls-59{opacity:0.58;}.cls-24{fill:#bebebe;}.cls-24,.cls-60{opacity:0.61;}.cls-25{fill:#bbb;}.cls-25,.cls-61{opacity:0.64;}.cls-26{fill:#b8b8b8;}.cls-26,.cls-62{opacity:0.67;}.cls-27{fill:#b4b4b4;}.cls-27,.cls-63{opacity:0.7;}.cls-28{fill:#b1b1b1;}.cls-28,.cls-64{opacity:0.73;}.cls-29{fill:#aeaeae;}.cls-29,.cls-65{opacity:0.76;}.cls-30{fill:#ababab;}.cls-30,.cls-66{opacity:0.79;}.cls-31{fill:#a7a7a7;}.cls-31,.cls-67{opacity:0.82;}.cls-32{fill:#a4a4a4;}.cls-32,.cls-68{opacity:0.85;}.cls-33{fill:#a1a1a1;}.cls-33,.cls-69{opacity:0.88;}.cls-34{fill:#9e9e9e;}.cls-34,.cls-70{opacity:0.91;}.cls-35{fill:#9a9a9a;}.cls-35,.cls-71{opacity:0.94;}.cls-36{fill:#979797;}.cls-36,.cls-72{opacity:0.97;}.cls-37{fill:#949494;}.cls-38{fill:url(#linear-gradient);}.cls-39{fill:#008cff;}.cls-40{clip-path:url(#clip-path);}.cls-41{fill:#fbfcfd;}.cls-42{fill:#f6f9fb;}.cls-43{fill:#f2f6fa;}.cls-44{fill:#edf3f8;}.cls-45{fill:#e9f0f6;}.cls-46{fill:#e4edf4;}.cls-47{fill:#e0eaf2;}.cls-48{fill:#dbe7f1;}.cls-49{fill:#d7e4ef;}.cls-50{fill:#d2e1ed;}.cls-51{fill:#cedeeb;}.cls-52{fill:#cadbea;}.cls-53{fill:#c5d8e8;}.cls-54{fill:#c1d5e6;}.cls-55{fill:#bcd2e4;}.cls-56{fill:#b8cfe2;}.cls-57{fill:#b3cde1;}.cls-58{fill:#afcadf;}.cls-59{fill:#aac7dd;}.cls-60{fill:#a6c4db;}.cls-61{fill:#a1c1d9;}.cls-62{fill:#9dbed8;}.cls-63{fill:#99bbd6;}.cls-64{fill:#94b8d4;}.cls-65{fill:#90b5d2;}.cls-66{fill:#8bb2d1;}.cls-67{fill:#87afcf;}.cls-68{fill:#82accd;}.cls-69{fill:#7ea9cb;}.cls-70{fill:#79a6c9;}.cls-71{fill:#75a3c8;}.cls-72{fill:#70a0c6;}.cls-73{fill:#6c9dc4;}.cls-74{fill:#fafafa;}.cls-75{fill:#d6d6d6;}.cls-76{fill:#f0f0f0;}.cls-77{fill:#f8f8f8;}.cls-78{fill:#333;}</style><linearGradient id="linear-gradient" y1="118.14" x2="176.4" y2="118.14" gradientUnits="userSpaceOnUse"><stop offset="0" stop-color="#0af"/><stop offset="0.04" stop-color="#00a9ff"/><stop offset="0.35" stop-color="#00a6ff"/><stop offset="0.54" stop-color="#0086dd"/><stop offset="0.74" stop-color="#0066ba"/><stop offset="1" stop-color="#0041ad"/></linearGradient><clipPath id="clip-path"><path class="cls-1" d="M147.21,50.11c-38.92-22.47-79.09-22.47-118,0h0C9.73,61.34,0,72.76,0,84.18S9.73,107,29.19,118.25c38.93,22.47,79.1,22.47,118,0C166.67,107,176.4,95.59,176.4,84.18S166.67,61.35,147.21,50.11Z"/></clipPath></defs><title>Asset 6</title><g class="cls-2"><g id="Layer_2" data-name="Layer 2"><g id="Layer_1-2" data-name="Layer 1"><g class="cls-3"><path class="cls-4" d="M196.12,67.11c-38.92-22.47-79.09-22.47-118,0h0C58.64,78.35,48.91,89.76,48.91,101.18S58.64,124,78.1,135.25c38.93,22.47,79.1,22.47,118,0,19.46-11.24,29.19-22.66,29.19-34.07S215.58,78.35,196.12,67.11Z"/><path class="cls-5" d="M194.64,67.11c-38.93-22.47-79.1-22.47-118,0h0C57.16,78.35,47.43,89.76,47.43,101.18S57.16,124,76.62,135.25c38.92,22.47,79.09,22.47,118,0,19.46-11.24,29.19-22.66,29.19-34.07S214.1,78.35,194.64,67.11Z"/><path class="cls-6" d="M193.16,67.11c-38.93-22.47-79.1-22.47-118,0h0c-19.46,11.24-29.2,22.65-29.2,34.07s9.74,22.83,29.2,34.07c38.92,22.47,79.09,22.47,118,0,19.46-11.24,29.19-22.66,29.19-34.07S212.62,78.35,193.16,67.11Z"/><path class="cls-7" d="M191.67,67.11c-38.92-22.47-79.09-22.47-118,0h0c-19.47,11.24-29.2,22.65-29.2,34.07s9.73,22.83,29.2,34.07c38.92,22.47,79.09,22.47,118,0,19.47-11.24,29.2-22.66,29.2-34.07S211.14,78.35,191.67,67.11Z"/><path class="cls-8" d="M190.19,67.11c-38.92-22.47-79.09-22.47-118,0h0C52.71,78.35,43,89.76,43,101.18S52.71,124,72.17,135.25c38.93,22.47,79.1,22.47,118,0,19.46-11.24,29.2-22.66,29.2-34.07S209.65,78.35,190.19,67.11Z"/><path class="cls-9" d="M188.71,67.11c-38.92-22.47-79.09-22.47-118,0h0C51.23,78.35,41.5,89.76,41.5,101.18S51.23,124,70.69,135.25c38.93,22.47,79.1,22.47,118,0,19.46-11.24,29.19-22.66,29.19-34.07S208.17,78.35,188.71,67.11Z"/><path class="cls-10" d="M187.23,67.11c-38.93-22.47-79.1-22.47-118,0h0C49.75,78.35,40,89.76,40,101.18S49.75,124,69.21,135.25c38.92,22.47,79.09,22.47,118,0,19.46-11.24,29.19-22.66,29.19-34.07S206.69,78.35,187.23,67.11Z"/><path class="cls-11" d="M185.75,67.11c-38.93-22.47-79.1-22.47-118,0h0c-19.46,11.24-29.2,22.65-29.2,34.07s9.74,22.83,29.2,34.07c38.92,22.47,79.09,22.47,118,0,19.46-11.24,29.19-22.66,29.19-34.07S205.21,78.35,185.75,67.11Z"/><path class="cls-12" d="M184.26,67.11c-38.92-22.47-79.09-22.47-118,0h0c-19.47,11.24-29.2,22.65-29.2,34.07s9.73,22.83,29.2,34.07c38.92,22.47,79.09,22.47,118,0,19.47-11.24,29.2-22.66,29.2-34.07S203.73,78.35,184.26,67.11Z"/><path class="cls-13" d="M182.78,67.11c-38.92-22.47-79.09-22.47-118,0h0C45.3,78.35,35.57,89.76,35.57,101.18S45.3,124,64.76,135.25c38.93,22.47,79.1,22.47,118,0C202.24,124,212,112.59,212,101.18S202.24,78.35,182.78,67.11Z"/><path class="cls-14" d="M181.3,67.11c-38.92-22.47-79.09-22.47-118,0h0C43.82,78.35,34.09,89.76,34.09,101.18S43.82,124,63.28,135.25c38.93,22.47,79.1,22.47,118,0,19.46-11.24,29.19-22.66,29.19-34.07S200.76,78.35,181.3,67.11Z"/><path class="cls-15" d="M179.82,67.11c-38.93-22.47-79.1-22.47-118,0h0C42.34,78.35,32.61,89.76,32.61,101.18S42.34,124,61.8,135.25c38.92,22.47,79.09,22.47,118,0C199.28,124,209,112.59,209,101.18S199.28,78.35,179.82,67.11Z"/><path class="cls-16" d="M178.34,67.11c-38.93-22.47-79.1-22.47-118,0h0c-19.47,11.24-29.2,22.65-29.2,34.07s9.73,22.83,29.2,34.07c38.92,22.47,79.09,22.47,118,0,19.46-11.24,29.19-22.66,29.19-34.07S197.8,78.35,178.34,67.11Z"/><path class="cls-17" d="M176.85,67.11c-38.92-22.47-79.09-22.47-118,0h0C39.37,78.35,29.64,89.76,29.64,101.18s9.73,22.83,29.2,34.07c38.92,22.47,79.09,22.47,118,0,19.47-11.24,29.2-22.66,29.2-34.07S196.32,78.35,176.85,67.11Z"/><path class="cls-18" d="M175.37,67.11c-38.92-22.47-79.09-22.47-118,0h0C37.89,78.35,28.16,89.76,28.16,101.18S37.89,124,57.35,135.25c38.93,22.47,79.1,22.47,118,0,19.46-11.24,29.19-22.66,29.19-34.07S194.83,78.35,175.37,67.11Z"/><path class="cls-19" d="M173.89,67.11c-38.93-22.47-79.1-22.47-118,0h0C36.41,78.35,26.68,89.76,26.68,101.18S36.41,124,55.87,135.25c38.93,22.47,79.1,22.47,118,0,19.46-11.24,29.19-22.66,29.19-34.07S193.35,78.35,173.89,67.11Z"/><path class="cls-20" d="M172.41,67.11c-38.93-22.47-79.1-22.47-118,0h0C34.93,78.35,25.2,89.76,25.2,101.18S34.93,124,54.39,135.25c38.92,22.47,79.09,22.47,118,0,19.46-11.24,29.19-22.66,29.19-34.07S191.87,78.35,172.41,67.11Z"/><path class="cls-21" d="M170.92,67.11c-38.92-22.47-79.09-22.47-118,0h0c-19.47,11.24-29.2,22.65-29.2,34.07s9.73,22.83,29.2,34.07c38.92,22.47,79.09,22.47,118,0,19.46-11.24,29.19-22.66,29.19-34.07S190.39,78.35,170.92,67.11Z"/><path class="cls-22" d="M169.44,67.11c-38.92-22.47-79.09-22.47-118,0h0C32,78.35,22.23,89.76,22.23,101.18S32,124,51.42,135.25c38.93,22.47,79.1,22.47,118,0,19.47-11.24,29.2-22.66,29.2-34.07S188.91,78.35,169.44,67.11Z"/><path class="cls-23" d="M168,67.11c-38.92-22.47-79.09-22.47-118,0h0C30.48,78.35,20.75,89.76,20.75,101.18S30.48,124,49.94,135.25c38.93,22.47,79.1,22.47,118,0,19.46-11.24,29.19-22.66,29.19-34.07S187.42,78.35,168,67.11Z"/><path class="cls-24" d="M166.48,67.11c-38.93-22.47-79.1-22.47-118,0h0C29,78.35,19.27,89.76,19.27,101.18S29,124,48.46,135.25c38.92,22.47,79.1,22.47,118,0,19.46-11.24,29.19-22.66,29.19-34.07S185.94,78.35,166.48,67.11Z"/><path class="cls-25" d="M165,67.11c-38.93-22.47-79.1-22.47-118,0h0c-19.46,11.24-29.2,22.65-29.19,34.07S27.52,124,47,135.25c38.92,22.47,79.09,22.47,118,0,19.46-11.24,29.19-22.66,29.19-34.07S184.46,78.35,165,67.11Z"/><path class="cls-26" d="M163.51,67.11c-38.92-22.47-79.09-22.47-118,0h0C26,78.35,16.3,89.76,16.3,101.18S26,124,45.5,135.25c38.92,22.47,79.09,22.47,118,0,19.47-11.24,29.2-22.66,29.2-34.07S183,78.35,163.51,67.11Z"/><path class="cls-27" d="M162,67.11c-38.92-22.47-79.09-22.47-118,0h0C24.55,78.35,14.82,89.76,14.82,101.18S24.55,124,44,135.25c38.93,22.47,79.1,22.47,118,0,19.46-11.24,29.2-22.66,29.2-34.07S181.49,78.35,162,67.11Z"/><path class="cls-28" d="M160.55,67.11c-38.92-22.47-79.09-22.47-118,0h0C23.07,78.35,13.34,89.76,13.34,101.18S23.07,124,42.53,135.25c38.93,22.47,79.1,22.47,118,0C180,124,189.74,112.59,189.74,101.18S180,78.35,160.55,67.11Z"/><path class="cls-29" d="M159.07,67.11c-38.93-22.47-79.1-22.47-118,0h0C21.59,78.35,11.86,89.76,11.86,101.18S21.59,124,41.05,135.25c38.92,22.47,79.09,22.47,118,0,19.46-11.24,29.19-22.66,29.19-34.07S178.53,78.35,159.07,67.11Z"/><path class="cls-30" d="M157.59,67.11c-38.93-22.47-79.1-22.47-118,0h0c-19.46,11.24-29.2,22.65-29.2,34.07s9.74,22.83,29.2,34.07c38.92,22.47,79.09,22.47,118,0,19.46-11.24,29.19-22.66,29.19-34.07S177.05,78.35,157.59,67.11Z"/><path class="cls-31" d="M156.1,67.11c-38.92-22.47-79.09-22.47-118,0h0C18.62,78.35,8.89,89.76,8.89,101.18s9.73,22.83,29.2,34.07c38.92,22.47,79.09,22.47,118,0,19.47-11.24,29.2-22.66,29.2-34.07S175.57,78.35,156.1,67.11Z"/><path class="cls-32" d="M154.62,67.11c-38.92-22.47-79.09-22.47-118,0h0C17.14,78.35,7.41,89.76,7.41,101.18S17.14,124,36.6,135.25c38.93,22.47,79.1,22.47,118,0,19.46-11.24,29.2-22.66,29.2-34.07S174.08,78.35,154.62,67.11Z"/><path class="cls-33" d="M153.14,67.11c-38.92-22.47-79.09-22.47-118,0h0C15.66,78.35,5.93,89.76,5.93,101.18S15.66,124,35.12,135.25c38.93,22.47,79.1,22.47,118,0,19.46-11.24,29.19-22.66,29.19-34.07S172.6,78.35,153.14,67.11Z"/><path class="cls-34" d="M151.66,67.11c-38.93-22.47-79.1-22.47-118,0h0C14.18,78.35,4.45,89.76,4.45,101.18S14.18,124,33.64,135.25c38.92,22.47,79.09,22.47,118,0,19.46-11.24,29.19-22.66,29.19-34.07S171.12,78.35,151.66,67.11Z"/><path class="cls-35" d="M150.18,67.11c-38.93-22.47-79.1-22.47-118,0h0C12.7,78.35,3,89.76,3,101.18S12.7,124,32.16,135.25c38.92,22.47,79.09,22.47,118,0,19.46-11.24,29.19-22.66,29.19-34.07S169.64,78.35,150.18,67.11Z"/><path class="cls-36" d="M148.69,67.11c-38.92-22.47-79.09-22.47-118,0h0C11.21,78.35,1.48,89.76,1.48,101.18s9.73,22.83,29.2,34.07c38.92,22.47,79.09,22.47,118,0,19.47-11.24,29.2-22.66,29.2-34.07S168.16,78.35,148.69,67.11Z"/><path class="cls-37" d="M147.21,67.11c-38.92-22.47-79.09-22.47-118,0h0C9.73,78.35,0,89.76,0,101.18S9.73,124,29.19,135.25c38.93,22.47,79.1,22.47,118,0,19.46-11.24,29.19-22.66,29.19-34.07S166.67,78.35,147.21,67.11Z"/></g><path class="cls-38" d="M147.21,118.25c-38.92,22.47-79.09,22.47-118,0C9.73,107,0,95.59,0,84.18v17C0,112.59,9.73,124,29.19,135.25c38.93,22.47,79.1,22.47,118,0,19.46-11.24,29.19-22.66,29.19-34.07v-17C176.4,95.59,166.67,107,147.21,118.25Z"/><path class="cls-39" d="M147.21,50.11c-38.92-22.47-79.09-22.47-118,0h0C9.73,61.34,0,72.76,0,84.18S9.73,107,29.19,118.25c38.93,22.47,79.1,22.47,118,0C166.67,107,176.4,95.59,176.4,84.18S166.67,61.35,147.21,50.11Z"/><g class="cls-40"><g class="cls-3"><polygon class="cls-4" points="194.24 48.68 177.08 38.78 177.08 31.69 122.19 0 114.85 4.24 114.85 76.11 169.75 107.81 177.08 103.57 177.08 101.19 188.54 107.81 194.24 104.52 194.24 101.8 204.64 107.81 208.28 105.7 208.28 70.03 194.24 61.92 194.24 48.68"/><polygon class="cls-41" points="192.01 48.68 174.86 38.78 174.86 31.69 119.96 0 112.63 4.24 112.63 76.11 167.52 107.81 174.86 103.57 174.86 101.19 186.31 107.81 192.01 104.52 192.01 101.8 202.42 107.81 206.06 105.7 206.06 70.03 192.01 61.92 192.01 48.68"/><polygon class="cls-42" points="189.79 48.68 172.64 38.78 172.64 31.69 117.74 0 110.41 4.24 110.41 76.11 165.3 107.81 172.64 103.57 172.64 101.19 184.09 107.81 189.79 104.52 189.79 101.8 200.19 107.81 203.83 105.7 203.83 70.03 189.79 61.92 189.79 48.68"/><polygon class="cls-43" points="187.57 48.68 170.41 38.78 170.41 31.69 115.52 0 108.18 4.24 108.18 76.11 163.08 107.81 170.41 103.57 170.41 101.19 181.87 107.81 187.57 104.52 187.57 101.8 197.97 107.81 201.61 105.7 201.61 70.03 187.57 61.92 187.57 48.68"/><polygon class="cls-44" points="185.34 48.68 168.19 38.78 168.19 31.69 113.29 0 105.96 4.24 105.96 76.11 160.85 107.81 168.19 103.57 168.19 101.19 179.65 107.81 185.34 104.52 185.34 101.8 195.75 107.81 199.39 105.7 199.39 70.03 185.34 61.92 185.34 48.68"/><polygon class="cls-45" points="183.12 48.68 165.97 38.78 165.97 31.69 111.07 0 103.74 4.24 103.74 76.11 158.63 107.81 165.97 103.57 165.97 101.19 177.42 107.81 183.12 104.52 183.12 101.8 193.52 107.81 197.16 105.7 197.16 70.03 183.12 61.92 183.12 48.68"/><polygon class="cls-46" points="180.9 48.68 163.74 38.78 163.74 31.69 108.85 0 101.51 4.24 101.51 76.11 156.41 107.81 163.74 103.57 163.74 101.19 175.2 107.81 180.9 104.52 180.9 101.8 191.3 107.81 194.94 105.7 194.94 70.03 180.9 61.92 180.9 48.68"/><polygon class="cls-47" points="178.67 48.68 161.52 38.78 161.52 31.69 106.62 0 99.29 4.24 99.29 76.11 154.19 107.81 161.52 103.57 161.52 101.19 172.98 107.81 178.67 104.52 178.67 101.8 189.08 107.81 192.72 105.7 192.72 70.03 178.67 61.92 178.67 48.68"/><polygon class="cls-48" points="176.45 48.68 159.3 38.78 159.3 31.69 104.4 0 97.07 4.24 97.07 76.11 151.96 107.81 159.3 103.57 159.3 101.19 170.75 107.81 176.45 104.52 176.45 101.8 186.85 107.81 190.5 105.7 190.5 70.03 176.45 61.92 176.45 48.68"/><polygon class="cls-49" points="174.23 48.68 157.07 38.78 157.07 31.69 102.18 0 94.84 4.24 94.84 76.11 149.74 107.81 157.07 103.57 157.07 101.19 168.53 107.81 174.23 104.52 174.23 101.8 184.63 107.81 188.27 105.7 188.27 70.03 174.23 61.92 174.23 48.68"/><polygon class="cls-50" points="172 48.68 154.85 38.78 154.85 31.69 99.95 0 92.62 4.24 92.62 76.11 147.52 107.81 154.85 103.57 154.85 101.19 166.31 107.81 172 104.52 172 101.8 182.41 107.81 186.05 105.7 186.05 70.03 172 61.92 172 48.68"/><polygon class="cls-51" points="169.78 48.68 152.63 38.78 152.63 31.69 97.73 0 90.4 4.24 90.4 76.11 145.29 107.81 152.63 103.57 152.63 101.19 164.08 107.81 169.78 104.52 169.78 101.8 180.19 107.81 183.82 105.7 183.82 70.03 169.78 61.92 169.78 48.68"/><polygon class="cls-52" points="167.56 48.68 150.41 38.78 150.41 31.69 95.51 0 88.17 4.24 88.17 76.11 143.07 107.81 150.41 103.57 150.41 101.19 161.86 107.81 167.56 104.52 167.56 101.8 177.96 107.81 181.6 105.7 181.6 70.03 167.56 61.92 167.56 48.68"/><polygon class="cls-53" points="165.33 48.68 148.18 38.78 148.18 31.69 93.28 0 85.95 4.24 85.95 76.11 140.85 107.81 148.18 103.57 148.18 101.19 159.64 107.81 165.33 104.52 165.33 101.8 175.74 107.81 179.38 105.7 179.38 70.03 165.33 61.92 165.33 48.68"/><polygon class="cls-54" points="163.11 48.68 145.96 38.78 145.96 31.69 91.06 0 83.73 4.24 83.73 76.11 138.62 107.81 145.96 103.57 145.96 101.19 157.41 107.81 163.11 104.52 163.11 101.8 173.51 107.81 177.16 105.7 177.16 70.03 163.11 61.92 163.11 48.68"/><polygon class="cls-55" points="160.89 48.68 143.74 38.78 143.74 31.69 88.84 0 81.5 4.24 81.5 76.11 136.4 107.81 143.74 103.57 143.74 101.19 155.19 107.81 160.89 104.52 160.89 101.8 171.29 107.81 174.93 105.7 174.93 70.03 160.89 61.92 160.89 48.68"/><polygon class="cls-56" points="158.66 48.68 141.51 38.78 141.51 31.69 86.62 0 79.28 4.24 79.28 76.11 134.18 107.81 141.51 103.57 141.51 101.19 152.97 107.81 158.66 104.52 158.66 101.8 169.07 107.81 172.71 105.7 172.71 70.03 158.66 61.92 158.66 48.68"/><polygon class="cls-57" points="156.44 48.68 139.29 38.78 139.29 31.69 84.39 0 77.06 4.24 77.06 76.11 131.95 107.81 139.29 103.57 139.29 101.19 150.74 107.81 156.44 104.52 156.44 101.8 166.85 107.81 170.49 105.7 170.49 70.03 156.44 61.92 156.44 48.68"/><polygon class="cls-58" points="154.22 48.68 137.07 38.78 137.07 31.69 82.17 0 74.83 4.24 74.83 76.11 129.73 107.81 137.07 103.57 137.07 101.19 148.52 107.81 154.22 104.52 154.22 101.8 164.62 107.81 168.26 105.7 168.26 70.03 154.22 61.92 154.22 48.68"/><polygon class="cls-59" points="152 48.68 134.84 38.78 134.84 31.69 79.95 0 72.61 4.24 72.61 76.11 127.51 107.81 134.84 103.57 134.84 101.19 146.3 107.81 152 104.52 152 101.8 162.4 107.81 166.04 105.7 166.04 70.03 152 61.92 152 48.68"/><polygon class="cls-60" points="149.77 48.68 132.62 38.78 132.62 31.69 77.72 0 70.39 4.24 70.39 76.11 125.28 107.81 132.62 103.57 132.62 101.19 144.07 107.81 149.77 104.52 149.77 101.8 160.18 107.81 163.82 105.7 163.82 70.03 149.77 61.92 149.77 48.68"/><polygon class="cls-61" points="147.55 48.68 130.4 38.78 130.4 31.69 75.5 0 68.17 4.24 68.17 76.11 123.06 107.81 130.4 103.57 130.4 101.19 141.85 107.81 147.55 104.52 147.55 101.8 157.95 107.81 161.59 105.7 161.59 70.03 147.55 61.92 147.55 48.68"/><polygon class="cls-62" points="145.33 48.68 128.17 38.78 128.17 31.69 73.28 0 65.94 4.24 65.94 76.11 120.84 107.81 128.17 103.57 128.17 101.19 139.63 107.81 145.33 104.52 145.33 101.8 155.73 107.81 159.37 105.7 159.37 70.03 145.33 61.92 145.33 48.68"/><polygon class="cls-63" points="143.1 48.68 125.95 38.78 125.95 31.69 71.05 0 63.72 4.24 63.72 76.11 118.62 107.81 125.95 103.57 125.95 101.19 137.41 107.81 143.1 104.52 143.1 101.8 153.51 107.81 157.15 105.7 157.15 70.03 143.1 61.92 143.1 48.68"/><polygon class="cls-64" points="140.88 48.68 123.73 38.78 123.73 31.69 68.83 0 61.5 4.24 61.5 76.11 116.39 107.81 123.73 103.57 123.73 101.19 135.18 107.81 140.88 104.52 140.88 101.8 151.28 107.81 154.93 105.7 154.93 70.03 140.88 61.92 140.88 48.68"/><polygon class="cls-65" points="138.66 48.68 121.5 38.78 121.5 31.69 66.61 0 59.27 4.24 59.27 76.11 114.17 107.81 121.5 103.57 121.5 101.19 132.96 107.81 138.66 104.52 138.66 101.8 149.06 107.81 152.7 105.7 152.7 70.03 138.66 61.92 138.66 48.68"/><polygon class="cls-66" points="136.43 48.68 119.28 38.78 119.28 31.69 64.39 0 57.05 4.24 57.05 76.11 111.95 107.81 119.28 103.57 119.28 101.19 130.74 107.81 136.43 104.52 136.43 101.8 146.84 107.81 150.48 105.7 150.48 70.03 136.43 61.92 136.43 48.68"/><polygon class="cls-67" points="134.21 48.68 117.06 38.78 117.06 31.69 62.16 0 54.83 4.24 54.83 76.11 109.72 107.81 117.06 103.57 117.06 101.19 128.51 107.81 134.21 104.52 134.21 101.8 144.61 107.81 148.25 105.7 148.25 70.03 134.21 61.92 134.21 48.68"/><polygon class="cls-68" points="131.99 48.68 114.83 38.78 114.83 31.69 59.94 0 52.6 4.24 52.6 76.11 107.5 107.81 114.83 103.57 114.83 101.19 126.29 107.81 131.99 104.52 131.99 101.8 142.39 107.81 146.03 105.7 146.03 70.03 131.99 61.92 131.99 48.68"/><polygon class="cls-69" points="129.76 48.68 112.61 38.78 112.61 31.69 57.72 0 50.38 4.24 50.38 76.11 105.28 107.81 112.61 103.57 112.61 101.19 124.07 107.81 129.76 104.52 129.76 101.8 140.17 107.81 143.81 105.7 143.81 70.03 129.76 61.92 129.76 48.68"/><polygon class="cls-70" points="127.54 48.68 110.39 38.78 110.39 31.69 55.49 0 48.16 4.24 48.16 76.11 103.05 107.81 110.39 103.57 110.39 101.19 121.84 107.81 127.54 104.52 127.54 101.8 137.94 107.81 141.59 105.7 141.59 70.03 127.54 61.92 127.54 48.68"/><polygon class="cls-71" points="125.32 48.68 108.17 38.78 108.17 31.69 53.27 0 45.94 4.24 45.94 76.11 100.83 107.81 108.17 103.57 108.17 101.19 119.62 107.81 125.32 104.52 125.32 101.8 135.72 107.81 139.36 105.7 139.36 70.03 125.32 61.92 125.32 48.68"/><polygon class="cls-72" points="123.09 48.68 105.94 38.78 105.94 31.69 51.05 0 43.71 4.24 43.71 76.11 98.61 107.81 105.94 103.57 105.94 101.19 117.4 107.81 123.09 104.52 123.09 101.8 133.5 107.81 137.14 105.7 137.14 70.03 123.09 61.92 123.09 48.68"/><polygon class="cls-73" points="120.87 48.68 103.72 38.78 103.72 31.69 48.82 0 41.49 4.24 41.49 76.11 96.38 107.81 103.72 103.57 103.72 101.19 115.17 107.81 120.87 104.52 120.87 101.8 131.28 107.81 134.92 105.7 134.92 70.03 120.87 61.92 120.87 48.68"/></g></g><polygon class="cls-74" points="107.67 89.97 104.03 92.07 131.28 107.81 134.92 105.7 107.67 89.97"/><polygon class="cls-75" points="134.92 105.7 131.28 107.81 131.28 72.13 134.92 70.03 134.92 105.7"/><polygon class="cls-76" points="134.92 70.03 131.28 72.13 104.03 56.4 107.67 54.29 134.92 70.03"/><polygon class="cls-77" points="104.03 56.4 104.03 92.07 131.28 107.81 131.28 72.13 104.03 56.4"/><polygon class="cls-74" points="78.23 79.9 72.53 83.19 115.17 107.81 120.87 104.52 78.23 79.9"/><polygon class="cls-75" points="120.87 104.52 115.17 107.81 115.17 51.97 120.87 48.68 120.87 104.52"/><polygon class="cls-76" points="120.87 48.68 115.17 51.97 72.53 27.35 78.23 24.06 120.87 48.68"/><polygon class="cls-77" points="72.53 27.35 72.53 83.19 115.17 107.81 115.17 51.97 72.53 27.35"/><polygon class="cls-74" points="48.82 71.88 41.49 76.11 96.38 107.81 103.72 103.57 48.82 71.88"/><polygon class="cls-75" points="103.72 103.57 96.38 107.81 96.38 35.93 103.72 31.69 103.72 103.57"/><polygon class="cls-76" points="103.72 31.69 96.38 35.93 41.49 4.24 48.82 0 103.72 31.69"/><polygon class="cls-77" points="41.49 4.24 41.49 76.11 96.38 107.81 96.38 35.93 41.49 4.24"/><polygon class="cls-78" points="86.8 47.55 51.07 26.92 51.07 24.05 86.8 44.68 86.8 47.55"/><polygon class="cls-78" points="86.8 55.64 51.07 35.01 51.07 32.14 86.8 52.77 86.8 55.64"/><polygon class="cls-78" points="86.8 63.73 51.07 43.1 51.07 40.22 86.8 60.85 86.8 63.73"/><polygon class="cls-78" points="86.8 71.82 51.07 51.19 51.07 48.31 86.8 68.94 86.8 71.82"/><polygon class="cls-78" points="86.8 79.91 51.07 59.27 51.07 56.4 86.8 77.03 86.8 79.91"/><polygon class="cls-78" points="86.8 87.99 51.07 67.36 51.07 64.49 86.8 85.12 86.8 87.99"/></g></g></g></svg>