<svg xmlns="http://www.w3.org/2000/svg" xmlns:xlink="http://www.w3.org/1999/xlink" viewBox="0 0 225.31 153.56"><defs><style>.cls-1{fill:none;}.cls-2{isolation:isolate;}.cls-3{mix-blend-mode:multiply;}.cls-4{fill:#fff;opacity:0;}.cls-5{fill:#fcfcfc;}.cls-41,.cls-5{opacity:0.03;}.cls-6{fill:#f9f9f9;}.cls-42,.cls-6{opacity:0.06;}.cls-7{fill:#f5f5f5;}.cls-43,.cls-7{opacity:0.09;}.cls-8{fill:#f2f2f2;}.cls-44,.cls-8{opacity:0.12;}.cls-9{fill:#efefef;}.cls-45,.cls-9{opacity:0.15;}.cls-10{fill:#ececec;}.cls-10,.cls-46{opacity:0.18;}.cls-11{fill:#e8e8e8;}.cls-11,.cls-47{opacity:0.21;}.cls-12{fill:#e5e5e5;}.cls-12,.cls-48{opacity:0.24;}.cls-13{fill:#e2e2e2;}.cls-13,.cls-49{opacity:0.27;}.cls-14{fill:#dfdfdf;}.cls-14,.cls-50{opacity:0.3;}.cls-15,.cls-76{fill:#dbdbdb;}.cls-15,.cls-51{opacity:0.33;}.cls-16{fill:#d8d8d8;}.cls-16,.cls-52{opacity:0.36;}.cls-17{fill:#d5d5d5;}.cls-17,.cls-53{opacity:0.39;}.cls-18{fill:#d2d2d2;}.cls-18,.cls-54{opacity:0.42;}.cls-19{fill:#cecece;}.cls-19,.cls-55{opacity:0.45;}.cls-20{fill:#cbcbcb;}.cls-20,.cls-56{opacity:0.48;}.cls-21{fill:#c8c8c8;}.cls-21,.cls-57{opacity:0.52;}.cls-22{fill:#c5c5c5;}.cls-22,.cls-58{opacity:0.55;}.cls-23{fill:#c1c1c1;}.cls-23,.cls-59{opacity:0.58;}.cls-24{fill:#bebebe;}.cls-24,.cls-60{opacity:0.61;}.cls-25{fill:#bbb;}.cls-25,.cls-61{opacity:0.64;}.cls-26{fill:#b8b8b8;}.cls-26,.cls-62{opacity:0.67;}.cls-27{fill:#b4b4b4;}.cls-27,.cls-63{opacity:0.7;}.cls-28{fill:#b1b1b1;}.cls-28,.cls-64{opacity:0.73;}.cls-29{fill:#aeaeae;}.cls-29,.cls-65{opacity:0.76;}.cls-30{fill:#ababab;}.cls-30,.cls-66{opacity:0.79;}.cls-31{fill:#a7a7a7;}.cls-31,.cls-67{opacity:0.82;}.cls-32{fill:#a4a4a4;}.cls-32,.cls-68{opacity:0.85;}.cls-33{fill:#a1a1a1;}.cls-33,.cls-69{opacity:0.88;}.cls-34{fill:#9e9e9e;}.cls-34,.cls-70{opacity:0.91;}.cls-35{fill:#9a9a9a;}.cls-35,.cls-71{opacity:0.94;}.cls-36{fill:#979797;}.cls-36,.cls-72{opacity:0.97;}.cls-37{fill:#949494;}.cls-38{fill:url(#linear-gradient);}.cls-39{fill:#ffdb32;}.cls-40{clip-path:url(#clip-path);}.cls-41{fill:#fffdf7;}.cls-42{fill:#fffbf0;}.cls-43{fill:#fffae8;}.cls-44{fill:#fff8e0;}.cls-45{fill:#fff6d8;}.cls-46{fill:#fff4d1;}.cls-47{fill:#fff2c9;}.cls-48{fill:#fff0c1;}.cls-49{fill:#ffefb9;}.cls-50{fill:#ffedb2;}.cls-51{fill:#ffebaa;}.cls-52{fill:#ffe9a2;}.cls-53{fill:#ffe79b;}.cls-54{fill:#ffe693;}.cls-55{fill:#ffe48b;}.cls-56{fill:#ffe283;}.cls-57{fill:#ffe07c;}.cls-58{fill:#ffde74;}.cls-59{fill:#ffdc6c;}.cls-60{fill:#ffdb64;}.cls-61{fill:#ffd95d;}.cls-62{fill:#ffd755;}.cls-63{fill:#ffd54d;}.cls-64{fill:#ffd346;}.cls-65{fill:#ffd23e;}.cls-66{fill:#ffd036;}.cls-67{fill:#ffce2e;}.cls-68{fill:#ffcc27;}.cls-69{fill:#ffca1f;}.cls-70{fill:#ffc817;}.cls-71{fill:#ffc70f;}.cls-72{fill:#ffc508;}.cls-73{fill:#ffc300;}.cls-74{fill:#262626;}.cls-75{fill:#ff481e;}.cls-77{fill:#646873;}.cls-78{fill:#fafafa;}.cls-79{fill:#94d400;}.cls-80{fill:url(#linear-gradient-2);}.cls-81{fill:#ffc600;}.cls-82{fill:url(#linear-gradient-3);}.cls-83{fill:url(#linear-gradient-4);}.cls-84{fill:#454545;}.cls-85{fill:url(#linear-gradient-5);}.cls-86{fill:url(#linear-gradient-6);}.cls-87{fill:#ededed;}.cls-88{fill:url(#linear-gradient-7);}</style><linearGradient id="linear-gradient" y1="119.6" x2="176.4" y2="119.6" gradientUnits="userSpaceOnUse"><stop offset="0" stop-color="#ffed44"/><stop offset="0.07" stop-color="#fff047"/><stop offset="0.3" stop-color="#fff24a"/><stop offset="0.55" stop-color="#ffe23a"/><stop offset="0.74" stop-color="#ffdc34"/><stop offset="1" stop-color="#f9b519"/></linearGradient><clipPath id="clip-path"><path class="cls-1" d="M147.21,51.57c-38.92-22.47-79.09-22.47-118,0h0C9.73,62.8,0,74.22,0,85.64s9.73,22.83,29.19,34.07c38.93,22.47,79.1,22.47,118,0,19.46-11.24,29.19-22.66,29.19-34.07S166.67,62.8,147.21,51.57Z"/></clipPath><linearGradient id="linear-gradient-2" x1="73.5" y1="40.96" x2="101.76" y2="40.96" gradientUnits="userSpaceOnUse"><stop offset="0" stop-color="orange"/><stop offset="0.06" stop-color="#ffa700"/><stop offset="0.3" stop-color="#fa0"/><stop offset="0.55" stop-color="#ff9a00"/><stop offset="0.74" stop-color="#ff9400"/><stop offset="1" stop-color="#ff6d00"/></linearGradient><linearGradient id="linear-gradient-3" x1="168.67" y1="-165.53" x2="270.82" y2="-165.53" gradientTransform="matrix(0.5, 0.87, 0.87, -0.5, 131.3, -227.97)" gradientUnits="userSpaceOnUse"><stop offset="0" stop-color="#383838"/><stop offset="0.1" stop-color="#3d3b3c"/><stop offset="0.3" stop-color="#403d3e"/><stop offset="0.55" stop-color="#302d2e"/><stop offset="0.74" stop-color="#2a2728"/><stop offset="1"/></linearGradient><linearGradient id="linear-gradient-4" x1="97.73" y1="17.4" x2="103.76" y2="17.4" gradientUnits="userSpaceOnUse"><stop offset="0" stop-color="#383838"/><stop offset="0.1" stop-color="#3d3b3c"/><stop offset="0.3" stop-color="#403d3e"/><stop offset="0.4" stop-color="#333031"/><stop offset="0.63" stop-color="#171616"/><stop offset="0.84" stop-color="#060606"/><stop offset="1"/></linearGradient><linearGradient id="linear-gradient-5" x1="98.94" y1="12.23" x2="102.56" y2="12.23" xlink:href="#linear-gradient-4"/><linearGradient id="linear-gradient-6" x1="99.56" y1="6.1" x2="101.94" y2="6.1" xlink:href="#linear-gradient-4"/><linearGradient id="linear-gradient-7" x1="97.73" y1="3.16" x2="103.76" y2="3.16" xlink:href="#linear-gradient-4"/></defs><title>Asset 9</title><g class="cls-2"><g id="Layer_2" data-name="Layer 2"><g id="Layer_1-2" data-name="Layer 1"><g class="cls-3"><path class="cls-4" d="M196.12,68.57C157.2,46.1,117,46.1,78.1,68.57h0C58.64,79.8,48.91,91.22,48.91,102.64s9.73,22.83,29.19,34.07c38.93,22.47,79.1,22.47,118,0,19.46-11.24,29.19-22.66,29.19-34.07S215.58,79.8,196.12,68.57Z"/><path class="cls-5" d="M194.64,68.57c-38.93-22.47-79.1-22.47-118,0h0C57.16,79.8,47.43,91.22,47.43,102.64s9.73,22.83,29.19,34.07c38.92,22.47,79.09,22.47,118,0,19.46-11.24,29.19-22.66,29.19-34.07S214.1,79.8,194.64,68.57Z"/><path class="cls-6" d="M193.16,68.57c-38.93-22.47-79.1-22.47-118,0h0c-19.46,11.23-29.2,22.65-29.2,34.07s9.74,22.83,29.2,34.07c38.92,22.47,79.09,22.47,118,0,19.46-11.24,29.19-22.66,29.19-34.07S212.62,79.8,193.16,68.57Z"/><path class="cls-7" d="M191.67,68.57c-38.92-22.47-79.09-22.47-118,0h0c-19.47,11.23-29.2,22.65-29.2,34.07s9.73,22.83,29.2,34.07c38.92,22.47,79.09,22.47,118,0,19.47-11.24,29.2-22.66,29.2-34.07S211.14,79.8,191.67,68.57Z"/><path class="cls-8" d="M190.19,68.57c-38.92-22.47-79.09-22.47-118,0h0C52.71,79.8,43,91.22,43,102.64s9.73,22.83,29.19,34.07c38.93,22.47,79.1,22.47,118,0,19.46-11.24,29.2-22.66,29.2-34.07S209.65,79.8,190.19,68.57Z"/><path class="cls-9" d="M188.71,68.57c-38.92-22.47-79.09-22.47-118,0h0C51.23,79.8,41.5,91.22,41.5,102.64s9.73,22.83,29.19,34.07c38.93,22.47,79.1,22.47,118,0,19.46-11.24,29.19-22.66,29.19-34.07S208.17,79.8,188.71,68.57Z"/><path class="cls-10" d="M187.23,68.57c-38.93-22.47-79.1-22.47-118,0h0C49.75,79.8,40,91.22,40,102.64s9.73,22.83,29.19,34.07c38.92,22.47,79.09,22.47,118,0,19.46-11.24,29.19-22.66,29.19-34.07S206.69,79.8,187.23,68.57Z"/><path class="cls-11" d="M185.75,68.57c-38.93-22.47-79.1-22.47-118,0h0c-19.46,11.23-29.2,22.65-29.2,34.07s9.74,22.83,29.2,34.07c38.92,22.47,79.09,22.47,118,0,19.46-11.24,29.19-22.66,29.19-34.07S205.21,79.8,185.75,68.57Z"/><path class="cls-12" d="M184.26,68.57c-38.92-22.47-79.09-22.47-118,0h0c-19.47,11.23-29.2,22.65-29.2,34.07s9.73,22.83,29.2,34.07c38.92,22.47,79.09,22.47,118,0,19.47-11.24,29.2-22.66,29.2-34.07S203.73,79.8,184.26,68.57Z"/><path class="cls-13" d="M182.78,68.57c-38.92-22.47-79.09-22.47-118,0h0C45.3,79.8,35.57,91.22,35.57,102.64s9.73,22.83,29.19,34.07c38.93,22.47,79.1,22.47,118,0,19.46-11.24,29.2-22.66,29.19-34.07S202.24,79.8,182.78,68.57Z"/><path class="cls-14" d="M181.3,68.57c-38.92-22.47-79.1-22.47-118,0h0C43.82,79.8,34.09,91.22,34.09,102.64s9.73,22.83,29.19,34.07c38.93,22.47,79.1,22.47,118,0,19.46-11.24,29.19-22.66,29.19-34.07S200.76,79.8,181.3,68.57Z"/><path class="cls-15" d="M179.82,68.57c-38.93-22.47-79.1-22.47-118,0h0C42.34,79.8,32.61,91.22,32.61,102.64s9.73,22.83,29.19,34.07c38.92,22.47,79.09,22.47,118,0C199.28,125.47,209,114.05,209,102.64S199.28,79.8,179.82,68.57Z"/><path class="cls-16" d="M178.34,68.57c-38.93-22.47-79.1-22.47-118,0h0c-19.47,11.23-29.2,22.65-29.2,34.07s9.73,22.83,29.2,34.07c38.92,22.47,79.09,22.47,118,0,19.46-11.24,29.19-22.66,29.19-34.07S197.8,79.8,178.34,68.57Z"/><path class="cls-17" d="M176.85,68.57c-38.92-22.47-79.09-22.47-118,0h0C39.37,79.8,29.64,91.22,29.64,102.64s9.73,22.83,29.2,34.07c38.92,22.47,79.09,22.47,118,0,19.47-11.24,29.2-22.66,29.2-34.07S196.32,79.8,176.85,68.57Z"/><path class="cls-18" d="M175.37,68.57c-38.92-22.47-79.09-22.47-118,0h0C37.89,79.8,28.16,91.22,28.16,102.64s9.73,22.83,29.19,34.07c38.93,22.47,79.1,22.47,118,0,19.46-11.24,29.19-22.66,29.19-34.07S194.83,79.8,175.37,68.57Z"/><path class="cls-19" d="M173.89,68.57c-38.93-22.47-79.1-22.47-118,0h0C36.41,79.8,26.68,91.22,26.68,102.64s9.73,22.83,29.19,34.07c38.93,22.47,79.1,22.47,118,0,19.46-11.24,29.19-22.66,29.19-34.07S193.35,79.8,173.89,68.57Z"/><path class="cls-20" d="M172.41,68.57c-38.93-22.47-79.1-22.47-118,0h0C34.93,79.8,25.2,91.22,25.2,102.64s9.73,22.83,29.19,34.07c38.92,22.47,79.09,22.47,118,0,19.46-11.24,29.19-22.66,29.19-34.07S191.87,79.8,172.41,68.57Z"/><path class="cls-21" d="M170.92,68.57c-38.92-22.47-79.09-22.47-118,0h0c-19.47,11.23-29.2,22.65-29.2,34.07s9.73,22.83,29.2,34.07c38.92,22.47,79.09,22.47,118,0,19.46-11.24,29.19-22.66,29.19-34.07S190.39,79.8,170.92,68.57Z"/><path class="cls-22" d="M169.44,68.57c-38.92-22.47-79.09-22.47-118,0h0C32,79.8,22.23,91.22,22.23,102.64S32,125.47,51.42,136.71c38.93,22.47,79.1,22.47,118,0,19.47-11.24,29.2-22.66,29.2-34.07S188.9,79.8,169.44,68.57Z"/><path class="cls-23" d="M168,68.57c-38.92-22.47-79.09-22.47-118,0h0C30.48,79.8,20.75,91.22,20.75,102.64s9.73,22.83,29.19,34.07c38.93,22.47,79.1,22.47,118,0,19.46-11.24,29.19-22.66,29.19-34.07S187.42,79.8,168,68.57Z"/><path class="cls-24" d="M166.48,68.57c-38.93-22.47-79.1-22.47-118,0h0C29,79.8,19.27,91.22,19.27,102.64S29,125.47,48.46,136.71c38.92,22.47,79.09,22.47,118,0,19.46-11.24,29.19-22.66,29.19-34.07S185.94,79.8,166.48,68.57Z"/><path class="cls-25" d="M165,68.57c-38.93-22.47-79.1-22.47-118,0h0c-19.46,11.23-29.2,22.65-29.2,34.07s9.74,22.83,29.2,34.07c38.92,22.47,79.09,22.47,118,0,19.46-11.24,29.19-22.66,29.19-34.07S184.46,79.8,165,68.57Z"/><path class="cls-26" d="M163.51,68.57c-38.92-22.47-79.09-22.47-118,0h0C26,79.8,16.3,91.22,16.3,102.64S26,125.47,45.5,136.71c38.92,22.47,79.09,22.47,118,0,19.47-11.24,29.2-22.66,29.2-34.07S183,79.8,163.51,68.57Z"/><path class="cls-27" d="M162,68.57c-38.92-22.47-79.09-22.47-118,0h0C24.55,79.8,14.82,91.22,14.82,102.64S24.55,125.47,44,136.71c38.93,22.47,79.1,22.47,118,0,19.46-11.24,29.2-22.66,29.2-34.07S181.49,79.8,162,68.57Z"/><path class="cls-28" d="M160.55,68.57c-38.92-22.47-79.09-22.47-118,0h0C23.07,79.8,13.34,91.22,13.34,102.64s9.73,22.83,29.19,34.07c38.93,22.47,79.1,22.47,118,0,19.46-11.24,29.19-22.66,29.19-34.07S180,79.8,160.55,68.57Z"/><path class="cls-29" d="M159.07,68.57c-38.93-22.47-79.1-22.47-118,0h0C21.59,79.8,11.86,91.22,11.86,102.64s9.73,22.83,29.19,34.07c38.92,22.47,79.09,22.47,118,0,19.46-11.24,29.19-22.66,29.19-34.07S178.53,79.8,159.07,68.57Z"/><path class="cls-30" d="M157.59,68.57c-38.93-22.47-79.1-22.47-118,0h0c-19.46,11.23-29.2,22.65-29.2,34.07s9.74,22.83,29.2,34.07c38.92,22.47,79.09,22.47,118,0,19.46-11.24,29.19-22.66,29.19-34.07S177.05,79.8,157.59,68.57Z"/><path class="cls-31" d="M156.1,68.57c-38.92-22.47-79.09-22.47-118,0h0C18.62,79.8,8.89,91.22,8.89,102.64s9.73,22.83,29.2,34.07c38.92,22.47,79.09,22.47,118,0,19.47-11.24,29.2-22.66,29.2-34.07S175.57,79.8,156.1,68.57Z"/><path class="cls-32" d="M154.62,68.57c-38.92-22.47-79.09-22.47-118,0h0C17.14,79.8,7.41,91.22,7.41,102.64s9.73,22.83,29.19,34.07c38.93,22.47,79.1,22.47,118,0,19.46-11.24,29.2-22.66,29.2-34.07S174.08,79.8,154.62,68.57Z"/><path class="cls-33" d="M153.14,68.57c-38.92-22.47-79.09-22.47-118,0h0C15.66,79.8,5.93,91.22,5.93,102.64s9.73,22.83,29.19,34.07c38.93,22.47,79.1,22.47,118,0,19.46-11.24,29.19-22.66,29.19-34.07S172.6,79.8,153.14,68.57Z"/><path class="cls-34" d="M151.66,68.57c-38.93-22.47-79.1-22.47-118,0h0C14.18,79.8,4.45,91.22,4.45,102.64s9.73,22.83,29.19,34.07c38.92,22.47,79.09,22.47,118,0,19.46-11.24,29.19-22.66,29.19-34.07S171.12,79.8,151.66,68.57Z"/><path class="cls-35" d="M150.18,68.57c-38.93-22.47-79.1-22.47-118,0h0C12.7,79.8,3,91.22,3,102.64s9.74,22.83,29.2,34.07c38.92,22.47,79.09,22.47,118,0,19.46-11.24,29.19-22.66,29.19-34.07S169.64,79.8,150.18,68.57Z"/><path class="cls-36" d="M148.69,68.57c-38.92-22.47-79.09-22.47-118,0h0C11.21,79.8,1.48,91.22,1.48,102.64s9.73,22.83,29.2,34.07c38.92,22.47,79.09,22.47,118,0,19.47-11.24,29.2-22.66,29.2-34.07S168.16,79.8,148.69,68.57Z"/><path class="cls-37" d="M147.21,68.57c-38.92-22.47-79.09-22.47-118,0h0C9.73,79.8,0,91.22,0,102.64s9.73,22.83,29.19,34.07c38.93,22.47,79.1,22.47,118,0,19.46-11.24,29.19-22.66,29.19-34.07S166.67,79.8,147.21,68.57Z"/></g><path class="cls-38" d="M147.21,119.71c-38.92,22.47-79.09,22.47-118,0C9.73,108.47,0,97.05,0,85.64v17c0,11.41,9.73,22.83,29.19,34.07,38.93,22.47,79.1,22.47,118,0,19.46-11.24,29.19-22.66,29.19-34.07v-17C176.4,97.05,166.67,108.47,147.21,119.71Z"/><path class="cls-39" d="M147.21,51.57c-38.92-22.47-79.09-22.47-118,0h0C9.73,62.8,0,74.22,0,85.64s9.73,22.83,29.19,34.07c38.93,22.47,79.1,22.47,118,0,19.46-11.24,29.19-22.66,29.19-34.07S166.67,62.8,147.21,51.57Z"/><g class="cls-40"><g class="cls-3"><path class="cls-4" d="M187.3,32.27c0-6.08-4.29-13.52-9.56-16.56l-.63-.36a1.72,1.72,0,0,0-1.19-1.3V8.16a1,1,0,0,0-.62-.77V4.44c1.07-.27,1.83-.88,1.83-1.6V1.74a1.15,1.15,0,0,1-.11.31,1.15,1.15,0,0,0,.11-.31c0-1-1.35-1.74-3-1.74s-3,.78-3,1.74v1.1a1.16,1.16,0,0,0,.23.68,2.09,2.09,0,0,0,.65.55,3.62,3.62,0,0,0,.94.37V7.39a1,1,0,0,0-.62.77v4.41L152.78,1.3c-2.63-1.52-5-1.66-6.76-.66l-7.39,4.27h0c-1.73,1-2.81,3.14-2.81,6.18V69c0,6.09,4.3,13.52,9.57,16.57l25,14.41c2.64,1.52,5,1.66,6.76.66h0l7.4-4.27c1.73-1,2.8-3.14,2.8-6.18V32.27Z"/><path class="cls-41" d="M185.08,32.27c0-6.08-4.29-13.52-9.57-16.56l-.63-.36c0-.54-.49-1-1.18-1.3V8.16a1,1,0,0,0-.62-.77V4.44c1.07-.27,1.82-.88,1.82-1.6V1.74a.89.89,0,0,1-.11.31.89.89,0,0,0,.11-.31c0-1-1.35-1.74-3-1.74s-3,.78-3,1.74v1.1a1.17,1.17,0,0,0,.24.68,1.88,1.88,0,0,0,.65.55,3.48,3.48,0,0,0,.94.37V7.39a.94.94,0,0,0-.62.77v4.41L150.56,1.3c-2.64-1.52-5-1.66-6.76-.66l-7.39,4.27h0c-1.74,1-2.81,3.14-2.81,6.18V69c0,6.09,4.29,13.52,9.57,16.57l25,14.41c2.64,1.52,5,1.66,6.76.66h0l7.39-4.27c1.74-1,2.81-3.14,2.81-6.18V32.27Z"/><path class="cls-42" d="M182.86,32.27c0-6.08-4.3-13.52-9.57-16.56l-.63-.36c0-.54-.5-1-1.18-1.3V8.16c0-.31-.25-.58-.63-.77V4.44c1.08-.27,1.83-.88,1.83-1.6V1.74a1.15,1.15,0,0,1-.11.31,1.15,1.15,0,0,0,.11-.31c0-1-1.35-1.74-3-1.74s-3,.78-3,1.74v1.1a1.11,1.11,0,0,0,.24.68,1.94,1.94,0,0,0,.64.55,3.55,3.55,0,0,0,.95.37V7.39c-.38.19-.63.46-.63.77v4.41L148.34,1.3c-2.64-1.52-5-1.66-6.76-.66l-7.4,4.27h0c-1.73,1-2.8,3.14-2.8,6.18V69c0,6.09,4.29,13.52,9.56,16.57l25,14.41c2.63,1.52,5,1.66,6.76.66h0l7.39-4.27c1.73-1,2.81-3.14,2.81-6.18V32.27Z"/><path class="cls-43" d="M180.63,32.27c0-6.08-4.29-13.52-9.56-16.56l-.63-.36c0-.54-.5-1-1.19-1.3V8.16a.94.94,0,0,0-.62-.77V4.44c1.07-.27,1.83-.88,1.83-1.6V1.74a1.15,1.15,0,0,1-.11.31,1.15,1.15,0,0,0,.11-.31c0-1-1.35-1.74-3-1.74s-3,.78-3,1.74v1.1a1.16,1.16,0,0,0,.23.68,2.09,2.09,0,0,0,.65.55,3.62,3.62,0,0,0,.94.37V7.39a1,1,0,0,0-.62.77v4.41L146.11,1.3c-2.63-1.52-5-1.66-6.76-.66L132,4.91h0c-1.73,1-2.8,3.14-2.8,6.18V69c0,6.09,4.29,13.52,9.56,16.57L163.67,100c2.64,1.52,5,1.66,6.76.66h0l7.4-4.27c1.73-1,2.8-3.14,2.8-6.18V32.27Z"/><path class="cls-44" d="M178.41,32.27c0-6.08-4.29-13.52-9.56-16.56l-.64-.36c0-.54-.49-1-1.18-1.3V8.16a1,1,0,0,0-.62-.77V4.44c1.07-.27,1.82-.88,1.82-1.6V1.74a.89.89,0,0,1-.11.31.89.89,0,0,0,.11-.31c0-1-1.35-1.74-3-1.74s-3,.78-3,1.74v1.1a1.17,1.17,0,0,0,.24.68,1.88,1.88,0,0,0,.65.55,3.62,3.62,0,0,0,.94.37V7.39a1,1,0,0,0-.62.77v4.41L143.89,1.3c-2.64-1.52-5-1.66-6.76-.66l-7.39,4.27h0c-1.74,1-2.81,3.14-2.81,6.18V69c0,6.09,4.29,13.52,9.57,16.57L161.45,100c2.64,1.52,5,1.66,6.76.66h0l7.4-4.27c1.73-1,2.8-3.14,2.8-6.18V32.27Z"/><path class="cls-45" d="M176.19,32.27c0-6.08-4.3-13.52-9.57-16.56l-.63-.36c0-.54-.5-1-1.18-1.3V8.16c0-.31-.25-.58-.63-.77V4.44c1.08-.27,1.83-.88,1.83-1.6V1.74a.89.89,0,0,1-.11.31.89.89,0,0,0,.11-.31c0-1-1.35-1.74-3-1.74s-3,.78-3,1.74v1.1a1.11,1.11,0,0,0,.24.68,1.94,1.94,0,0,0,.64.55,3.55,3.55,0,0,0,.95.37V7.39c-.38.19-.63.46-.63.77v4.41L141.67,1.3c-2.64-1.52-5-1.66-6.76-.66l-7.4,4.27h0c-1.73,1-2.8,3.14-2.8,6.18V69c0,6.09,4.29,13.52,9.56,16.57l25,14.41c2.64,1.52,5,1.66,6.76.66h0l7.39-4.27c1.73-1,2.81-3.14,2.81-6.18V32.27Z"/><path class="cls-46" d="M174,32.27c0-6.08-4.29-13.52-9.56-16.56l-.63-.36c0-.54-.5-1-1.19-1.3V8.16a.94.94,0,0,0-.62-.77V4.44c1.07-.27,1.83-.88,1.83-1.6V1.74a1.15,1.15,0,0,1-.11.31,1.15,1.15,0,0,0,.11-.31c0-1-1.35-1.74-3-1.74s-3,.78-3,1.74v1.1a1.16,1.16,0,0,0,.23.68,2.09,2.09,0,0,0,.65.55,3.62,3.62,0,0,0,.94.37V7.39a1,1,0,0,0-.62.77v4.41L139.44,1.3c-2.63-1.52-5-1.66-6.76-.66l-7.39,4.27h0c-1.73,1-2.8,3.14-2.8,6.18V69c0,6.09,4.29,13.52,9.56,16.57L157,100c2.64,1.52,5,1.66,6.76.66s1.74-1,0,0l7.39-4.27c1.73-1,2.8-3.14,2.8-6.18V32.27Z"/><path class="cls-47" d="M171.74,32.27c0-6.08-4.29-13.52-9.56-16.56l-.64-.36c0-.54-.49-1-1.18-1.3V8.16a1,1,0,0,0-.62-.77V4.44c1.07-.27,1.82-.88,1.82-1.6V1.74a.89.89,0,0,1-.11.31.89.89,0,0,0,.11-.31c0-1-1.35-1.74-3-1.74s-3,.78-3,1.74v1.1a1.17,1.17,0,0,0,.24.68,1.88,1.88,0,0,0,.65.55,3.62,3.62,0,0,0,.94.37V7.39a1,1,0,0,0-.62.77v4.41L137.22,1.3c-2.64-1.52-5-1.66-6.76-.66l-7.39,4.27h0c-1.73,1-2.81,3.14-2.81,6.18V69c0,6.09,4.29,13.52,9.57,16.57L154.78,100c2.64,1.52,5,1.66,6.76.66h0l7.4-4.27c1.73-1,2.8-3.14,2.8-6.18V32.27Z"/><path class="cls-48" d="M169.52,32.27c0-6.08-4.29-13.52-9.57-16.56l-.63-.36c0-.54-.49-1-1.18-1.3V8.16c0-.31-.25-.58-.63-.77V4.44c1.08-.27,1.83-.88,1.83-1.6V1.74a.89.89,0,0,1-.11.31.89.89,0,0,0,.11-.31c0-1-1.35-1.74-3-1.74s-3,.78-3,1.74v1.1a1.17,1.17,0,0,0,.24.68,1.94,1.94,0,0,0,.64.55,3.55,3.55,0,0,0,.95.37V7.39a.94.94,0,0,0-.62.77v4.41L135,1.3c-2.64-1.52-5-1.66-6.76-.66l-7.39,4.27q2.59-1.5,0,0c-1.73,1-2.8,3.14-2.8,6.18V69c0,6.09,4.29,13.52,9.56,16.57l25,14.41c2.64,1.52,5,1.66,6.76.66h0l7.39-4.27c1.73-1,2.81-3.14,2.81-6.18V32.27Z"/><path class="cls-49" d="M167.29,32.27c0-6.08-4.29-13.52-9.56-16.56l-.63-.36c0-.54-.5-1-1.19-1.3V8.16a.94.94,0,0,0-.62-.77V4.44c1.07-.27,1.83-.88,1.83-1.6V1.74a1.15,1.15,0,0,1-.11.31,1.15,1.15,0,0,0,.11-.31c0-1-1.35-1.74-3-1.74s-3,.78-3,1.74v1.1a1.16,1.16,0,0,0,.23.68,2.09,2.09,0,0,0,.65.55,3.62,3.62,0,0,0,.94.37V7.39a1,1,0,0,0-.62.77v4.41L132.77,1.3c-2.63-1.52-5-1.66-6.75-.66l-7.4,4.27h0c-1.73,1-2.8,3.14-2.8,6.18V69c0,6.09,4.29,13.52,9.56,16.57l25,14.41c2.63,1.52,5,1.66,6.75.66s1.74-1,0,0l7.39-4.27c1.73-1,2.8-3.14,2.8-6.18V32.27Z"/><path class="cls-50" d="M165.07,32.27c0-6.08-4.29-13.52-9.56-16.56l-.63-.36a1.72,1.72,0,0,0-1.19-1.3V8.16a1,1,0,0,0-.62-.77V4.44c1.07-.27,1.83-.88,1.83-1.6V1.74a1.15,1.15,0,0,1-.11.31,1.15,1.15,0,0,0,.11-.31c0-1-1.35-1.74-3-1.74s-3,.78-3,1.74v1.1a1.17,1.17,0,0,0,.24.68,2,2,0,0,0,.65.55,3.62,3.62,0,0,0,.94.37V7.39a1,1,0,0,0-.62.77v4.41L130.55,1.3c-2.64-1.52-5-1.66-6.76-.66L116.4,4.91h0c-1.73,1-2.81,3.14-2.81,6.18V69c0,6.09,4.3,13.52,9.57,16.57l25,14.41c2.64,1.52,5,1.66,6.76.66h0l7.4-4.27c1.73-1,2.8-3.14,2.8-6.18V32.27Z"/><path class="cls-51" d="M162.85,32.27c0-6.08-4.29-13.52-9.57-16.56l-.63-.36c0-.54-.49-1-1.18-1.3V8.16a1,1,0,0,0-.62-.77V4.44c1.07-.27,1.82-.88,1.82-1.6V1.74a.89.89,0,0,1-.11.31.89.89,0,0,0,.11-.31c0-1-1.35-1.74-3-1.74s-3,.78-3,1.74v1.1a1.17,1.17,0,0,0,.24.68,1.94,1.94,0,0,0,.64.55,3.55,3.55,0,0,0,.95.37V7.39a.94.94,0,0,0-.62.77v4.41L128.33,1.3c-2.64-1.52-5-1.66-6.76-.66l-7.39,4.27q2.59-1.5,0,0c-1.73,1-2.8,3.14-2.8,6.18V69c0,6.09,4.29,13.52,9.56,16.57l25,14.41c2.64,1.52,5,1.66,6.76.66h0L160,96.38c1.74-1,2.81-3.14,2.81-6.18V32.27Z"/><path class="cls-52" d="M160.62,32.27c0-6.08-4.29-13.52-9.56-16.56l-.63-.36c0-.54-.5-1-1.19-1.3V8.16a.94.94,0,0,0-.62-.77V4.44c1.08-.27,1.83-.88,1.83-1.6V1.74a1.15,1.15,0,0,1-.11.31,1.15,1.15,0,0,0,.11-.31c0-1-1.35-1.74-3-1.74s-3,.78-3,1.74v1.1a1.11,1.11,0,0,0,.24.68,1.94,1.94,0,0,0,.64.55,3.62,3.62,0,0,0,.94.37V7.39a1,1,0,0,0-.62.77v4.41L126.11,1.3c-2.64-1.52-5-1.66-6.76-.66L112,4.91h0c-1.73,1-2.8,3.14-2.8,6.18V69c0,6.09,4.29,13.52,9.56,16.57l25,14.41c2.63,1.52,5,1.66,6.76.66h0l7.39-4.27c1.73-1,2.8-3.14,2.8-6.18V32.27Z"/><path class="cls-53" d="M158.4,32.27c0-6.08-4.29-13.52-9.56-16.56l-.63-.36a1.72,1.72,0,0,0-1.19-1.3V8.16a1,1,0,0,0-.62-.77V4.44c1.07-.27,1.83-.88,1.83-1.6V1.74a1.15,1.15,0,0,1-.11.31,1.15,1.15,0,0,0,.11-.31c0-1-1.35-1.74-3-1.74s-3,.78-3,1.74v1.1a1.16,1.16,0,0,0,.23.68,2.09,2.09,0,0,0,.65.55,3.62,3.62,0,0,0,.94.37V7.39a1,1,0,0,0-.62.77v4.41L123.88,1.3c-2.64-1.52-5-1.66-6.76-.66l-7.39,4.27h0c-1.73,1-2.81,3.14-2.81,6.18V69c0,6.09,4.3,13.52,9.57,16.57l25,14.41c2.64,1.52,5,1.66,6.76.66h0l7.4-4.27c1.73-1,2.8-3.14,2.8-6.18V32.27Z"/><path class="cls-54" d="M156.18,32.27c0-6.08-4.29-13.52-9.57-16.56l-.63-.36c0-.54-.49-1-1.18-1.3V8.16a1,1,0,0,0-.62-.77V4.44c1.07-.27,1.82-.88,1.82-1.6V1.74a.89.89,0,0,1-.11.31.89.89,0,0,0,.11-.31c0-1-1.35-1.74-3-1.74s-3,.78-3,1.74v1.1a1.17,1.17,0,0,0,.24.68,1.88,1.88,0,0,0,.65.55,3.35,3.35,0,0,0,.94.37V7.39a.94.94,0,0,0-.62.77v4.41L121.66,1.3c-2.64-1.52-5-1.66-6.76-.66l-7.39,4.27h0c-1.74,1-2.81,3.14-2.81,6.18V69c0,6.09,4.29,13.52,9.56,16.57l25,14.41c2.64,1.52,5,1.66,6.76.66h0l7.39-4.27c1.74-1,2.81-3.14,2.81-6.18V32.27Z"/><path class="cls-55" d="M154,32.27c0-6.08-4.29-13.52-9.56-16.56l-.63-.36c0-.54-.5-1-1.18-1.3V8.16c0-.31-.25-.58-.63-.77V4.44c1.08-.27,1.83-.88,1.83-1.6V1.74a1.15,1.15,0,0,1-.11.31,1.15,1.15,0,0,0,.11-.31c0-1-1.35-1.74-3-1.74s-3,.78-3,1.74v1.1a1.11,1.11,0,0,0,.24.68,1.94,1.94,0,0,0,.64.55,3.55,3.55,0,0,0,1,.37V7.39c-.38.19-.63.46-.63.77v4.41L119.44,1.3c-2.64-1.52-5-1.66-6.76-.66l-7.4,4.27h0c-1.73,1-2.8,3.14-2.8,6.18V69c0,6.09,4.29,13.52,9.56,16.57L137,100c2.63,1.52,5,1.66,6.76.66h0l7.39-4.27c1.73-1,2.81-3.14,2.8-6.18V32.27Z"/><path class="cls-56" d="M151.73,32.27c0-6.08-4.29-13.52-9.56-16.56l-.63-.36a1.72,1.72,0,0,0-1.19-1.3V8.16a1,1,0,0,0-.62-.77V4.44c1.07-.27,1.83-.88,1.83-1.6V1.74a1.15,1.15,0,0,1-.11.31,1.15,1.15,0,0,0,.11-.31c0-1-1.35-1.74-3-1.74s-3,.78-3,1.74v1.1a1.16,1.16,0,0,0,.23.68,2.09,2.09,0,0,0,.65.55,3.62,3.62,0,0,0,.94.37V7.39a1,1,0,0,0-.62.77v4.41L117.21,1.3c-2.63-1.52-5-1.66-6.76-.66l-7.39,4.27h0c-1.73,1-2.81,3.14-2.81,6.18V69c0,6.09,4.3,13.52,9.57,16.57l25,14.41c2.64,1.52,5,1.66,6.76.66h0l7.4-4.27c1.73-1,2.8-3.14,2.8-6.18V32.27Z"/><path class="cls-57" d="M149.51,32.27c0-6.08-4.29-13.52-9.57-16.56l-.63-.36c0-.54-.49-1-1.18-1.3V8.16a1,1,0,0,0-.62-.77V4.44c1.07-.27,1.82-.88,1.82-1.6V1.74a.89.89,0,0,1-.11.31.89.89,0,0,0,.11-.31c0-1-1.35-1.74-3-1.74s-3,.78-3,1.74v1.1a1.17,1.17,0,0,0,.24.68,1.88,1.88,0,0,0,.65.55,3.48,3.48,0,0,0,.94.37V7.39a.94.94,0,0,0-.62.77v4.41L115,1.3c-2.64-1.52-5-1.66-6.76-.66l-7.39,4.27h0C99.1,5.91,98,8.05,98,11.09V69c0,6.09,4.29,13.52,9.57,16.57l25,14.41c2.64,1.52,5,1.66,6.76.66h0l7.39-4.27c1.74-1,2.81-3.14,2.81-6.18V32.27Z"/><path class="cls-58" d="M147.29,32.27c0-6.08-4.3-13.52-9.57-16.56l-.63-.36c0-.54-.5-1-1.18-1.3V8.16c0-.31-.25-.58-.63-.77V4.44c1.08-.27,1.83-.88,1.83-1.6V1.74a1.15,1.15,0,0,1-.11.31,1.15,1.15,0,0,0,.11-.31c0-1-1.35-1.74-3-1.74s-3,.78-3,1.74v1.1a1.11,1.11,0,0,0,.24.68,1.94,1.94,0,0,0,.64.55,3.55,3.55,0,0,0,.95.37V7.39c-.38.19-.63.46-.63.77v4.41L112.77,1.3c-2.64-1.52-5-1.66-6.76-.66l-7.4,4.27h0c-1.73,1-2.8,3.14-2.8,6.18V69c0,6.09,4.29,13.52,9.56,16.57l25,14.41c2.63,1.52,5,1.66,6.76.66h0l7.39-4.27c1.73-1,2.81-3.14,2.81-6.18V32.27Z"/><path class="cls-59" d="M145.06,32.27c0-6.08-4.29-13.52-9.56-16.56l-.63-.36c0-.54-.5-1-1.19-1.3V8.16a.94.94,0,0,0-.62-.77V4.44c1.07-.27,1.83-.88,1.83-1.6V1.74a1.15,1.15,0,0,1-.11.31,1.15,1.15,0,0,0,.11-.31c0-1-1.35-1.74-3-1.74s-3,.78-3,1.74v1.1a1.16,1.16,0,0,0,.23.68,2.09,2.09,0,0,0,.65.55,3.62,3.62,0,0,0,.94.37V7.39a1,1,0,0,0-.62.77v4.41L110.54,1.3c-2.63-1.52-5-1.66-6.76-.66L96.39,4.91h0c-1.73,1-2.8,3.14-2.8,6.18V69c0,6.09,4.29,13.52,9.56,16.57L128.1,100c2.64,1.52,5,1.66,6.76.66h0l7.4-4.27c1.73-1,2.8-3.14,2.8-6.18V32.27Z"/><path class="cls-60" d="M142.84,32.27c0-6.08-4.29-13.52-9.56-16.56l-.64-.36c0-.54-.49-1-1.18-1.3V8.16a1,1,0,0,0-.62-.77V4.44c1.07-.27,1.82-.88,1.82-1.6V1.74a.89.89,0,0,1-.11.31.89.89,0,0,0,.11-.31c0-1-1.35-1.74-3-1.74s-3,.78-3,1.74v1.1a1.17,1.17,0,0,0,.24.68,1.88,1.88,0,0,0,.65.55,3.48,3.48,0,0,0,.94.37V7.39a1,1,0,0,0-.62.77v4.41L108.32,1.3c-2.64-1.52-5-1.66-6.76-.66L94.17,4.91h0c-1.74,1-2.81,3.14-2.81,6.18V69c0,6.09,4.29,13.52,9.57,16.57L125.88,100c2.64,1.52,5,1.66,6.76.66h0l7.4-4.27c1.73-1,2.8-3.14,2.8-6.18V32.27Z"/><path class="cls-61" d="M140.62,32.27c0-6.08-4.3-13.52-9.57-16.56l-.63-.36c0-.54-.5-1-1.18-1.3V8.16c0-.31-.25-.58-.63-.77V4.44c1.08-.27,1.83-.88,1.83-1.6V1.74a.89.89,0,0,1-.11.31.89.89,0,0,0,.11-.31c0-1-1.35-1.74-3-1.74s-3,.78-3,1.74v1.1a1.11,1.11,0,0,0,.24.68,1.94,1.94,0,0,0,.64.55,3.55,3.55,0,0,0,.95.37V7.39c-.38.19-.63.46-.63.77v4.41L106.1,1.3c-2.64-1.52-5-1.66-6.76-.66l-7.4,4.27h0c-1.73,1-2.8,3.14-2.8,6.18V69c0,6.09,4.29,13.52,9.56,16.57l25,14.41c2.64,1.52,5,1.66,6.76.66h0l7.39-4.27c1.73-1,2.81-3.14,2.81-6.18V32.27Z"/><path class="cls-62" d="M138.39,32.27c0-6.08-4.29-13.52-9.56-16.56l-.63-.36c0-.54-.5-1-1.19-1.3V8.16a.94.94,0,0,0-.62-.77V4.44c1.07-.27,1.83-.88,1.83-1.6V1.74a1.15,1.15,0,0,1-.11.31,1.15,1.15,0,0,0,.11-.31c0-1-1.35-1.74-3-1.74s-3,.78-3,1.74v1.1a1.16,1.16,0,0,0,.23.68,2.09,2.09,0,0,0,.65.55,3.62,3.62,0,0,0,.94.37V7.39a1,1,0,0,0-.62.77v4.41L103.87,1.3c-2.63-1.52-5-1.66-6.76-.66L89.72,4.91h0c-1.73,1-2.8,3.14-2.8,6.18V69c0,6.09,4.29,13.52,9.56,16.57l25,14.41c2.64,1.52,5,1.66,6.76.66s1.74-1,0,0l7.39-4.27c1.73-1,2.8-3.14,2.8-6.18V32.27Z"/><path class="cls-63" d="M136.17,32.27c0-6.08-4.29-13.52-9.56-16.56l-.64-.36c0-.54-.49-1-1.18-1.3V8.16a1,1,0,0,0-.62-.77V4.44c1.07-.27,1.82-.88,1.82-1.6V1.74a.89.89,0,0,1-.11.31.89.89,0,0,0,.11-.31c0-1-1.35-1.74-3-1.74s-3,.78-3,1.74v1.1a1.17,1.17,0,0,0,.24.68,1.88,1.88,0,0,0,.65.55,3.62,3.62,0,0,0,.94.37V7.39a1,1,0,0,0-.62.77v4.41L101.65,1.3C99-.22,96.62-.36,94.89.64L87.5,4.91h0c-1.73,1-2.81,3.14-2.81,6.18V69c0,6.09,4.29,13.52,9.57,16.57L119.21,100c2.64,1.52,5,1.66,6.76.66h0l7.4-4.27c1.73-1,2.8-3.14,2.8-6.18V32.27Z"/><path class="cls-64" d="M134,32.27c0-6.08-4.3-13.52-9.57-16.56l-.63-.36c0-.54-.49-1-1.18-1.3V8.16c0-.31-.25-.58-.63-.77V4.44c1.08-.27,1.83-.88,1.83-1.6V1.74a.89.89,0,0,1-.11.31.89.89,0,0,0,.11-.31c0-1-1.35-1.74-3-1.74s-3,.78-3,1.74v1.1a1.17,1.17,0,0,0,.24.68,1.94,1.94,0,0,0,.64.55,3.55,3.55,0,0,0,.95.37V7.39a.94.94,0,0,0-.62.77v4.41L99.43,1.3c-2.64-1.52-5-1.66-6.76-.66l-7.4,4.27h0c-1.73,1-2.8,3.14-2.8,6.18V69c0,6.09,4.29,13.52,9.56,16.57L117,100c2.64,1.52,5,1.66,6.76.66h0l7.39-4.27c1.73-1,2.81-3.14,2.81-6.18V32.27Z"/><path class="cls-65" d="M131.72,32.27c0-6.08-4.29-13.52-9.56-16.56l-.63-.36c0-.54-.5-1-1.19-1.3V8.16a.94.94,0,0,0-.62-.77V4.44c1.07-.27,1.83-.88,1.83-1.6V1.74a1.15,1.15,0,0,1-.11.31,1.15,1.15,0,0,0,.11-.31c0-1-1.35-1.74-3-1.74s-3,.78-3,1.74v1.1a1.16,1.16,0,0,0,.23.68,2.09,2.09,0,0,0,.65.55,3.62,3.62,0,0,0,.94.37V7.39a1,1,0,0,0-.62.77v4.41L97.2,1.3c-2.63-1.52-5-1.66-6.75-.66l-7.4,4.27h0c-1.73,1-2.8,3.14-2.8,6.18V69c0,6.09,4.29,13.52,9.56,16.57l25,14.41c2.64,1.52,5,1.66,6.76.66s1.74-1,0,0l7.39-4.27c1.73-1,2.8-3.14,2.8-6.18V32.27Z"/><path class="cls-66" d="M129.5,32.27c0-6.08-4.29-13.52-9.56-16.56l-.63-.36a1.72,1.72,0,0,0-1.19-1.3V8.16a1,1,0,0,0-.62-.77V4.44c1.07-.27,1.82-.88,1.82-1.6V1.74a1.12,1.12,0,0,1-.1.31,1.12,1.12,0,0,0,.1-.31c0-1-1.34-1.74-3-1.74s-3,.78-3,1.74v1.1a1.17,1.17,0,0,0,.24.68,1.88,1.88,0,0,0,.65.55,3.62,3.62,0,0,0,.94.37V7.39a1,1,0,0,0-.62.77v4.41L95,1.3C92.34-.22,90-.36,88.22.64L80.83,4.91h0C79.1,5.91,78,8.05,78,11.09V69c0,6.09,4.3,13.52,9.57,16.57l25,14.41c2.64,1.52,5,1.66,6.76.66h0l7.4-4.27c1.73-1,2.8-3.14,2.8-6.18V32.27Z"/><path class="cls-67" d="M127.28,32.27c0-6.08-4.29-13.52-9.57-16.56l-.63-.36c0-.54-.49-1-1.18-1.3V8.16a1,1,0,0,0-.62-.77V4.44c1.07-.27,1.82-.88,1.82-1.6V1.74a.89.89,0,0,1-.11.31.89.89,0,0,0,.11-.31c0-1-1.35-1.74-3-1.74s-3,.78-3,1.74v1.1a1.17,1.17,0,0,0,.24.68,1.94,1.94,0,0,0,.64.55,3.55,3.55,0,0,0,1,.37V7.39a.94.94,0,0,0-.62.77v4.41L92.76,1.3C90.12-.22,87.73-.36,86,.64L78.61,4.91q2.6-1.5,0,0c-1.73,1-2.8,3.14-2.8,6.18V69c0,6.09,4.29,13.52,9.56,16.57l25,14.41c2.64,1.52,5,1.66,6.76.66h0l7.39-4.27c1.73-1,2.81-3.14,2.81-6.18V32.27Z"/><path class="cls-68" d="M125.05,32.27c0-6.08-4.29-13.52-9.56-16.56l-.63-.36c0-.54-.5-1-1.19-1.3V8.16a.94.94,0,0,0-.62-.77V4.44c1.08-.27,1.83-.88,1.83-1.6V1.74a1.15,1.15,0,0,1-.11.31,1.15,1.15,0,0,0,.11-.31c0-1-1.35-1.74-3-1.74s-3,.78-3,1.74v1.1a1.11,1.11,0,0,0,.24.68,1.94,1.94,0,0,0,.64.55,3.62,3.62,0,0,0,.94.37V7.39a1,1,0,0,0-.62.77v4.41L90.54,1.3c-2.64-1.52-5-1.66-6.76-.66l-7.4,4.27h0c-1.73,1-2.8,3.14-2.8,6.18V69c0,6.09,4.29,13.52,9.56,16.57l25,14.41c2.63,1.52,5,1.66,6.76.66h0l7.39-4.27c1.73-1,2.8-3.14,2.8-6.18V32.27Z"/><path class="cls-69" d="M122.83,32.27c0-6.08-4.29-13.52-9.56-16.56l-.63-.36a1.72,1.72,0,0,0-1.19-1.3V8.16a1,1,0,0,0-.62-.77V4.44c1.07-.27,1.83-.88,1.83-1.6V1.74a1.15,1.15,0,0,1-.11.31,1.15,1.15,0,0,0,.11-.31c0-1-1.35-1.74-3-1.74s-3,.78-3,1.74v1.1a1.16,1.16,0,0,0,.23.68,2,2,0,0,0,.65.55,3.62,3.62,0,0,0,.94.37V7.39a1,1,0,0,0-.62.77v4.41L88.31,1.3c-2.64-1.52-5-1.66-6.76-.66L74.16,4.91h0c-1.73,1-2.81,3.14-2.81,6.18V69c0,6.09,4.3,13.52,9.57,16.57l25,14.41c2.64,1.52,5,1.66,6.76.66h0l7.4-4.27c1.73-1,2.8-3.14,2.8-6.18V32.27Z"/><path class="cls-70" d="M120.61,32.27c0-6.08-4.29-13.52-9.57-16.56l-.63-.36c0-.54-.49-1-1.18-1.3V8.16a1,1,0,0,0-.62-.77V4.44c1.07-.27,1.82-.88,1.82-1.6V1.74a.89.89,0,0,1-.11.31.89.89,0,0,0,.11-.31c0-1-1.35-1.74-3-1.74s-3,.78-3,1.74v1.1a1.17,1.17,0,0,0,.24.68,1.88,1.88,0,0,0,.65.55,3.35,3.35,0,0,0,.94.37V7.39a.94.94,0,0,0-.62.77v4.41L86.09,1.3c-2.64-1.52-5-1.66-6.76-.66L71.94,4.91q2.59-1.5,0,0c-1.73,1-2.8,3.14-2.8,6.18V69c0,6.09,4.29,13.52,9.56,16.57l25,14.41c2.64,1.52,5,1.66,6.76.66h0l7.39-4.27c1.74-1,2.81-3.14,2.81-6.18V32.27Z"/><path class="cls-71" d="M118.38,32.27c0-6.08-4.29-13.52-9.56-16.56l-.63-.36c0-.54-.5-1-1.18-1.3V8.16c0-.31-.25-.58-.63-.77V4.44c1.08-.27,1.83-.88,1.83-1.6V1.74a1.15,1.15,0,0,1-.11.31,1.15,1.15,0,0,0,.11-.31c0-1-1.35-1.74-3-1.74s-3,.78-3,1.74v1.1a1.11,1.11,0,0,0,.24.68,1.94,1.94,0,0,0,.64.55,3.55,3.55,0,0,0,1,.37V7.39c-.38.19-.63.46-.63.77v4.41L83.87,1.3c-2.64-1.52-5-1.66-6.76-.66l-7.4,4.27h0c-1.73,1-2.8,3.14-2.8,6.18V69c0,6.09,4.29,13.52,9.56,16.57l25,14.41c2.63,1.52,5,1.66,6.76.66h0l7.39-4.27c1.73-1,2.81-3.14,2.8-6.18V32.27Z"/><path class="cls-72" d="M116.16,32.27c0-6.08-4.29-13.52-9.56-16.56l-.63-.36a1.72,1.72,0,0,0-1.19-1.3V8.16a1,1,0,0,0-.62-.77V4.44c1.07-.27,1.83-.88,1.83-1.6V1.74a1.15,1.15,0,0,1-.11.31,1.15,1.15,0,0,0,.11-.31c0-1-1.35-1.74-3-1.74s-3,.78-3,1.74v1.1a1.16,1.16,0,0,0,.23.68,2.09,2.09,0,0,0,.65.55,3.62,3.62,0,0,0,.94.37V7.39a1,1,0,0,0-.62.77v4.41L81.64,1.3C79-.22,76.62-.36,74.88.64L67.49,4.91h0c-1.73,1-2.81,3.14-2.81,6.18V69c0,6.09,4.3,13.52,9.57,16.57L99.2,100c2.64,1.52,5,1.66,6.76.66h0l7.4-4.27c1.73-1,2.8-3.14,2.8-6.18V32.27Z"/><path class="cls-73" d="M113.94,32.27c0-6.08-4.29-13.52-9.57-16.56l-.63-.36c0-.54-.49-1-1.18-1.3V8.16a1,1,0,0,0-.62-.77V4.44c1.07-.27,1.82-.88,1.82-1.6V1.74a.89.89,0,0,1-.11.31.89.89,0,0,0,.11-.31c0-1-1.35-1.74-3-1.74s-3,.78-3,1.74v1.1a1.17,1.17,0,0,0,.24.68,1.88,1.88,0,0,0,.65.55,3.48,3.48,0,0,0,.94.37V7.39a.94.94,0,0,0-.62.77v4.41L79.42,1.3c-2.64-1.52-5-1.66-6.76-.66L65.27,4.91h0c-1.74,1-2.81,3.14-2.81,6.18V69c0,6.09,4.29,13.52,9.57,16.57L97,100c2.64,1.52,5,1.66,6.76.66h0l7.39-4.27c1.74-1,2.81-3.14,2.81-6.18V32.27Z"/></g></g><path class="cls-74" d="M72,5.57,97,20c5.28,3.05,9.56,10.47,9.56,16.56V94.46c0,3.05-1.07,5.19-2.8,6.19s-4.12.86-6.76-.66L72,85.58c-5.28-3-9.57-10.48-9.57-16.57V11.09c0-3,1.07-5.18,2.81-6.18S69.39,4.05,72,5.57Z"/><path class="cls-75" d="M70.87,51.44l0,0,6.25,3.6a2.49,2.49,0,0,1,.38.3,2.69,2.69,0,0,1,.81,1.77c0,.77-.53,1.08-1.19.7L70.87,54.2a2.65,2.65,0,0,1-1.2-2.07C69.67,51.37,70.21,51.06,70.87,51.44Z"/><path class="cls-76" d="M70.87,58.93l6.28,3.62a2.65,2.65,0,0,1,1.19,2.07c0,.77-.53,1.08-1.19.7l-6.28-3.63a2.65,2.65,0,0,1-1.2-2.07C69.67,58.86,70.21,58.55,70.87,58.93Z"/><path class="cls-76" d="M70.87,67l6.28,3.62a2.62,2.62,0,0,1,1.19,2.07c0,.76-.53,1.07-1.19.69l-6.28-3.63a2.63,2.63,0,0,1-1.2-2.06C69.67,66.89,70.21,66.59,70.87,67Z"/><path class="cls-77" d="M89.54,24.4,79.47,18.59a2.54,2.54,0,0,1-.89-1,2.45,2.45,0,0,1-.31-1.1c0-.77.54-1.08,1.2-.7l10.07,5.82a2.65,2.65,0,0,1,1.2,2.07.85.85,0,0,1-.32.74A.79.79,0,0,1,89.54,24.4Z"/><path class="cls-76" d="M91.86,87.12l6.28,3.62a2.64,2.64,0,0,1,1.19,2.07c0,.76-.53,1.07-1.19.69l-6.28-3.62a2.64,2.64,0,0,1-1.19-2.07C90.67,87,91.2,86.73,91.86,87.12Z"/><path class="cls-76" d="M91.86,79.09l6.28,3.62a2.62,2.62,0,0,1,1.19,2.07c0,.76-.53,1.07-1.19.69l-6.28-3.63a2.62,2.62,0,0,1-1.19-2.06C90.67,79,91.2,78.7,91.86,79.09Z"/><path class="cls-76" d="M81.36,81.06l6.28,3.62a2.65,2.65,0,0,1,1.2,2.07c0,.76-.54,1.07-1.2.69l-6.28-3.62a2.64,2.64,0,0,1-1.19-2.07C80.17,81,80.7,80.67,81.36,81.06Z"/><path class="cls-78" d="M81.5,59a3,3,0,0,1,.22-1.18c.44-1,1.52-1.29,2.78-.56A6.74,6.74,0,0,1,87.29,61a5.18,5.18,0,0,1,.22,1.43c0,1.92-1.35,2.69-3,1.73A6.62,6.62,0,0,1,81.5,59Z"/><path class="cls-76" d="M70.87,75l6.28,3.62a2.64,2.64,0,0,1,1.19,2.07c0,.76-.53,1.07-1.19.69l-6.28-3.62a2.65,2.65,0,0,1-1.2-2.07C69.67,74.93,70.21,74.62,70.87,75Z"/><path class="cls-76" d="M81.36,65l6.28,3.62a2.65,2.65,0,0,1,1.2,2.08c0,.76-.54,1.07-1.2.69l-6.28-3.63a2.64,2.64,0,0,1-1.19-2.07C80.17,64.92,80.7,64.61,81.36,65Z"/><path class="cls-76" d="M91.86,71.05l6.28,3.62a2.64,2.64,0,0,1,1.19,2.07c0,.77-.53,1.08-1.19.7l-6.28-3.63a2.64,2.64,0,0,1-1.19-2.07C90.67,71,91.2,70.67,91.86,71.05Z"/><path class="cls-76" d="M81.36,73l6.28,3.63a2.63,2.63,0,0,1,1.2,2.07c0,.76-.54,1.07-1.2.69l-6.28-3.63a2.62,2.62,0,0,1-1.19-2.06C80.17,73,80.7,72.64,81.36,73Z"/><path class="cls-79" d="M91.48,63.42a1,1,0,0,1,.38.14l6.24,3.6,0,0a2.64,2.64,0,0,1,1.19,2.07c0,.76-.53,1.08-1.19.7l-6.28-3.63a2.64,2.64,0,0,1-1.19-2.07C90.67,63.64,91,63.33,91.48,63.42Z"/><path class="cls-80" d="M97,33.76A10.57,10.57,0,0,1,101.76,42V58.31c0,3-2.05,4.23-4.61,2.86L73.5,20.2Z"/><path class="cls-81" d="M72,19.35l1.47.85,23.65,41-.17-.1L72,46.66a10.57,10.57,0,0,1-4.79-8.28V22.11C67.24,19.07,69.39,17.83,72,19.35Z"/><path class="cls-82" d="M106.54,94.46V36.54C106.54,30.46,102.25,23,97,20L72,5.57c-2.64-1.52-5-1.66-6.76-.66L72.66.64c1.73-1,4.12-.86,6.76.66l25,14.41c5.28,3,9.57,10.48,9.57,16.56V90.2c0,3-1.07,5.18-2.81,6.18l-7.39,4.27C105.47,99.65,106.55,97.51,106.54,94.46Z"/><path class="cls-78" d="M100.75,19.39c-1.67,0-3-.78-3-1.74s1.35-1.74,3-1.74,3,.78,3,1.74S102.41,19.39,100.75,19.39Z"/><path class="cls-83" d="M100.75,17.14c-1.67,0-3-.78-3-1.74v2.25c0,1,1.35,1.74,3,1.74s3-.78,3-1.74V15.4C103.76,16.36,102.41,17.14,100.75,17.14Z"/><path class="cls-84" d="M100.75,17.14c-1.67,0-3-.78-3-1.74s1.35-1.74,3-1.74,3,.78,3,1.74S102.41,17.14,100.75,17.14Z"/><path class="cls-78" d="M100.75,16.29c-1,0-1.81-.46-1.81-1s.81-1.05,1.81-1.05,1.81.47,1.81,1.05S101.75,16.29,100.75,16.29Z"/><path class="cls-85" d="M100.75,9.21c-1,0-1.81-.47-1.81-1.05v7.09c0,.58.81,1,1.81,1s1.81-.46,1.81-1V8.16C102.56,8.74,101.75,9.21,100.75,9.21Z"/><ellipse class="cls-84" cx="100.75" cy="8.16" rx="1.81" ry="1.05"/><ellipse class="cls-78" cx="100.75" cy="8.08" rx="1.19" ry="0.69"/><path class="cls-86" d="M100.75,4.12c-.66,0-1.19-.31-1.19-.69V8.08c0,.38.53.69,1.19.69s1.19-.31,1.19-.69V3.43C101.94,3.81,101.4,4.12,100.75,4.12Z"/><ellipse class="cls-87" cx="100.75" cy="3.43" rx="1.19" ry="0.69"/><path class="cls-78" d="M100.75,4.58c-1.67,0-3-.78-3-1.74s1.35-1.74,3-1.74,3,.78,3,1.74S102.41,4.58,100.75,4.58Z"/><path class="cls-88" d="M100.75,3.48c-1.67,0-3-.78-3-1.74v1.1c0,1,1.35,1.74,3,1.74s3-.78,3-1.74V1.74C103.76,2.7,102.41,3.48,100.75,3.48Z"/><path class="cls-84" d="M100.75,3.48c-1.67,0-3-.78-3-1.74S99.08,0,100.75,0s3,.78,3,1.74S102.41,3.48,100.75,3.48Z"/></g></g></g></svg>