<svg xmlns="http://www.w3.org/2000/svg" xmlns:xlink="http://www.w3.org/1999/xlink" viewBox="0 0 225.31 152.67"><defs><style>.cls-1{fill:none;}.cls-2{isolation:isolate;}.cls-3{mix-blend-mode:multiply;}.cls-4{fill:#fff;opacity:0;}.cls-5{fill:#fcfcfc;}.cls-41,.cls-5{opacity:0.03;}.cls-6{fill:#f9f9f9;}.cls-42,.cls-6{opacity:0.06;}.cls-7{fill:#f5f5f5;}.cls-43,.cls-7{opacity:0.09;}.cls-8{fill:#f2f2f2;}.cls-44,.cls-8{opacity:0.12;}.cls-9{fill:#efefef;}.cls-45,.cls-9{opacity:0.15;}.cls-10{fill:#ececec;}.cls-10,.cls-46{opacity:0.18;}.cls-11{fill:#e8e8e8;}.cls-11,.cls-47{opacity:0.21;}.cls-12{fill:#e5e5e5;}.cls-12,.cls-48{opacity:0.24;}.cls-13{fill:#e2e2e2;}.cls-13,.cls-49{opacity:0.27;}.cls-14{fill:#dfdfdf;}.cls-14,.cls-50{opacity:0.3;}.cls-15{fill:#dbdbdb;}.cls-15,.cls-51{opacity:0.33;}.cls-16{fill:#d8d8d8;}.cls-16,.cls-52{opacity:0.36;}.cls-17{fill:#d5d5d5;}.cls-17,.cls-53{opacity:0.39;}.cls-18{fill:#d2d2d2;}.cls-18,.cls-54{opacity:0.42;}.cls-19{fill:#cecece;}.cls-19,.cls-55{opacity:0.45;}.cls-20{fill:#cbcbcb;}.cls-20,.cls-56{opacity:0.48;}.cls-21{fill:#c8c8c8;}.cls-21,.cls-57{opacity:0.52;}.cls-22{fill:#c5c5c5;}.cls-22,.cls-58{opacity:0.55;}.cls-23{fill:#c1c1c1;}.cls-23,.cls-59{opacity:0.58;}.cls-24{fill:#bebebe;}.cls-24,.cls-60{opacity:0.61;}.cls-25{fill:#bbb;}.cls-25,.cls-61{opacity:0.64;}.cls-26{fill:#b8b8b8;}.cls-26,.cls-62{opacity:0.67;}.cls-27{fill:#b4b4b4;}.cls-27,.cls-63{opacity:0.7;}.cls-28{fill:#b1b1b1;}.cls-28,.cls-64{opacity:0.73;}.cls-29{fill:#aeaeae;}.cls-29,.cls-65{opacity:0.76;}.cls-30{fill:#ababab;}.cls-30,.cls-66{opacity:0.79;}.cls-31{fill:#a7a7a7;}.cls-31,.cls-67{opacity:0.82;}.cls-32{fill:#a4a4a4;}.cls-32,.cls-68{opacity:0.85;}.cls-33{fill:#a1a1a1;}.cls-33,.cls-69{opacity:0.88;}.cls-34{fill:#9e9e9e;}.cls-34,.cls-70{opacity:0.91;}.cls-35{fill:#9a9a9a;}.cls-35,.cls-71{opacity:0.94;}.cls-36{fill:#979797;}.cls-36,.cls-72{opacity:0.97;}.cls-37{fill:#949494;}.cls-38{fill:url(#linear-gradient);}.cls-39{fill:#ffdb32;}.cls-40{clip-path:url(#clip-path);}.cls-41{fill:#fefdfb;}.cls-42{fill:#fdfaf7;}.cls-43{fill:#fdf8f2;}.cls-44{fill:#fcf6ee;}.cls-45{fill:#fbf3ea;}.cls-46{fill:#faf1e6;}.cls-47{fill:#faefe2;}.cls-48{fill:#f9edde;}.cls-49{fill:#f8ead9;}.cls-50{fill:#f7e8d5;}.cls-51{fill:#f7e6d1;}.cls-52{fill:#f6e3cd;}.cls-53{fill:#f5e1c9;}.cls-54{fill:#f4dfc4;}.cls-55{fill:#f4dcc0;}.cls-56{fill:#f3dabc;}.cls-57{fill:#f2d8b8;}.cls-58{fill:#f1d6b4;}.cls-59{fill:#f1d3b0;}.cls-60{fill:#f0d1ab;}.cls-61{fill:#efcfa7;}.cls-62{fill:#eecca3;}.cls-63{fill:#eeca9f;}.cls-64{fill:#edc89b;}.cls-65{fill:#ecc596;}.cls-66{fill:#ebc392;}.cls-67{fill:#ebc18e;}.cls-68{fill:#eabf8a;}.cls-69{fill:#e9bc86;}.cls-70{fill:#e8ba82;}.cls-71{fill:#e8b87d;}.cls-72{fill:#e7b579;}.cls-73{fill:#e6b375;}.cls-74{fill:#40bd40;}.cls-75{fill:url(#linear-gradient-2);}.cls-76{fill:#454545;}.cls-77{fill:#262626;}.cls-78{fill:#f2b539;}.cls-79{fill:url(#radial-gradient);}.cls-80{fill:url(#radial-gradient-2);}.cls-81{fill:#c7c7c7;mix-blend-mode:color-burn;}.cls-82{fill:url(#radial-gradient-3);}.cls-83{fill:url(#linear-gradient-3);}</style><linearGradient id="linear-gradient" y1="118.71" x2="176.4" y2="118.71" gradientUnits="userSpaceOnUse"><stop offset="0" stop-color="#ffed44"/><stop offset="0.07" stop-color="#fff047"/><stop offset="0.3" stop-color="#fff24a"/><stop offset="0.55" stop-color="#ffe23a"/><stop offset="0.74" stop-color="#ffdc34"/><stop offset="1" stop-color="#f9b519"/></linearGradient><clipPath id="clip-path"><path class="cls-1" d="M147.21,50.68c-38.92-22.47-79.09-22.47-118,0h0C9.73,61.92,0,73.33,0,84.75s9.73,22.83,29.19,34.07c38.93,22.47,79.1,22.47,118,0,19.46-11.24,29.19-22.65,29.19-34.07S166.67,61.92,147.21,50.68Z"/></clipPath><linearGradient id="linear-gradient-2" x1="56.93" y1="88.88" x2="119.48" y2="88.88" gradientUnits="userSpaceOnUse"><stop offset="0" stop-color="#383838"/><stop offset="0.1" stop-color="#3d3b3c"/><stop offset="0.3" stop-color="#403d3e"/><stop offset="0.55" stop-color="#302d2e"/><stop offset="0.74" stop-color="#2a2728"/><stop offset="1"/></linearGradient><radialGradient id="radial-gradient" cx="88.47" cy="14.8" r="36.62" xlink:href="#linear-gradient"/><radialGradient id="radial-gradient-2" cx="3209.96" cy="2574.76" r="36.62" gradientTransform="translate(3297.89 2663.11) rotate(180)" xlink:href="#linear-gradient"/><radialGradient id="radial-gradient-3" cx="80.15" cy="57.79" r="33.41" gradientUnits="userSpaceOnUse"><stop offset="0" stop-color="#fffc6e"/><stop offset="0.16" stop-color="#fff968"/><stop offset="0.37" stop-color="#fff056"/><stop offset="0.62" stop-color="#ffe13a"/><stop offset="0.89" stop-color="#ffcd12"/><stop offset="1" stop-color="#ffc400"/></radialGradient><linearGradient id="linear-gradient-3" x1="56.93" y1="30.29" x2="119.48" y2="30.29" xlink:href="#linear-gradient-2"/></defs><title>Asset 7</title><g class="cls-2"><g id="Layer_2" data-name="Layer 2"><g id="Layer_1-2" data-name="Layer 1"><g class="cls-3"><path class="cls-4" d="M196.12,67.68c-38.92-22.47-79.09-22.47-118,0h0C58.64,78.92,48.91,90.33,48.91,101.75s9.73,22.83,29.19,34.07c38.93,22.47,79.1,22.47,118,0,19.46-11.24,29.19-22.65,29.19-34.07S215.58,78.92,196.12,67.68Z"/><path class="cls-5" d="M194.64,67.68c-38.93-22.47-79.1-22.47-118,0h0C57.16,78.92,47.43,90.33,47.43,101.75s9.73,22.83,29.19,34.07c38.92,22.47,79.09,22.47,118,0,19.46-11.24,29.19-22.65,29.19-34.07S214.1,78.92,194.64,67.68Z"/><path class="cls-6" d="M193.16,67.68c-38.93-22.47-79.1-22.47-118,0h0c-19.46,11.24-29.2,22.65-29.2,34.07s9.74,22.83,29.2,34.07c38.92,22.47,79.09,22.47,118,0,19.46-11.24,29.19-22.65,29.19-34.07S212.62,78.92,193.16,67.68Z"/><path class="cls-7" d="M191.67,67.68c-38.92-22.47-79.09-22.47-118,0h0c-19.47,11.24-29.2,22.65-29.2,34.07s9.73,22.83,29.2,34.07c38.92,22.47,79.09,22.47,118,0,19.47-11.24,29.2-22.65,29.2-34.07S211.14,78.92,191.67,67.68Z"/><path class="cls-8" d="M190.19,67.68c-38.92-22.47-79.09-22.47-118,0h0C52.71,78.92,43,90.33,43,101.75s9.73,22.83,29.19,34.07c38.93,22.47,79.1,22.47,118,0,19.46-11.24,29.2-22.65,29.2-34.07S209.65,78.92,190.19,67.68Z"/><path class="cls-9" d="M188.71,67.68c-38.92-22.47-79.09-22.47-118,0h0C51.23,78.92,41.5,90.33,41.5,101.75s9.73,22.83,29.19,34.07c38.93,22.47,79.1,22.47,118,0,19.46-11.24,29.19-22.65,29.19-34.07S208.17,78.92,188.71,67.68Z"/><path class="cls-10" d="M187.23,67.68c-38.93-22.47-79.1-22.47-118,0h0C49.75,78.92,40,90.33,40,101.75s9.73,22.83,29.19,34.07c38.92,22.47,79.09,22.47,118,0,19.46-11.24,29.19-22.65,29.19-34.07S206.69,78.92,187.23,67.68Z"/><path class="cls-11" d="M185.75,67.68c-38.93-22.47-79.1-22.47-118,0h0c-19.46,11.24-29.2,22.65-29.2,34.07s9.74,22.83,29.2,34.07c38.92,22.47,79.09,22.47,118,0,19.46-11.24,29.19-22.65,29.19-34.07S205.21,78.92,185.75,67.68Z"/><path class="cls-12" d="M184.26,67.68c-38.92-22.47-79.09-22.47-118,0h0c-19.47,11.24-29.2,22.65-29.2,34.07s9.73,22.83,29.2,34.07c38.92,22.47,79.09,22.47,118,0,19.47-11.24,29.2-22.65,29.2-34.07S203.73,78.92,184.26,67.68Z"/><path class="cls-13" d="M182.78,67.68c-38.92-22.47-79.09-22.47-118,0h0C45.3,78.92,35.57,90.33,35.57,101.75s9.73,22.83,29.19,34.07c38.93,22.47,79.1,22.47,118,0,19.46-11.24,29.2-22.65,29.2-34.07S202.24,78.92,182.78,67.68Z"/><path class="cls-14" d="M181.3,67.68c-38.92-22.47-79.1-22.47-118,0h0C43.82,78.92,34.09,90.33,34.09,101.75s9.73,22.83,29.19,34.07c38.93,22.47,79.1,22.47,118,0,19.46-11.24,29.19-22.65,29.19-34.07S200.76,78.92,181.3,67.68Z"/><path class="cls-15" d="M179.82,67.68c-38.93-22.47-79.1-22.47-118,0h0C42.34,78.92,32.61,90.33,32.61,101.75s9.73,22.83,29.19,34.07c38.92,22.47,79.09,22.47,118,0C199.28,124.58,209,113.17,209,101.75S199.28,78.92,179.82,67.68Z"/><path class="cls-16" d="M178.34,67.68c-38.93-22.47-79.1-22.47-118,0h0c-19.47,11.24-29.2,22.65-29.2,34.07s9.73,22.83,29.2,34.07c38.92,22.47,79.09,22.47,118,0,19.46-11.24,29.19-22.65,29.19-34.07S197.8,78.92,178.34,67.68Z"/><path class="cls-17" d="M176.85,67.68c-38.92-22.47-79.09-22.47-118,0h0C39.37,78.92,29.64,90.33,29.64,101.75s9.73,22.83,29.2,34.07c38.92,22.47,79.09,22.47,118,0,19.47-11.24,29.2-22.65,29.2-34.07S196.32,78.92,176.85,67.68Z"/><path class="cls-18" d="M175.37,67.68c-38.92-22.47-79.09-22.47-118,0h0C37.89,78.92,28.16,90.33,28.16,101.75s9.73,22.83,29.19,34.07c38.93,22.47,79.1,22.47,118,0,19.46-11.24,29.19-22.65,29.19-34.07S194.83,78.92,175.37,67.68Z"/><path class="cls-19" d="M173.89,67.68c-38.93-22.47-79.1-22.47-118,0h0C36.41,78.92,26.68,90.33,26.68,101.75s9.73,22.83,29.19,34.07c38.93,22.47,79.1,22.47,118,0,19.46-11.24,29.19-22.65,29.19-34.07S193.35,78.92,173.89,67.68Z"/><path class="cls-20" d="M172.41,67.68c-38.93-22.47-79.1-22.47-118,0h0C34.93,78.92,25.2,90.33,25.2,101.75s9.73,22.83,29.19,34.07c38.92,22.47,79.09,22.47,118,0,19.46-11.24,29.19-22.65,29.19-34.07S191.87,78.92,172.41,67.68Z"/><path class="cls-21" d="M170.92,67.68c-38.92-22.47-79.09-22.47-118,0h0c-19.47,11.24-29.2,22.65-29.2,34.07s9.73,22.83,29.2,34.07c38.92,22.47,79.09,22.47,118,0,19.46-11.24,29.19-22.65,29.19-34.07S190.39,78.92,170.92,67.68Z"/><path class="cls-22" d="M169.44,67.68c-38.92-22.47-79.09-22.47-118,0h0C32,78.92,22.23,90.33,22.23,101.75S32,124.58,51.42,135.82c38.93,22.47,79.1,22.47,118,0,19.47-11.24,29.2-22.65,29.2-34.07S188.9,78.92,169.44,67.68Z"/><path class="cls-23" d="M168,67.68c-38.92-22.47-79.09-22.47-118,0h0C30.48,78.92,20.75,90.33,20.75,101.75s9.73,22.83,29.19,34.07c38.93,22.47,79.1,22.47,118,0,19.46-11.24,29.19-22.65,29.19-34.07S187.42,78.92,168,67.68Z"/><path class="cls-24" d="M166.48,67.68c-38.93-22.47-79.1-22.47-118,0h0C29,78.92,19.27,90.33,19.27,101.75S29,124.58,48.46,135.82c38.92,22.47,79.09,22.47,118,0,19.46-11.24,29.19-22.65,29.19-34.07S185.94,78.92,166.48,67.68Z"/><path class="cls-25" d="M165,67.68c-38.93-22.47-79.1-22.47-118,0h0c-19.46,11.24-29.2,22.65-29.2,34.07s9.74,22.83,29.2,34.07c38.92,22.47,79.09,22.47,118,0,19.46-11.24,29.19-22.65,29.19-34.07S184.46,78.92,165,67.68Z"/><path class="cls-26" d="M163.51,67.68c-38.92-22.47-79.09-22.47-118,0h0C26,78.92,16.3,90.33,16.3,101.75S26,124.58,45.5,135.82c38.92,22.47,79.09,22.47,118,0,19.47-11.24,29.2-22.65,29.2-34.07S183,78.92,163.51,67.68Z"/><path class="cls-27" d="M162,67.68c-38.92-22.47-79.09-22.47-118,0h0C24.55,78.92,14.82,90.33,14.82,101.75S24.55,124.58,44,135.82c38.93,22.47,79.1,22.47,118,0,19.46-11.24,29.2-22.65,29.2-34.07S181.49,78.92,162,67.68Z"/><path class="cls-28" d="M160.55,67.68c-38.92-22.47-79.09-22.47-118,0h0C23.07,78.92,13.34,90.33,13.34,101.75s9.73,22.83,29.19,34.07c38.93,22.47,79.1,22.47,118,0,19.46-11.24,29.19-22.65,29.19-34.07S180,78.92,160.55,67.68Z"/><path class="cls-29" d="M159.07,67.68c-38.93-22.47-79.1-22.47-118,0h0C21.59,78.92,11.86,90.33,11.86,101.75s9.73,22.83,29.19,34.07c38.92,22.47,79.09,22.47,118,0,19.46-11.24,29.19-22.65,29.19-34.07S178.53,78.92,159.07,67.68Z"/><path class="cls-30" d="M157.59,67.68c-38.93-22.47-79.1-22.47-118,0h0c-19.46,11.24-29.2,22.65-29.2,34.07s9.74,22.83,29.2,34.07c38.92,22.47,79.09,22.47,118,0,19.46-11.24,29.19-22.65,29.19-34.07S177.05,78.92,157.59,67.68Z"/><path class="cls-31" d="M156.1,67.68c-38.92-22.47-79.09-22.47-118,0h0C18.62,78.92,8.89,90.33,8.89,101.75s9.73,22.83,29.2,34.07c38.92,22.47,79.09,22.47,118,0,19.47-11.24,29.2-22.65,29.2-34.07S175.57,78.92,156.1,67.68Z"/><path class="cls-32" d="M154.62,67.68c-38.92-22.47-79.09-22.47-118,0h0C17.14,78.92,7.41,90.33,7.41,101.75s9.73,22.83,29.19,34.07c38.93,22.47,79.1,22.47,118,0,19.46-11.24,29.2-22.65,29.2-34.07S174.08,78.92,154.62,67.68Z"/><path class="cls-33" d="M153.14,67.68c-38.92-22.47-79.09-22.47-118,0h0C15.66,78.92,5.93,90.33,5.93,101.75s9.73,22.83,29.19,34.07c38.93,22.47,79.1,22.47,118,0,19.46-11.24,29.19-22.65,29.19-34.07S172.6,78.92,153.14,67.68Z"/><path class="cls-34" d="M151.66,67.68c-38.93-22.47-79.1-22.47-118,0h0C14.18,78.92,4.45,90.33,4.45,101.75s9.73,22.83,29.19,34.07c38.92,22.47,79.09,22.47,118,0,19.46-11.24,29.19-22.65,29.19-34.07S171.12,78.92,151.66,67.68Z"/><path class="cls-35" d="M150.18,67.68c-38.93-22.47-79.1-22.47-118,0h0C12.7,78.92,3,90.33,3,101.75s9.74,22.83,29.2,34.07c38.92,22.47,79.09,22.47,118,0,19.46-11.24,29.19-22.65,29.19-34.07S169.64,78.92,150.18,67.68Z"/><path class="cls-36" d="M148.69,67.68c-38.92-22.47-79.09-22.47-118,0h0C11.21,78.92,1.48,90.33,1.48,101.75s9.73,22.83,29.2,34.07c38.92,22.47,79.09,22.47,118,0,19.47-11.24,29.2-22.65,29.2-34.07S168.16,78.92,148.69,67.68Z"/><path class="cls-37" d="M147.21,67.68c-38.92-22.47-79.09-22.47-118,0h0C9.73,78.92,0,90.33,0,101.75s9.73,22.83,29.19,34.07c38.93,22.47,79.1,22.47,118,0,19.46-11.24,29.19-22.65,29.19-34.07S166.67,78.92,147.21,67.68Z"/></g><path class="cls-38" d="M147.21,118.82c-38.92,22.47-79.09,22.47-118,0C9.73,107.58,0,96.17,0,84.75v17c0,11.42,9.73,22.83,29.19,34.07,38.93,22.47,79.1,22.47,118,0,19.46-11.24,29.19-22.65,29.19-34.07v-17C176.4,96.17,166.67,107.58,147.21,118.82Z"/><path class="cls-39" d="M147.21,50.68c-38.92-22.47-79.09-22.47-118,0h0C9.73,61.92,0,73.33,0,84.75s9.73,22.83,29.19,34.07c38.93,22.47,79.1,22.47,118,0,19.46-11.24,29.19-22.65,29.19-34.07S166.67,61.92,147.21,50.68Z"/><g class="cls-40"><g class="cls-3"><path class="cls-4" d="M186.28,35.51c.5-.38,1-.75,1.45-1.14,3.4-3,5.11-6.45,5.11-9.9h0v-6.4h0c0-4.63-3.05-9.25-9.16-12.77-12.21-7-32-7-44.23,0-6.11,3.53-9.16,8.15-9.16,12.77h0v6.4h0c0,3.91,2.21,7.81,6.57,11.05,3.29,8.58,10.85,12.23,10.85,16.06h0c0,3.64-5.83,6.64-9.48,13.08-5.27,3.41-7.94,7.69-7.94,12h0v6.4h0c0,4.62,3.05,9.24,9.16,12.76a41.84,41.84,0,0,0,16.14,5,53.88,53.88,0,0,0,6,.33c8,0,16-1.76,22.12-5.29a23.1,23.1,0,0,0,5.58-4.37,12.46,12.46,0,0,0,3.58-8.4h0V76.64h0c0-4.29-2.67-8.57-7.94-12-3.64-6.53-9.48-9.73-9.48-13.08h0C175.42,47.41,183,44.06,186.28,35.51Z"/><path class="cls-41" d="M184.06,35.51c.5-.38,1-.75,1.44-1.14,3.41-3,5.12-6.45,5.12-9.9h0v-6.4h0c0-4.63-3.05-9.25-9.16-12.77-12.22-7-32-7-44.23,0-6.11,3.53-9.16,8.15-9.16,12.77h0v6.4h0c0,3.91,2.2,7.81,6.57,11.05,3.28,8.58,10.85,12.23,10.85,16.06h0c0,3.64-5.84,6.64-9.48,13.08-5.27,3.41-7.94,7.69-7.94,12h0v6.4h0c0,4.62,3.05,9.24,9.16,12.76a41.79,41.79,0,0,0,16.14,5,53.88,53.88,0,0,0,6,.33c8,0,16-1.76,22.12-5.29A23.1,23.1,0,0,0,187,91.45a12.46,12.46,0,0,0,3.58-8.4h0V76.64h0c0-4.29-2.67-8.57-7.94-12-3.65-6.53-9.48-9.73-9.48-13.08h0C173.2,47.41,180.79,44.06,184.06,35.51Z"/><path class="cls-42" d="M181.84,35.51c.5-.38,1-.75,1.44-1.14,3.41-3,5.12-6.45,5.12-9.9h0v-6.4h0c0-4.63-3.06-9.25-9.16-12.77-12.22-7-32-7-44.24,0-6.1,3.53-9.16,8.15-9.16,12.77h0v6.4h0c0,3.91,2.21,7.81,6.58,11.05,3.28,8.58,10.84,12.23,10.84,16.06h0c0,3.64-5.83,6.64-9.48,13.08-5.27,3.41-7.94,7.69-7.94,12h0v6.4h0c0,4.62,3.06,9.24,9.16,12.76a41.84,41.84,0,0,0,16.14,5,54.2,54.2,0,0,0,6,.33c8,0,16-1.76,22.11-5.29a23.16,23.16,0,0,0,5.59-4.37,12.5,12.5,0,0,0,3.58-8.4h0V76.64h0c0-4.29-2.67-8.57-7.94-12-3.65-6.53-9.48-9.73-9.48-13.08h0C171,47.41,178.56,44.06,181.84,35.51Z"/><path class="cls-43" d="M179.61,35.51c.51-.38,1-.75,1.45-1.14,3.41-3,5.11-6.45,5.11-9.9h0v-6.4h0c0-4.63-3-9.25-9.16-12.77-12.21-7-32-7-44.23,0-6.11,3.53-9.16,8.15-9.16,12.77h0v6.4h0c0,3.91,2.21,7.81,6.57,11.05C133.48,44.1,141,47.75,141,51.58h0c0,3.64-5.83,6.64-9.48,13.08-5.27,3.41-7.94,7.69-7.94,12h0v6.4h0c0,4.62,3,9.24,9.16,12.76a41.84,41.84,0,0,0,16.14,5,53.93,53.93,0,0,0,6,.33c8,0,16-1.76,22.11-5.29a23.1,23.1,0,0,0,5.58-4.37,12.46,12.46,0,0,0,3.58-8.4h0V76.64h0c0-4.29-2.67-8.57-7.93-12-3.65-6.53-9.49-9.73-9.49-13.08h0C168.75,47.41,176.34,44.06,179.61,35.51Z"/><path class="cls-44" d="M177.39,35.51c.5-.38,1-.75,1.44-1.14,3.41-3,5.12-6.45,5.12-9.9h0v-6.4h0c0-4.63-3-9.25-9.16-12.77-12.21-7-32-7-44.23,0-6.11,3.53-9.16,8.15-9.16,12.77h0v6.4h0c0,3.91,2.2,7.81,6.57,11.05,3.28,8.58,10.85,12.23,10.85,16.06h0c0,3.64-5.83,6.64-9.48,13.08-5.27,3.41-7.94,7.69-7.94,12h0v6.4h0c0,4.62,3,9.24,9.16,12.76a41.79,41.79,0,0,0,16.14,5,53.88,53.88,0,0,0,6,.33c8,0,16-1.76,22.12-5.29a23.1,23.1,0,0,0,5.58-4.37,12.46,12.46,0,0,0,3.58-8.4h0V76.64h0c0-4.29-2.67-8.57-7.94-12-3.65-6.53-9.48-9.73-9.48-13.08h0C166.53,47.41,174.12,44.06,177.39,35.51Z"/><path class="cls-45" d="M175.17,35.51c.5-.38,1-.75,1.44-1.14,3.41-3,5.12-6.45,5.12-9.9h0v-6.4h0c0-4.63-3.06-9.25-9.16-12.77-12.22-7-32-7-44.24,0-6.1,3.53-9.16,8.15-9.16,12.77h0v6.4h0c0,3.91,2.21,7.81,6.58,11.05,3.28,8.58,10.84,12.23,10.84,16.06h0c0,3.64-5.83,6.64-9.48,13.08-5.27,3.41-7.94,7.69-7.94,12h0v6.4h0c0,4.62,3.06,9.24,9.16,12.76a41.83,41.83,0,0,0,16.15,5,53.88,53.88,0,0,0,6,.33c8,0,16-1.76,22.12-5.29a23.1,23.1,0,0,0,5.58-4.37,12.5,12.5,0,0,0,3.58-8.4h0V76.64h0c0-4.29-2.67-8.57-7.94-12-3.65-6.53-9.48-9.73-9.48-13.08h0C164.31,47.41,171.89,44.06,175.17,35.51Z"/><path class="cls-46" d="M172.94,35.51c.51-.38,1-.75,1.45-1.14,3.41-3,5.11-6.45,5.11-9.9h0v-6.4h0c0-4.63-3.05-9.25-9.16-12.77-12.21-7-32-7-44.23,0C120,8.82,117,13.44,117,18.06h0v6.4h0c0,3.91,2.21,7.81,6.57,11.05,3.29,8.58,10.85,12.23,10.85,16.06h0c0,3.64-5.83,6.64-9.48,13.08-5.27,3.41-7.94,7.69-7.94,12h0v6.4h0c0,4.62,3,9.24,9.16,12.76a41.84,41.84,0,0,0,16.14,5,53.93,53.93,0,0,0,6,.33c8,0,16-1.76,22.11-5.29a23.1,23.1,0,0,0,5.58-4.37,12.46,12.46,0,0,0,3.58-8.4h0V76.64h0c0-4.29-2.67-8.57-7.93-12-3.65-6.53-9.49-9.73-9.49-13.08h0C162.08,47.41,169.67,44.06,172.94,35.51Z"/><path class="cls-47" d="M170.72,35.51c.5-.38,1-.75,1.44-1.14,3.41-3,5.12-6.45,5.12-9.9h0v-6.4h0c0-4.63-3.05-9.25-9.16-12.77-12.21-7-32-7-44.23,0-6.11,3.53-9.16,8.15-9.16,12.77h0v6.4h0c0,3.91,2.21,7.81,6.57,11.05,3.28,8.58,10.85,12.23,10.85,16.06h0c0,3.64-5.83,6.64-9.48,13.08-5.27,3.41-7.94,7.69-7.94,12h0v6.4h0c0,4.62,3,9.24,9.16,12.76a41.79,41.79,0,0,0,16.14,5,53.88,53.88,0,0,0,6,.33c8,0,16-1.76,22.12-5.29a23.1,23.1,0,0,0,5.58-4.37,12.46,12.46,0,0,0,3.58-8.4h0V76.64h0c0-4.29-2.67-8.57-7.94-12-3.65-6.53-9.48-9.73-9.48-13.08h0C159.86,47.41,167.45,44.06,170.72,35.51Z"/><path class="cls-48" d="M168.5,35.51c.5-.38,1-.75,1.44-1.14,3.41-3,5.12-6.45,5.12-9.9h0v-6.4h0c0-4.63-3.06-9.25-9.16-12.77-12.22-7-32-7-44.23,0-6.11,3.53-9.17,8.15-9.17,12.77h0v6.4h0c0,3.91,2.21,7.81,6.58,11.05,3.28,8.58,10.84,12.23,10.84,16.06h0c0,3.64-5.83,6.64-9.48,13.08-5.27,3.41-7.94,7.69-7.94,12h0v6.4h0c0,4.62,3.06,9.24,9.16,12.76a41.83,41.83,0,0,0,16.15,5,53.88,53.88,0,0,0,6,.33c8,0,16-1.76,22.12-5.29a23.1,23.1,0,0,0,5.58-4.37,12.5,12.5,0,0,0,3.58-8.4h0V76.64h0c0-4.29-2.67-8.57-7.94-12-3.65-6.53-9.48-9.73-9.48-13.08h0C157.64,47.41,165.22,44.06,168.5,35.51Z"/><path class="cls-49" d="M166.27,35.51c.51-.38,1-.75,1.45-1.14,3.41-3,5.11-6.45,5.11-9.9h0v-6.4h0c0-4.63-3.05-9.25-9.16-12.77-12.21-7-32-7-44.23,0-6.11,3.53-9.16,8.15-9.16,12.77h0v6.4h0c0,3.91,2.21,7.81,6.58,11.05,3.28,8.58,10.84,12.23,10.84,16.06h0c0,3.64-5.83,6.64-9.48,13.08-5.27,3.41-7.94,7.69-7.94,12h0v6.4h0c0,4.62,3,9.24,9.16,12.76a41.84,41.84,0,0,0,16.14,5,54.06,54.06,0,0,0,6,.33c8,0,16-1.76,22.11-5.29a23.36,23.36,0,0,0,5.59-4.37,12.49,12.49,0,0,0,3.57-8.4h0V76.64h0c0-4.29-2.67-8.57-7.93-12-3.65-6.53-9.49-9.73-9.49-13.08h0C155.41,47.41,163,44.06,166.27,35.51Z"/><path class="cls-50" d="M164.05,35.51c.5-.38,1-.75,1.44-1.14,3.41-3,5.12-6.45,5.12-9.9h0v-6.4h0c0-4.63-3.05-9.25-9.16-12.77-12.21-7-32-7-44.23,0-6.11,3.53-9.16,8.15-9.16,12.77h0v6.4h0c0,3.91,2.21,7.81,6.57,11.05,3.28,8.58,10.85,12.23,10.85,16.06h0c0,3.64-5.83,6.64-9.48,13.08-5.27,3.41-7.94,7.69-7.94,12h0v6.4h0c0,4.62,3,9.24,9.16,12.76a41.84,41.84,0,0,0,16.14,5,53.88,53.88,0,0,0,6,.33c8,0,16-1.76,22.12-5.29A23.1,23.1,0,0,0,167,91.45a12.46,12.46,0,0,0,3.58-8.4h0V76.64h0c0-4.29-2.67-8.57-7.94-12-3.65-6.53-9.48-9.73-9.48-13.08h0C153.19,47.41,160.78,44.06,164.05,35.51Z"/><path class="cls-51" d="M161.83,35.51c.5-.38,1-.75,1.44-1.14,3.41-3,5.12-6.45,5.12-9.9h0v-6.4h0c0-4.63-3.06-9.25-9.16-12.77-12.22-7-32-7-44.23,0-6.11,3.53-9.17,8.15-9.17,12.77h0v6.4h0c0,3.91,2.21,7.81,6.58,11.05,3.28,8.58,10.84,12.23,10.84,16.06h0c0,3.64-5.83,6.64-9.48,13.08-5.27,3.41-7.94,7.69-7.94,12h0v6.4h0c0,4.62,3.06,9.24,9.16,12.76a41.83,41.83,0,0,0,16.15,5,53.88,53.88,0,0,0,6,.33c8,0,16-1.76,22.12-5.29a23.1,23.1,0,0,0,5.58-4.37,12.5,12.5,0,0,0,3.58-8.4h0V76.64h0c0-4.29-2.67-8.57-7.94-12C156.8,58.13,151,54.93,151,51.58h0C151,47.41,158.55,44.06,161.83,35.51Z"/><path class="cls-52" d="M159.61,35.51c.5-.38,1-.75,1.44-1.14,3.41-3,5.11-6.45,5.11-9.9h0v-6.4h0c0-4.63-3-9.25-9.16-12.77-12.21-7-32-7-44.23,0-6.1,3.53-9.16,8.15-9.16,12.77h0v6.4h0c0,3.91,2.21,7.81,6.58,11.05C113.47,44.1,121,47.75,121,51.58h0c0,3.64-5.83,6.64-9.48,13.08-5.27,3.41-7.94,7.69-7.94,12h0v6.4h0c0,4.62,3,9.24,9.16,12.76a41.84,41.84,0,0,0,16.14,5,54.2,54.2,0,0,0,6,.33c8,0,16-1.76,22.11-5.29a23.36,23.36,0,0,0,5.59-4.37,12.49,12.49,0,0,0,3.57-8.4h0V76.64h0c0-4.29-2.66-8.57-7.93-12-3.65-6.53-9.49-9.73-9.49-13.08h0C148.74,47.41,156.33,44.06,159.61,35.51Z"/><path class="cls-53" d="M157.38,35.51c.5-.38,1-.75,1.45-1.14,3.4-3,5.11-6.45,5.11-9.9h0v-6.4h0c0-4.63-3.05-9.25-9.16-12.77-12.21-7-32-7-44.23,0-6.11,3.53-9.16,8.15-9.16,12.77h0v6.4h0c0,3.91,2.21,7.81,6.57,11.05,3.28,8.58,10.85,12.23,10.85,16.06h0c0,3.64-5.83,6.64-9.48,13.08-5.27,3.41-7.94,7.69-7.94,12h0v6.4h0c0,4.62,3,9.24,9.16,12.76a41.84,41.84,0,0,0,16.14,5,53.88,53.88,0,0,0,6,.33c8,0,16-1.76,22.12-5.29a23.1,23.1,0,0,0,5.58-4.37,12.46,12.46,0,0,0,3.58-8.4h0V76.64h0c0-4.29-2.67-8.57-7.94-12-3.65-6.53-9.48-9.73-9.48-13.08h0C146.52,47.41,154.11,44.06,157.38,35.51Z"/><path class="cls-54" d="M155.16,35.51c.5-.38,1-.75,1.44-1.14,3.41-3,5.12-6.45,5.12-9.9h0v-6.4h0c0-4.63-3.05-9.25-9.16-12.77-12.22-7-32-7-44.23,0-6.11,3.53-9.16,8.15-9.16,12.77h0v6.4h0c0,3.91,2.21,7.81,6.58,11.05,3.28,8.58,10.85,12.23,10.85,16.06h0c0,3.64-5.84,6.64-9.48,13.08-5.27,3.41-7.94,7.69-7.94,12h0v6.4h0c0,4.62,3.06,9.24,9.16,12.76a41.83,41.83,0,0,0,16.15,5,53.88,53.88,0,0,0,6,.33c8,0,16-1.76,22.12-5.29a23.1,23.1,0,0,0,5.58-4.37,12.46,12.46,0,0,0,3.58-8.4h0V76.64h0c0-4.29-2.67-8.57-7.94-12-3.65-6.53-9.48-9.73-9.48-13.08h0C144.3,47.41,151.89,44.06,155.16,35.51Z"/><path class="cls-55" d="M152.94,35.51c.5-.38,1-.75,1.44-1.14,3.41-3,5.12-6.45,5.12-9.9h0v-6.4h0c0-4.63-3.05-9.25-9.15-12.77-12.22-7-32-7-44.24,0-6.1,3.53-9.16,8.15-9.16,12.77h0v6.4h0c0,3.91,2.21,7.81,6.58,11.05,3.28,8.58,10.84,12.23,10.84,16.06h0c0,3.64-5.83,6.64-9.48,13.08-5.27,3.41-7.94,7.69-7.94,12h0v6.4h0c0,4.62,3,9.24,9.16,12.76a41.84,41.84,0,0,0,16.14,5,54.2,54.2,0,0,0,6,.33c8,0,16-1.76,22.11-5.29a23.16,23.16,0,0,0,5.59-4.37,12.5,12.5,0,0,0,3.58-8.4h0V76.64h0c0-4.29-2.66-8.57-7.93-12-3.65-6.53-9.49-9.73-9.49-13.08h0C142.07,47.41,149.66,44.06,152.94,35.51Z"/><path class="cls-56" d="M150.71,35.51c.5-.38,1-.75,1.45-1.14,3.4-3,5.11-6.45,5.11-9.9h0v-6.4h0c0-4.63-3.05-9.25-9.16-12.77-12.21-7-32-7-44.23,0-6.11,3.53-9.16,8.15-9.16,12.77h0v6.4h0c0,3.91,2.21,7.81,6.57,11.05,3.29,8.58,10.85,12.23,10.85,16.06h0c0,3.64-5.83,6.64-9.48,13.08-5.27,3.41-7.94,7.69-7.94,12h0v6.4h0c0,4.62,3,9.24,9.16,12.76a41.84,41.84,0,0,0,16.14,5,53.88,53.88,0,0,0,6,.33c8,0,16-1.76,22.12-5.29a23.1,23.1,0,0,0,5.58-4.37,12.46,12.46,0,0,0,3.58-8.4h0V76.64h0c0-4.29-2.67-8.57-7.94-12-3.64-6.53-9.48-9.73-9.48-13.08h0C139.85,47.41,147.44,44.06,150.71,35.51Z"/><path class="cls-57" d="M148.49,35.51c.5-.38,1-.75,1.44-1.14,3.41-3,5.12-6.45,5.12-9.9h0v-6.4h0c0-4.63-3.05-9.25-9.16-12.77-12.22-7-32-7-44.23,0-6.11,3.53-9.16,8.15-9.16,12.77h0v6.4h0c0,3.91,2.2,7.81,6.57,11.05,3.28,8.58,10.85,12.23,10.85,16.06h0c0,3.64-5.84,6.64-9.48,13.08-5.27,3.41-7.94,7.69-7.94,12h0v6.4h0c0,4.62,3,9.24,9.15,12.76a41.89,41.89,0,0,0,16.15,5,53.88,53.88,0,0,0,6,.33c8,0,16-1.76,22.12-5.29a23.1,23.1,0,0,0,5.58-4.37,12.46,12.46,0,0,0,3.58-8.4h0V76.64h0c0-4.29-2.67-8.57-7.94-12-3.65-6.53-9.48-9.73-9.48-13.08h0C137.63,47.41,145.22,44.06,148.49,35.51Z"/><path class="cls-58" d="M146.27,35.51c.5-.38,1-.75,1.44-1.14,3.41-3,5.12-6.45,5.12-9.9h0v-6.4h0c0-4.63-3.06-9.25-9.16-12.77-12.22-7-32-7-44.24,0-6.1,3.53-9.16,8.15-9.16,12.77h0v6.4h0c0,3.91,2.21,7.81,6.58,11.05,3.28,8.58,10.84,12.23,10.84,16.06h0c0,3.64-5.83,6.64-9.48,13.08-5.27,3.41-7.94,7.69-7.94,12h0v6.4h0c0,4.62,3.06,9.24,9.16,12.76a41.84,41.84,0,0,0,16.14,5,54.2,54.2,0,0,0,6,.33c8,0,16-1.76,22.11-5.29a23.16,23.16,0,0,0,5.59-4.37,12.5,12.5,0,0,0,3.58-8.4h0V76.64h0c0-4.29-2.67-8.57-7.94-12-3.65-6.53-9.48-9.73-9.48-13.08h0C135.41,47.41,143,44.06,146.27,35.51Z"/><path class="cls-59" d="M144,35.51c.51-.38,1-.75,1.45-1.14,3.41-3,5.11-6.45,5.11-9.9h0v-6.4h0c0-4.63-3-9.25-9.16-12.77-12.21-7-32-7-44.23,0-6.11,3.53-9.16,8.15-9.16,12.77h0v6.4h0c0,3.91,2.21,7.81,6.57,11.05,3.29,8.58,10.85,12.23,10.85,16.06h0c0,3.64-5.83,6.64-9.48,13.08-5.27,3.41-7.94,7.69-7.94,12h0v6.4h0c0,4.62,3,9.24,9.16,12.76a41.84,41.84,0,0,0,16.14,5,53.93,53.93,0,0,0,6,.33c8,0,16-1.76,22.11-5.29A23.1,23.1,0,0,0,147,91.45a12.46,12.46,0,0,0,3.58-8.4h0V76.64h0c0-4.29-2.67-8.57-7.94-12-3.64-6.53-9.48-9.73-9.48-13.08h0C133.18,47.41,140.77,44.06,144,35.51Z"/><path class="cls-60" d="M141.82,35.51c.5-.38,1-.75,1.44-1.14,3.41-3,5.12-6.45,5.12-9.9h0v-6.4h0c0-4.63-3-9.25-9.16-12.77-12.21-7-32-7-44.23,0-6.11,3.53-9.16,8.15-9.16,12.77h0v6.4h0c0,3.91,2.2,7.81,6.57,11.05,3.28,8.58,10.85,12.23,10.85,16.06h0c0,3.64-5.83,6.64-9.48,13.08-5.27,3.41-7.94,7.69-7.94,12h0v6.4h0c0,4.62,3,9.24,9.16,12.76a41.79,41.79,0,0,0,16.14,5,53.88,53.88,0,0,0,6,.33c8,0,16-1.76,22.12-5.29a23.1,23.1,0,0,0,5.58-4.37,12.46,12.46,0,0,0,3.58-8.4h0V76.64h0c0-4.29-2.67-8.57-7.94-12-3.65-6.53-9.48-9.73-9.48-13.08h0C131,47.41,138.55,44.06,141.82,35.51Z"/><path class="cls-61" d="M139.6,35.51c.5-.38,1-.75,1.44-1.14,3.41-3,5.12-6.45,5.12-9.9h0v-6.4h0c0-4.63-3.06-9.25-9.16-12.77-12.22-7-32-7-44.24,0-6.1,3.53-9.16,8.15-9.16,12.77h0v6.4h0c0,3.91,2.21,7.81,6.58,11.05C93.46,44.1,101,47.75,101,51.58h0c0,3.64-5.83,6.64-9.48,13.08-5.27,3.41-7.94,7.69-7.94,12h0v6.4h0c0,4.62,3.06,9.24,9.16,12.76a41.83,41.83,0,0,0,16.15,5,53.88,53.88,0,0,0,6,.33c8,0,16-1.76,22.12-5.29a23.1,23.1,0,0,0,5.58-4.37,12.5,12.5,0,0,0,3.58-8.4h0V76.64h0c0-4.29-2.67-8.57-7.94-12-3.65-6.53-9.48-9.73-9.48-13.08h0C128.74,47.41,136.32,44.06,139.6,35.51Z"/><path class="cls-62" d="M137.37,35.51c.51-.38,1-.75,1.45-1.14,3.41-3,5.11-6.45,5.11-9.9h0v-6.4h0c0-4.63-3.05-9.25-9.16-12.77-12.21-7-32-7-44.23,0-6.11,3.53-9.16,8.15-9.16,12.77h0v6.4h0c0,3.91,2.21,7.81,6.57,11.05C91.24,44.1,98.8,47.75,98.8,51.58h0c0,3.64-5.83,6.64-9.48,13.08-5.27,3.41-7.94,7.69-7.94,12h0v6.4h0c0,4.62,3.05,9.24,9.16,12.76a41.84,41.84,0,0,0,16.14,5,53.93,53.93,0,0,0,6,.33c8,0,16-1.76,22.11-5.29a23.1,23.1,0,0,0,5.58-4.37,12.46,12.46,0,0,0,3.58-8.4h0V76.64h0c0-4.29-2.67-8.57-7.93-12-3.65-6.53-9.49-9.73-9.49-13.08h0C126.51,47.41,134.1,44.06,137.37,35.51Z"/><path class="cls-63" d="M135.15,35.51c.5-.38,1-.75,1.44-1.14,3.41-3,5.12-6.45,5.12-9.9h0v-6.4h0c0-4.63-3.05-9.25-9.16-12.77-12.21-7-32-7-44.23,0-6.11,3.53-9.16,8.15-9.16,12.77h0v6.4h0c0,3.91,2.21,7.81,6.57,11.05C89,44.1,96.58,47.75,96.58,51.58h0c0,3.64-5.83,6.64-9.48,13.08-5.27,3.41-7.94,7.69-7.94,12h0v6.4h0c0,4.62,3,9.24,9.16,12.76a41.79,41.79,0,0,0,16.14,5,53.88,53.88,0,0,0,6,.33c8,0,16-1.76,22.12-5.29a23.1,23.1,0,0,0,5.58-4.37,12.46,12.46,0,0,0,3.58-8.4h0V76.64h0c0-4.29-2.67-8.57-7.94-12-3.65-6.53-9.48-9.73-9.48-13.08h0C124.29,47.41,131.88,44.06,135.15,35.51Z"/><path class="cls-64" d="M132.93,35.51c.5-.38,1-.75,1.44-1.14,3.41-3,5.12-6.45,5.12-9.9h0v-6.4h0c0-4.63-3.06-9.25-9.16-12.77-12.22-7-32-7-44.24,0-6.1,3.53-9.16,8.15-9.16,12.77h0v6.4h0c0,3.91,2.21,7.81,6.58,11.05,3.28,8.58,10.84,12.23,10.84,16.06h0c0,3.64-5.83,6.64-9.48,13.08-5.27,3.41-7.94,7.69-7.94,12h0v6.4h0c0,4.62,3.06,9.24,9.16,12.76a41.83,41.83,0,0,0,16.15,5,53.88,53.88,0,0,0,6,.33c8,0,16-1.76,22.12-5.29a23.1,23.1,0,0,0,5.58-4.37,12.5,12.5,0,0,0,3.58-8.4h0V76.64h0c0-4.29-2.67-8.57-7.94-12-3.65-6.53-9.48-9.73-9.48-13.08h0C122.07,47.41,129.65,44.06,132.93,35.51Z"/><path class="cls-65" d="M130.7,35.51c.51-.38,1-.75,1.45-1.14,3.41-3,5.11-6.45,5.11-9.9h0v-6.4h0c0-4.63-3-9.25-9.16-12.77-12.21-7-32-7-44.23,0-6.11,3.53-9.16,8.15-9.16,12.77h0v6.4h0c0,3.91,2.21,7.81,6.58,11.05,3.28,8.58,10.84,12.23,10.84,16.06h0c0,3.64-5.83,6.64-9.48,13.08-5.27,3.41-7.94,7.69-7.94,12h0v6.4h0c0,4.62,3.05,9.24,9.16,12.76a41.84,41.84,0,0,0,16.14,5,54.06,54.06,0,0,0,6,.33c8,0,16-1.76,22.11-5.29a23.36,23.36,0,0,0,5.59-4.37,12.49,12.49,0,0,0,3.57-8.4h0V76.64h0c0-4.29-2.67-8.57-7.93-12-3.65-6.53-9.49-9.73-9.49-13.08h0C119.84,47.41,127.43,44.06,130.7,35.51Z"/><path class="cls-66" d="M128.48,35.51c.5-.38,1-.75,1.44-1.14,3.41-3,5.12-6.45,5.12-9.9h0v-6.4h0c0-4.63-3-9.25-9.16-12.77-12.21-7-32-7-44.23,0-6.11,3.53-9.16,8.15-9.16,12.77h0v6.4h0c0,3.91,2.21,7.81,6.57,11.05,3.28,8.58,10.85,12.23,10.85,16.06h0c0,3.64-5.83,6.64-9.48,13.08-5.27,3.41-7.94,7.69-7.94,12h0v6.4h0c0,4.62,3.05,9.24,9.16,12.76a41.84,41.84,0,0,0,16.14,5,53.88,53.88,0,0,0,6,.33c8,0,16-1.76,22.12-5.29a23.1,23.1,0,0,0,5.58-4.37,12.46,12.46,0,0,0,3.58-8.4h0V76.64h0c0-4.29-2.67-8.57-7.94-12-3.65-6.53-9.48-9.73-9.48-13.08h0C117.62,47.41,125.21,44.06,128.48,35.51Z"/><path class="cls-67" d="M126.26,35.51c.5-.38,1-.75,1.44-1.14,3.41-3,5.12-6.45,5.12-9.9h0v-6.4h0c0-4.63-3.06-9.25-9.16-12.77-12.22-7-32-7-44.23,0-6.11,3.53-9.17,8.15-9.17,12.77h0v6.4h0c0,3.91,2.21,7.81,6.58,11.05,3.28,8.58,10.84,12.23,10.84,16.06h0c0,3.64-5.83,6.64-9.48,13.08-5.27,3.41-7.94,7.69-7.94,12h0v6.4h0c0,4.62,3.06,9.24,9.16,12.76a41.83,41.83,0,0,0,16.15,5,53.88,53.88,0,0,0,6,.33c8,0,16-1.76,22.12-5.29a23.1,23.1,0,0,0,5.58-4.37,12.5,12.5,0,0,0,3.58-8.4h0V76.64h0c0-4.29-2.67-8.57-7.94-12-3.65-6.53-9.48-9.73-9.48-13.08h0C115.4,47.41,123,44.06,126.26,35.51Z"/><path class="cls-68" d="M124,35.51c.5-.38,1-.75,1.44-1.14,3.41-3,5.11-6.45,5.11-9.9h0v-6.4h0c0-4.63-3-9.25-9.16-12.77-12.21-7-32-7-44.23,0C71.1,8.82,68,13.44,68,18.06h0v6.4h0c0,3.91,2.21,7.81,6.58,11.05C77.9,44.1,85.46,47.75,85.46,51.58h0c0,3.64-5.83,6.64-9.48,13.08-5.27,3.41-7.94,7.69-7.94,12h0v6.4h0c0,4.62,3,9.24,9.16,12.76a41.84,41.84,0,0,0,16.14,5,54.06,54.06,0,0,0,6,.33c8,0,16-1.76,22.11-5.29A23.36,23.36,0,0,0,127,91.45a12.49,12.49,0,0,0,3.57-8.4h0V76.64h0c0-4.29-2.66-8.57-7.93-12-3.65-6.53-9.49-9.73-9.49-13.08h0C113.17,47.41,120.76,44.06,124,35.51Z"/><path class="cls-69" d="M121.81,35.51c.5-.38,1-.75,1.45-1.14,3.4-3,5.11-6.45,5.11-9.9h0v-6.4h0c0-4.63-3.05-9.25-9.16-12.77-12.21-7-32-7-44.23,0-6.11,3.53-9.16,8.15-9.16,12.77h0v6.4h0c0,3.91,2.21,7.81,6.57,11.05,3.28,8.58,10.85,12.23,10.85,16.06h0c0,3.64-5.83,6.64-9.48,13.08-5.27,3.41-7.94,7.69-7.94,12h0v6.4h0c0,4.62,3.05,9.24,9.16,12.76a41.84,41.84,0,0,0,16.14,5,53.88,53.88,0,0,0,6,.33c8,0,16-1.76,22.12-5.29a23.1,23.1,0,0,0,5.58-4.37,12.46,12.46,0,0,0,3.58-8.4h0V76.64h0c0-4.29-2.67-8.57-7.94-12-3.65-6.53-9.48-9.73-9.48-13.08h0C111,47.41,118.54,44.06,121.81,35.51Z"/><path class="cls-70" d="M119.59,35.51c.5-.38,1-.75,1.44-1.14,3.41-3,5.12-6.45,5.12-9.9h0v-6.4h0c0-4.63-3.05-9.25-9.16-12.77-12.22-7-32-7-44.23,0-6.11,3.53-9.16,8.15-9.16,12.77h0v6.4h0c0,3.91,2.21,7.81,6.58,11.05C73.45,44.1,81,47.75,81,51.58h0c0,3.64-5.84,6.64-9.49,13.08-5.26,3.41-7.93,7.69-7.93,12h0v6.4h0c0,4.62,3.06,9.24,9.16,12.76a41.83,41.83,0,0,0,16.15,5,53.88,53.88,0,0,0,6,.33c8,0,16-1.76,22.12-5.29a23.1,23.1,0,0,0,5.58-4.37,12.46,12.46,0,0,0,3.58-8.4h0V76.64h0c0-4.29-2.67-8.57-7.94-12-3.65-6.53-9.48-9.73-9.48-13.08h0C108.73,47.41,116.32,44.06,119.59,35.51Z"/><path class="cls-71" d="M117.37,35.51c.5-.38,1-.75,1.44-1.14,3.41-3,5.12-6.45,5.12-9.9h0v-6.4h0c0-4.63-3-9.25-9.15-12.77-12.22-7-32-7-44.24,0-6.1,3.53-9.16,8.15-9.16,12.77h0v6.4h0c0,3.91,2.21,7.81,6.58,11.05,3.28,8.58,10.84,12.23,10.84,16.06h0c0,3.64-5.83,6.64-9.48,13.08-5.27,3.41-7.94,7.69-7.94,12h0v6.4h0c0,4.62,3.05,9.24,9.16,12.76a41.84,41.84,0,0,0,16.14,5,54.2,54.2,0,0,0,6,.33c8,0,16-1.76,22.11-5.29a23.36,23.36,0,0,0,5.59-4.37,12.5,12.5,0,0,0,3.58-8.4h0V76.64h0c0-4.29-2.66-8.57-7.93-12-3.65-6.53-9.49-9.73-9.49-13.08h0C106.5,47.41,114.09,44.06,117.37,35.51Z"/><path class="cls-72" d="M115.14,35.51c.5-.38,1-.75,1.45-1.14,3.4-3,5.11-6.45,5.11-9.9h0v-6.4h0c0-4.63-3-9.25-9.16-12.77-12.21-7-32-7-44.23,0-6.11,3.53-9.16,8.15-9.16,12.77h0v6.4h0c0,3.91,2.21,7.81,6.57,11.05C69,44.1,76.57,47.75,76.57,51.58h0c0,3.64-5.83,6.64-9.48,13.08-5.27,3.41-7.94,7.69-7.94,12h0v6.4h0c0,4.62,3.05,9.24,9.16,12.76a41.84,41.84,0,0,0,16.14,5,53.88,53.88,0,0,0,6,.33c8,0,16-1.76,22.12-5.29a23.1,23.1,0,0,0,5.58-4.37,12.46,12.46,0,0,0,3.58-8.4h0V76.64h0c0-4.29-2.67-8.57-7.94-12-3.64-6.53-9.48-9.73-9.48-13.08h0C104.28,47.41,111.87,44.06,115.14,35.51Z"/><path class="cls-73" d="M112.92,35.51c.5-.38,1-.75,1.44-1.14,3.41-3,5.12-6.45,5.12-9.9h0v-6.4h0c0-4.63-3-9.25-9.16-12.77-12.22-7-32-7-44.23,0C60,8.82,56.93,13.44,56.93,18.06h0v6.4h0c0,3.91,2.2,7.81,6.57,11.05,3.28,8.58,10.85,12.23,10.85,16.06h0c0,3.64-5.84,6.64-9.48,13.08-5.27,3.41-7.94,7.69-7.94,12h0v6.4h0c0,4.62,3,9.24,9.15,12.76a41.89,41.89,0,0,0,16.15,5,53.88,53.88,0,0,0,6,.33c8,0,16-1.76,22.12-5.29a23.1,23.1,0,0,0,5.58-4.37,12.46,12.46,0,0,0,3.58-8.4h0V76.64h0c0-4.29-2.67-8.57-7.94-12-3.65-6.53-9.48-9.73-9.48-13.08h0C102.06,47.41,109.65,44.06,112.92,35.51Z"/></g></g><path class="cls-74" d="M110.32,70.29c-12.21-7.06-32-7.06-44.23,0-6.11,3.52-9.16,8.14-9.16,12.76h0c0,4.62,3,9.24,9.15,12.76,12.22,7.06,32,7.05,44.24,0,6.11-3.52,9.16-8.14,9.16-12.77h0C119.48,78.43,116.43,73.81,110.32,70.29Z"/><path class="cls-75" d="M110.32,89.41c-12.22,7-32,7.06-44.23,0-6.11-3.52-9.16-8.14-9.16-12.76v6.41c0,4.62,3,9.24,9.16,12.76,12.21,7.06,32,7.05,44.23,0,6.1-3.52,9.16-8.14,9.16-12.76V76.64C119.48,81.27,116.42,85.89,110.32,89.41Z"/><path class="cls-76" d="M110.32,63.88c-12.22-7.06-32-7.05-44.23,0C60,67.4,56.93,72,56.93,76.64h0c0,4.62,3,9.24,9.16,12.76,12.21,7.06,32,7,44.23,0,6.1-3.52,9.16-8.14,9.16-12.77h0C119.48,72,116.43,67.4,110.32,63.88Z"/><path class="cls-77" d="M106.73,16.49c-10.23-5.91-26.82-5.9-37.06,0-5.12,3-7.67,6.83-7.67,10.7h0c0,3.88,2.55,7.75,7.67,10.7,10.23,5.91,26.83,5.91,37.06,0,5.12-3,7.68-6.83,7.68-10.7h0C114.41,23.32,111.85,19.45,106.73,16.49Z"/><path class="cls-78" d="M106.73,65.26c-10.23-5.91-26.82-5.91-37.06,0C64.55,68.21,62,72.09,62,76h0c0,3.87,2.55,7.74,7.67,10.7,10.23,5.91,26.83,5.91,37.06,0,5.12-3,7.68-6.83,7.68-10.7h0C114.41,72.09,111.85,68.21,106.73,65.26Z"/><path class="cls-79" d="M88.2,42.32C73.73,42.32,62,35.55,62,27.19c0,15,12.35,19.51,12.35,24.39h27.71c0-5.3,12.35-9.25,12.35-24.38C114.41,35.55,102.68,42.32,88.2,42.32Z"/><path class="cls-80" d="M88.2,60.83c14.48,0,26.21,6.77,26.21,15.13,0-14.95-12.35-19.51-12.35-24.38H74.35C74.35,56.88,62,60.83,62,76,62,67.6,73.73,60.83,88.2,60.83Z"/><path class="cls-81" d="M66.09,63.88c-.44.25-.82.52-1.22.78A22.21,22.21,0,0,0,62,76c0-8.36,11.73-15.13,26.2-15.13S114.41,67.6,114.41,76a22.56,22.56,0,0,0-2.87-11.3c-.4-.27-.79-.53-1.22-.78C98.1,56.82,78.3,56.82,66.09,63.88Z"/><path class="cls-82" d="M95.41,58c-7.75-4.47-6.67-4.47-14.41,0C77.13,60.28,68.37,71,68.37,74h0c0,2.93,1.94,5.86,5.81,8.09,7.74,4.47,20.3,4.47,28,0C106.1,79.82,108,76.89,108,74h0C108,71,99.28,60.28,95.41,58Z"/><path class="cls-74" d="M110.32,11.7c-12.21-7-32-7-44.23,0-6.11,3.53-9.16,8.15-9.16,12.77h0c0,4.62,3,9.24,9.15,12.77,12.22,7,32,7,44.24,0,6.11-3.53,9.16-8.15,9.16-12.77h0C119.48,19.84,116.43,15.22,110.32,11.7Z"/><path class="cls-83" d="M110.32,30.83c-12.22,7.05-32,7.05-44.23,0C60,27.3,56.93,22.68,56.93,18.06v6.41c0,4.62,3,9.24,9.16,12.77,12.21,7,32,7,44.23,0,6.1-3.53,9.16-8.15,9.16-12.77V18.06C119.48,22.68,116.42,27.3,110.32,30.83Z"/><path class="cls-76" d="M110.32,5.29c-12.22-7-32-7-44.23,0C60,8.82,56.93,13.44,56.93,18.06h0c0,4.62,3,9.24,9.16,12.77,12.21,7.05,32,7.05,44.23,0,6.1-3.53,9.16-8.15,9.16-12.77h0C119.48,13.43,116.43,8.81,110.32,5.29Z"/></g></g></g></svg>